<?xml version="1.0"?>
<Project_Data Version="8.00">
<Project_Settings>
<ProfileName></ProfileName>
<ProjectWidth>1280</ProjectWidth>
<ProjectHeight>720</ProjectHeight>
<IsCustomProject>1</IsCustomProject>
<SavedProjectSettings>1</SavedProjectSettings>
<LastFlashTemplate>-1</LastFlashTemplate>
</Project_Settings>


<AutoSaveFile>C:\Users\Fangy\AppData\Local\TechSmith\Camtasia Studio\8.0\Auto-Saves\imgformat2411db.autosave.camproj</AutoSaveFile>

<ProjectID>A2F7D431-2B06-4BC5-B252-C14469393672</ProjectID>

<PowerPointProject>0</PowerPointProject>

<PowerPointFilename></PowerPointFilename>


<Project_Notes>
</Project_Notes>

<Project_MetaData>
<Project_MetaData_Object>
<FieldArrayKey>8</FieldArrayKey>
<Value>imgformat</Value>
</Project_MetaData_Object>
<Project_MetaData_Object>
<FieldArrayKey>13</FieldArrayKey>
<Value>2013-06-25 12:33:35 PM</Value>
</Project_MetaData_Object>
<Project_MetaData_Object>
<FieldArrayKey>16</FieldArrayKey>
<Value>ENU</Value>
</Project_MetaData_Object>
</Project_MetaData>

<CSMLData>
<GoProject id="1" version="3.0" >
 <Project id="2" editRate="30/1" version="3.0" >
  <Author></Author>
  <Comment></Comment>
  <System></System>
  <SourceBin id="3"  >
    <Source id="4" src="C:\Users\Fangy\Desktop\IECS\screencasts\Unit 3 Days 6-7 Image Formats and Tags\part1.camrec" lastMod="20131001T191435" rect="(0,0,1024,768)" >
      <SourceTrack range="(0,2594000000)" type="0" editRate="10000000/1" trackRect="(0,0,1024,768)" sampleRate="10000000/333333" bitDepth="24" numChannels="0" filename="part1.camrec!Screen_Stream.avi" metaData="part1.camrec!Events.dat;part1.camrec!manifest.camxml;" />
      <SourceTrack range="(0,2595000000)" type="2" editRate="10000000/1" trackRect="(0,0,0,0)" sampleRate="22050/1" bitDepth="16" numChannels="1" filename="part1.camrec!Screen_Stream.avi" metaData="" />
      <SourceTrack range="(0,2599333333)" type="2" editRate="10000000/1" trackRect="(0,0,0,0)" sampleRate="44100/1" bitDepth="16" numChannels="2" filename="part1.camrec!SysAudio.wav" metaData="" />
    </Source>
    <Source id="5" src="C:\Users\Fangy\Desktop\IECS\screencasts\Unit 3 Days 6-7 Image Formats and Tags\part2.camrec" lastMod="20131001T191438" rect="(0,0,1024,768)" >
      <SourceTrack range="(0,1239000000)" type="0" editRate="10000000/1" trackRect="(0,0,1024,768)" sampleRate="10000000/333333" bitDepth="24" numChannels="0" filename="part2.camrec!Screen_Stream.avi" metaData="part2.camrec!Events.dat;part2.camrec!manifest.camxml;" />
      <SourceTrack range="(0,1240000000)" type="2" editRate="10000000/1" trackRect="(0,0,0,0)" sampleRate="22050/1" bitDepth="16" numChannels="1" filename="part2.camrec!Screen_Stream.avi" metaData="" />
      <SourceTrack range="(0,1242000000)" type="2" editRate="10000000/1" trackRect="(0,0,0,0)" sampleRate="44100/1" bitDepth="16" numChannels="2" filename="part2.camrec!SysAudio.wav" metaData="" />
    </Source>
  </SourceBin>
  <Timeline id="6"  >
   <Attributes>
    <Attribute id="7" value="1280" name="width"/>
    <Attribute id="8" value="720" name="height"/>
    <Attribute id="9" value="(0,0,0,255)" name="backgroundColor"/>
   </Attributes>
    <GenericMixer id="10"  name="Unified Mixer">
     <MetaData>
      <entry key="MixerType" val="TimelineMixer"/>
     </MetaData>
     <Tracks>
      <GenericTrack id="11"  >
       <Attributes>
        <Attribute id="12" value="" name="ident"/>
       </Attributes>
       <MetaData>
        <entry key="IsLocked" val="False"/>
        <entry key="WinTrackHeight" val="62"/>
       </MetaData>
       <Medias>
        <StitchedMedia id="13" start="0" duration="2872" scalar="1/1" mediaStart="0/1" mediaDuration="2872/1" minMediaStart="0/1" >
         <Transformer>
          <VectorParam id="14"  name="translation">
           <InterpolatingParam id="15" interp="linr"  time="0/1" value="0" leadInLength="0/1"  />
           <InterpolatingParam id="16" interp="linr"  time="0/1" value="0" leadInLength="0/1"  />
           <InterpolatingParam id="17" interp="linr"  time="0/1" value="0" leadInLength="0/1"  />
          </VectorParam>
          <VectorParam id="18"  name="rotation">
           <InterpolatingParam id="19" interp="linr"  time="0/1" value="0" leadInLength="0/1"  />
           <InterpolatingParam id="20" interp="linr"  time="0/1" value="0" leadInLength="0/1"  />
           <InterpolatingParam id="21" interp="linr"  time="0/1" value="0" leadInLength="0/1"  />
          </VectorParam>
          <VectorParam id="22"  name="shear">
           <InterpolatingParam id="23" interp="linr"  time="0/1" value="0" leadInLength="0/1"  />
           <InterpolatingParam id="24" interp="linr"  time="0/1" value="0" leadInLength="0/1"  />
           <InterpolatingParam id="25" interp="linr"  time="0/1" value="0" leadInLength="0/1"  />
          </VectorParam>
          <VectorParam id="26"  name="scale">
           <InterpolatingParam id="27" interp="linr"  time="0/1" value="1" leadInLength="0/1"  />
           <InterpolatingParam id="28" interp="linr"  time="0/1" value="1" leadInLength="0/1"  />
           <InterpolatingParam id="29" interp="linr"  time="0/1" value="1" leadInLength="0/1"  />
          </VectorParam>
          <VectorParam id="30"  name="anchor">
           <InterpolatingParam id="31" interp="linr"  time="0/1" value="0" leadInLength="0/1"  />
           <InterpolatingParam id="32" interp="linr"  time="0/1" value="0" leadInLength="0/1"  />
           <InterpolatingParam id="33" interp="linr"  time="0/1" value="0" leadInLength="0/1"  />
          </VectorParam>
         </Transformer>
         <Parameters>
          <InterpolatingParam id="34" interp="linr"  time="0/1" value="1" leadInLength="0/1"  name="cursorOpacity"/>
          <InterpolatingParam id="35" interp="linr"  time="0/1" value="1" leadInLength="0/1"  name="cursorScale"/>
          <InterpolatingParam id="36" interp="linr"  time="0/1" value="1" leadInLength="0/1"  name="volume"/>
          <Parameter id="37"  name="captions"/>
         </Parameters>
         <Attributes>
          <Attribute id="38" value="" name="ident"/>
         </Attributes>
         <MetaData>
          <entry key="WinSubProjectDisplayName" val=""/>
         </MetaData>
         <ExtraData>
          <Entry key="ZoomPanBin">
           <ZoomPanBin id="39"  >
            <ZoomPanKeyframes>
            </ZoomPanKeyframes>
           </ZoomPanBin>
          </Entry>
          <Entry key="CursorEffectBin">
           <CursorEffectBin id="40"  >
            <CursorEffectKeyframes>
            </CursorEffectKeyframes>
           </CursorEffectBin>
          </Entry>
         </ExtraData>
         <GenericTrack id="41"  >
          <Attributes>
           <Attribute id="42" value="" name="ident"/>
          </Attributes>
          <MetaData>
           <entry key="IsLocked" val="False"/>
           <entry key="WinTrackHeight" val="0"/>
          </MetaData>
          <Medias>
           <AMFile id="43" start="0" duration="806" scalar="1/1" mediaStart="0/1" mediaDuration="806/1" trackNumber="2" src="4" channelNumber="0,1" >
            <Parameters>
             <InterpolatingParam id="44" interp="linr"  time="0/1" value="1" leadInLength="0/1"  name="volume"/>
             <Parameter id="45"  name="captions"/>
            </Parameters>
            <Attributes>
             <Attribute id="46" value="" name="ident"/>
             <Attribute id="47" value="44100" name="sampleRate"/>
             <Attribute id="48" value="16" name="bitDepth"/>
             <Attribute id="49" value="1" name="gain"/>
            </Attributes>
            <MetaData>
             <entry key="WinSubProjectDisplayName" val=""/>
            </MetaData>
           </AMFile>
           <AMFile id="50" start="806" duration="179" scalar="1/1" mediaStart="882/1" mediaDuration="179/1" trackNumber="2" src="4" channelNumber="0,1" >
            <Parameters>
             <InterpolatingParam id="51" interp="linr"  time="0/1" value="1" leadInLength="0/1"  name="volume"/>
             <Parameter id="52"  name="captions"/>
            </Parameters>
            <Attributes>
             <Attribute id="53" value="" name="ident"/>
             <Attribute id="54" value="44100" name="sampleRate"/>
             <Attribute id="55" value="16" name="bitDepth"/>
             <Attribute id="56" value="1" name="gain"/>
            </Attributes>
            <MetaData>
             <entry key="WinSubProjectDisplayName" val=""/>
            </MetaData>
           </AMFile>
           <AMFile id="57" start="985" duration="8" scalar="1/1" mediaStart="1261/1" mediaDuration="8/1" trackNumber="2" src="4" channelNumber="0,1" >
            <Parameters>
             <InterpolatingParam id="58" interp="linr"  time="0/1" value="1" leadInLength="0/1"  name="volume"/>
             <Parameter id="59"  name="captions"/>
            </Parameters>
            <Attributes>
             <Attribute id="60" value="" name="ident"/>
             <Attribute id="61" value="44100" name="sampleRate"/>
             <Attribute id="62" value="16" name="bitDepth"/>
             <Attribute id="63" value="1" name="gain"/>
            </Attributes>
            <MetaData>
             <entry key="WinSubProjectDisplayName" val=""/>
            </MetaData>
           </AMFile>
           <AMFile id="64" start="993" duration="925" scalar="1/1" mediaStart="1384/1" mediaDuration="925/1" trackNumber="2" src="4" channelNumber="0,1" >
            <Parameters>
             <InterpolatingParam id="65" interp="linr"  time="0/1" value="1" leadInLength="0/1"  name="volume"/>
             <Parameter id="66"  name="captions"/>
            </Parameters>
            <Attributes>
             <Attribute id="67" value="" name="ident"/>
             <Attribute id="68" value="44100" name="sampleRate"/>
             <Attribute id="69" value="16" name="bitDepth"/>
             <Attribute id="70" value="1" name="gain"/>
            </Attributes>
            <MetaData>
             <entry key="WinSubProjectDisplayName" val=""/>
            </MetaData>
           </AMFile>
           <AMFile id="71" start="1918" duration="434" scalar="1/1" mediaStart="2382/1" mediaDuration="434/1" trackNumber="2" src="4" channelNumber="0,1" >
            <Parameters>
             <InterpolatingParam id="72" interp="linr"  time="0/1" value="1" leadInLength="0/1"  name="volume"/>
             <Parameter id="73"  name="captions"/>
            </Parameters>
            <Attributes>
             <Attribute id="74" value="" name="ident"/>
             <Attribute id="75" value="44100" name="sampleRate"/>
             <Attribute id="76" value="16" name="bitDepth"/>
             <Attribute id="77" value="1" name="gain"/>
            </Attributes>
            <MetaData>
             <entry key="WinSubProjectDisplayName" val=""/>
            </MetaData>
           </AMFile>
           <AMFile id="78" start="2352" duration="187" scalar="1/1" mediaStart="2860/1" mediaDuration="187/1" trackNumber="2" src="4" channelNumber="0,1" >
            <Parameters>
             <InterpolatingParam id="79" interp="linr"  time="0/1" value="1" leadInLength="0/1"  name="volume"/>
             <Parameter id="80"  name="captions"/>
            </Parameters>
            <Attributes>
             <Attribute id="81" value="" name="ident"/>
             <Attribute id="82" value="44100" name="sampleRate"/>
             <Attribute id="83" value="16" name="bitDepth"/>
             <Attribute id="84" value="1" name="gain"/>
            </Attributes>
            <MetaData>
             <entry key="WinSubProjectDisplayName" val=""/>
            </MetaData>
           </AMFile>
           <AMFile id="85" start="2539" duration="101" scalar="1/1" mediaStart="3087/1" mediaDuration="101/1" trackNumber="2" src="4" channelNumber="0,1" >
            <Parameters>
             <InterpolatingParam id="86" interp="linr"  time="0/1" value="1" leadInLength="0/1"  name="volume"/>
             <Parameter id="87"  name="captions"/>
            </Parameters>
            <Attributes>
             <Attribute id="88" value="" name="ident"/>
             <Attribute id="89" value="44100" name="sampleRate"/>
             <Attribute id="90" value="16" name="bitDepth"/>
             <Attribute id="91" value="1" name="gain"/>
            </Attributes>
            <MetaData>
             <entry key="WinSubProjectDisplayName" val=""/>
            </MetaData>
           </AMFile>
           <AMFile id="92" start="2640" duration="233" scalar="1/1" mediaStart="3217/1" mediaDuration="233/1" trackNumber="2" src="4" channelNumber="0,1" >
            <Parameters>
             <InterpolatingParam id="93" interp="linr"  time="0/1" value="1" leadInLength="0/1"  name="volume"/>
             <Parameter id="94"  name="captions"/>
            </Parameters>
            <Attributes>
             <Attribute id="95" value="" name="ident"/>
             <Attribute id="96" value="44100" name="sampleRate"/>
             <Attribute id="97" value="16" name="bitDepth"/>
             <Attribute id="98" value="1" name="gain"/>
            </Attributes>
            <MetaData>
             <entry key="WinSubProjectDisplayName" val=""/>
            </MetaData>
           </AMFile>
           <AMFile id="99" start="2873" duration="3815" scalar="1/1" mediaStart="3982/1" mediaDuration="3815/1" trackNumber="2" src="4" channelNumber="0,1" >
            <Parameters>
             <InterpolatingParam id="100" interp="linr"  time="0/1" value="1" leadInLength="0/1"  name="volume"/>
             <Parameter id="101"  name="captions"/>
            </Parameters>
            <Attributes>
             <Attribute id="102" value="" name="ident"/>
             <Attribute id="103" value="44100" name="sampleRate"/>
             <Attribute id="104" value="16" name="bitDepth"/>
             <Attribute id="105" value="1" name="gain"/>
            </Attributes>
            <MetaData>
             <entry key="WinSubProjectDisplayName" val=""/>
            </MetaData>
           </AMFile>
          </Medias>
         </GenericTrack>
        </StitchedMedia>
        <StitchedMedia id="106" start="2872" duration="1656" scalar="1/1" mediaStart="3187/1" mediaDuration="1656/1" minMediaStart="0/1" >
         <Transformer>
          <VectorParam id="107"  name="translation">
           <InterpolatingParam id="108" interp="linr"  time="0/1" value="0" leadInLength="0/1"  />
           <InterpolatingParam id="109" interp="linr"  time="0/1" value="0" leadInLength="0/1"  />
           <InterpolatingParam id="110" interp="linr"  time="0/1" value="0" leadInLength="0/1"  />
          </VectorParam>
          <VectorParam id="111"  name="rotation">
           <InterpolatingParam id="112" interp="linr"  time="0/1" value="0" leadInLength="0/1"  />
           <InterpolatingParam id="113" interp="linr"  time="0/1" value="0" leadInLength="0/1"  />
           <InterpolatingParam id="114" interp="linr"  time="0/1" value="0" leadInLength="0/1"  />
          </VectorParam>
          <VectorParam id="115"  name="shear">
           <InterpolatingParam id="116" interp="linr"  time="0/1" value="0" leadInLength="0/1"  />
           <InterpolatingParam id="117" interp="linr"  time="0/1" value="0" leadInLength="0/1"  />
           <InterpolatingParam id="118" interp="linr"  time="0/1" value="0" leadInLength="0/1"  />
          </VectorParam>
          <VectorParam id="119"  name="scale">
           <InterpolatingParam id="120" interp="linr"  time="0/1" value="1" leadInLength="0/1"  />
           <InterpolatingParam id="121" interp="linr"  time="0/1" value="1" leadInLength="0/1"  />
           <InterpolatingParam id="122" interp="linr"  time="0/1" value="1" leadInLength="0/1"  />
          </VectorParam>
          <VectorParam id="123"  name="anchor">
           <InterpolatingParam id="124" interp="linr"  time="0/1" value="0" leadInLength="0/1"  />
           <InterpolatingParam id="125" interp="linr"  time="0/1" value="0" leadInLength="0/1"  />
           <InterpolatingParam id="126" interp="linr"  time="0/1" value="0" leadInLength="0/1"  />
          </VectorParam>
         </Transformer>
         <Parameters>
          <InterpolatingParam id="127" interp="linr"  time="0/1" value="1" leadInLength="0/1"  name="cursorOpacity"/>
          <InterpolatingParam id="128" interp="linr"  time="0/1" value="1" leadInLength="0/1"  name="cursorScale"/>
          <InterpolatingParam id="129" interp="linr"  time="0/1" value="1" leadInLength="0/1"  name="volume"/>
          <Parameter id="130"  name="captions"/>
         </Parameters>
         <Attributes>
          <Attribute id="131" value="" name="ident"/>
         </Attributes>
         <MetaData>
          <entry key="WinSubProjectDisplayName" val=""/>
         </MetaData>
         <ExtraData>
          <Entry key="ZoomPanBin">
           <ZoomPanBin id="132"  >
            <ZoomPanKeyframes>
            </ZoomPanKeyframes>
           </ZoomPanBin>
          </Entry>
          <Entry key="CursorEffectBin">
           <CursorEffectBin id="133"  >
            <CursorEffectKeyframes>
            </CursorEffectKeyframes>
           </CursorEffectBin>
          </Entry>
         </ExtraData>
         <GenericTrack id="134"  >
          <Attributes>
           <Attribute id="135" value="" name="ident"/>
          </Attributes>
          <MetaData>
           <entry key="IsLocked" val="False"/>
           <entry key="WinTrackHeight" val="0"/>
          </MetaData>
          <Medias>
           <AMFile id="136" start="0" duration="806" scalar="1/1" mediaStart="0/1" mediaDuration="806/1" trackNumber="2" src="4" channelNumber="0,1" >
            <Parameters>
             <InterpolatingParam id="137" interp="linr"  time="0/1" value="1" leadInLength="0/1"  name="volume"/>
             <Parameter id="138"  name="captions"/>
            </Parameters>
            <Attributes>
             <Attribute id="139" value="" name="ident"/>
             <Attribute id="140" value="44100" name="sampleRate"/>
             <Attribute id="141" value="16" name="bitDepth"/>
             <Attribute id="142" value="1" name="gain"/>
            </Attributes>
            <MetaData>
             <entry key="WinSubProjectDisplayName" val=""/>
            </MetaData>
           </AMFile>
           <AMFile id="143" start="806" duration="1427" scalar="1/1" mediaStart="882/1" mediaDuration="1427/1" trackNumber="2" src="4" channelNumber="0,1" >
            <Parameters>
             <InterpolatingParam id="144" interp="linr"  time="0/1" value="1" leadInLength="0/1"  name="volume"/>
             <Parameter id="145"  name="captions"/>
            </Parameters>
            <Attributes>
             <Attribute id="146" value="" name="ident"/>
             <Attribute id="147" value="44100" name="sampleRate"/>
             <Attribute id="148" value="16" name="bitDepth"/>
             <Attribute id="149" value="1" name="gain"/>
            </Attributes>
            <MetaData>
             <entry key="WinSubProjectDisplayName" val=""/>
            </MetaData>
           </AMFile>
           <AMFile id="150" start="2233" duration="434" scalar="1/1" mediaStart="2382/1" mediaDuration="434/1" trackNumber="2" src="4" channelNumber="0,1" >
            <Parameters>
             <InterpolatingParam id="151" interp="linr"  time="0/1" value="1" leadInLength="0/1"  name="volume"/>
             <Parameter id="152"  name="captions"/>
            </Parameters>
            <Attributes>
             <Attribute id="153" value="" name="ident"/>
             <Attribute id="154" value="44100" name="sampleRate"/>
             <Attribute id="155" value="16" name="bitDepth"/>
             <Attribute id="156" value="1" name="gain"/>
            </Attributes>
            <MetaData>
             <entry key="WinSubProjectDisplayName" val=""/>
            </MetaData>
           </AMFile>
           <AMFile id="157" start="2667" duration="187" scalar="1/1" mediaStart="2860/1" mediaDuration="187/1" trackNumber="2" src="4" channelNumber="0,1" >
            <Parameters>
             <InterpolatingParam id="158" interp="linr"  time="0/1" value="1" leadInLength="0/1"  name="volume"/>
             <Parameter id="159"  name="captions"/>
            </Parameters>
            <Attributes>
             <Attribute id="160" value="" name="ident"/>
             <Attribute id="161" value="44100" name="sampleRate"/>
             <Attribute id="162" value="16" name="bitDepth"/>
             <Attribute id="163" value="1" name="gain"/>
            </Attributes>
            <MetaData>
             <entry key="WinSubProjectDisplayName" val=""/>
            </MetaData>
           </AMFile>
           <AMFile id="164" start="2854" duration="101" scalar="1/1" mediaStart="3087/1" mediaDuration="101/1" trackNumber="2" src="4" channelNumber="0,1" >
            <Parameters>
             <InterpolatingParam id="165" interp="linr"  time="0/1" value="1" leadInLength="0/1"  name="volume"/>
             <Parameter id="166"  name="captions"/>
            </Parameters>
            <Attributes>
             <Attribute id="167" value="" name="ident"/>
             <Attribute id="168" value="44100" name="sampleRate"/>
             <Attribute id="169" value="16" name="bitDepth"/>
             <Attribute id="170" value="1" name="gain"/>
            </Attributes>
            <MetaData>
             <entry key="WinSubProjectDisplayName" val=""/>
            </MetaData>
           </AMFile>
           <AMFile id="171" start="2955" duration="233" scalar="1/1" mediaStart="3217/1" mediaDuration="233/1" trackNumber="2" src="4" channelNumber="0,1" >
            <Parameters>
             <InterpolatingParam id="172" interp="linr"  time="0/1" value="1" leadInLength="0/1"  name="volume"/>
             <Parameter id="173"  name="captions"/>
            </Parameters>
            <Attributes>
             <Attribute id="174" value="" name="ident"/>
             <Attribute id="175" value="44100" name="sampleRate"/>
             <Attribute id="176" value="16" name="bitDepth"/>
             <Attribute id="177" value="1" name="gain"/>
            </Attributes>
            <MetaData>
             <entry key="WinSubProjectDisplayName" val=""/>
            </MetaData>
           </AMFile>
           <AMFile id="178" start="3188" duration="303" scalar="1/1" mediaStart="3982/1" mediaDuration="303/1" trackNumber="2" src="4" channelNumber="0,1" >
            <Parameters>
             <InterpolatingParam id="179" interp="linr"  time="0/1" value="1" leadInLength="0/1"  name="volume"/>
             <Parameter id="180"  name="captions"/>
            </Parameters>
            <Attributes>
             <Attribute id="181" value="" name="ident"/>
             <Attribute id="182" value="44100" name="sampleRate"/>
             <Attribute id="183" value="16" name="bitDepth"/>
             <Attribute id="184" value="1" name="gain"/>
            </Attributes>
            <MetaData>
             <entry key="WinSubProjectDisplayName" val=""/>
            </MetaData>
           </AMFile>
           <AMFile id="185" start="3491" duration="1353" scalar="1/1" mediaStart="4367/1" mediaDuration="1353/1" trackNumber="2" src="4" channelNumber="0,1" >
            <Parameters>
             <InterpolatingParam id="186" interp="linr"  time="0/1" value="1" leadInLength="0/1"  name="volume"/>
             <Parameter id="187"  name="captions"/>
            </Parameters>
            <Attributes>
             <Attribute id="188" value="" name="ident"/>
             <Attribute id="189" value="44100" name="sampleRate"/>
             <Attribute id="190" value="16" name="bitDepth"/>
             <Attribute id="191" value="1" name="gain"/>
            </Attributes>
            <MetaData>
             <entry key="WinSubProjectDisplayName" val=""/>
            </MetaData>
           </AMFile>
           <AMFile id="192" start="4844" duration="1618" scalar="1/1" mediaStart="6179/1" mediaDuration="1618/1" trackNumber="2" src="4" channelNumber="0,1" >
            <Parameters>
             <InterpolatingParam id="193" interp="linr"  time="0/1" value="1" leadInLength="0/1"  name="volume"/>
             <Parameter id="194"  name="captions"/>
            </Parameters>
            <Attributes>
             <Attribute id="195" value="" name="ident"/>
             <Attribute id="196" value="44100" name="sampleRate"/>
             <Attribute id="197" value="16" name="bitDepth"/>
             <Attribute id="198" value="1" name="gain"/>
            </Attributes>
            <MetaData>
             <entry key="WinSubProjectDisplayName" val=""/>
            </MetaData>
           </AMFile>
          </Medias>
         </GenericTrack>
        </StitchedMedia>
        <StitchedMedia id="199" start="4528" duration="3228" scalar="1/1" mediaStart="0/1" mediaDuration="3228/1" minMediaStart="0/1" >
         <Transformer>
          <VectorParam id="200"  name="translation">
           <InterpolatingParam id="201" interp="linr"  time="0/1" value="0" leadInLength="0/1"  />
           <InterpolatingParam id="202" interp="linr"  time="0/1" value="0" leadInLength="0/1"  />
           <InterpolatingParam id="203" interp="linr"  time="0/1" value="0" leadInLength="0/1"  />
          </VectorParam>
          <VectorParam id="204"  name="rotation">
           <InterpolatingParam id="205" interp="linr"  time="0/1" value="0" leadInLength="0/1"  />
           <InterpolatingParam id="206" interp="linr"  time="0/1" value="0" leadInLength="0/1"  />
           <InterpolatingParam id="207" interp="linr"  time="0/1" value="0" leadInLength="0/1"  />
          </VectorParam>
          <VectorParam id="208"  name="shear">
           <InterpolatingParam id="209" interp="linr"  time="0/1" value="0" leadInLength="0/1"  />
           <InterpolatingParam id="210" interp="linr"  time="0/1" value="0" leadInLength="0/1"  />
           <InterpolatingParam id="211" interp="linr"  time="0/1" value="0" leadInLength="0/1"  />
          </VectorParam>
          <VectorParam id="212"  name="scale">
           <InterpolatingParam id="213" interp="linr"  time="0/1" value="1" leadInLength="0/1"  />
           <InterpolatingParam id="214" interp="linr"  time="0/1" value="1" leadInLength="0/1"  />
           <InterpolatingParam id="215" interp="linr"  time="0/1" value="1" leadInLength="0/1"  />
          </VectorParam>
          <VectorParam id="216"  name="anchor">
           <InterpolatingParam id="217" interp="linr"  time="0/1" value="0" leadInLength="0/1"  />
           <InterpolatingParam id="218" interp="linr"  time="0/1" value="0" leadInLength="0/1"  />
           <InterpolatingParam id="219" interp="linr"  time="0/1" value="0" leadInLength="0/1"  />
          </VectorParam>
         </Transformer>
         <Parameters>
          <InterpolatingParam id="220" interp="linr"  time="0/1" value="1" leadInLength="0/1"  name="cursorOpacity"/>
          <InterpolatingParam id="221" interp="linr"  time="0/1" value="1" leadInLength="0/1"  name="cursorScale"/>
          <InterpolatingParam id="222" interp="linr"  time="0/1" value="1" leadInLength="0/1"  name="volume"/>
          <Parameter id="223"  name="captions"/>
         </Parameters>
         <Attributes>
          <Attribute id="224" value="" name="ident"/>
         </Attributes>
         <MetaData>
          <entry key="WinSubProjectDisplayName" val=""/>
         </MetaData>
         <ExtraData>
          <Entry key="ZoomPanBin">
           <ZoomPanBin id="225"  >
            <ZoomPanKeyframes>
            </ZoomPanKeyframes>
           </ZoomPanBin>
          </Entry>
          <Entry key="CursorEffectBin">
           <CursorEffectBin id="226"  >
            <CursorEffectKeyframes>
            </CursorEffectKeyframes>
           </CursorEffectBin>
          </Entry>
         </ExtraData>
         <GenericTrack id="227"  >
          <Attributes>
           <Attribute id="228" value="" name="ident"/>
          </Attributes>
          <MetaData>
           <entry key="IsLocked" val="False"/>
           <entry key="WinTrackHeight" val="0"/>
          </MetaData>
          <Medias>
           <AMFile id="229" start="0" duration="690" scalar="1/1" mediaStart="0/1" mediaDuration="690/1" trackNumber="2" src="5" channelNumber="0,1" >
            <Parameters>
             <InterpolatingParam id="230" interp="linr"  time="0/1" value="1" leadInLength="0/1"  name="volume"/>
             <Parameter id="231"  name="captions"/>
            </Parameters>
            <Attributes>
             <Attribute id="232" value="" name="ident"/>
             <Attribute id="233" value="44100" name="sampleRate"/>
             <Attribute id="234" value="16" name="bitDepth"/>
             <Attribute id="235" value="1" name="gain"/>
            </Attributes>
            <MetaData>
             <entry key="WinSubProjectDisplayName" val=""/>
            </MetaData>
           </AMFile>
           <AMFile id="236" start="690" duration="397" scalar="1/1" mediaStart="765/1" mediaDuration="397/1" trackNumber="2" src="5" channelNumber="0,1" >
            <Parameters>
             <InterpolatingParam id="237" interp="linr"  time="0/1" value="1" leadInLength="0/1"  name="volume"/>
             <Parameter id="238"  name="captions"/>
            </Parameters>
            <Attributes>
             <Attribute id="239" value="" name="ident"/>
             <Attribute id="240" value="44100" name="sampleRate"/>
             <Attribute id="241" value="16" name="bitDepth"/>
             <Attribute id="242" value="1" name="gain"/>
            </Attributes>
            <MetaData>
             <entry key="WinSubProjectDisplayName" val=""/>
            </MetaData>
           </AMFile>
           <AMFile id="243" start="1087" duration="935" scalar="1/1" mediaStart="1204/1" mediaDuration="935/1" trackNumber="2" src="5" channelNumber="0,1" >
            <Parameters>
             <InterpolatingParam id="244" interp="linr"  time="0/1" value="1" leadInLength="0/1"  name="volume"/>
             <Parameter id="245"  name="captions"/>
            </Parameters>
            <Attributes>
             <Attribute id="246" value="" name="ident"/>
             <Attribute id="247" value="44100" name="sampleRate"/>
             <Attribute id="248" value="16" name="bitDepth"/>
             <Attribute id="249" value="1" name="gain"/>
            </Attributes>
            <MetaData>
             <entry key="WinSubProjectDisplayName" val=""/>
            </MetaData>
           </AMFile>
           <AMFile id="250" start="2022" duration="1260" scalar="1/1" mediaStart="2466/1" mediaDuration="1260/1" trackNumber="2" src="5" channelNumber="0,1" >
            <Parameters>
             <InterpolatingParam id="251" interp="linr"  time="0/1" value="1" leadInLength="0/1"  name="volume"/>
             <Parameter id="252"  name="captions"/>
            </Parameters>
            <Attributes>
             <Attribute id="253" value="" name="ident"/>
             <Attribute id="254" value="44100" name="sampleRate"/>
             <Attribute id="255" value="16" name="bitDepth"/>
             <Attribute id="256" value="1" name="gain"/>
            </Attributes>
            <MetaData>
             <entry key="WinSubProjectDisplayName" val=""/>
            </MetaData>
           </AMFile>
          </Medias>
         </GenericTrack>
        </StitchedMedia>
       </Medias>
      </GenericTrack>
      <GenericTrack id="257"  >
       <Attributes>
        <Attribute id="258" value="" name="ident"/>
       </Attributes>
       <MetaData>
        <entry key="IsLocked" val="False"/>
        <entry key="WinTrackHeight" val="62"/>
       </MetaData>
       <Medias>
        <StitchedMedia id="259" start="0" duration="2857" scalar="1/1" mediaStart="0/1" mediaDuration="2857/1" minMediaStart="0/1" >
         <Transformer>
          <VectorParam id="260"  name="translation">
           <InterpolatingParam id="261" interp="linr"  time="-9999999/1" value="0" leadInLength="0/1"  interpolater="leadin-linr"  />
           <InterpolatingParam id="262" interp="linr"  time="-9999999/1" value="0" leadInLength="0/1"  interpolater="leadin-linr"  />
           <InterpolatingParam id="263" interp="linr"  time="-9999999/1" value="0" leadInLength="0/1"  interpolater="leadin-linr"  />
          </VectorParam>
          <VectorParam id="264"  name="rotation">
           <InterpolatingParam id="265" interp="linr"  time="-9999999/1" value="0" leadInLength="0/1"  interpolater="leadin-linr"  />
           <InterpolatingParam id="266" interp="linr"  time="-9999999/1" value="0" leadInLength="0/1"  interpolater="leadin-linr"  />
           <InterpolatingParam id="267" interp="linr"  time="-9999999/1" value="0" leadInLength="0/1"  interpolater="leadin-linr"  />
          </VectorParam>
          <VectorParam id="268"  name="shear">
           <InterpolatingParam id="269" interp="linr"  time="-9999999/1" value="0" leadInLength="0/1"  interpolater="leadin-linr"  />
           <InterpolatingParam id="270" interp="linr"  time="-9999999/1" value="0" leadInLength="0/1"  interpolater="leadin-linr"  />
           <InterpolatingParam id="271" interp="linr"  time="-9999999/1" value="0" leadInLength="0/1"  interpolater="leadin-linr"  />
          </VectorParam>
          <VectorParam id="272"  name="scale">
           <InterpolatingParam id="273" interp="linr"  time="-9999999/1" value="0.9375" leadInLength="0/1"  interpolater="leadin-linr"  />
           <InterpolatingParam id="274" interp="linr"  time="-9999999/1" value="0.9375" leadInLength="0/1"  interpolater="leadin-linr"  />
           <InterpolatingParam id="275" interp="linr"  time="-9999999/1" value="1" leadInLength="0/1"  interpolater="leadin-linr"  />
          </VectorParam>
          <VectorParam id="276"  name="anchor">
           <InterpolatingParam id="277" interp="linr"  time="0/1" value="0" leadInLength="0/1"  />
           <InterpolatingParam id="278" interp="linr"  time="0/1" value="0" leadInLength="0/1"  />
           <InterpolatingParam id="279" interp="linr"  time="0/1" value="0" leadInLength="0/1"  />
          </VectorParam>
         </Transformer>
         <Parameters>
          <VectorParam id="280"  name="sourceCrop">
           <InterpolatingParam id="281" interp="linr"  time="0/1" value="0" leadInLength="0/1"  />
           <InterpolatingParam id="282" interp="linr"  time="0/1" value="0" leadInLength="0/1"  />
           <InterpolatingParam id="283" interp="linr"  time="0/1" value="0" leadInLength="0/1"  />
           <InterpolatingParam id="284" interp="linr"  time="0/1" value="0" leadInLength="0/1"  />
          </VectorParam>
          <VectorParam id="285"  name="geometryCrop">
           <InterpolatingParam id="286" interp="linr"  time="-9999999/1" value="0" leadInLength="0/1"  interpolater="leadin-linr"  />
           <InterpolatingParam id="287" interp="linr"  time="-9999999/1" value="0" leadInLength="0/1"  interpolater="leadin-linr"  />
           <InterpolatingParam id="288" interp="linr"  time="-9999999/1" value="0" leadInLength="0/1"  interpolater="leadin-linr"  />
           <InterpolatingParam id="289" interp="linr"  time="-9999999/1" value="0" leadInLength="0/1"  interpolater="leadin-linr"  />
          </VectorParam>
          <InterpolatingParam id="290" interp="linr"  time="-9999999/1" value="1" leadInLength="0/1"  interpolater="leadin-linr"  name="opacity"/>
          <InterpolatingParam id="291" interp="linr"  time="0/1" value="1" leadInLength="0/1"  name="cursorOpacity"/>
          <InterpolatingParam id="292" interp="linr"  time="0/1" value="1" leadInLength="0/1"  name="cursorScale"/>
          <Parameter id="293"  name="captions"/>
         </Parameters>
         <Effects>
          <GenericEffect id="294" name = "CursorBaseEffectName" >
           <Parameters>
           <InterpolatingParam id="295" interp="linr"  time="-9999999/1" value="1" leadInLength="0/1"   name="cursorSize"/>
           <InterpolatingParam id="296" interp="linr"  time="-9999999/1" value="0" leadInLength="0/1"   name="highlightBlurRadius"/>
           <InterpolatingParam id="297" interp="linr"  time="-9999999/1" value="0" leadInLength="0/1"   name="highlightColorBlue"/>
           <InterpolatingParam id="298" interp="linr"  time="-9999999/1" value="255" leadInLength="0/1"   name="highlightColorGreen"/>
           <InterpolatingParam id="299" interp="linr"  time="-9999999/1" value="255" leadInLength="0/1"   name="highlightColorRed"/>
           <InterpolatingParam id="300" interp="linr"  time="-9999999/1" value="5" leadInLength="0/1"   name="highlightFeatherSize"/>
           <InterpolatingParam id="301" interp="linr"  time="-9999999/1" value="2" leadInLength="0/1"   name="highlightMagnification"/>
           <InterpolatingParam id="302" interp="linr"  time="-9999999/1" value="1" leadInLength="0/1"   name="highlightOpacity"/>
           <InterpolatingParam id="303" interp="linr"  time="-9999999/1" value="45" leadInLength="0/1"   name="highlightSize"/>
           <Parameter id="304"   name="highlightType">
            <Keyframes>
            <Keyframe id="305"  time="-9999999/1" value="0" leadInLength="0/1"  />
            </Keyframes>
           </Parameter>
           <InterpolatingParam id="306" interp="linr"  time="-9999999/1" value="0" leadInLength="0/1"   name="leftClickColorBlue"/>
           <InterpolatingParam id="307" interp="linr"  time="-9999999/1" value="0" leadInLength="0/1"   name="leftClickColorGreen"/>
           <InterpolatingParam id="308" interp="linr"  time="-9999999/1" value="255" leadInLength="0/1"   name="leftClickColorRed"/>
           <InterpolatingParam id="309" interp="linr"  time="-9999999/1" value="0.80000000000000004" leadInLength="0/1"   name="leftClickDuration"/>
           <InterpolatingParam id="310" interp="linr"  time="-9999999/1" value="20" leadInLength="0/1"   name="leftClickSize"/>
           <Parameter id="311"   name="leftClickSoundFilename">
            <Keyframes>
            <Keyframe id="312"  time="-9999999/1" value="" leadInLength="0/1"  />
            </Keyframes>
           </Parameter>
           <InterpolatingParam id="313" interp="linr"  time="-9999999/1" value="1" leadInLength="0/1"   name="leftClickSoundVolume"/>
           <Parameter id="314"   name="leftClickType">
            <Keyframes>
            <Keyframe id="315"  time="-9999999/1" value="0" leadInLength="0/1"  />
            </Keyframes>
           </Parameter>
           <InterpolatingParam id="316" interp="linr"  time="-9999999/1" value="1" leadInLength="0/1"   name="opacity"/>
           <InterpolatingParam id="317" interp="linr"  time="-9999999/1" value="255" leadInLength="0/1"   name="rightClickColorBlue"/>
           <InterpolatingParam id="318" interp="linr"  time="-9999999/1" value="0" leadInLength="0/1"   name="rightClickColorGreen"/>
           <InterpolatingParam id="319" interp="linr"  time="-9999999/1" value="0" leadInLength="0/1"   name="rightClickColorRed"/>
           <InterpolatingParam id="320" interp="linr"  time="-9999999/1" value="0.80000000000000004" leadInLength="0/1"   name="rightClickDuration"/>
           <InterpolatingParam id="321" interp="linr"  time="-9999999/1" value="20" leadInLength="0/1"   name="rightClickSize"/>
           <Parameter id="322"   name="rightClickSoundFilename">
            <Keyframes>
            <Keyframe id="323"  time="-9999999/1" value="" leadInLength="0/1"  />
            </Keyframes>
           </Parameter>
           <InterpolatingParam id="324" interp="linr"  time="-9999999/1" value="1" leadInLength="0/1"   name="rightClickSoundVolume"/>
           <Parameter id="325"   name="rightClickType">
            <Keyframes>
            <Keyframe id="326"  time="-9999999/1" value="0" leadInLength="0/1"  />
            </Keyframes>
           </Parameter>
           </Parameters>
           <MetaData>
            <entry key="effectIndex" val="0"/>
           </MetaData>
          </GenericEffect>
         </Effects>
         <Attributes>
          <Attribute id="327" value="" name="ident"/>
         </Attributes>
         <MetaData>
          <entry key="AutoAppliedSmartFocus" val="False"/>
          <entry key="WinSubProjectDisplayName" val=""/>
         </MetaData>
         <ExtraData>
          <Entry key="ZoomPanBin">
           <ZoomPanBin id="328"  >
            <ZoomPanKeyframes>
             <ZoomPanKeyframe id="329" timeRangeEnd="-9999999/1" timeRangeDuration="0/1" interpolaterName="linr"  />
            </ZoomPanKeyframes>
           </ZoomPanBin>
          </Entry>
          <Entry key="CursorEffectBin">
           <CursorEffectBin id="330"  >
            <CursorEffectKeyframes>
             <CursorEffectKeyframe id="331" timeRangeEnd="-9999999/1" timeRangeDuration="0/1" interpolaterName=""  />
            </CursorEffectKeyframes>
           </CursorEffectBin>
          </Entry>
         </ExtraData>
         <GenericTrack id="332"  >
          <Attributes>
           <Attribute id="333" value="" name="ident"/>
          </Attributes>
          <MetaData>
           <entry key="IsLocked" val="False"/>
           <entry key="WinTrackHeight" val="0"/>
          </MetaData>
          <Medias>
           <ScreenVMFile id="334" start="0" duration="806" scalar="1/1" mediaStart="0/1" mediaDuration="806/1" trackNumber="0" src="4" >
            <Transformer>
             <VectorParam id="335"  name="translation">
              <InterpolatingParam id="336" interp="linr"  time="-9999999/1" value="0" leadInLength="0/1"  />
              <InterpolatingParam id="337" interp="linr"  time="-9999999/1" value="0" leadInLength="0/1"  />
              <InterpolatingParam id="338" interp="linr"  time="-9999999/1" value="0" leadInLength="0/1"  />
             </VectorParam>
             <VectorParam id="339"  name="rotation">
              <InterpolatingParam id="340" interp="linr"  time="-9999999/1" value="0" leadInLength="0/1"  />
              <InterpolatingParam id="341" interp="linr"  time="-9999999/1" value="0" leadInLength="0/1"  />
              <InterpolatingParam id="342" interp="linr"  time="-9999999/1" value="0" leadInLength="0/1"  />
             </VectorParam>
             <VectorParam id="343"  name="shear">
              <InterpolatingParam id="344" interp="linr"  time="-9999999/1" value="0" leadInLength="0/1"  />
              <InterpolatingParam id="345" interp="linr"  time="-9999999/1" value="0" leadInLength="0/1"  />
              <InterpolatingParam id="346" interp="linr"  time="-9999999/1" value="0" leadInLength="0/1"  />
             </VectorParam>
             <VectorParam id="347"  name="scale">
              <InterpolatingParam id="348" interp="linr"  time="-9999999/1" value="1" leadInLength="0/1"  />
              <InterpolatingParam id="349" interp="linr"  time="-9999999/1" value="1" leadInLength="0/1"  />
              <InterpolatingParam id="350" interp="linr"  time="-9999999/1" value="1" leadInLength="0/1"  />
             </VectorParam>
             <VectorParam id="351"  name="anchor">
              <InterpolatingParam id="352" interp="linr"  time="0/1" value="0" leadInLength="0/1"  />
              <InterpolatingParam id="353" interp="linr"  time="0/1" value="0" leadInLength="0/1"  />
              <InterpolatingParam id="354" interp="linr"  time="0/1" value="0" leadInLength="0/1"  />
             </VectorParam>
            </Transformer>
            <Parameters>
             <VectorParam id="355"  name="sourceCrop">
              <InterpolatingParam id="356" interp="linr"  time="0/1" value="0" leadInLength="0/1"  />
              <InterpolatingParam id="357" interp="linr"  time="0/1" value="0" leadInLength="0/1"  />
              <InterpolatingParam id="358" interp="linr"  time="0/1" value="0" leadInLength="0/1"  />
              <InterpolatingParam id="359" interp="linr"  time="0/1" value="0" leadInLength="0/1"  />
             </VectorParam>
             <VectorParam id="360"  name="geometryCrop">
              <InterpolatingParam id="361" interp="linr"  time="-9999999/1" value="0" leadInLength="0/1"  />
              <InterpolatingParam id="362" interp="linr"  time="-9999999/1" value="0" leadInLength="0/1"  />
              <InterpolatingParam id="363" interp="linr"  time="-9999999/1" value="0" leadInLength="0/1"  />
              <InterpolatingParam id="364" interp="linr"  time="-9999999/1" value="0" leadInLength="0/1"  />
             </VectorParam>
             <InterpolatingParam id="365" interp="linr"  time="-9999999/1" value="1" leadInLength="0/1"  name="opacity"/>
             <InterpolatingParam id="366" interp="linr"  time="0/1" value="0" leadInLength="0/1"  name="cursorOpacity"/>
             <InterpolatingParam id="367" interp="linr"  time="0/1" value="0" leadInLength="0/1"  name="cursorScale"/>
            </Parameters>
            <Attributes>
             <Attribute id="368" value="" name="ident"/>
            </Attributes>
            <MetaData>
             <entry key="AutoAppliedSmartFocus" val="False"/>
             <entry key="WinSubProjectDisplayName" val=""/>
            </MetaData>
            <ExtraData>
             <Entry key="ZoomPanBin">
              <ZoomPanBin id="369"  >
               <ZoomPanKeyframes>
                <ZoomPanKeyframe id="370" timeRangeEnd="-9999999/1" timeRangeDuration="0/1" interpolaterName=""  />
               </ZoomPanKeyframes>
              </ZoomPanBin>
             </Entry>
             <Entry key="CursorEffectBin">
              <CursorEffectBin id="371"  >
               <CursorEffectKeyframes>
               </CursorEffectKeyframes>
              </CursorEffectBin>
             </Entry>
            </ExtraData>
           </ScreenVMFile>
           <ScreenVMFile id="372" start="806" duration="179" scalar="1/1" mediaStart="882/1" mediaDuration="179/1" trackNumber="0" src="4" >
            <Transformer>
             <VectorParam id="373"  name="translation">
              <InterpolatingParam id="374" interp="linr"  time="-9999999/1" value="0" leadInLength="0/1"  />
              <InterpolatingParam id="375" interp="linr"  time="-9999999/1" value="0" leadInLength="0/1"  />
              <InterpolatingParam id="376" interp="linr"  time="-9999999/1" value="0" leadInLength="0/1"  />
             </VectorParam>
             <VectorParam id="377"  name="rotation">
              <InterpolatingParam id="378" interp="linr"  time="-9999999/1" value="0" leadInLength="0/1"  />
              <InterpolatingParam id="379" interp="linr"  time="-9999999/1" value="0" leadInLength="0/1"  />
              <InterpolatingParam id="380" interp="linr"  time="-9999999/1" value="0" leadInLength="0/1"  />
             </VectorParam>
             <VectorParam id="381"  name="shear">
              <InterpolatingParam id="382" interp="linr"  time="-9999999/1" value="0" leadInLength="0/1"  />
              <InterpolatingParam id="383" interp="linr"  time="-9999999/1" value="0" leadInLength="0/1"  />
              <InterpolatingParam id="384" interp="linr"  time="-9999999/1" value="0" leadInLength="0/1"  />
             </VectorParam>
             <VectorParam id="385"  name="scale">
              <InterpolatingParam id="386" interp="linr"  time="-9999999/1" value="1" leadInLength="0/1"  />
              <InterpolatingParam id="387" interp="linr"  time="-9999999/1" value="1" leadInLength="0/1"  />
              <InterpolatingParam id="388" interp="linr"  time="-9999999/1" value="1" leadInLength="0/1"  />
             </VectorParam>
             <VectorParam id="389"  name="anchor">
              <InterpolatingParam id="390" interp="linr"  time="0/1" value="0" leadInLength="0/1"  />
              <InterpolatingParam id="391" interp="linr"  time="0/1" value="0" leadInLength="0/1"  />
              <InterpolatingParam id="392" interp="linr"  time="0/1" value="0" leadInLength="0/1"  />
             </VectorParam>
            </Transformer>
            <Parameters>
             <VectorParam id="393"  name="sourceCrop">
              <InterpolatingParam id="394" interp="linr"  time="0/1" value="0" leadInLength="0/1"  />
              <InterpolatingParam id="395" interp="linr"  time="0/1" value="0" leadInLength="0/1"  />
              <InterpolatingParam id="396" interp="linr"  time="0/1" value="0" leadInLength="0/1"  />
              <InterpolatingParam id="397" interp="linr"  time="0/1" value="0" leadInLength="0/1"  />
             </VectorParam>
             <VectorParam id="398"  name="geometryCrop">
              <InterpolatingParam id="399" interp="linr"  time="-9999999/1" value="0" leadInLength="0/1"  />
              <InterpolatingParam id="400" interp="linr"  time="-9999999/1" value="0" leadInLength="0/1"  />
              <InterpolatingParam id="401" interp="linr"  time="-9999999/1" value="0" leadInLength="0/1"  />
              <InterpolatingParam id="402" interp="linr"  time="-9999999/1" value="0" leadInLength="0/1"  />
             </VectorParam>
             <InterpolatingParam id="403" interp="linr"  time="-9999999/1" value="1" leadInLength="0/1"  name="opacity"/>
             <InterpolatingParam id="404" interp="linr"  time="0/1" value="0" leadInLength="0/1"  name="cursorOpacity"/>
             <InterpolatingParam id="405" interp="linr"  time="0/1" value="0" leadInLength="0/1"  name="cursorScale"/>
            </Parameters>
            <Attributes>
             <Attribute id="406" value="" name="ident"/>
            </Attributes>
            <MetaData>
             <entry key="AutoAppliedSmartFocus" val="False"/>
             <entry key="WinSubProjectDisplayName" val=""/>
            </MetaData>
            <ExtraData>
             <Entry key="ZoomPanBin">
              <ZoomPanBin id="407"  >
               <ZoomPanKeyframes>
                <ZoomPanKeyframe id="408" timeRangeEnd="-9999999/1" timeRangeDuration="0/1" interpolaterName=""  />
               </ZoomPanKeyframes>
              </ZoomPanBin>
             </Entry>
             <Entry key="CursorEffectBin">
              <CursorEffectBin id="409"  >
               <CursorEffectKeyframes>
               </CursorEffectKeyframes>
              </CursorEffectBin>
             </Entry>
            </ExtraData>
           </ScreenVMFile>
           <ScreenVMFile id="410" start="985" duration="8" scalar="1/1" mediaStart="1261/1" mediaDuration="8/1" trackNumber="0" src="4" >
            <Transformer>
             <VectorParam id="411"  name="translation">
              <InterpolatingParam id="412" interp="linr"  time="-9999999/1" value="0" leadInLength="0/1"  />
              <InterpolatingParam id="413" interp="linr"  time="-9999999/1" value="0" leadInLength="0/1"  />
              <InterpolatingParam id="414" interp="linr"  time="-9999999/1" value="0" leadInLength="0/1"  />
             </VectorParam>
             <VectorParam id="415"  name="rotation">
              <InterpolatingParam id="416" interp="linr"  time="-9999999/1" value="0" leadInLength="0/1"  />
              <InterpolatingParam id="417" interp="linr"  time="-9999999/1" value="0" leadInLength="0/1"  />
              <InterpolatingParam id="418" interp="linr"  time="-9999999/1" value="0" leadInLength="0/1"  />
             </VectorParam>
             <VectorParam id="419"  name="shear">
              <InterpolatingParam id="420" interp="linr"  time="-9999999/1" value="0" leadInLength="0/1"  />
              <InterpolatingParam id="421" interp="linr"  time="-9999999/1" value="0" leadInLength="0/1"  />
              <InterpolatingParam id="422" interp="linr"  time="-9999999/1" value="0" leadInLength="0/1"  />
             </VectorParam>
             <VectorParam id="423"  name="scale">
              <InterpolatingParam id="424" interp="linr"  time="-9999999/1" value="1" leadInLength="0/1"  />
              <InterpolatingParam id="425" interp="linr"  time="-9999999/1" value="1" leadInLength="0/1"  />
              <InterpolatingParam id="426" interp="linr"  time="-9999999/1" value="1" leadInLength="0/1"  />
             </VectorParam>
             <VectorParam id="427"  name="anchor">
              <InterpolatingParam id="428" interp="linr"  time="0/1" value="0" leadInLength="0/1"  />
              <InterpolatingParam id="429" interp="linr"  time="0/1" value="0" leadInLength="0/1"  />
              <InterpolatingParam id="430" interp="linr"  time="0/1" value="0" leadInLength="0/1"  />
             </VectorParam>
            </Transformer>
            <Parameters>
             <VectorParam id="431"  name="sourceCrop">
              <InterpolatingParam id="432" interp="linr"  time="0/1" value="0" leadInLength="0/1"  />
              <InterpolatingParam id="433" interp="linr"  time="0/1" value="0" leadInLength="0/1"  />
              <InterpolatingParam id="434" interp="linr"  time="0/1" value="0" leadInLength="0/1"  />
              <InterpolatingParam id="435" interp="linr"  time="0/1" value="0" leadInLength="0/1"  />
             </VectorParam>
             <VectorParam id="436"  name="geometryCrop">
              <InterpolatingParam id="437" interp="linr"  time="-9999999/1" value="0" leadInLength="0/1"  />
              <InterpolatingParam id="438" interp="linr"  time="-9999999/1" value="0" leadInLength="0/1"  />
              <InterpolatingParam id="439" interp="linr"  time="-9999999/1" value="0" leadInLength="0/1"  />
              <InterpolatingParam id="440" interp="linr"  time="-9999999/1" value="0" leadInLength="0/1"  />
             </VectorParam>
             <InterpolatingParam id="441" interp="linr"  time="-9999999/1" value="1" leadInLength="0/1"  name="opacity"/>
             <InterpolatingParam id="442" interp="linr"  time="0/1" value="0" leadInLength="0/1"  name="cursorOpacity"/>
             <InterpolatingParam id="443" interp="linr"  time="0/1" value="0" leadInLength="0/1"  name="cursorScale"/>
            </Parameters>
            <Attributes>
             <Attribute id="444" value="" name="ident"/>
            </Attributes>
            <MetaData>
             <entry key="AutoAppliedSmartFocus" val="False"/>
             <entry key="WinSubProjectDisplayName" val=""/>
            </MetaData>
            <ExtraData>
             <Entry key="ZoomPanBin">
              <ZoomPanBin id="445"  >
               <ZoomPanKeyframes>
                <ZoomPanKeyframe id="446" timeRangeEnd="-9999999/1" timeRangeDuration="0/1" interpolaterName=""  />
               </ZoomPanKeyframes>
              </ZoomPanBin>
             </Entry>
             <Entry key="CursorEffectBin">
              <CursorEffectBin id="447"  >
               <CursorEffectKeyframes>
               </CursorEffectKeyframes>
              </CursorEffectBin>
             </Entry>
            </ExtraData>
           </ScreenVMFile>
           <ScreenVMFile id="448" start="993" duration="925" scalar="1/1" mediaStart="1384/1" mediaDuration="925/1" trackNumber="0" src="4" >
            <Transformer>
             <VectorParam id="449"  name="translation">
              <InterpolatingParam id="450" interp="linr"  time="-9999999/1" value="0" leadInLength="0/1"  />
              <InterpolatingParam id="451" interp="linr"  time="-9999999/1" value="0" leadInLength="0/1"  />
              <InterpolatingParam id="452" interp="linr"  time="-9999999/1" value="0" leadInLength="0/1"  />
             </VectorParam>
             <VectorParam id="453"  name="rotation">
              <InterpolatingParam id="454" interp="linr"  time="-9999999/1" value="0" leadInLength="0/1"  />
              <InterpolatingParam id="455" interp="linr"  time="-9999999/1" value="0" leadInLength="0/1"  />
              <InterpolatingParam id="456" interp="linr"  time="-9999999/1" value="0" leadInLength="0/1"  />
             </VectorParam>
             <VectorParam id="457"  name="shear">
              <InterpolatingParam id="458" interp="linr"  time="-9999999/1" value="0" leadInLength="0/1"  />
              <InterpolatingParam id="459" interp="linr"  time="-9999999/1" value="0" leadInLength="0/1"  />
              <InterpolatingParam id="460" interp="linr"  time="-9999999/1" value="0" leadInLength="0/1"  />
             </VectorParam>
             <VectorParam id="461"  name="scale">
              <InterpolatingParam id="462" interp="linr"  time="-9999999/1" value="1" leadInLength="0/1"  />
              <InterpolatingParam id="463" interp="linr"  time="-9999999/1" value="1" leadInLength="0/1"  />
              <InterpolatingParam id="464" interp="linr"  time="-9999999/1" value="1" leadInLength="0/1"  />
             </VectorParam>
             <VectorParam id="465"  name="anchor">
              <InterpolatingParam id="466" interp="linr"  time="0/1" value="0" leadInLength="0/1"  />
              <InterpolatingParam id="467" interp="linr"  time="0/1" value="0" leadInLength="0/1"  />
              <InterpolatingParam id="468" interp="linr"  time="0/1" value="0" leadInLength="0/1"  />
             </VectorParam>
            </Transformer>
            <Parameters>
             <VectorParam id="469"  name="sourceCrop">
              <InterpolatingParam id="470" interp="linr"  time="0/1" value="0" leadInLength="0/1"  />
              <InterpolatingParam id="471" interp="linr"  time="0/1" value="0" leadInLength="0/1"  />
              <InterpolatingParam id="472" interp="linr"  time="0/1" value="0" leadInLength="0/1"  />
              <InterpolatingParam id="473" interp="linr"  time="0/1" value="0" leadInLength="0/1"  />
             </VectorParam>
             <VectorParam id="474"  name="geometryCrop">
              <InterpolatingParam id="475" interp="linr"  time="-9999999/1" value="0" leadInLength="0/1"  />
              <InterpolatingParam id="476" interp="linr"  time="-9999999/1" value="0" leadInLength="0/1"  />
              <InterpolatingParam id="477" interp="linr"  time="-9999999/1" value="0" leadInLength="0/1"  />
              <InterpolatingParam id="478" interp="linr"  time="-9999999/1" value="0" leadInLength="0/1"  />
             </VectorParam>
             <InterpolatingParam id="479" interp="linr"  time="-9999999/1" value="1" leadInLength="0/1"  name="opacity"/>
             <InterpolatingParam id="480" interp="linr"  time="0/1" value="0" leadInLength="0/1"  name="cursorOpacity"/>
             <InterpolatingParam id="481" interp="linr"  time="0/1" value="0" leadInLength="0/1"  name="cursorScale"/>
            </Parameters>
            <Attributes>
             <Attribute id="482" value="" name="ident"/>
            </Attributes>
            <MetaData>
             <entry key="AutoAppliedSmartFocus" val="False"/>
             <entry key="WinSubProjectDisplayName" val=""/>
            </MetaData>
            <ExtraData>
             <Entry key="ZoomPanBin">
              <ZoomPanBin id="483"  >
               <ZoomPanKeyframes>
                <ZoomPanKeyframe id="484" timeRangeEnd="-9999999/1" timeRangeDuration="0/1" interpolaterName=""  />
               </ZoomPanKeyframes>
              </ZoomPanBin>
             </Entry>
             <Entry key="CursorEffectBin">
              <CursorEffectBin id="485"  >
               <CursorEffectKeyframes>
               </CursorEffectKeyframes>
              </CursorEffectBin>
             </Entry>
            </ExtraData>
           </ScreenVMFile>
           <ScreenVMFile id="486" start="1918" duration="434" scalar="1/1" mediaStart="2382/1" mediaDuration="434/1" trackNumber="0" src="4" >
            <Transformer>
             <VectorParam id="487"  name="translation">
              <InterpolatingParam id="488" interp="linr"  time="-9999999/1" value="0" leadInLength="0/1"  />
              <InterpolatingParam id="489" interp="linr"  time="-9999999/1" value="0" leadInLength="0/1"  />
              <InterpolatingParam id="490" interp="linr"  time="-9999999/1" value="0" leadInLength="0/1"  />
             </VectorParam>
             <VectorParam id="491"  name="rotation">
              <InterpolatingParam id="492" interp="linr"  time="-9999999/1" value="0" leadInLength="0/1"  />
              <InterpolatingParam id="493" interp="linr"  time="-9999999/1" value="0" leadInLength="0/1"  />
              <InterpolatingParam id="494" interp="linr"  time="-9999999/1" value="0" leadInLength="0/1"  />
             </VectorParam>
             <VectorParam id="495"  name="shear">
              <InterpolatingParam id="496" interp="linr"  time="-9999999/1" value="0" leadInLength="0/1"  />
              <InterpolatingParam id="497" interp="linr"  time="-9999999/1" value="0" leadInLength="0/1"  />
              <InterpolatingParam id="498" interp="linr"  time="-9999999/1" value="0" leadInLength="0/1"  />
             </VectorParam>
             <VectorParam id="499"  name="scale">
              <InterpolatingParam id="500" interp="linr"  time="-9999999/1" value="1" leadInLength="0/1"  />
              <InterpolatingParam id="501" interp="linr"  time="-9999999/1" value="1" leadInLength="0/1"  />
              <InterpolatingParam id="502" interp="linr"  time="-9999999/1" value="1" leadInLength="0/1"  />
             </VectorParam>
             <VectorParam id="503"  name="anchor">
              <InterpolatingParam id="504" interp="linr"  time="0/1" value="0" leadInLength="0/1"  />
              <InterpolatingParam id="505" interp="linr"  time="0/1" value="0" leadInLength="0/1"  />
              <InterpolatingParam id="506" interp="linr"  time="0/1" value="0" leadInLength="0/1"  />
             </VectorParam>
            </Transformer>
            <Parameters>
             <VectorParam id="507"  name="sourceCrop">
              <InterpolatingParam id="508" interp="linr"  time="0/1" value="0" leadInLength="0/1"  />
              <InterpolatingParam id="509" interp="linr"  time="0/1" value="0" leadInLength="0/1"  />
              <InterpolatingParam id="510" interp="linr"  time="0/1" value="0" leadInLength="0/1"  />
              <InterpolatingParam id="511" interp="linr"  time="0/1" value="0" leadInLength="0/1"  />
             </VectorParam>
             <VectorParam id="512"  name="geometryCrop">
              <InterpolatingParam id="513" interp="linr"  time="-9999999/1" value="0" leadInLength="0/1"  />
              <InterpolatingParam id="514" interp="linr"  time="-9999999/1" value="0" leadInLength="0/1"  />
              <InterpolatingParam id="515" interp="linr"  time="-9999999/1" value="0" leadInLength="0/1"  />
              <InterpolatingParam id="516" interp="linr"  time="-9999999/1" value="0" leadInLength="0/1"  />
             </VectorParam>
             <InterpolatingParam id="517" interp="linr"  time="-9999999/1" value="1" leadInLength="0/1"  name="opacity"/>
             <InterpolatingParam id="518" interp="linr"  time="0/1" value="0" leadInLength="0/1"  name="cursorOpacity"/>
             <InterpolatingParam id="519" interp="linr"  time="0/1" value="0" leadInLength="0/1"  name="cursorScale"/>
            </Parameters>
            <Attributes>
             <Attribute id="520" value="" name="ident"/>
            </Attributes>
            <MetaData>
             <entry key="AutoAppliedSmartFocus" val="False"/>
             <entry key="WinSubProjectDisplayName" val=""/>
            </MetaData>
            <ExtraData>
             <Entry key="ZoomPanBin">
              <ZoomPanBin id="521"  >
               <ZoomPanKeyframes>
                <ZoomPanKeyframe id="522" timeRangeEnd="-9999999/1" timeRangeDuration="0/1" interpolaterName=""  />
               </ZoomPanKeyframes>
              </ZoomPanBin>
             </Entry>
             <Entry key="CursorEffectBin">
              <CursorEffectBin id="523"  >
               <CursorEffectKeyframes>
               </CursorEffectKeyframes>
              </CursorEffectBin>
             </Entry>
            </ExtraData>
           </ScreenVMFile>
           <ScreenVMFile id="524" start="2352" duration="187" scalar="1/1" mediaStart="2860/1" mediaDuration="187/1" trackNumber="0" src="4" >
            <Transformer>
             <VectorParam id="525"  name="translation">
              <InterpolatingParam id="526" interp="linr"  time="-9999999/1" value="0" leadInLength="0/1"  />
              <InterpolatingParam id="527" interp="linr"  time="-9999999/1" value="0" leadInLength="0/1"  />
              <InterpolatingParam id="528" interp="linr"  time="-9999999/1" value="0" leadInLength="0/1"  />
             </VectorParam>
             <VectorParam id="529"  name="rotation">
              <InterpolatingParam id="530" interp="linr"  time="-9999999/1" value="0" leadInLength="0/1"  />
              <InterpolatingParam id="531" interp="linr"  time="-9999999/1" value="0" leadInLength="0/1"  />
              <InterpolatingParam id="532" interp="linr"  time="-9999999/1" value="0" leadInLength="0/1"  />
             </VectorParam>
             <VectorParam id="533"  name="shear">
              <InterpolatingParam id="534" interp="linr"  time="-9999999/1" value="0" leadInLength="0/1"  />
              <InterpolatingParam id="535" interp="linr"  time="-9999999/1" value="0" leadInLength="0/1"  />
              <InterpolatingParam id="536" interp="linr"  time="-9999999/1" value="0" leadInLength="0/1"  />
             </VectorParam>
             <VectorParam id="537"  name="scale">
              <InterpolatingParam id="538" interp="linr"  time="-9999999/1" value="1" leadInLength="0/1"  />
              <InterpolatingParam id="539" interp="linr"  time="-9999999/1" value="1" leadInLength="0/1"  />
              <InterpolatingParam id="540" interp="linr"  time="-9999999/1" value="1" leadInLength="0/1"  />
             </VectorParam>
             <VectorParam id="541"  name="anchor">
              <InterpolatingParam id="542" interp="linr"  time="0/1" value="0" leadInLength="0/1"  />
              <InterpolatingParam id="543" interp="linr"  time="0/1" value="0" leadInLength="0/1"  />
              <InterpolatingParam id="544" interp="linr"  time="0/1" value="0" leadInLength="0/1"  />
             </VectorParam>
            </Transformer>
            <Parameters>
             <VectorParam id="545"  name="sourceCrop">
              <InterpolatingParam id="546" interp="linr"  time="0/1" value="0" leadInLength="0/1"  />
              <InterpolatingParam id="547" interp="linr"  time="0/1" value="0" leadInLength="0/1"  />
              <InterpolatingParam id="548" interp="linr"  time="0/1" value="0" leadInLength="0/1"  />
              <InterpolatingParam id="549" interp="linr"  time="0/1" value="0" leadInLength="0/1"  />
             </VectorParam>
             <VectorParam id="550"  name="geometryCrop">
              <InterpolatingParam id="551" interp="linr"  time="-9999999/1" value="0" leadInLength="0/1"  />
              <InterpolatingParam id="552" interp="linr"  time="-9999999/1" value="0" leadInLength="0/1"  />
              <InterpolatingParam id="553" interp="linr"  time="-9999999/1" value="0" leadInLength="0/1"  />
              <InterpolatingParam id="554" interp="linr"  time="-9999999/1" value="0" leadInLength="0/1"  />
             </VectorParam>
             <InterpolatingParam id="555" interp="linr"  time="-9999999/1" value="1" leadInLength="0/1"  name="opacity"/>
             <InterpolatingParam id="556" interp="linr"  time="0/1" value="0" leadInLength="0/1"  name="cursorOpacity"/>
             <InterpolatingParam id="557" interp="linr"  time="0/1" value="0" leadInLength="0/1"  name="cursorScale"/>
            </Parameters>
            <Attributes>
             <Attribute id="558" value="" name="ident"/>
            </Attributes>
            <MetaData>
             <entry key="AutoAppliedSmartFocus" val="False"/>
             <entry key="WinSubProjectDisplayName" val=""/>
            </MetaData>
            <ExtraData>
             <Entry key="ZoomPanBin">
              <ZoomPanBin id="559"  >
               <ZoomPanKeyframes>
                <ZoomPanKeyframe id="560" timeRangeEnd="-9999999/1" timeRangeDuration="0/1" interpolaterName=""  />
               </ZoomPanKeyframes>
              </ZoomPanBin>
             </Entry>
             <Entry key="CursorEffectBin">
              <CursorEffectBin id="561"  >
               <CursorEffectKeyframes>
               </CursorEffectKeyframes>
              </CursorEffectBin>
             </Entry>
            </ExtraData>
           </ScreenVMFile>
           <ScreenVMFile id="562" start="2539" duration="101" scalar="1/1" mediaStart="3087/1" mediaDuration="101/1" trackNumber="0" src="4" >
            <Transformer>
             <VectorParam id="563"  name="translation">
              <InterpolatingParam id="564" interp="linr"  time="-9999999/1" value="0" leadInLength="0/1"  />
              <InterpolatingParam id="565" interp="linr"  time="-9999999/1" value="0" leadInLength="0/1"  />
              <InterpolatingParam id="566" interp="linr"  time="-9999999/1" value="0" leadInLength="0/1"  />
             </VectorParam>
             <VectorParam id="567"  name="rotation">
              <InterpolatingParam id="568" interp="linr"  time="-9999999/1" value="0" leadInLength="0/1"  />
              <InterpolatingParam id="569" interp="linr"  time="-9999999/1" value="0" leadInLength="0/1"  />
              <InterpolatingParam id="570" interp="linr"  time="-9999999/1" value="0" leadInLength="0/1"  />
             </VectorParam>
             <VectorParam id="571"  name="shear">
              <InterpolatingParam id="572" interp="linr"  time="-9999999/1" value="0" leadInLength="0/1"  />
              <InterpolatingParam id="573" interp="linr"  time="-9999999/1" value="0" leadInLength="0/1"  />
              <InterpolatingParam id="574" interp="linr"  time="-9999999/1" value="0" leadInLength="0/1"  />
             </VectorParam>
             <VectorParam id="575"  name="scale">
              <InterpolatingParam id="576" interp="linr"  time="-9999999/1" value="1" leadInLength="0/1"  />
              <InterpolatingParam id="577" interp="linr"  time="-9999999/1" value="1" leadInLength="0/1"  />
              <InterpolatingParam id="578" interp="linr"  time="-9999999/1" value="1" leadInLength="0/1"  />
             </VectorParam>
             <VectorParam id="579"  name="anchor">
              <InterpolatingParam id="580" interp="linr"  time="0/1" value="0" leadInLength="0/1"  />
              <InterpolatingParam id="581" interp="linr"  time="0/1" value="0" leadInLength="0/1"  />
              <InterpolatingParam id="582" interp="linr"  time="0/1" value="0" leadInLength="0/1"  />
             </VectorParam>
            </Transformer>
            <Parameters>
             <VectorParam id="583"  name="sourceCrop">
              <InterpolatingParam id="584" interp="linr"  time="0/1" value="0" leadInLength="0/1"  />
              <InterpolatingParam id="585" interp="linr"  time="0/1" value="0" leadInLength="0/1"  />
              <InterpolatingParam id="586" interp="linr"  time="0/1" value="0" leadInLength="0/1"  />
              <InterpolatingParam id="587" interp="linr"  time="0/1" value="0" leadInLength="0/1"  />
             </VectorParam>
             <VectorParam id="588"  name="geometryCrop">
              <InterpolatingParam id="589" interp="linr"  time="-9999999/1" value="0" leadInLength="0/1"  />
              <InterpolatingParam id="590" interp="linr"  time="-9999999/1" value="0" leadInLength="0/1"  />
              <InterpolatingParam id="591" interp="linr"  time="-9999999/1" value="0" leadInLength="0/1"  />
              <InterpolatingParam id="592" interp="linr"  time="-9999999/1" value="0" leadInLength="0/1"  />
             </VectorParam>
             <InterpolatingParam id="593" interp="linr"  time="-9999999/1" value="1" leadInLength="0/1"  name="opacity"/>
             <InterpolatingParam id="594" interp="linr"  time="0/1" value="0" leadInLength="0/1"  name="cursorOpacity"/>
             <InterpolatingParam id="595" interp="linr"  time="0/1" value="0" leadInLength="0/1"  name="cursorScale"/>
            </Parameters>
            <Attributes>
             <Attribute id="596" value="" name="ident"/>
            </Attributes>
            <MetaData>
             <entry key="AutoAppliedSmartFocus" val="False"/>
             <entry key="WinSubProjectDisplayName" val=""/>
            </MetaData>
            <ExtraData>
             <Entry key="ZoomPanBin">
              <ZoomPanBin id="597"  >
               <ZoomPanKeyframes>
                <ZoomPanKeyframe id="598" timeRangeEnd="-9999999/1" timeRangeDuration="0/1" interpolaterName=""  />
               </ZoomPanKeyframes>
              </ZoomPanBin>
             </Entry>
             <Entry key="CursorEffectBin">
              <CursorEffectBin id="599"  >
               <CursorEffectKeyframes>
               </CursorEffectKeyframes>
              </CursorEffectBin>
             </Entry>
            </ExtraData>
           </ScreenVMFile>
           <ScreenVMFile id="600" start="2640" duration="233" scalar="1/1" mediaStart="3217/1" mediaDuration="233/1" trackNumber="0" src="4" >
            <Transformer>
             <VectorParam id="601"  name="translation">
              <InterpolatingParam id="602" interp="linr"  time="-9999999/1" value="0" leadInLength="0/1"  />
              <InterpolatingParam id="603" interp="linr"  time="-9999999/1" value="0" leadInLength="0/1"  />
              <InterpolatingParam id="604" interp="linr"  time="-9999999/1" value="0" leadInLength="0/1"  />
             </VectorParam>
             <VectorParam id="605"  name="rotation">
              <InterpolatingParam id="606" interp="linr"  time="-9999999/1" value="0" leadInLength="0/1"  />
              <InterpolatingParam id="607" interp="linr"  time="-9999999/1" value="0" leadInLength="0/1"  />
              <InterpolatingParam id="608" interp="linr"  time="-9999999/1" value="0" leadInLength="0/1"  />
             </VectorParam>
             <VectorParam id="609"  name="shear">
              <InterpolatingParam id="610" interp="linr"  time="-9999999/1" value="0" leadInLength="0/1"  />
              <InterpolatingParam id="611" interp="linr"  time="-9999999/1" value="0" leadInLength="0/1"  />
              <InterpolatingParam id="612" interp="linr"  time="-9999999/1" value="0" leadInLength="0/1"  />
             </VectorParam>
             <VectorParam id="613"  name="scale">
              <InterpolatingParam id="614" interp="linr"  time="-9999999/1" value="1" leadInLength="0/1"  />
              <InterpolatingParam id="615" interp="linr"  time="-9999999/1" value="1" leadInLength="0/1"  />
              <InterpolatingParam id="616" interp="linr"  time="-9999999/1" value="1" leadInLength="0/1"  />
             </VectorParam>
             <VectorParam id="617"  name="anchor">
              <InterpolatingParam id="618" interp="linr"  time="0/1" value="0" leadInLength="0/1"  />
              <InterpolatingParam id="619" interp="linr"  time="0/1" value="0" leadInLength="0/1"  />
              <InterpolatingParam id="620" interp="linr"  time="0/1" value="0" leadInLength="0/1"  />
             </VectorParam>
            </Transformer>
            <Parameters>
             <VectorParam id="621"  name="sourceCrop">
              <InterpolatingParam id="622" interp="linr"  time="0/1" value="0" leadInLength="0/1"  />
              <InterpolatingParam id="623" interp="linr"  time="0/1" value="0" leadInLength="0/1"  />
              <InterpolatingParam id="624" interp="linr"  time="0/1" value="0" leadInLength="0/1"  />
              <InterpolatingParam id="625" interp="linr"  time="0/1" value="0" leadInLength="0/1"  />
             </VectorParam>
             <VectorParam id="626"  name="geometryCrop">
              <InterpolatingParam id="627" interp="linr"  time="-9999999/1" value="0" leadInLength="0/1"  />
              <InterpolatingParam id="628" interp="linr"  time="-9999999/1" value="0" leadInLength="0/1"  />
              <InterpolatingParam id="629" interp="linr"  time="-9999999/1" value="0" leadInLength="0/1"  />
              <InterpolatingParam id="630" interp="linr"  time="-9999999/1" value="0" leadInLength="0/1"  />
             </VectorParam>
             <InterpolatingParam id="631" interp="linr"  time="-9999999/1" value="1" leadInLength="0/1"  name="opacity"/>
             <InterpolatingParam id="632" interp="linr"  time="0/1" value="0" leadInLength="0/1"  name="cursorOpacity"/>
             <InterpolatingParam id="633" interp="linr"  time="0/1" value="0" leadInLength="0/1"  name="cursorScale"/>
            </Parameters>
            <Attributes>
             <Attribute id="634" value="" name="ident"/>
            </Attributes>
            <MetaData>
             <entry key="AutoAppliedSmartFocus" val="False"/>
             <entry key="WinSubProjectDisplayName" val=""/>
            </MetaData>
            <ExtraData>
             <Entry key="ZoomPanBin">
              <ZoomPanBin id="635"  >
               <ZoomPanKeyframes>
                <ZoomPanKeyframe id="636" timeRangeEnd="-9999999/1" timeRangeDuration="0/1" interpolaterName=""  />
               </ZoomPanKeyframes>
              </ZoomPanBin>
             </Entry>
             <Entry key="CursorEffectBin">
              <CursorEffectBin id="637"  >
               <CursorEffectKeyframes>
               </CursorEffectKeyframes>
              </CursorEffectBin>
             </Entry>
            </ExtraData>
           </ScreenVMFile>
           <ScreenVMFile id="638" start="2873" duration="3800" scalar="1/1" mediaStart="3982/1" mediaDuration="3800/1" trackNumber="0" src="4" >
            <Transformer>
             <VectorParam id="639"  name="translation">
              <InterpolatingParam id="640" interp="linr"  time="-9999999/1" value="0" leadInLength="0/1"  />
              <InterpolatingParam id="641" interp="linr"  time="-9999999/1" value="0" leadInLength="0/1"  />
              <InterpolatingParam id="642" interp="linr"  time="-9999999/1" value="0" leadInLength="0/1"  />
             </VectorParam>
             <VectorParam id="643"  name="rotation">
              <InterpolatingParam id="644" interp="linr"  time="-9999999/1" value="0" leadInLength="0/1"  />
              <InterpolatingParam id="645" interp="linr"  time="-9999999/1" value="0" leadInLength="0/1"  />
              <InterpolatingParam id="646" interp="linr"  time="-9999999/1" value="0" leadInLength="0/1"  />
             </VectorParam>
             <VectorParam id="647"  name="shear">
              <InterpolatingParam id="648" interp="linr"  time="-9999999/1" value="0" leadInLength="0/1"  />
              <InterpolatingParam id="649" interp="linr"  time="-9999999/1" value="0" leadInLength="0/1"  />
              <InterpolatingParam id="650" interp="linr"  time="-9999999/1" value="0" leadInLength="0/1"  />
             </VectorParam>
             <VectorParam id="651"  name="scale">
              <InterpolatingParam id="652" interp="linr"  time="-9999999/1" value="1" leadInLength="0/1"  />
              <InterpolatingParam id="653" interp="linr"  time="-9999999/1" value="1" leadInLength="0/1"  />
              <InterpolatingParam id="654" interp="linr"  time="-9999999/1" value="1" leadInLength="0/1"  />
             </VectorParam>
             <VectorParam id="655"  name="anchor">
              <InterpolatingParam id="656" interp="linr"  time="0/1" value="0" leadInLength="0/1"  />
              <InterpolatingParam id="657" interp="linr"  time="0/1" value="0" leadInLength="0/1"  />
              <InterpolatingParam id="658" interp="linr"  time="0/1" value="0" leadInLength="0/1"  />
             </VectorParam>
            </Transformer>
            <Parameters>
             <VectorParam id="659"  name="sourceCrop">
              <InterpolatingParam id="660" interp="linr"  time="0/1" value="0" leadInLength="0/1"  />
              <InterpolatingParam id="661" interp="linr"  time="0/1" value="0" leadInLength="0/1"  />
              <InterpolatingParam id="662" interp="linr"  time="0/1" value="0" leadInLength="0/1"  />
              <InterpolatingParam id="663" interp="linr"  time="0/1" value="0" leadInLength="0/1"  />
             </VectorParam>
             <VectorParam id="664"  name="geometryCrop">
              <InterpolatingParam id="665" interp="linr"  time="-9999999/1" value="0" leadInLength="0/1"  />
              <InterpolatingParam id="666" interp="linr"  time="-9999999/1" value="0" leadInLength="0/1"  />
              <InterpolatingParam id="667" interp="linr"  time="-9999999/1" value="0" leadInLength="0/1"  />
              <InterpolatingParam id="668" interp="linr"  time="-9999999/1" value="0" leadInLength="0/1"  />
             </VectorParam>
             <InterpolatingParam id="669" interp="linr"  time="-9999999/1" value="1" leadInLength="0/1"  name="opacity"/>
             <InterpolatingParam id="670" interp="linr"  time="0/1" value="0" leadInLength="0/1"  name="cursorOpacity"/>
             <InterpolatingParam id="671" interp="linr"  time="0/1" value="0" leadInLength="0/1"  name="cursorScale"/>
            </Parameters>
            <Attributes>
             <Attribute id="672" value="" name="ident"/>
            </Attributes>
            <MetaData>
             <entry key="AutoAppliedSmartFocus" val="False"/>
             <entry key="WinSubProjectDisplayName" val=""/>
            </MetaData>
            <ExtraData>
             <Entry key="ZoomPanBin">
              <ZoomPanBin id="673"  >
               <ZoomPanKeyframes>
                <ZoomPanKeyframe id="674" timeRangeEnd="-9999999/1" timeRangeDuration="0/1" interpolaterName=""  />
               </ZoomPanKeyframes>
              </ZoomPanBin>
             </Entry>
             <Entry key="CursorEffectBin">
              <CursorEffectBin id="675"  >
               <CursorEffectKeyframes>
               </CursorEffectKeyframes>
              </CursorEffectBin>
             </Entry>
            </ExtraData>
           </ScreenVMFile>
          </Medias>
         </GenericTrack>
        </StitchedMedia>
        <UnifiedMedia id="676"  >
         <AudioTransition id="677" start="2857" duration="30" >
          <Parameters>
           <InterpolatingParam id="678" interp="linr"  time="0/1" value="1" leadInLength="0/1"  name="volume"/>
           <Parameter id="679"  name="captions"/>
          </Parameters>
          <Effects>
           <GenericEffect id="680" name = "AudioTransition" >
            <Parameters>
            <Parameter id="681"   name="audioEdgeModType">
             <Keyframes>
             <Keyframe id="682"  time="0/1" value="0" leadInLength="0/1"  />
             </Keyframes>
            </Parameter>
            <Parameter id="683"   name="audioTransitionType">
             <Keyframes>
             <Keyframe id="684"  time="0/1" value="" leadInLength="0/1"  />
             </Keyframes>
            </Parameter>
            </Parameters>
            <MetaData>
            </MetaData>
           </GenericEffect>
          </Effects>
          <Attributes>
           <Attribute id="685" value="" name="ident"/>
           <Attribute id="686" value="0" name="sampleRate"/>
           <Attribute id="687" value="0" name="bitDepth"/>
           <Attribute id="688" value="1" name="gain"/>
          </Attributes>
         </AudioTransition>
         <ImageTransition id="689" start="2857" duration="30" >
          <Transformer>
           <VectorParam id="690"  name="translation">
            <InterpolatingParam id="691" interp="linr"  time="0/1" value="0" leadInLength="0/1"  />
            <InterpolatingParam id="692" interp="linr"  time="0/1" value="0" leadInLength="0/1"  />
            <InterpolatingParam id="693" interp="linr"  time="0/1" value="0" leadInLength="0/1"  />
           </VectorParam>
           <VectorParam id="694"  name="rotation">
            <InterpolatingParam id="695" interp="linr"  time="0/1" value="0" leadInLength="0/1"  />
            <InterpolatingParam id="696" interp="linr"  time="0/1" value="0" leadInLength="0/1"  />
            <InterpolatingParam id="697" interp="linr"  time="0/1" value="0" leadInLength="0/1"  />
           </VectorParam>
           <VectorParam id="698"  name="shear">
            <InterpolatingParam id="699" interp="linr"  time="0/1" value="0" leadInLength="0/1"  />
            <InterpolatingParam id="700" interp="linr"  time="0/1" value="0" leadInLength="0/1"  />
            <InterpolatingParam id="701" interp="linr"  time="0/1" value="0" leadInLength="0/1"  />
           </VectorParam>
           <VectorParam id="702"  name="scale">
            <InterpolatingParam id="703" interp="linr"  time="0/1" value="1" leadInLength="0/1"  />
            <InterpolatingParam id="704" interp="linr"  time="0/1" value="1" leadInLength="0/1"  />
            <InterpolatingParam id="705" interp="linr"  time="0/1" value="1" leadInLength="0/1"  />
           </VectorParam>
           <VectorParam id="706"  name="anchor">
            <InterpolatingParam id="707" interp="linr"  time="0/1" value="0" leadInLength="0/1"  />
            <InterpolatingParam id="708" interp="linr"  time="0/1" value="0" leadInLength="0/1"  />
            <InterpolatingParam id="709" interp="linr"  time="0/1" value="0" leadInLength="0/1"  />
           </VectorParam>
          </Transformer>
          <Parameters>
           <VectorParam id="710"  name="sourceCrop">
            <InterpolatingParam id="711" interp="linr"  time="0/1" value="0" leadInLength="0/1"  />
            <InterpolatingParam id="712" interp="linr"  time="0/1" value="0" leadInLength="0/1"  />
            <InterpolatingParam id="713" interp="linr"  time="0/1" value="0" leadInLength="0/1"  />
            <InterpolatingParam id="714" interp="linr"  time="0/1" value="0" leadInLength="0/1"  />
           </VectorParam>
           <VectorParam id="715"  name="geometryCrop">
            <InterpolatingParam id="716" interp="linr"  time="0/1" value="0" leadInLength="0/1"  />
            <InterpolatingParam id="717" interp="linr"  time="0/1" value="0" leadInLength="0/1"  />
            <InterpolatingParam id="718" interp="linr"  time="0/1" value="0" leadInLength="0/1"  />
            <InterpolatingParam id="719" interp="linr"  time="0/1" value="0" leadInLength="0/1"  />
           </VectorParam>
           <InterpolatingParam id="720" interp="linr"  time="0/1" value="1" leadInLength="0/1"  name="opacity"/>
          </Parameters>
          <Effects>
           <GenericEffect id="721" name = "VisualTransition" >
            <Parameters>
            <InterpolatingParam id="722" interp="linr"  time="0/1" value="1" leadInLength="0/1"   name="leftFramePercentage"/>
            <InterpolatingParam id="723" interp="linr"  time="0/1" value="1" leadInLength="0/1"   name="rightFramePercentage"/>
            <Parameter id="724"   name="visualEdgeModType">
             <Keyframes>
             <Keyframe id="725"  time="0/1" value="0" leadInLength="0/1"  />
             </Keyframes>
            </Parameter>
            <Parameter id="726"   name="visualTransitionType">
             <Keyframes>
             <Keyframe id="727"  time="0/1" value="FadeThruBlack" leadInLength="0/1"  />
             </Keyframes>
            </Parameter>
            </Parameters>
            <MetaData>
            </MetaData>
           </GenericEffect>
          </Effects>
          <Attributes>
           <Attribute id="728" value="" name="ident"/>
          </Attributes>
          <ExtraData>
           <Entry key="ZoomPanBin">
            <ZoomPanBin id="729"  >
             <ZoomPanKeyframes>
             </ZoomPanKeyframes>
            </ZoomPanBin>
           </Entry>
          </ExtraData>
         </ImageTransition>
         <MetaData>
          <entry key="WinSubProjectDisplayName" val=""/>
         </MetaData>
        </UnifiedMedia>
        <StitchedMedia id="730" start="2887" duration="1626" scalar="1/1" mediaStart="3202/1" mediaDuration="1626/1" minMediaStart="0/1" >
         <Transformer>
          <VectorParam id="731"  name="translation">
           <InterpolatingParam id="732" interp="linr"  time="-9999999/1" value="0" leadInLength="0/1"  interpolater="leadin-linr"  />
           <InterpolatingParam id="733" interp="linr"  time="-9999999/1" value="0" leadInLength="0/1"  interpolater="leadin-linr"  />
           <InterpolatingParam id="734" interp="linr"  time="-9999999/1" value="0" leadInLength="0/1"  interpolater="leadin-linr"  />
          </VectorParam>
          <VectorParam id="735"  name="rotation">
           <InterpolatingParam id="736" interp="linr"  time="-9999999/1" value="0" leadInLength="0/1"  interpolater="leadin-linr"  />
           <InterpolatingParam id="737" interp="linr"  time="-9999999/1" value="0" leadInLength="0/1"  interpolater="leadin-linr"  />
           <InterpolatingParam id="738" interp="linr"  time="-9999999/1" value="0" leadInLength="0/1"  interpolater="leadin-linr"  />
          </VectorParam>
          <VectorParam id="739"  name="shear">
           <InterpolatingParam id="740" interp="linr"  time="-9999999/1" value="0" leadInLength="0/1"  interpolater="leadin-linr"  />
           <InterpolatingParam id="741" interp="linr"  time="-9999999/1" value="0" leadInLength="0/1"  interpolater="leadin-linr"  />
           <InterpolatingParam id="742" interp="linr"  time="-9999999/1" value="0" leadInLength="0/1"  interpolater="leadin-linr"  />
          </VectorParam>
          <VectorParam id="743"  name="scale">
           <InterpolatingParam id="744" interp="linr"  time="-9999999/1" value="0.9375" leadInLength="0/1"  interpolater="leadin-linr"  />
           <InterpolatingParam id="745" interp="linr"  time="-9999999/1" value="0.9375" leadInLength="0/1"  interpolater="leadin-linr"  />
           <InterpolatingParam id="746" interp="linr"  time="-9999999/1" value="1" leadInLength="0/1"  interpolater="leadin-linr"  />
          </VectorParam>
          <VectorParam id="747"  name="anchor">
           <InterpolatingParam id="748" interp="linr"  time="0/1" value="0" leadInLength="0/1"  />
           <InterpolatingParam id="749" interp="linr"  time="0/1" value="0" leadInLength="0/1"  />
           <InterpolatingParam id="750" interp="linr"  time="0/1" value="0" leadInLength="0/1"  />
          </VectorParam>
         </Transformer>
         <Parameters>
          <VectorParam id="751"  name="sourceCrop">
           <InterpolatingParam id="752" interp="linr"  time="0/1" value="0" leadInLength="0/1"  />
           <InterpolatingParam id="753" interp="linr"  time="0/1" value="0" leadInLength="0/1"  />
           <InterpolatingParam id="754" interp="linr"  time="0/1" value="0" leadInLength="0/1"  />
           <InterpolatingParam id="755" interp="linr"  time="0/1" value="0" leadInLength="0/1"  />
          </VectorParam>
          <VectorParam id="756"  name="geometryCrop">
           <InterpolatingParam id="757" interp="linr"  time="-9999999/1" value="0" leadInLength="0/1"  interpolater="leadin-linr"  />
           <InterpolatingParam id="758" interp="linr"  time="-9999999/1" value="0" leadInLength="0/1"  interpolater="leadin-linr"  />
           <InterpolatingParam id="759" interp="linr"  time="-9999999/1" value="0" leadInLength="0/1"  interpolater="leadin-linr"  />
           <InterpolatingParam id="760" interp="linr"  time="-9999999/1" value="0" leadInLength="0/1"  interpolater="leadin-linr"  />
          </VectorParam>
          <InterpolatingParam id="761" interp="linr"  time="-9999999/1" value="1" leadInLength="0/1"  interpolater="leadin-linr"  name="opacity"/>
          <InterpolatingParam id="762" interp="linr"  time="0/1" value="1" leadInLength="0/1"  name="cursorOpacity"/>
          <InterpolatingParam id="763" interp="linr"  time="0/1" value="1" leadInLength="0/1"  name="cursorScale"/>
          <Parameter id="764"  name="captions"/>
         </Parameters>
         <Effects>
          <GenericEffect id="765" name = "CursorBaseEffectName" >
           <Parameters>
           <InterpolatingParam id="766" interp="linr"  time="-9999999/1" value="1" leadInLength="0/1"   name="cursorSize"/>
           <InterpolatingParam id="767" interp="linr"  time="-9999999/1" value="0" leadInLength="0/1"   name="highlightBlurRadius"/>
           <InterpolatingParam id="768" interp="linr"  time="-9999999/1" value="0" leadInLength="0/1"   name="highlightColorBlue"/>
           <InterpolatingParam id="769" interp="linr"  time="-9999999/1" value="255" leadInLength="0/1"   name="highlightColorGreen"/>
           <InterpolatingParam id="770" interp="linr"  time="-9999999/1" value="255" leadInLength="0/1"   name="highlightColorRed"/>
           <InterpolatingParam id="771" interp="linr"  time="-9999999/1" value="5" leadInLength="0/1"   name="highlightFeatherSize"/>
           <InterpolatingParam id="772" interp="linr"  time="-9999999/1" value="2" leadInLength="0/1"   name="highlightMagnification"/>
           <InterpolatingParam id="773" interp="linr"  time="-9999999/1" value="1" leadInLength="0/1"   name="highlightOpacity"/>
           <InterpolatingParam id="774" interp="linr"  time="-9999999/1" value="45" leadInLength="0/1"   name="highlightSize"/>
           <Parameter id="775"   name="highlightType">
            <Keyframes>
            <Keyframe id="776"  time="-9999999/1" value="0" leadInLength="0/1"  />
            </Keyframes>
           </Parameter>
           <InterpolatingParam id="777" interp="linr"  time="-9999999/1" value="0" leadInLength="0/1"   name="leftClickColorBlue"/>
           <InterpolatingParam id="778" interp="linr"  time="-9999999/1" value="0" leadInLength="0/1"   name="leftClickColorGreen"/>
           <InterpolatingParam id="779" interp="linr"  time="-9999999/1" value="255" leadInLength="0/1"   name="leftClickColorRed"/>
           <InterpolatingParam id="780" interp="linr"  time="-9999999/1" value="0.80000000000000004" leadInLength="0/1"   name="leftClickDuration"/>
           <InterpolatingParam id="781" interp="linr"  time="-9999999/1" value="20" leadInLength="0/1"   name="leftClickSize"/>
           <Parameter id="782"   name="leftClickSoundFilename">
            <Keyframes>
            <Keyframe id="783"  time="-9999999/1" value="" leadInLength="0/1"  />
            </Keyframes>
           </Parameter>
           <InterpolatingParam id="784" interp="linr"  time="-9999999/1" value="1" leadInLength="0/1"   name="leftClickSoundVolume"/>
           <Parameter id="785"   name="leftClickType">
            <Keyframes>
            <Keyframe id="786"  time="-9999999/1" value="0" leadInLength="0/1"  />
            </Keyframes>
           </Parameter>
           <InterpolatingParam id="787" interp="linr"  time="-9999999/1" value="1" leadInLength="0/1"   name="opacity"/>
           <InterpolatingParam id="788" interp="linr"  time="-9999999/1" value="255" leadInLength="0/1"   name="rightClickColorBlue"/>
           <InterpolatingParam id="789" interp="linr"  time="-9999999/1" value="0" leadInLength="0/1"   name="rightClickColorGreen"/>
           <InterpolatingParam id="790" interp="linr"  time="-9999999/1" value="0" leadInLength="0/1"   name="rightClickColorRed"/>
           <InterpolatingParam id="791" interp="linr"  time="-9999999/1" value="0.80000000000000004" leadInLength="0/1"   name="rightClickDuration"/>
           <InterpolatingParam id="792" interp="linr"  time="-9999999/1" value="20" leadInLength="0/1"   name="rightClickSize"/>
           <Parameter id="793"   name="rightClickSoundFilename">
            <Keyframes>
            <Keyframe id="794"  time="-9999999/1" value="" leadInLength="0/1"  />
            </Keyframes>
           </Parameter>
           <InterpolatingParam id="795" interp="linr"  time="-9999999/1" value="1" leadInLength="0/1"   name="rightClickSoundVolume"/>
           <Parameter id="796"   name="rightClickType">
            <Keyframes>
            <Keyframe id="797"  time="-9999999/1" value="0" leadInLength="0/1"  />
            </Keyframes>
           </Parameter>
           </Parameters>
           <MetaData>
            <entry key="effectIndex" val="0"/>
           </MetaData>
          </GenericEffect>
         </Effects>
         <Attributes>
          <Attribute id="798" value="" name="ident"/>
         </Attributes>
         <MetaData>
          <entry key="AutoAppliedSmartFocus" val="False"/>
          <entry key="WinSubProjectDisplayName" val=""/>
         </MetaData>
         <ExtraData>
          <Entry key="ZoomPanBin">
           <ZoomPanBin id="799"  >
            <ZoomPanKeyframes>
             <ZoomPanKeyframe id="800" timeRangeEnd="-9999999/1" timeRangeDuration="0/1" interpolaterName="linr"  />
            </ZoomPanKeyframes>
           </ZoomPanBin>
          </Entry>
          <Entry key="CursorEffectBin">
           <CursorEffectBin id="801"  >
            <CursorEffectKeyframes>
             <CursorEffectKeyframe id="802" timeRangeEnd="-9999999/1" timeRangeDuration="0/1" interpolaterName=""  />
            </CursorEffectKeyframes>
           </CursorEffectBin>
          </Entry>
         </ExtraData>
         <GenericTrack id="803"  >
          <Attributes>
           <Attribute id="804" value="" name="ident"/>
          </Attributes>
          <MetaData>
           <entry key="IsLocked" val="False"/>
           <entry key="WinTrackHeight" val="0"/>
          </MetaData>
          <Medias>
           <ScreenVMFile id="805" start="0" duration="806" scalar="1/1" mediaStart="0/1" mediaDuration="806/1" trackNumber="0" src="4" >
            <Transformer>
             <VectorParam id="806"  name="translation">
              <InterpolatingParam id="807" interp="linr"  time="-9999999/1" value="0" leadInLength="0/1"  />
              <InterpolatingParam id="808" interp="linr"  time="-9999999/1" value="0" leadInLength="0/1"  />
              <InterpolatingParam id="809" interp="linr"  time="-9999999/1" value="0" leadInLength="0/1"  />
             </VectorParam>
             <VectorParam id="810"  name="rotation">
              <InterpolatingParam id="811" interp="linr"  time="-9999999/1" value="0" leadInLength="0/1"  />
              <InterpolatingParam id="812" interp="linr"  time="-9999999/1" value="0" leadInLength="0/1"  />
              <InterpolatingParam id="813" interp="linr"  time="-9999999/1" value="0" leadInLength="0/1"  />
             </VectorParam>
             <VectorParam id="814"  name="shear">
              <InterpolatingParam id="815" interp="linr"  time="-9999999/1" value="0" leadInLength="0/1"  />
              <InterpolatingParam id="816" interp="linr"  time="-9999999/1" value="0" leadInLength="0/1"  />
              <InterpolatingParam id="817" interp="linr"  time="-9999999/1" value="0" leadInLength="0/1"  />
             </VectorParam>
             <VectorParam id="818"  name="scale">
              <InterpolatingParam id="819" interp="linr"  time="-9999999/1" value="1" leadInLength="0/1"  />
              <InterpolatingParam id="820" interp="linr"  time="-9999999/1" value="1" leadInLength="0/1"  />
              <InterpolatingParam id="821" interp="linr"  time="-9999999/1" value="1" leadInLength="0/1"  />
             </VectorParam>
             <VectorParam id="822"  name="anchor">
              <InterpolatingParam id="823" interp="linr"  time="0/1" value="0" leadInLength="0/1"  />
              <InterpolatingParam id="824" interp="linr"  time="0/1" value="0" leadInLength="0/1"  />
              <InterpolatingParam id="825" interp="linr"  time="0/1" value="0" leadInLength="0/1"  />
             </VectorParam>
            </Transformer>
            <Parameters>
             <VectorParam id="826"  name="sourceCrop">
              <InterpolatingParam id="827" interp="linr"  time="0/1" value="0" leadInLength="0/1"  />
              <InterpolatingParam id="828" interp="linr"  time="0/1" value="0" leadInLength="0/1"  />
              <InterpolatingParam id="829" interp="linr"  time="0/1" value="0" leadInLength="0/1"  />
              <InterpolatingParam id="830" interp="linr"  time="0/1" value="0" leadInLength="0/1"  />
             </VectorParam>
             <VectorParam id="831"  name="geometryCrop">
              <InterpolatingParam id="832" interp="linr"  time="-9999999/1" value="0" leadInLength="0/1"  />
              <InterpolatingParam id="833" interp="linr"  time="-9999999/1" value="0" leadInLength="0/1"  />
              <InterpolatingParam id="834" interp="linr"  time="-9999999/1" value="0" leadInLength="0/1"  />
              <InterpolatingParam id="835" interp="linr"  time="-9999999/1" value="0" leadInLength="0/1"  />
             </VectorParam>
             <InterpolatingParam id="836" interp="linr"  time="-9999999/1" value="1" leadInLength="0/1"  name="opacity"/>
             <InterpolatingParam id="837" interp="linr"  time="0/1" value="0" leadInLength="0/1"  name="cursorOpacity"/>
             <InterpolatingParam id="838" interp="linr"  time="0/1" value="0" leadInLength="0/1"  name="cursorScale"/>
            </Parameters>
            <Attributes>
             <Attribute id="839" value="" name="ident"/>
            </Attributes>
            <MetaData>
             <entry key="AutoAppliedSmartFocus" val="False"/>
             <entry key="WinSubProjectDisplayName" val=""/>
            </MetaData>
            <ExtraData>
             <Entry key="ZoomPanBin">
              <ZoomPanBin id="840"  >
               <ZoomPanKeyframes>
                <ZoomPanKeyframe id="841" timeRangeEnd="-9999999/1" timeRangeDuration="0/1" interpolaterName="linr"  />
               </ZoomPanKeyframes>
              </ZoomPanBin>
             </Entry>
             <Entry key="CursorEffectBin">
              <CursorEffectBin id="842"  >
               <CursorEffectKeyframes>
               </CursorEffectKeyframes>
              </CursorEffectBin>
             </Entry>
            </ExtraData>
           </ScreenVMFile>
           <ScreenVMFile id="843" start="806" duration="1427" scalar="1/1" mediaStart="882/1" mediaDuration="1427/1" trackNumber="0" src="4" >
            <Transformer>
             <VectorParam id="844"  name="translation">
              <InterpolatingParam id="845" interp="linr"  time="-9999999/1" value="0" leadInLength="0/1"  />
              <InterpolatingParam id="846" interp="linr"  time="-9999999/1" value="0" leadInLength="0/1"  />
              <InterpolatingParam id="847" interp="linr"  time="-9999999/1" value="0" leadInLength="0/1"  />
             </VectorParam>
             <VectorParam id="848"  name="rotation">
              <InterpolatingParam id="849" interp="linr"  time="-9999999/1" value="0" leadInLength="0/1"  />
              <InterpolatingParam id="850" interp="linr"  time="-9999999/1" value="0" leadInLength="0/1"  />
              <InterpolatingParam id="851" interp="linr"  time="-9999999/1" value="0" leadInLength="0/1"  />
             </VectorParam>
             <VectorParam id="852"  name="shear">
              <InterpolatingParam id="853" interp="linr"  time="-9999999/1" value="0" leadInLength="0/1"  />
              <InterpolatingParam id="854" interp="linr"  time="-9999999/1" value="0" leadInLength="0/1"  />
              <InterpolatingParam id="855" interp="linr"  time="-9999999/1" value="0" leadInLength="0/1"  />
             </VectorParam>
             <VectorParam id="856"  name="scale">
              <InterpolatingParam id="857" interp="linr"  time="-9999999/1" value="1" leadInLength="0/1"  />
              <InterpolatingParam id="858" interp="linr"  time="-9999999/1" value="1" leadInLength="0/1"  />
              <InterpolatingParam id="859" interp="linr"  time="-9999999/1" value="1" leadInLength="0/1"  />
             </VectorParam>
             <VectorParam id="860"  name="anchor">
              <InterpolatingParam id="861" interp="linr"  time="0/1" value="0" leadInLength="0/1"  />
              <InterpolatingParam id="862" interp="linr"  time="0/1" value="0" leadInLength="0/1"  />
              <InterpolatingParam id="863" interp="linr"  time="0/1" value="0" leadInLength="0/1"  />
             </VectorParam>
            </Transformer>
            <Parameters>
             <VectorParam id="864"  name="sourceCrop">
              <InterpolatingParam id="865" interp="linr"  time="0/1" value="0" leadInLength="0/1"  />
              <InterpolatingParam id="866" interp="linr"  time="0/1" value="0" leadInLength="0/1"  />
              <InterpolatingParam id="867" interp="linr"  time="0/1" value="0" leadInLength="0/1"  />
              <InterpolatingParam id="868" interp="linr"  time="0/1" value="0" leadInLength="0/1"  />
             </VectorParam>
             <VectorParam id="869"  name="geometryCrop">
              <InterpolatingParam id="870" interp="linr"  time="-9999999/1" value="0" leadInLength="0/1"  />
              <InterpolatingParam id="871" interp="linr"  time="-9999999/1" value="0" leadInLength="0/1"  />
              <InterpolatingParam id="872" interp="linr"  time="-9999999/1" value="0" leadInLength="0/1"  />
              <InterpolatingParam id="873" interp="linr"  time="-9999999/1" value="0" leadInLength="0/1"  />
             </VectorParam>
             <InterpolatingParam id="874" interp="linr"  time="-9999999/1" value="1" leadInLength="0/1"  name="opacity"/>
             <InterpolatingParam id="875" interp="linr"  time="0/1" value="0" leadInLength="0/1"  name="cursorOpacity"/>
             <InterpolatingParam id="876" interp="linr"  time="0/1" value="0" leadInLength="0/1"  name="cursorScale"/>
            </Parameters>
            <Attributes>
             <Attribute id="877" value="" name="ident"/>
            </Attributes>
            <MetaData>
             <entry key="AutoAppliedSmartFocus" val="False"/>
             <entry key="WinSubProjectDisplayName" val=""/>
            </MetaData>
            <ExtraData>
             <Entry key="ZoomPanBin">
              <ZoomPanBin id="878"  >
               <ZoomPanKeyframes>
                <ZoomPanKeyframe id="879" timeRangeEnd="-9999999/1" timeRangeDuration="0/1" interpolaterName="linr"  />
               </ZoomPanKeyframes>
              </ZoomPanBin>
             </Entry>
             <Entry key="CursorEffectBin">
              <CursorEffectBin id="880"  >
               <CursorEffectKeyframes>
               </CursorEffectKeyframes>
              </CursorEffectBin>
             </Entry>
            </ExtraData>
           </ScreenVMFile>
           <ScreenVMFile id="881" start="2233" duration="434" scalar="1/1" mediaStart="2382/1" mediaDuration="434/1" trackNumber="0" src="4" >
            <Transformer>
             <VectorParam id="882"  name="translation">
              <InterpolatingParam id="883" interp="linr"  time="-9999999/1" value="0" leadInLength="0/1"  />
              <InterpolatingParam id="884" interp="linr"  time="-9999999/1" value="0" leadInLength="0/1"  />
              <InterpolatingParam id="885" interp="linr"  time="-9999999/1" value="0" leadInLength="0/1"  />
             </VectorParam>
             <VectorParam id="886"  name="rotation">
              <InterpolatingParam id="887" interp="linr"  time="-9999999/1" value="0" leadInLength="0/1"  />
              <InterpolatingParam id="888" interp="linr"  time="-9999999/1" value="0" leadInLength="0/1"  />
              <InterpolatingParam id="889" interp="linr"  time="-9999999/1" value="0" leadInLength="0/1"  />
             </VectorParam>
             <VectorParam id="890"  name="shear">
              <InterpolatingParam id="891" interp="linr"  time="-9999999/1" value="0" leadInLength="0/1"  />
              <InterpolatingParam id="892" interp="linr"  time="-9999999/1" value="0" leadInLength="0/1"  />
              <InterpolatingParam id="893" interp="linr"  time="-9999999/1" value="0" leadInLength="0/1"  />
             </VectorParam>
             <VectorParam id="894"  name="scale">
              <InterpolatingParam id="895" interp="linr"  time="-9999999/1" value="1" leadInLength="0/1"  />
              <InterpolatingParam id="896" interp="linr"  time="-9999999/1" value="1" leadInLength="0/1"  />
              <InterpolatingParam id="897" interp="linr"  time="-9999999/1" value="1" leadInLength="0/1"  />
             </VectorParam>
             <VectorParam id="898"  name="anchor">
              <InterpolatingParam id="899" interp="linr"  time="0/1" value="0" leadInLength="0/1"  />
              <InterpolatingParam id="900" interp="linr"  time="0/1" value="0" leadInLength="0/1"  />
              <InterpolatingParam id="901" interp="linr"  time="0/1" value="0" leadInLength="0/1"  />
             </VectorParam>
            </Transformer>
            <Parameters>
             <VectorParam id="902"  name="sourceCrop">
              <InterpolatingParam id="903" interp="linr"  time="0/1" value="0" leadInLength="0/1"  />
              <InterpolatingParam id="904" interp="linr"  time="0/1" value="0" leadInLength="0/1"  />
              <InterpolatingParam id="905" interp="linr"  time="0/1" value="0" leadInLength="0/1"  />
              <InterpolatingParam id="906" interp="linr"  time="0/1" value="0" leadInLength="0/1"  />
             </VectorParam>
             <VectorParam id="907"  name="geometryCrop">
              <InterpolatingParam id="908" interp="linr"  time="-9999999/1" value="0" leadInLength="0/1"  />
              <InterpolatingParam id="909" interp="linr"  time="-9999999/1" value="0" leadInLength="0/1"  />
              <InterpolatingParam id="910" interp="linr"  time="-9999999/1" value="0" leadInLength="0/1"  />
              <InterpolatingParam id="911" interp="linr"  time="-9999999/1" value="0" leadInLength="0/1"  />
             </VectorParam>
             <InterpolatingParam id="912" interp="linr"  time="-9999999/1" value="1" leadInLength="0/1"  name="opacity"/>
             <InterpolatingParam id="913" interp="linr"  time="0/1" value="0" leadInLength="0/1"  name="cursorOpacity"/>
             <InterpolatingParam id="914" interp="linr"  time="0/1" value="0" leadInLength="0/1"  name="cursorScale"/>
            </Parameters>
            <Attributes>
             <Attribute id="915" value="" name="ident"/>
            </Attributes>
            <MetaData>
             <entry key="AutoAppliedSmartFocus" val="False"/>
             <entry key="WinSubProjectDisplayName" val=""/>
            </MetaData>
            <ExtraData>
             <Entry key="ZoomPanBin">
              <ZoomPanBin id="916"  >
               <ZoomPanKeyframes>
                <ZoomPanKeyframe id="917" timeRangeEnd="-9999999/1" timeRangeDuration="0/1" interpolaterName="linr"  />
               </ZoomPanKeyframes>
              </ZoomPanBin>
             </Entry>
             <Entry key="CursorEffectBin">
              <CursorEffectBin id="918"  >
               <CursorEffectKeyframes>
               </CursorEffectKeyframes>
              </CursorEffectBin>
             </Entry>
            </ExtraData>
           </ScreenVMFile>
           <ScreenVMFile id="919" start="2667" duration="187" scalar="1/1" mediaStart="2860/1" mediaDuration="187/1" trackNumber="0" src="4" >
            <Transformer>
             <VectorParam id="920"  name="translation">
              <InterpolatingParam id="921" interp="linr"  time="-9999999/1" value="0" leadInLength="0/1"  />
              <InterpolatingParam id="922" interp="linr"  time="-9999999/1" value="0" leadInLength="0/1"  />
              <InterpolatingParam id="923" interp="linr"  time="-9999999/1" value="0" leadInLength="0/1"  />
             </VectorParam>
             <VectorParam id="924"  name="rotation">
              <InterpolatingParam id="925" interp="linr"  time="-9999999/1" value="0" leadInLength="0/1"  />
              <InterpolatingParam id="926" interp="linr"  time="-9999999/1" value="0" leadInLength="0/1"  />
              <InterpolatingParam id="927" interp="linr"  time="-9999999/1" value="0" leadInLength="0/1"  />
             </VectorParam>
             <VectorParam id="928"  name="shear">
              <InterpolatingParam id="929" interp="linr"  time="-9999999/1" value="0" leadInLength="0/1"  />
              <InterpolatingParam id="930" interp="linr"  time="-9999999/1" value="0" leadInLength="0/1"  />
              <InterpolatingParam id="931" interp="linr"  time="-9999999/1" value="0" leadInLength="0/1"  />
             </VectorParam>
             <VectorParam id="932"  name="scale">
              <InterpolatingParam id="933" interp="linr"  time="-9999999/1" value="1" leadInLength="0/1"  />
              <InterpolatingParam id="934" interp="linr"  time="-9999999/1" value="1" leadInLength="0/1"  />
              <InterpolatingParam id="935" interp="linr"  time="-9999999/1" value="1" leadInLength="0/1"  />
             </VectorParam>
             <VectorParam id="936"  name="anchor">
              <InterpolatingParam id="937" interp="linr"  time="0/1" value="0" leadInLength="0/1"  />
              <InterpolatingParam id="938" interp="linr"  time="0/1" value="0" leadInLength="0/1"  />
              <InterpolatingParam id="939" interp="linr"  time="0/1" value="0" leadInLength="0/1"  />
             </VectorParam>
            </Transformer>
            <Parameters>
             <VectorParam id="940"  name="sourceCrop">
              <InterpolatingParam id="941" interp="linr"  time="0/1" value="0" leadInLength="0/1"  />
              <InterpolatingParam id="942" interp="linr"  time="0/1" value="0" leadInLength="0/1"  />
              <InterpolatingParam id="943" interp="linr"  time="0/1" value="0" leadInLength="0/1"  />
              <InterpolatingParam id="944" interp="linr"  time="0/1" value="0" leadInLength="0/1"  />
             </VectorParam>
             <VectorParam id="945"  name="geometryCrop">
              <InterpolatingParam id="946" interp="linr"  time="-9999999/1" value="0" leadInLength="0/1"  />
              <InterpolatingParam id="947" interp="linr"  time="-9999999/1" value="0" leadInLength="0/1"  />
              <InterpolatingParam id="948" interp="linr"  time="-9999999/1" value="0" leadInLength="0/1"  />
              <InterpolatingParam id="949" interp="linr"  time="-9999999/1" value="0" leadInLength="0/1"  />
             </VectorParam>
             <InterpolatingParam id="950" interp="linr"  time="-9999999/1" value="1" leadInLength="0/1"  name="opacity"/>
             <InterpolatingParam id="951" interp="linr"  time="0/1" value="0" leadInLength="0/1"  name="cursorOpacity"/>
             <InterpolatingParam id="952" interp="linr"  time="0/1" value="0" leadInLength="0/1"  name="cursorScale"/>
            </Parameters>
            <Attributes>
             <Attribute id="953" value="" name="ident"/>
            </Attributes>
            <MetaData>
             <entry key="AutoAppliedSmartFocus" val="False"/>
             <entry key="WinSubProjectDisplayName" val=""/>
            </MetaData>
            <ExtraData>
             <Entry key="ZoomPanBin">
              <ZoomPanBin id="954"  >
               <ZoomPanKeyframes>
                <ZoomPanKeyframe id="955" timeRangeEnd="-9999999/1" timeRangeDuration="0/1" interpolaterName="linr"  />
               </ZoomPanKeyframes>
              </ZoomPanBin>
             </Entry>
             <Entry key="CursorEffectBin">
              <CursorEffectBin id="956"  >
               <CursorEffectKeyframes>
               </CursorEffectKeyframes>
              </CursorEffectBin>
             </Entry>
            </ExtraData>
           </ScreenVMFile>
           <ScreenVMFile id="957" start="2854" duration="101" scalar="1/1" mediaStart="3087/1" mediaDuration="101/1" trackNumber="0" src="4" >
            <Transformer>
             <VectorParam id="958"  name="translation">
              <InterpolatingParam id="959" interp="linr"  time="-9999999/1" value="0" leadInLength="0/1"  />
              <InterpolatingParam id="960" interp="linr"  time="-9999999/1" value="0" leadInLength="0/1"  />
              <InterpolatingParam id="961" interp="linr"  time="-9999999/1" value="0" leadInLength="0/1"  />
             </VectorParam>
             <VectorParam id="962"  name="rotation">
              <InterpolatingParam id="963" interp="linr"  time="-9999999/1" value="0" leadInLength="0/1"  />
              <InterpolatingParam id="964" interp="linr"  time="-9999999/1" value="0" leadInLength="0/1"  />
              <InterpolatingParam id="965" interp="linr"  time="-9999999/1" value="0" leadInLength="0/1"  />
             </VectorParam>
             <VectorParam id="966"  name="shear">
              <InterpolatingParam id="967" interp="linr"  time="-9999999/1" value="0" leadInLength="0/1"  />
              <InterpolatingParam id="968" interp="linr"  time="-9999999/1" value="0" leadInLength="0/1"  />
              <InterpolatingParam id="969" interp="linr"  time="-9999999/1" value="0" leadInLength="0/1"  />
             </VectorParam>
             <VectorParam id="970"  name="scale">
              <InterpolatingParam id="971" interp="linr"  time="-9999999/1" value="1" leadInLength="0/1"  />
              <InterpolatingParam id="972" interp="linr"  time="-9999999/1" value="1" leadInLength="0/1"  />
              <InterpolatingParam id="973" interp="linr"  time="-9999999/1" value="1" leadInLength="0/1"  />
             </VectorParam>
             <VectorParam id="974"  name="anchor">
              <InterpolatingParam id="975" interp="linr"  time="0/1" value="0" leadInLength="0/1"  />
              <InterpolatingParam id="976" interp="linr"  time="0/1" value="0" leadInLength="0/1"  />
              <InterpolatingParam id="977" interp="linr"  time="0/1" value="0" leadInLength="0/1"  />
             </VectorParam>
            </Transformer>
            <Parameters>
             <VectorParam id="978"  name="sourceCrop">
              <InterpolatingParam id="979" interp="linr"  time="0/1" value="0" leadInLength="0/1"  />
              <InterpolatingParam id="980" interp="linr"  time="0/1" value="0" leadInLength="0/1"  />
              <InterpolatingParam id="981" interp="linr"  time="0/1" value="0" leadInLength="0/1"  />
              <InterpolatingParam id="982" interp="linr"  time="0/1" value="0" leadInLength="0/1"  />
             </VectorParam>
             <VectorParam id="983"  name="geometryCrop">
              <InterpolatingParam id="984" interp="linr"  time="-9999999/1" value="0" leadInLength="0/1"  />
              <InterpolatingParam id="985" interp="linr"  time="-9999999/1" value="0" leadInLength="0/1"  />
              <InterpolatingParam id="986" interp="linr"  time="-9999999/1" value="0" leadInLength="0/1"  />
              <InterpolatingParam id="987" interp="linr"  time="-9999999/1" value="0" leadInLength="0/1"  />
             </VectorParam>
             <InterpolatingParam id="988" interp="linr"  time="-9999999/1" value="1" leadInLength="0/1"  name="opacity"/>
             <InterpolatingParam id="989" interp="linr"  time="0/1" value="0" leadInLength="0/1"  name="cursorOpacity"/>
             <InterpolatingParam id="990" interp="linr"  time="0/1" value="0" leadInLength="0/1"  name="cursorScale"/>
            </Parameters>
            <Attributes>
             <Attribute id="991" value="" name="ident"/>
            </Attributes>
            <MetaData>
             <entry key="AutoAppliedSmartFocus" val="False"/>
             <entry key="WinSubProjectDisplayName" val=""/>
            </MetaData>
            <ExtraData>
             <Entry key="ZoomPanBin">
              <ZoomPanBin id="992"  >
               <ZoomPanKeyframes>
                <ZoomPanKeyframe id="993" timeRangeEnd="-9999999/1" timeRangeDuration="0/1" interpolaterName="linr"  />
               </ZoomPanKeyframes>
              </ZoomPanBin>
             </Entry>
             <Entry key="CursorEffectBin">
              <CursorEffectBin id="994"  >
               <CursorEffectKeyframes>
               </CursorEffectKeyframes>
              </CursorEffectBin>
             </Entry>
            </ExtraData>
           </ScreenVMFile>
           <ScreenVMFile id="995" start="2955" duration="233" scalar="1/1" mediaStart="3217/1" mediaDuration="233/1" trackNumber="0" src="4" >
            <Transformer>
             <VectorParam id="996"  name="translation">
              <InterpolatingParam id="997" interp="linr"  time="-9999999/1" value="0" leadInLength="0/1"  />
              <InterpolatingParam id="998" interp="linr"  time="-9999999/1" value="0" leadInLength="0/1"  />
              <InterpolatingParam id="999" interp="linr"  time="-9999999/1" value="0" leadInLength="0/1"  />
             </VectorParam>
             <VectorParam id="1000"  name="rotation">
              <InterpolatingParam id="1001" interp="linr"  time="-9999999/1" value="0" leadInLength="0/1"  />
              <InterpolatingParam id="1002" interp="linr"  time="-9999999/1" value="0" leadInLength="0/1"  />
              <InterpolatingParam id="1003" interp="linr"  time="-9999999/1" value="0" leadInLength="0/1"  />
             </VectorParam>
             <VectorParam id="1004"  name="shear">
              <InterpolatingParam id="1005" interp="linr"  time="-9999999/1" value="0" leadInLength="0/1"  />
              <InterpolatingParam id="1006" interp="linr"  time="-9999999/1" value="0" leadInLength="0/1"  />
              <InterpolatingParam id="1007" interp="linr"  time="-9999999/1" value="0" leadInLength="0/1"  />
             </VectorParam>
             <VectorParam id="1008"  name="scale">
              <InterpolatingParam id="1009" interp="linr"  time="-9999999/1" value="1" leadInLength="0/1"  />
              <InterpolatingParam id="1010" interp="linr"  time="-9999999/1" value="1" leadInLength="0/1"  />
              <InterpolatingParam id="1011" interp="linr"  time="-9999999/1" value="1" leadInLength="0/1"  />
             </VectorParam>
             <VectorParam id="1012"  name="anchor">
              <InterpolatingParam id="1013" interp="linr"  time="0/1" value="0" leadInLength="0/1"  />
              <InterpolatingParam id="1014" interp="linr"  time="0/1" value="0" leadInLength="0/1"  />
              <InterpolatingParam id="1015" interp="linr"  time="0/1" value="0" leadInLength="0/1"  />
             </VectorParam>
            </Transformer>
            <Parameters>
             <VectorParam id="1016"  name="sourceCrop">
              <InterpolatingParam id="1017" interp="linr"  time="0/1" value="0" leadInLength="0/1"  />
              <InterpolatingParam id="1018" interp="linr"  time="0/1" value="0" leadInLength="0/1"  />
              <InterpolatingParam id="1019" interp="linr"  time="0/1" value="0" leadInLength="0/1"  />
              <InterpolatingParam id="1020" interp="linr"  time="0/1" value="0" leadInLength="0/1"  />
             </VectorParam>
             <VectorParam id="1021"  name="geometryCrop">
              <InterpolatingParam id="1022" interp="linr"  time="-9999999/1" value="0" leadInLength="0/1"  />
              <InterpolatingParam id="1023" interp="linr"  time="-9999999/1" value="0" leadInLength="0/1"  />
              <InterpolatingParam id="1024" interp="linr"  time="-9999999/1" value="0" leadInLength="0/1"  />
              <InterpolatingParam id="1025" interp="linr"  time="-9999999/1" value="0" leadInLength="0/1"  />
             </VectorParam>
             <InterpolatingParam id="1026" interp="linr"  time="-9999999/1" value="1" leadInLength="0/1"  name="opacity"/>
             <InterpolatingParam id="1027" interp="linr"  time="0/1" value="0" leadInLength="0/1"  name="cursorOpacity"/>
             <InterpolatingParam id="1028" interp="linr"  time="0/1" value="0" leadInLength="0/1"  name="cursorScale"/>
            </Parameters>
            <Attributes>
             <Attribute id="1029" value="" name="ident"/>
            </Attributes>
            <MetaData>
             <entry key="AutoAppliedSmartFocus" val="False"/>
             <entry key="WinSubProjectDisplayName" val=""/>
            </MetaData>
            <ExtraData>
             <Entry key="ZoomPanBin">
              <ZoomPanBin id="1030"  >
               <ZoomPanKeyframes>
                <ZoomPanKeyframe id="1031" timeRangeEnd="-9999999/1" timeRangeDuration="0/1" interpolaterName="linr"  />
               </ZoomPanKeyframes>
              </ZoomPanBin>
             </Entry>
             <Entry key="CursorEffectBin">
              <CursorEffectBin id="1032"  >
               <CursorEffectKeyframes>
               </CursorEffectKeyframes>
              </CursorEffectBin>
             </Entry>
            </ExtraData>
           </ScreenVMFile>
           <ScreenVMFile id="1033" start="3188" duration="303" scalar="1/1" mediaStart="3982/1" mediaDuration="303/1" trackNumber="0" src="4" >
            <Transformer>
             <VectorParam id="1034"  name="translation">
              <InterpolatingParam id="1035" interp="linr"  time="-9999999/1" value="0" leadInLength="0/1"  />
              <InterpolatingParam id="1036" interp="linr"  time="-9999999/1" value="0" leadInLength="0/1"  />
              <InterpolatingParam id="1037" interp="linr"  time="-9999999/1" value="0" leadInLength="0/1"  />
             </VectorParam>
             <VectorParam id="1038"  name="rotation">
              <InterpolatingParam id="1039" interp="linr"  time="-9999999/1" value="0" leadInLength="0/1"  />
              <InterpolatingParam id="1040" interp="linr"  time="-9999999/1" value="0" leadInLength="0/1"  />
              <InterpolatingParam id="1041" interp="linr"  time="-9999999/1" value="0" leadInLength="0/1"  />
             </VectorParam>
             <VectorParam id="1042"  name="shear">
              <InterpolatingParam id="1043" interp="linr"  time="-9999999/1" value="0" leadInLength="0/1"  />
              <InterpolatingParam id="1044" interp="linr"  time="-9999999/1" value="0" leadInLength="0/1"  />
              <InterpolatingParam id="1045" interp="linr"  time="-9999999/1" value="0" leadInLength="0/1"  />
             </VectorParam>
             <VectorParam id="1046"  name="scale">
              <InterpolatingParam id="1047" interp="linr"  time="-9999999/1" value="1" leadInLength="0/1"  />
              <InterpolatingParam id="1048" interp="linr"  time="-9999999/1" value="1" leadInLength="0/1"  />
              <InterpolatingParam id="1049" interp="linr"  time="-9999999/1" value="1" leadInLength="0/1"  />
             </VectorParam>
             <VectorParam id="1050"  name="anchor">
              <InterpolatingParam id="1051" interp="linr"  time="0/1" value="0" leadInLength="0/1"  />
              <InterpolatingParam id="1052" interp="linr"  time="0/1" value="0" leadInLength="0/1"  />
              <InterpolatingParam id="1053" interp="linr"  time="0/1" value="0" leadInLength="0/1"  />
             </VectorParam>
            </Transformer>
            <Parameters>
             <VectorParam id="1054"  name="sourceCrop">
              <InterpolatingParam id="1055" interp="linr"  time="0/1" value="0" leadInLength="0/1"  />
              <InterpolatingParam id="1056" interp="linr"  time="0/1" value="0" leadInLength="0/1"  />
              <InterpolatingParam id="1057" interp="linr"  time="0/1" value="0" leadInLength="0/1"  />
              <InterpolatingParam id="1058" interp="linr"  time="0/1" value="0" leadInLength="0/1"  />
             </VectorParam>
             <VectorParam id="1059"  name="geometryCrop">
              <InterpolatingParam id="1060" interp="linr"  time="-9999999/1" value="0" leadInLength="0/1"  />
              <InterpolatingParam id="1061" interp="linr"  time="-9999999/1" value="0" leadInLength="0/1"  />
              <InterpolatingParam id="1062" interp="linr"  time="-9999999/1" value="0" leadInLength="0/1"  />
              <InterpolatingParam id="1063" interp="linr"  time="-9999999/1" value="0" leadInLength="0/1"  />
             </VectorParam>
             <InterpolatingParam id="1064" interp="linr"  time="-9999999/1" value="1" leadInLength="0/1"  name="opacity"/>
             <InterpolatingParam id="1065" interp="linr"  time="0/1" value="0" leadInLength="0/1"  name="cursorOpacity"/>
             <InterpolatingParam id="1066" interp="linr"  time="0/1" value="0" leadInLength="0/1"  name="cursorScale"/>
            </Parameters>
            <Attributes>
             <Attribute id="1067" value="" name="ident"/>
            </Attributes>
            <MetaData>
             <entry key="AutoAppliedSmartFocus" val="False"/>
             <entry key="WinSubProjectDisplayName" val=""/>
            </MetaData>
            <ExtraData>
             <Entry key="ZoomPanBin">
              <ZoomPanBin id="1068"  >
               <ZoomPanKeyframes>
                <ZoomPanKeyframe id="1069" timeRangeEnd="-9999999/1" timeRangeDuration="0/1" interpolaterName="linr"  />
               </ZoomPanKeyframes>
              </ZoomPanBin>
             </Entry>
             <Entry key="CursorEffectBin">
              <CursorEffectBin id="1070"  >
               <CursorEffectKeyframes>
               </CursorEffectKeyframes>
              </CursorEffectBin>
             </Entry>
            </ExtraData>
           </ScreenVMFile>
           <ScreenVMFile id="1071" start="3491" duration="1353" scalar="1/1" mediaStart="4367/1" mediaDuration="1353/1" trackNumber="0" src="4" >
            <Transformer>
             <VectorParam id="1072"  name="translation">
              <InterpolatingParam id="1073" interp="linr"  time="-9999999/1" value="0" leadInLength="0/1"  />
              <InterpolatingParam id="1074" interp="linr"  time="-9999999/1" value="0" leadInLength="0/1"  />
              <InterpolatingParam id="1075" interp="linr"  time="-9999999/1" value="0" leadInLength="0/1"  />
             </VectorParam>
             <VectorParam id="1076"  name="rotation">
              <InterpolatingParam id="1077" interp="linr"  time="-9999999/1" value="0" leadInLength="0/1"  />
              <InterpolatingParam id="1078" interp="linr"  time="-9999999/1" value="0" leadInLength="0/1"  />
              <InterpolatingParam id="1079" interp="linr"  time="-9999999/1" value="0" leadInLength="0/1"  />
             </VectorParam>
             <VectorParam id="1080"  name="shear">
              <InterpolatingParam id="1081" interp="linr"  time="-9999999/1" value="0" leadInLength="0/1"  />
              <InterpolatingParam id="1082" interp="linr"  time="-9999999/1" value="0" leadInLength="0/1"  />
              <InterpolatingParam id="1083" interp="linr"  time="-9999999/1" value="0" leadInLength="0/1"  />
             </VectorParam>
             <VectorParam id="1084"  name="scale">
              <InterpolatingParam id="1085" interp="linr"  time="-9999999/1" value="1" leadInLength="0/1"  />
              <InterpolatingParam id="1086" interp="linr"  time="-9999999/1" value="1" leadInLength="0/1"  />
              <InterpolatingParam id="1087" interp="linr"  time="-9999999/1" value="1" leadInLength="0/1"  />
             </VectorParam>
             <VectorParam id="1088"  name="anchor">
              <InterpolatingParam id="1089" interp="linr"  time="0/1" value="0" leadInLength="0/1"  />
              <InterpolatingParam id="1090" interp="linr"  time="0/1" value="0" leadInLength="0/1"  />
              <InterpolatingParam id="1091" interp="linr"  time="0/1" value="0" leadInLength="0/1"  />
             </VectorParam>
            </Transformer>
            <Parameters>
             <VectorParam id="1092"  name="sourceCrop">
              <InterpolatingParam id="1093" interp="linr"  time="0/1" value="0" leadInLength="0/1"  />
              <InterpolatingParam id="1094" interp="linr"  time="0/1" value="0" leadInLength="0/1"  />
              <InterpolatingParam id="1095" interp="linr"  time="0/1" value="0" leadInLength="0/1"  />
              <InterpolatingParam id="1096" interp="linr"  time="0/1" value="0" leadInLength="0/1"  />
             </VectorParam>
             <VectorParam id="1097"  name="geometryCrop">
              <InterpolatingParam id="1098" interp="linr"  time="-9999999/1" value="0" leadInLength="0/1"  />
              <InterpolatingParam id="1099" interp="linr"  time="-9999999/1" value="0" leadInLength="0/1"  />
              <InterpolatingParam id="1100" interp="linr"  time="-9999999/1" value="0" leadInLength="0/1"  />
              <InterpolatingParam id="1101" interp="linr"  time="-9999999/1" value="0" leadInLength="0/1"  />
             </VectorParam>
             <InterpolatingParam id="1102" interp="linr"  time="-9999999/1" value="1" leadInLength="0/1"  name="opacity"/>
             <InterpolatingParam id="1103" interp="linr"  time="0/1" value="0" leadInLength="0/1"  name="cursorOpacity"/>
             <InterpolatingParam id="1104" interp="linr"  time="0/1" value="0" leadInLength="0/1"  name="cursorScale"/>
            </Parameters>
            <Attributes>
             <Attribute id="1105" value="" name="ident"/>
            </Attributes>
            <MetaData>
             <entry key="AutoAppliedSmartFocus" val="False"/>
             <entry key="WinSubProjectDisplayName" val=""/>
            </MetaData>
            <ExtraData>
             <Entry key="ZoomPanBin">
              <ZoomPanBin id="1106"  >
               <ZoomPanKeyframes>
                <ZoomPanKeyframe id="1107" timeRangeEnd="-9999999/1" timeRangeDuration="0/1" interpolaterName="linr"  />
               </ZoomPanKeyframes>
              </ZoomPanBin>
             </Entry>
             <Entry key="CursorEffectBin">
              <CursorEffectBin id="1108"  >
               <CursorEffectKeyframes>
               </CursorEffectKeyframes>
              </CursorEffectBin>
             </Entry>
            </ExtraData>
           </ScreenVMFile>
           <ScreenVMFile id="1109" start="4844" duration="1603" scalar="1/1" mediaStart="6179/1" mediaDuration="1603/1" trackNumber="0" src="4" >
            <Transformer>
             <VectorParam id="1110"  name="translation">
              <InterpolatingParam id="1111" interp="linr"  time="-9999999/1" value="0" leadInLength="0/1"  />
              <InterpolatingParam id="1112" interp="linr"  time="-9999999/1" value="0" leadInLength="0/1"  />
              <InterpolatingParam id="1113" interp="linr"  time="-9999999/1" value="0" leadInLength="0/1"  />
             </VectorParam>
             <VectorParam id="1114"  name="rotation">
              <InterpolatingParam id="1115" interp="linr"  time="-9999999/1" value="0" leadInLength="0/1"  />
              <InterpolatingParam id="1116" interp="linr"  time="-9999999/1" value="0" leadInLength="0/1"  />
              <InterpolatingParam id="1117" interp="linr"  time="-9999999/1" value="0" leadInLength="0/1"  />
             </VectorParam>
             <VectorParam id="1118"  name="shear">
              <InterpolatingParam id="1119" interp="linr"  time="-9999999/1" value="0" leadInLength="0/1"  />
              <InterpolatingParam id="1120" interp="linr"  time="-9999999/1" value="0" leadInLength="0/1"  />
              <InterpolatingParam id="1121" interp="linr"  time="-9999999/1" value="0" leadInLength="0/1"  />
             </VectorParam>
             <VectorParam id="1122"  name="scale">
              <InterpolatingParam id="1123" interp="linr"  time="-9999999/1" value="1" leadInLength="0/1"  />
              <InterpolatingParam id="1124" interp="linr"  time="-9999999/1" value="1" leadInLength="0/1"  />
              <InterpolatingParam id="1125" interp="linr"  time="-9999999/1" value="1" leadInLength="0/1"  />
             </VectorParam>
             <VectorParam id="1126"  name="anchor">
              <InterpolatingParam id="1127" interp="linr"  time="0/1" value="0" leadInLength="0/1"  />
              <InterpolatingParam id="1128" interp="linr"  time="0/1" value="0" leadInLength="0/1"  />
              <InterpolatingParam id="1129" interp="linr"  time="0/1" value="0" leadInLength="0/1"  />
             </VectorParam>
            </Transformer>
            <Parameters>
             <VectorParam id="1130"  name="sourceCrop">
              <InterpolatingParam id="1131" interp="linr"  time="0/1" value="0" leadInLength="0/1"  />
              <InterpolatingParam id="1132" interp="linr"  time="0/1" value="0" leadInLength="0/1"  />
              <InterpolatingParam id="1133" interp="linr"  time="0/1" value="0" leadInLength="0/1"  />
              <InterpolatingParam id="1134" interp="linr"  time="0/1" value="0" leadInLength="0/1"  />
             </VectorParam>
             <VectorParam id="1135"  name="geometryCrop">
              <InterpolatingParam id="1136" interp="linr"  time="-9999999/1" value="0" leadInLength="0/1"  />
              <InterpolatingParam id="1137" interp="linr"  time="-9999999/1" value="0" leadInLength="0/1"  />
              <InterpolatingParam id="1138" interp="linr"  time="-9999999/1" value="0" leadInLength="0/1"  />
              <InterpolatingParam id="1139" interp="linr"  time="-9999999/1" value="0" leadInLength="0/1"  />
             </VectorParam>
             <InterpolatingParam id="1140" interp="linr"  time="-9999999/1" value="1" leadInLength="0/1"  name="opacity"/>
             <InterpolatingParam id="1141" interp="linr"  time="0/1" value="0" leadInLength="0/1"  name="cursorOpacity"/>
             <InterpolatingParam id="1142" interp="linr"  time="0/1" value="0" leadInLength="0/1"  name="cursorScale"/>
            </Parameters>
            <Attributes>
             <Attribute id="1143" value="" name="ident"/>
            </Attributes>
            <MetaData>
             <entry key="AutoAppliedSmartFocus" val="False"/>
             <entry key="WinSubProjectDisplayName" val=""/>
            </MetaData>
            <ExtraData>
             <Entry key="ZoomPanBin">
              <ZoomPanBin id="1144"  >
               <ZoomPanKeyframes>
                <ZoomPanKeyframe id="1145" timeRangeEnd="-9999999/1" timeRangeDuration="0/1" interpolaterName="linr"  />
               </ZoomPanKeyframes>
              </ZoomPanBin>
             </Entry>
             <Entry key="CursorEffectBin">
              <CursorEffectBin id="1146"  >
               <CursorEffectKeyframes>
               </CursorEffectKeyframes>
              </CursorEffectBin>
             </Entry>
            </ExtraData>
           </ScreenVMFile>
          </Medias>
         </GenericTrack>
        </StitchedMedia>
        <UnifiedMedia id="1147"  >
         <AudioTransition id="1148" start="4513" duration="30" >
          <Parameters>
           <InterpolatingParam id="1149" interp="linr"  time="0/1" value="1" leadInLength="0/1"  name="volume"/>
           <Parameter id="1150"  name="captions"/>
          </Parameters>
          <Effects>
           <GenericEffect id="1151" name = "AudioTransition" >
            <Parameters>
            <Parameter id="1152"   name="audioEdgeModType">
             <Keyframes>
             <Keyframe id="1153"  time="0/1" value="0" leadInLength="0/1"  />
             </Keyframes>
            </Parameter>
            <Parameter id="1154"   name="audioTransitionType">
             <Keyframes>
             <Keyframe id="1155"  time="0/1" value="" leadInLength="0/1"  />
             </Keyframes>
            </Parameter>
            </Parameters>
            <MetaData>
            </MetaData>
           </GenericEffect>
          </Effects>
          <Attributes>
           <Attribute id="1156" value="" name="ident"/>
           <Attribute id="1157" value="0" name="sampleRate"/>
           <Attribute id="1158" value="0" name="bitDepth"/>
           <Attribute id="1159" value="1" name="gain"/>
          </Attributes>
         </AudioTransition>
         <ImageTransition id="1160" start="4513" duration="30" >
          <Transformer>
           <VectorParam id="1161"  name="translation">
            <InterpolatingParam id="1162" interp="linr"  time="0/1" value="0" leadInLength="0/1"  />
            <InterpolatingParam id="1163" interp="linr"  time="0/1" value="0" leadInLength="0/1"  />
            <InterpolatingParam id="1164" interp="linr"  time="0/1" value="0" leadInLength="0/1"  />
           </VectorParam>
           <VectorParam id="1165"  name="rotation">
            <InterpolatingParam id="1166" interp="linr"  time="0/1" value="0" leadInLength="0/1"  />
            <InterpolatingParam id="1167" interp="linr"  time="0/1" value="0" leadInLength="0/1"  />
            <InterpolatingParam id="1168" interp="linr"  time="0/1" value="0" leadInLength="0/1"  />
           </VectorParam>
           <VectorParam id="1169"  name="shear">
            <InterpolatingParam id="1170" interp="linr"  time="0/1" value="0" leadInLength="0/1"  />
            <InterpolatingParam id="1171" interp="linr"  time="0/1" value="0" leadInLength="0/1"  />
            <InterpolatingParam id="1172" interp="linr"  time="0/1" value="0" leadInLength="0/1"  />
           </VectorParam>
           <VectorParam id="1173"  name="scale">
            <InterpolatingParam id="1174" interp="linr"  time="0/1" value="1" leadInLength="0/1"  />
            <InterpolatingParam id="1175" interp="linr"  time="0/1" value="1" leadInLength="0/1"  />
            <InterpolatingParam id="1176" interp="linr"  time="0/1" value="1" leadInLength="0/1"  />
           </VectorParam>
           <VectorParam id="1177"  name="anchor">
            <InterpolatingParam id="1178" interp="linr"  time="0/1" value="0" leadInLength="0/1"  />
            <InterpolatingParam id="1179" interp="linr"  time="0/1" value="0" leadInLength="0/1"  />
            <InterpolatingParam id="1180" interp="linr"  time="0/1" value="0" leadInLength="0/1"  />
           </VectorParam>
          </Transformer>
          <Parameters>
           <VectorParam id="1181"  name="sourceCrop">
            <InterpolatingParam id="1182" interp="linr"  time="0/1" value="0" leadInLength="0/1"  />
            <InterpolatingParam id="1183" interp="linr"  time="0/1" value="0" leadInLength="0/1"  />
            <InterpolatingParam id="1184" interp="linr"  time="0/1" value="0" leadInLength="0/1"  />
            <InterpolatingParam id="1185" interp="linr"  time="0/1" value="0" leadInLength="0/1"  />
           </VectorParam>
           <VectorParam id="1186"  name="geometryCrop">
            <InterpolatingParam id="1187" interp="linr"  time="0/1" value="0" leadInLength="0/1"  />
            <InterpolatingParam id="1188" interp="linr"  time="0/1" value="0" leadInLength="0/1"  />
            <InterpolatingParam id="1189" interp="linr"  time="0/1" value="0" leadInLength="0/1"  />
            <InterpolatingParam id="1190" interp="linr"  time="0/1" value="0" leadInLength="0/1"  />
           </VectorParam>
           <InterpolatingParam id="1191" interp="linr"  time="0/1" value="1" leadInLength="0/1"  name="opacity"/>
          </Parameters>
          <Effects>
           <GenericEffect id="1192" name = "VisualTransition" >
            <Parameters>
            <InterpolatingParam id="1193" interp="linr"  time="0/1" value="1" leadInLength="0/1"   name="leftFramePercentage"/>
            <InterpolatingParam id="1194" interp="linr"  time="0/1" value="1" leadInLength="0/1"   name="rightFramePercentage"/>
            <Parameter id="1195"   name="visualEdgeModType">
             <Keyframes>
             <Keyframe id="1196"  time="0/1" value="0" leadInLength="0/1"  />
             </Keyframes>
            </Parameter>
            <Parameter id="1197"   name="visualTransitionType">
             <Keyframes>
             <Keyframe id="1198"  time="0/1" value="FadeThruBlack" leadInLength="0/1"  />
             </Keyframes>
            </Parameter>
            </Parameters>
            <MetaData>
            </MetaData>
           </GenericEffect>
          </Effects>
          <Attributes>
           <Attribute id="1199" value="" name="ident"/>
          </Attributes>
          <ExtraData>
           <Entry key="ZoomPanBin">
            <ZoomPanBin id="1200"  >
             <ZoomPanKeyframes>
             </ZoomPanKeyframes>
            </ZoomPanBin>
           </Entry>
          </ExtraData>
         </ImageTransition>
         <MetaData>
          <entry key="WinSubProjectDisplayName" val=""/>
         </MetaData>
        </UnifiedMedia>
        <StitchedMedia id="1201" start="4543" duration="3213" scalar="1/1" mediaStart="15/1" mediaDuration="3213/1" minMediaStart="0/1" >
         <Transformer>
          <VectorParam id="1202"  name="translation">
           <InterpolatingParam id="1203" interp="linr"  time="-9999999/1" value="0" leadInLength="0/1"  />
           <InterpolatingParam id="1204" interp="linr"  time="-9999999/1" value="0" leadInLength="0/1"  />
           <InterpolatingParam id="1205" interp="linr"  time="-9999999/1" value="0" leadInLength="0/1"  />
          </VectorParam>
          <VectorParam id="1206"  name="rotation">
           <InterpolatingParam id="1207" interp="linr"  time="-9999999/1" value="0" leadInLength="0/1"  />
           <InterpolatingParam id="1208" interp="linr"  time="-9999999/1" value="0" leadInLength="0/1"  />
           <InterpolatingParam id="1209" interp="linr"  time="-9999999/1" value="0" leadInLength="0/1"  />
          </VectorParam>
          <VectorParam id="1210"  name="shear">
           <InterpolatingParam id="1211" interp="linr"  time="-9999999/1" value="0" leadInLength="0/1"  />
           <InterpolatingParam id="1212" interp="linr"  time="-9999999/1" value="0" leadInLength="0/1"  />
           <InterpolatingParam id="1213" interp="linr"  time="-9999999/1" value="0" leadInLength="0/1"  />
          </VectorParam>
          <VectorParam id="1214"  name="scale">
           <InterpolatingParam id="1215" interp="linr"  time="-9999999/1" value="0.9375" leadInLength="0/1"  />
           <InterpolatingParam id="1216" interp="linr"  time="-9999999/1" value="0.9375" leadInLength="0/1"  />
           <InterpolatingParam id="1217" interp="linr"  time="-9999999/1" value="1" leadInLength="0/1"  />
          </VectorParam>
          <VectorParam id="1218"  name="anchor">
           <InterpolatingParam id="1219" interp="linr"  time="0/1" value="0" leadInLength="0/1"  />
           <InterpolatingParam id="1220" interp="linr"  time="0/1" value="0" leadInLength="0/1"  />
           <InterpolatingParam id="1221" interp="linr"  time="0/1" value="0" leadInLength="0/1"  />
          </VectorParam>
         </Transformer>
         <Parameters>
          <VectorParam id="1222"  name="sourceCrop">
           <InterpolatingParam id="1223" interp="linr"  time="0/1" value="0" leadInLength="0/1"  />
           <InterpolatingParam id="1224" interp="linr"  time="0/1" value="0" leadInLength="0/1"  />
           <InterpolatingParam id="1225" interp="linr"  time="0/1" value="0" leadInLength="0/1"  />
           <InterpolatingParam id="1226" interp="linr"  time="0/1" value="0" leadInLength="0/1"  />
          </VectorParam>
          <VectorParam id="1227"  name="geometryCrop">
           <InterpolatingParam id="1228" interp="linr"  time="-9999999/1" value="0" leadInLength="0/1"  />
           <InterpolatingParam id="1229" interp="linr"  time="-9999999/1" value="0" leadInLength="0/1"  />
           <InterpolatingParam id="1230" interp="linr"  time="-9999999/1" value="0" leadInLength="0/1"  />
           <InterpolatingParam id="1231" interp="linr"  time="-9999999/1" value="0" leadInLength="0/1"  />
          </VectorParam>
          <InterpolatingParam id="1232" interp="linr"  time="-9999999/1" value="1" leadInLength="0/1"  name="opacity"/>
          <InterpolatingParam id="1233" interp="linr"  time="0/1" value="1" leadInLength="0/1"  name="cursorOpacity"/>
          <InterpolatingParam id="1234" interp="linr"  time="0/1" value="1" leadInLength="0/1"  name="cursorScale"/>
          <Parameter id="1235"  name="captions"/>
         </Parameters>
         <Effects>
          <GenericEffect id="1236" name = "CursorBaseEffectName" >
           <Parameters>
           <InterpolatingParam id="1237" interp="linr"  time="-9999999/1" value="1" leadInLength="0/1"   name="cursorSize"/>
           <InterpolatingParam id="1238" interp="linr"  time="-9999999/1" value="0" leadInLength="0/1"   name="highlightBlurRadius"/>
           <InterpolatingParam id="1239" interp="linr"  time="-9999999/1" value="0" leadInLength="0/1"   name="highlightColorBlue"/>
           <InterpolatingParam id="1240" interp="linr"  time="-9999999/1" value="255" leadInLength="0/1"   name="highlightColorGreen"/>
           <InterpolatingParam id="1241" interp="linr"  time="-9999999/1" value="255" leadInLength="0/1"   name="highlightColorRed"/>
           <InterpolatingParam id="1242" interp="linr"  time="-9999999/1" value="5" leadInLength="0/1"   name="highlightFeatherSize"/>
           <InterpolatingParam id="1243" interp="linr"  time="-9999999/1" value="2" leadInLength="0/1"   name="highlightMagnification"/>
           <InterpolatingParam id="1244" interp="linr"  time="-9999999/1" value="1" leadInLength="0/1"   name="highlightOpacity"/>
           <InterpolatingParam id="1245" interp="linr"  time="-9999999/1" value="45" leadInLength="0/1"   name="highlightSize"/>
           <Parameter id="1246"   name="highlightType">
            <Keyframes>
            <Keyframe id="1247"  time="-9999999/1" value="0" leadInLength="0/1"  />
            </Keyframes>
           </Parameter>
           <InterpolatingParam id="1248" interp="linr"  time="-9999999/1" value="0" leadInLength="0/1"   name="leftClickColorBlue"/>
           <InterpolatingParam id="1249" interp="linr"  time="-9999999/1" value="0" leadInLength="0/1"   name="leftClickColorGreen"/>
           <InterpolatingParam id="1250" interp="linr"  time="-9999999/1" value="255" leadInLength="0/1"   name="leftClickColorRed"/>
           <InterpolatingParam id="1251" interp="linr"  time="-9999999/1" value="0.80000000000000004" leadInLength="0/1"   name="leftClickDuration"/>
           <InterpolatingParam id="1252" interp="linr"  time="-9999999/1" value="20" leadInLength="0/1"   name="leftClickSize"/>
           <Parameter id="1253"   name="leftClickSoundFilename">
            <Keyframes>
            <Keyframe id="1254"  time="-9999999/1" value="" leadInLength="0/1"  />
            </Keyframes>
           </Parameter>
           <InterpolatingParam id="1255" interp="linr"  time="-9999999/1" value="1" leadInLength="0/1"   name="leftClickSoundVolume"/>
           <Parameter id="1256"   name="leftClickType">
            <Keyframes>
            <Keyframe id="1257"  time="-9999999/1" value="0" leadInLength="0/1"  />
            </Keyframes>
           </Parameter>
           <InterpolatingParam id="1258" interp="linr"  time="-9999999/1" value="1" leadInLength="0/1"   name="opacity"/>
           <InterpolatingParam id="1259" interp="linr"  time="-9999999/1" value="255" leadInLength="0/1"   name="rightClickColorBlue"/>
           <InterpolatingParam id="1260" interp="linr"  time="-9999999/1" value="0" leadInLength="0/1"   name="rightClickColorGreen"/>
           <InterpolatingParam id="1261" interp="linr"  time="-9999999/1" value="0" leadInLength="0/1"   name="rightClickColorRed"/>
           <InterpolatingParam id="1262" interp="linr"  time="-9999999/1" value="0.80000000000000004" leadInLength="0/1"   name="rightClickDuration"/>
           <InterpolatingParam id="1263" interp="linr"  time="-9999999/1" value="20" leadInLength="0/1"   name="rightClickSize"/>
           <Parameter id="1264"   name="rightClickSoundFilename">
            <Keyframes>
            <Keyframe id="1265"  time="-9999999/1" value="" leadInLength="0/1"  />
            </Keyframes>
           </Parameter>
           <InterpolatingParam id="1266" interp="linr"  time="-9999999/1" value="1" leadInLength="0/1"   name="rightClickSoundVolume"/>
           <Parameter id="1267"   name="rightClickType">
            <Keyframes>
            <Keyframe id="1268"  time="-9999999/1" value="0" leadInLength="0/1"  />
            </Keyframes>
           </Parameter>
           </Parameters>
           <MetaData>
            <entry key="effectIndex" val="0"/>
           </MetaData>
          </GenericEffect>
         </Effects>
         <Attributes>
          <Attribute id="1269" value="" name="ident"/>
         </Attributes>
         <MetaData>
          <entry key="AutoAppliedSmartFocus" val="False"/>
          <entry key="WinSubProjectDisplayName" val=""/>
         </MetaData>
         <ExtraData>
          <Entry key="ZoomPanBin">
           <ZoomPanBin id="1270"  >
            <ZoomPanKeyframes>
             <ZoomPanKeyframe id="1271" timeRangeEnd="-9999999/1" timeRangeDuration="0/1" interpolaterName="linr"  />
            </ZoomPanKeyframes>
           </ZoomPanBin>
          </Entry>
          <Entry key="CursorEffectBin">
           <CursorEffectBin id="1272"  >
            <CursorEffectKeyframes>
             <CursorEffectKeyframe id="1273" timeRangeEnd="-9999999/1" timeRangeDuration="0/1" interpolaterName=""  />
            </CursorEffectKeyframes>
           </CursorEffectBin>
          </Entry>
         </ExtraData>
         <GenericTrack id="1274"  >
          <Attributes>
           <Attribute id="1275" value="" name="ident"/>
          </Attributes>
          <MetaData>
           <entry key="IsLocked" val="False"/>
           <entry key="WinTrackHeight" val="0"/>
          </MetaData>
          <Medias>
           <ScreenVMFile id="1276" start="0" duration="690" scalar="1/1" mediaStart="0/1" mediaDuration="690/1" trackNumber="0" src="5" >
            <Transformer>
             <VectorParam id="1277"  name="translation">
              <InterpolatingParam id="1278" interp="linr"  time="-9999999/1" value="0" leadInLength="0/1"  />
              <InterpolatingParam id="1279" interp="linr"  time="-9999999/1" value="0" leadInLength="0/1"  />
              <InterpolatingParam id="1280" interp="linr"  time="-9999999/1" value="0" leadInLength="0/1"  />
             </VectorParam>
             <VectorParam id="1281"  name="rotation">
              <InterpolatingParam id="1282" interp="linr"  time="-9999999/1" value="0" leadInLength="0/1"  />
              <InterpolatingParam id="1283" interp="linr"  time="-9999999/1" value="0" leadInLength="0/1"  />
              <InterpolatingParam id="1284" interp="linr"  time="-9999999/1" value="0" leadInLength="0/1"  />
             </VectorParam>
             <VectorParam id="1285"  name="shear">
              <InterpolatingParam id="1286" interp="linr"  time="-9999999/1" value="0" leadInLength="0/1"  />
              <InterpolatingParam id="1287" interp="linr"  time="-9999999/1" value="0" leadInLength="0/1"  />
              <InterpolatingParam id="1288" interp="linr"  time="-9999999/1" value="0" leadInLength="0/1"  />
             </VectorParam>
             <VectorParam id="1289"  name="scale">
              <InterpolatingParam id="1290" interp="linr"  time="-9999999/1" value="1" leadInLength="0/1"  />
              <InterpolatingParam id="1291" interp="linr"  time="-9999999/1" value="1" leadInLength="0/1"  />
              <InterpolatingParam id="1292" interp="linr"  time="-9999999/1" value="1" leadInLength="0/1"  />
             </VectorParam>
             <VectorParam id="1293"  name="anchor">
              <InterpolatingParam id="1294" interp="linr"  time="0/1" value="0" leadInLength="0/1"  />
              <InterpolatingParam id="1295" interp="linr"  time="0/1" value="0" leadInLength="0/1"  />
              <InterpolatingParam id="1296" interp="linr"  time="0/1" value="0" leadInLength="0/1"  />
             </VectorParam>
            </Transformer>
            <Parameters>
             <VectorParam id="1297"  name="sourceCrop">
              <InterpolatingParam id="1298" interp="linr"  time="0/1" value="0" leadInLength="0/1"  />
              <InterpolatingParam id="1299" interp="linr"  time="0/1" value="0" leadInLength="0/1"  />
              <InterpolatingParam id="1300" interp="linr"  time="0/1" value="0" leadInLength="0/1"  />
              <InterpolatingParam id="1301" interp="linr"  time="0/1" value="0" leadInLength="0/1"  />
             </VectorParam>
             <VectorParam id="1302"  name="geometryCrop">
              <InterpolatingParam id="1303" interp="linr"  time="-9999999/1" value="0" leadInLength="0/1"  />
              <InterpolatingParam id="1304" interp="linr"  time="-9999999/1" value="0" leadInLength="0/1"  />
              <InterpolatingParam id="1305" interp="linr"  time="-9999999/1" value="0" leadInLength="0/1"  />
              <InterpolatingParam id="1306" interp="linr"  time="-9999999/1" value="0" leadInLength="0/1"  />
             </VectorParam>
             <InterpolatingParam id="1307" interp="linr"  time="-9999999/1" value="1" leadInLength="0/1"  name="opacity"/>
             <InterpolatingParam id="1308" interp="linr"  time="0/1" value="0" leadInLength="0/1"  name="cursorOpacity"/>
             <InterpolatingParam id="1309" interp="linr"  time="0/1" value="0" leadInLength="0/1"  name="cursorScale"/>
            </Parameters>
            <Attributes>
             <Attribute id="1310" value="" name="ident"/>
            </Attributes>
            <MetaData>
             <entry key="AutoAppliedSmartFocus" val="False"/>
             <entry key="WinSubProjectDisplayName" val=""/>
            </MetaData>
            <ExtraData>
             <Entry key="ZoomPanBin">
              <ZoomPanBin id="1311"  >
               <ZoomPanKeyframes>
                <ZoomPanKeyframe id="1312" timeRangeEnd="-9999999/1" timeRangeDuration="0/1" interpolaterName="linr"  />
               </ZoomPanKeyframes>
              </ZoomPanBin>
             </Entry>
             <Entry key="CursorEffectBin">
              <CursorEffectBin id="1313"  >
               <CursorEffectKeyframes>
               </CursorEffectKeyframes>
              </CursorEffectBin>
             </Entry>
            </ExtraData>
           </ScreenVMFile>
           <ScreenVMFile id="1314" start="690" duration="397" scalar="1/1" mediaStart="765/1" mediaDuration="397/1" trackNumber="0" src="5" >
            <Transformer>
             <VectorParam id="1315"  name="translation">
              <InterpolatingParam id="1316" interp="linr"  time="-9999999/1" value="0" leadInLength="0/1"  />
              <InterpolatingParam id="1317" interp="linr"  time="-9999999/1" value="0" leadInLength="0/1"  />
              <InterpolatingParam id="1318" interp="linr"  time="-9999999/1" value="0" leadInLength="0/1"  />
             </VectorParam>
             <VectorParam id="1319"  name="rotation">
              <InterpolatingParam id="1320" interp="linr"  time="-9999999/1" value="0" leadInLength="0/1"  />
              <InterpolatingParam id="1321" interp="linr"  time="-9999999/1" value="0" leadInLength="0/1"  />
              <InterpolatingParam id="1322" interp="linr"  time="-9999999/1" value="0" leadInLength="0/1"  />
             </VectorParam>
             <VectorParam id="1323"  name="shear">
              <InterpolatingParam id="1324" interp="linr"  time="-9999999/1" value="0" leadInLength="0/1"  />
              <InterpolatingParam id="1325" interp="linr"  time="-9999999/1" value="0" leadInLength="0/1"  />
              <InterpolatingParam id="1326" interp="linr"  time="-9999999/1" value="0" leadInLength="0/1"  />
             </VectorParam>
             <VectorParam id="1327"  name="scale">
              <InterpolatingParam id="1328" interp="linr"  time="-9999999/1" value="1" leadInLength="0/1"  />
              <InterpolatingParam id="1329" interp="linr"  time="-9999999/1" value="1" leadInLength="0/1"  />
              <InterpolatingParam id="1330" interp="linr"  time="-9999999/1" value="1" leadInLength="0/1"  />
             </VectorParam>
             <VectorParam id="1331"  name="anchor">
              <InterpolatingParam id="1332" interp="linr"  time="0/1" value="0" leadInLength="0/1"  />
              <InterpolatingParam id="1333" interp="linr"  time="0/1" value="0" leadInLength="0/1"  />
              <InterpolatingParam id="1334" interp="linr"  time="0/1" value="0" leadInLength="0/1"  />
             </VectorParam>
            </Transformer>
            <Parameters>
             <VectorParam id="1335"  name="sourceCrop">
              <InterpolatingParam id="1336" interp="linr"  time="0/1" value="0" leadInLength="0/1"  />
              <InterpolatingParam id="1337" interp="linr"  time="0/1" value="0" leadInLength="0/1"  />
              <InterpolatingParam id="1338" interp="linr"  time="0/1" value="0" leadInLength="0/1"  />
              <InterpolatingParam id="1339" interp="linr"  time="0/1" value="0" leadInLength="0/1"  />
             </VectorParam>
             <VectorParam id="1340"  name="geometryCrop">
              <InterpolatingParam id="1341" interp="linr"  time="-9999999/1" value="0" leadInLength="0/1"  />
              <InterpolatingParam id="1342" interp="linr"  time="-9999999/1" value="0" leadInLength="0/1"  />
              <InterpolatingParam id="1343" interp="linr"  time="-9999999/1" value="0" leadInLength="0/1"  />
              <InterpolatingParam id="1344" interp="linr"  time="-9999999/1" value="0" leadInLength="0/1"  />
             </VectorParam>
             <InterpolatingParam id="1345" interp="linr"  time="-9999999/1" value="1" leadInLength="0/1"  name="opacity"/>
             <InterpolatingParam id="1346" interp="linr"  time="0/1" value="0" leadInLength="0/1"  name="cursorOpacity"/>
             <InterpolatingParam id="1347" interp="linr"  time="0/1" value="0" leadInLength="0/1"  name="cursorScale"/>
            </Parameters>
            <Attributes>
             <Attribute id="1348" value="" name="ident"/>
            </Attributes>
            <MetaData>
             <entry key="AutoAppliedSmartFocus" val="False"/>
             <entry key="WinSubProjectDisplayName" val=""/>
            </MetaData>
            <ExtraData>
             <Entry key="ZoomPanBin">
              <ZoomPanBin id="1349"  >
               <ZoomPanKeyframes>
                <ZoomPanKeyframe id="1350" timeRangeEnd="-9999999/1" timeRangeDuration="0/1" interpolaterName="linr"  />
               </ZoomPanKeyframes>
              </ZoomPanBin>
             </Entry>
             <Entry key="CursorEffectBin">
              <CursorEffectBin id="1351"  >
               <CursorEffectKeyframes>
               </CursorEffectKeyframes>
              </CursorEffectBin>
             </Entry>
            </ExtraData>
           </ScreenVMFile>
           <ScreenVMFile id="1352" start="1087" duration="935" scalar="1/1" mediaStart="1204/1" mediaDuration="935/1" trackNumber="0" src="5" >
            <Transformer>
             <VectorParam id="1353"  name="translation">
              <InterpolatingParam id="1354" interp="linr"  time="-9999999/1" value="0" leadInLength="0/1"  />
              <InterpolatingParam id="1355" interp="linr"  time="-9999999/1" value="0" leadInLength="0/1"  />
              <InterpolatingParam id="1356" interp="linr"  time="-9999999/1" value="0" leadInLength="0/1"  />
             </VectorParam>
             <VectorParam id="1357"  name="rotation">
              <InterpolatingParam id="1358" interp="linr"  time="-9999999/1" value="0" leadInLength="0/1"  />
              <InterpolatingParam id="1359" interp="linr"  time="-9999999/1" value="0" leadInLength="0/1"  />
              <InterpolatingParam id="1360" interp="linr"  time="-9999999/1" value="0" leadInLength="0/1"  />
             </VectorParam>
             <VectorParam id="1361"  name="shear">
              <InterpolatingParam id="1362" interp="linr"  time="-9999999/1" value="0" leadInLength="0/1"  />
              <InterpolatingParam id="1363" interp="linr"  time="-9999999/1" value="0" leadInLength="0/1"  />
              <InterpolatingParam id="1364" interp="linr"  time="-9999999/1" value="0" leadInLength="0/1"  />
             </VectorParam>
             <VectorParam id="1365"  name="scale">
              <InterpolatingParam id="1366" interp="linr"  time="-9999999/1" value="1" leadInLength="0/1"  />
              <InterpolatingParam id="1367" interp="linr"  time="-9999999/1" value="1" leadInLength="0/1"  />
              <InterpolatingParam id="1368" interp="linr"  time="-9999999/1" value="1" leadInLength="0/1"  />
             </VectorParam>
             <VectorParam id="1369"  name="anchor">
              <InterpolatingParam id="1370" interp="linr"  time="0/1" value="0" leadInLength="0/1"  />
              <InterpolatingParam id="1371" interp="linr"  time="0/1" value="0" leadInLength="0/1"  />
              <InterpolatingParam id="1372" interp="linr"  time="0/1" value="0" leadInLength="0/1"  />
             </VectorParam>
            </Transformer>
            <Parameters>
             <VectorParam id="1373"  name="sourceCrop">
              <InterpolatingParam id="1374" interp="linr"  time="0/1" value="0" leadInLength="0/1"  />
              <InterpolatingParam id="1375" interp="linr"  time="0/1" value="0" leadInLength="0/1"  />
              <InterpolatingParam id="1376" interp="linr"  time="0/1" value="0" leadInLength="0/1"  />
              <InterpolatingParam id="1377" interp="linr"  time="0/1" value="0" leadInLength="0/1"  />
             </VectorParam>
             <VectorParam id="1378"  name="geometryCrop">
              <InterpolatingParam id="1379" interp="linr"  time="-9999999/1" value="0" leadInLength="0/1"  />
              <InterpolatingParam id="1380" interp="linr"  time="-9999999/1" value="0" leadInLength="0/1"  />
              <InterpolatingParam id="1381" interp="linr"  time="-9999999/1" value="0" leadInLength="0/1"  />
              <InterpolatingParam id="1382" interp="linr"  time="-9999999/1" value="0" leadInLength="0/1"  />
             </VectorParam>
             <InterpolatingParam id="1383" interp="linr"  time="-9999999/1" value="1" leadInLength="0/1"  name="opacity"/>
             <InterpolatingParam id="1384" interp="linr"  time="0/1" value="0" leadInLength="0/1"  name="cursorOpacity"/>
             <InterpolatingParam id="1385" interp="linr"  time="0/1" value="0" leadInLength="0/1"  name="cursorScale"/>
            </Parameters>
            <Attributes>
             <Attribute id="1386" value="" name="ident"/>
            </Attributes>
            <MetaData>
             <entry key="AutoAppliedSmartFocus" val="False"/>
             <entry key="WinSubProjectDisplayName" val=""/>
            </MetaData>
            <ExtraData>
             <Entry key="ZoomPanBin">
              <ZoomPanBin id="1387"  >
               <ZoomPanKeyframes>
                <ZoomPanKeyframe id="1388" timeRangeEnd="-9999999/1" timeRangeDuration="0/1" interpolaterName="linr"  />
               </ZoomPanKeyframes>
              </ZoomPanBin>
             </Entry>
             <Entry key="CursorEffectBin">
              <CursorEffectBin id="1389"  >
               <CursorEffectKeyframes>
               </CursorEffectKeyframes>
              </CursorEffectBin>
             </Entry>
            </ExtraData>
           </ScreenVMFile>
           <ScreenVMFile id="1390" start="2022" duration="1251" scalar="1/1" mediaStart="2466/1" mediaDuration="1251/1" trackNumber="0" src="5" >
            <Transformer>
             <VectorParam id="1391"  name="translation">
              <InterpolatingParam id="1392" interp="linr"  time="-9999999/1" value="0" leadInLength="0/1"  />
              <InterpolatingParam id="1393" interp="linr"  time="-9999999/1" value="0" leadInLength="0/1"  />
              <InterpolatingParam id="1394" interp="linr"  time="-9999999/1" value="0" leadInLength="0/1"  />
             </VectorParam>
             <VectorParam id="1395"  name="rotation">
              <InterpolatingParam id="1396" interp="linr"  time="-9999999/1" value="0" leadInLength="0/1"  />
              <InterpolatingParam id="1397" interp="linr"  time="-9999999/1" value="0" leadInLength="0/1"  />
              <InterpolatingParam id="1398" interp="linr"  time="-9999999/1" value="0" leadInLength="0/1"  />
             </VectorParam>
             <VectorParam id="1399"  name="shear">
              <InterpolatingParam id="1400" interp="linr"  time="-9999999/1" value="0" leadInLength="0/1"  />
              <InterpolatingParam id="1401" interp="linr"  time="-9999999/1" value="0" leadInLength="0/1"  />
              <InterpolatingParam id="1402" interp="linr"  time="-9999999/1" value="0" leadInLength="0/1"  />
             </VectorParam>
             <VectorParam id="1403"  name="scale">
              <InterpolatingParam id="1404" interp="linr"  time="-9999999/1" value="1" leadInLength="0/1"  />
              <InterpolatingParam id="1405" interp="linr"  time="-9999999/1" value="1" leadInLength="0/1"  />
              <InterpolatingParam id="1406" interp="linr"  time="-9999999/1" value="1" leadInLength="0/1"  />
             </VectorParam>
             <VectorParam id="1407"  name="anchor">
              <InterpolatingParam id="1408" interp="linr"  time="0/1" value="0" leadInLength="0/1"  />
              <InterpolatingParam id="1409" interp="linr"  time="0/1" value="0" leadInLength="0/1"  />
              <InterpolatingParam id="1410" interp="linr"  time="0/1" value="0" leadInLength="0/1"  />
             </VectorParam>
            </Transformer>
            <Parameters>
             <VectorParam id="1411"  name="sourceCrop">
              <InterpolatingParam id="1412" interp="linr"  time="0/1" value="0" leadInLength="0/1"  />
              <InterpolatingParam id="1413" interp="linr"  time="0/1" value="0" leadInLength="0/1"  />
              <InterpolatingParam id="1414" interp="linr"  time="0/1" value="0" leadInLength="0/1"  />
              <InterpolatingParam id="1415" interp="linr"  time="0/1" value="0" leadInLength="0/1"  />
             </VectorParam>
             <VectorParam id="1416"  name="geometryCrop">
              <InterpolatingParam id="1417" interp="linr"  time="-9999999/1" value="0" leadInLength="0/1"  />
              <InterpolatingParam id="1418" interp="linr"  time="-9999999/1" value="0" leadInLength="0/1"  />
              <InterpolatingParam id="1419" interp="linr"  time="-9999999/1" value="0" leadInLength="0/1"  />
              <InterpolatingParam id="1420" interp="linr"  time="-9999999/1" value="0" leadInLength="0/1"  />
             </VectorParam>
             <InterpolatingParam id="1421" interp="linr"  time="-9999999/1" value="1" leadInLength="0/1"  name="opacity"/>
             <InterpolatingParam id="1422" interp="linr"  time="0/1" value="0" leadInLength="0/1"  name="cursorOpacity"/>
             <InterpolatingParam id="1423" interp="linr"  time="0/1" value="0" leadInLength="0/1"  name="cursorScale"/>
            </Parameters>
            <Attributes>
             <Attribute id="1424" value="" name="ident"/>
            </Attributes>
            <MetaData>
             <entry key="AutoAppliedSmartFocus" val="False"/>
             <entry key="WinSubProjectDisplayName" val=""/>
            </MetaData>
            <ExtraData>
             <Entry key="ZoomPanBin">
              <ZoomPanBin id="1425"  >
               <ZoomPanKeyframes>
                <ZoomPanKeyframe id="1426" timeRangeEnd="-9999999/1" timeRangeDuration="0/1" interpolaterName="linr"  />
               </ZoomPanKeyframes>
              </ZoomPanBin>
             </Entry>
             <Entry key="CursorEffectBin">
              <CursorEffectBin id="1427"  >
               <CursorEffectKeyframes>
               </CursorEffectKeyframes>
              </CursorEffectBin>
             </Entry>
            </ExtraData>
           </ScreenVMFile>
          </Medias>
         </GenericTrack>
        </StitchedMedia>
       </Medias>
      </GenericTrack>
      <GenericTrack id="1428"  >
       <Attributes>
        <Attribute id="1429" value="" name="ident"/>
       </Attributes>
       <MetaData>
        <entry key="IsLocked" val="False"/>
        <entry key="WinTrackHeight" val="62"/>
       </MetaData>
       <Medias>
        <StitchedMedia id="1430" start="0" duration="2872" scalar="1/1" mediaStart="0/1" mediaDuration="2872/1" minMediaStart="0/1" >
         <Transformer>
          <VectorParam id="1431"  name="translation">
           <InterpolatingParam id="1432" interp="linr"  time="0/1" value="0" leadInLength="0/1"  />
           <InterpolatingParam id="1433" interp="linr"  time="0/1" value="0" leadInLength="0/1"  />
           <InterpolatingParam id="1434" interp="linr"  time="0/1" value="0" leadInLength="0/1"  />
          </VectorParam>
          <VectorParam id="1435"  name="rotation">
           <InterpolatingParam id="1436" interp="linr"  time="0/1" value="0" leadInLength="0/1"  />
           <InterpolatingParam id="1437" interp="linr"  time="0/1" value="0" leadInLength="0/1"  />
           <InterpolatingParam id="1438" interp="linr"  time="0/1" value="0" leadInLength="0/1"  />
          </VectorParam>
          <VectorParam id="1439"  name="shear">
           <InterpolatingParam id="1440" interp="linr"  time="0/1" value="0" leadInLength="0/1"  />
           <InterpolatingParam id="1441" interp="linr"  time="0/1" value="0" leadInLength="0/1"  />
           <InterpolatingParam id="1442" interp="linr"  time="0/1" value="0" leadInLength="0/1"  />
          </VectorParam>
          <VectorParam id="1443"  name="scale">
           <InterpolatingParam id="1444" interp="linr"  time="0/1" value="1" leadInLength="0/1"  />
           <InterpolatingParam id="1445" interp="linr"  time="0/1" value="1" leadInLength="0/1"  />
           <InterpolatingParam id="1446" interp="linr"  time="0/1" value="1" leadInLength="0/1"  />
          </VectorParam>
          <VectorParam id="1447"  name="anchor">
           <InterpolatingParam id="1448" interp="linr"  time="0/1" value="0" leadInLength="0/1"  />
           <InterpolatingParam id="1449" interp="linr"  time="0/1" value="0" leadInLength="0/1"  />
           <InterpolatingParam id="1450" interp="linr"  time="0/1" value="0" leadInLength="0/1"  />
          </VectorParam>
         </Transformer>
         <Parameters>
          <InterpolatingParam id="1451" interp="linr"  time="0/1" value="1" leadInLength="0/1"  name="cursorOpacity"/>
          <InterpolatingParam id="1452" interp="linr"  time="0/1" value="1" leadInLength="0/1"  name="cursorScale"/>
          <InterpolatingParam id="1453" interp="linr"  name="volume">
           <Keyframes>
           <Keyframe id="1454"  time="0/1" value="5" leadInLength="0/1"  />
           <Keyframe id="1455"  time="805/1" value="5" leadInLength="0/1"  />
           <Keyframe id="1456"  time="1611/2" value="0" leadInLength="0/1"  />
           <Keyframe id="1457"  time="806/1" value="5" leadInLength="0/1"  />
           </Keyframes>
          </InterpolatingParam>
          <Parameter id="1458"  name="captions"/>
         </Parameters>
         <Attributes>
          <Attribute id="1459" value="" name="ident"/>
         </Attributes>
         <MetaData>
          <entry key="WinSubProjectDisplayName" val=""/>
         </MetaData>
         <ExtraData>
          <Entry key="ZoomPanBin">
           <ZoomPanBin id="1460"  >
            <ZoomPanKeyframes>
            </ZoomPanKeyframes>
           </ZoomPanBin>
          </Entry>
          <Entry key="CursorEffectBin">
           <CursorEffectBin id="1461"  >
            <CursorEffectKeyframes>
            </CursorEffectKeyframes>
           </CursorEffectBin>
          </Entry>
         </ExtraData>
         <GenericTrack id="1462"  >
          <Attributes>
           <Attribute id="1463" value="" name="ident"/>
          </Attributes>
          <MetaData>
           <entry key="IsLocked" val="False"/>
           <entry key="WinTrackHeight" val="0"/>
          </MetaData>
          <Medias>
           <AMFile id="1464" start="0" duration="806" scalar="1/1" mediaStart="0/1" mediaDuration="806/1" trackNumber="1" src="4" channelNumber="0" >
            <Parameters>
             <InterpolatingParam id="1465" interp="linr"  time="0/1" value="1" leadInLength="0/1"  name="volume"/>
             <Parameter id="1466"  name="captions"/>
            </Parameters>
            <Attributes>
             <Attribute id="1467" value="" name="ident"/>
             <Attribute id="1468" value="22050" name="sampleRate"/>
             <Attribute id="1469" value="16" name="bitDepth"/>
             <Attribute id="1470" value="1" name="gain"/>
            </Attributes>
            <MetaData>
             <entry key="WinSubProjectDisplayName" val=""/>
            </MetaData>
           </AMFile>
           <AMFile id="1471" start="806" duration="179" scalar="1/1" mediaStart="882/1" mediaDuration="179/1" trackNumber="1" src="4" channelNumber="0" >
            <Parameters>
             <InterpolatingParam id="1472" interp="linr"  time="0/1" value="1" leadInLength="0/1"  name="volume"/>
             <Parameter id="1473"  name="captions"/>
            </Parameters>
            <Attributes>
             <Attribute id="1474" value="" name="ident"/>
             <Attribute id="1475" value="22050" name="sampleRate"/>
             <Attribute id="1476" value="16" name="bitDepth"/>
             <Attribute id="1477" value="1" name="gain"/>
            </Attributes>
            <MetaData>
             <entry key="WinSubProjectDisplayName" val=""/>
            </MetaData>
           </AMFile>
           <AMFile id="1478" start="985" duration="8" scalar="1/1" mediaStart="1261/1" mediaDuration="8/1" trackNumber="1" src="4" channelNumber="0" >
            <Parameters>
             <InterpolatingParam id="1479" interp="linr"  time="0/1" value="1" leadInLength="0/1"  name="volume"/>
             <Parameter id="1480"  name="captions"/>
            </Parameters>
            <Attributes>
             <Attribute id="1481" value="" name="ident"/>
             <Attribute id="1482" value="22050" name="sampleRate"/>
             <Attribute id="1483" value="16" name="bitDepth"/>
             <Attribute id="1484" value="1" name="gain"/>
            </Attributes>
            <MetaData>
             <entry key="WinSubProjectDisplayName" val=""/>
            </MetaData>
           </AMFile>
           <AMFile id="1485" start="993" duration="925" scalar="1/1" mediaStart="1384/1" mediaDuration="925/1" trackNumber="1" src="4" channelNumber="0" >
            <Parameters>
             <InterpolatingParam id="1486" interp="linr"  time="0/1" value="1" leadInLength="0/1"  name="volume"/>
             <Parameter id="1487"  name="captions"/>
            </Parameters>
            <Attributes>
             <Attribute id="1488" value="" name="ident"/>
             <Attribute id="1489" value="22050" name="sampleRate"/>
             <Attribute id="1490" value="16" name="bitDepth"/>
             <Attribute id="1491" value="1" name="gain"/>
            </Attributes>
            <MetaData>
             <entry key="WinSubProjectDisplayName" val=""/>
            </MetaData>
           </AMFile>
           <AMFile id="1492" start="1918" duration="434" scalar="1/1" mediaStart="2382/1" mediaDuration="434/1" trackNumber="1" src="4" channelNumber="0" >
            <Parameters>
             <InterpolatingParam id="1493" interp="linr"  time="0/1" value="1" leadInLength="0/1"  name="volume"/>
             <Parameter id="1494"  name="captions"/>
            </Parameters>
            <Attributes>
             <Attribute id="1495" value="" name="ident"/>
             <Attribute id="1496" value="22050" name="sampleRate"/>
             <Attribute id="1497" value="16" name="bitDepth"/>
             <Attribute id="1498" value="1" name="gain"/>
            </Attributes>
            <MetaData>
             <entry key="WinSubProjectDisplayName" val=""/>
            </MetaData>
           </AMFile>
           <AMFile id="1499" start="2352" duration="187" scalar="1/1" mediaStart="2860/1" mediaDuration="187/1" trackNumber="1" src="4" channelNumber="0" >
            <Parameters>
             <InterpolatingParam id="1500" interp="linr"  time="0/1" value="1" leadInLength="0/1"  name="volume"/>
             <Parameter id="1501"  name="captions"/>
            </Parameters>
            <Attributes>
             <Attribute id="1502" value="" name="ident"/>
             <Attribute id="1503" value="22050" name="sampleRate"/>
             <Attribute id="1504" value="16" name="bitDepth"/>
             <Attribute id="1505" value="1" name="gain"/>
            </Attributes>
            <MetaData>
             <entry key="WinSubProjectDisplayName" val=""/>
            </MetaData>
           </AMFile>
           <AMFile id="1506" start="2539" duration="101" scalar="1/1" mediaStart="3087/1" mediaDuration="101/1" trackNumber="1" src="4" channelNumber="0" >
            <Parameters>
             <InterpolatingParam id="1507" interp="linr"  time="0/1" value="1" leadInLength="0/1"  name="volume"/>
             <Parameter id="1508"  name="captions"/>
            </Parameters>
            <Attributes>
             <Attribute id="1509" value="" name="ident"/>
             <Attribute id="1510" value="22050" name="sampleRate"/>
             <Attribute id="1511" value="16" name="bitDepth"/>
             <Attribute id="1512" value="1" name="gain"/>
            </Attributes>
            <MetaData>
             <entry key="WinSubProjectDisplayName" val=""/>
            </MetaData>
           </AMFile>
           <AMFile id="1513" start="2640" duration="233" scalar="1/1" mediaStart="3217/1" mediaDuration="233/1" trackNumber="1" src="4" channelNumber="0" >
            <Parameters>
             <InterpolatingParam id="1514" interp="linr"  time="0/1" value="1" leadInLength="0/1"  name="volume"/>
             <Parameter id="1515"  name="captions"/>
            </Parameters>
            <Attributes>
             <Attribute id="1516" value="" name="ident"/>
             <Attribute id="1517" value="22050" name="sampleRate"/>
             <Attribute id="1518" value="16" name="bitDepth"/>
             <Attribute id="1519" value="1" name="gain"/>
            </Attributes>
            <MetaData>
             <entry key="WinSubProjectDisplayName" val=""/>
            </MetaData>
           </AMFile>
           <AMFile id="1520" start="2873" duration="3803" scalar="1/1" mediaStart="3982/1" mediaDuration="3803/1" trackNumber="1" src="4" channelNumber="0" >
            <Parameters>
             <InterpolatingParam id="1521" interp="linr"  time="0/1" value="1" leadInLength="0/1"  name="volume"/>
             <Parameter id="1522"  name="captions"/>
            </Parameters>
            <Attributes>
             <Attribute id="1523" value="" name="ident"/>
             <Attribute id="1524" value="22050" name="sampleRate"/>
             <Attribute id="1525" value="16" name="bitDepth"/>
             <Attribute id="1526" value="1" name="gain"/>
            </Attributes>
            <MetaData>
             <entry key="WinSubProjectDisplayName" val=""/>
            </MetaData>
           </AMFile>
          </Medias>
         </GenericTrack>
        </StitchedMedia>
        <StitchedMedia id="1527" start="2872" duration="1656" scalar="1/1" mediaStart="3187/1" mediaDuration="1656/1" minMediaStart="0/1" >
         <Transformer>
          <VectorParam id="1528"  name="translation">
           <InterpolatingParam id="1529" interp="linr"  time="0/1" value="0" leadInLength="0/1"  />
           <InterpolatingParam id="1530" interp="linr"  time="0/1" value="0" leadInLength="0/1"  />
           <InterpolatingParam id="1531" interp="linr"  time="0/1" value="0" leadInLength="0/1"  />
          </VectorParam>
          <VectorParam id="1532"  name="rotation">
           <InterpolatingParam id="1533" interp="linr"  time="0/1" value="0" leadInLength="0/1"  />
           <InterpolatingParam id="1534" interp="linr"  time="0/1" value="0" leadInLength="0/1"  />
           <InterpolatingParam id="1535" interp="linr"  time="0/1" value="0" leadInLength="0/1"  />
          </VectorParam>
          <VectorParam id="1536"  name="shear">
           <InterpolatingParam id="1537" interp="linr"  time="0/1" value="0" leadInLength="0/1"  />
           <InterpolatingParam id="1538" interp="linr"  time="0/1" value="0" leadInLength="0/1"  />
           <InterpolatingParam id="1539" interp="linr"  time="0/1" value="0" leadInLength="0/1"  />
          </VectorParam>
          <VectorParam id="1540"  name="scale">
           <InterpolatingParam id="1541" interp="linr"  time="0/1" value="1" leadInLength="0/1"  />
           <InterpolatingParam id="1542" interp="linr"  time="0/1" value="1" leadInLength="0/1"  />
           <InterpolatingParam id="1543" interp="linr"  time="0/1" value="1" leadInLength="0/1"  />
          </VectorParam>
          <VectorParam id="1544"  name="anchor">
           <InterpolatingParam id="1545" interp="linr"  time="0/1" value="0" leadInLength="0/1"  />
           <InterpolatingParam id="1546" interp="linr"  time="0/1" value="0" leadInLength="0/1"  />
           <InterpolatingParam id="1547" interp="linr"  time="0/1" value="0" leadInLength="0/1"  />
          </VectorParam>
         </Transformer>
         <Parameters>
          <InterpolatingParam id="1548" interp="linr"  time="0/1" value="1" leadInLength="0/1"  name="cursorOpacity"/>
          <InterpolatingParam id="1549" interp="linr"  time="0/1" value="1" leadInLength="0/1"  name="cursorScale"/>
          <InterpolatingParam id="1550" interp="linr"  name="volume">
           <Keyframes>
           <Keyframe id="1551"  time="0/1" value="5" leadInLength="0/1"  />
           <Keyframe id="1552"  time="805/1" value="5" leadInLength="0/1"  />
           <Keyframe id="1553"  time="1611/2" value="0" leadInLength="0/1"  />
           <Keyframe id="1554"  time="806/1" value="5" leadInLength="0/1"  />
           </Keyframes>
          </InterpolatingParam>
          <Parameter id="1555"  name="captions"/>
         </Parameters>
         <Attributes>
          <Attribute id="1556" value="" name="ident"/>
         </Attributes>
         <MetaData>
          <entry key="WinSubProjectDisplayName" val=""/>
         </MetaData>
         <ExtraData>
          <Entry key="ZoomPanBin">
           <ZoomPanBin id="1557"  >
            <ZoomPanKeyframes>
            </ZoomPanKeyframes>
           </ZoomPanBin>
          </Entry>
          <Entry key="CursorEffectBin">
           <CursorEffectBin id="1558"  >
            <CursorEffectKeyframes>
            </CursorEffectKeyframes>
           </CursorEffectBin>
          </Entry>
         </ExtraData>
         <GenericTrack id="1559"  >
          <Attributes>
           <Attribute id="1560" value="" name="ident"/>
          </Attributes>
          <MetaData>
           <entry key="IsLocked" val="False"/>
           <entry key="WinTrackHeight" val="0"/>
          </MetaData>
          <Medias>
           <AMFile id="1561" start="0" duration="806" scalar="1/1" mediaStart="0/1" mediaDuration="806/1" trackNumber="1" src="4" channelNumber="0" >
            <Parameters>
             <InterpolatingParam id="1562" interp="linr"  time="0/1" value="1" leadInLength="0/1"  name="volume"/>
             <Parameter id="1563"  name="captions"/>
            </Parameters>
            <Attributes>
             <Attribute id="1564" value="" name="ident"/>
             <Attribute id="1565" value="22050" name="sampleRate"/>
             <Attribute id="1566" value="16" name="bitDepth"/>
             <Attribute id="1567" value="1" name="gain"/>
            </Attributes>
            <MetaData>
             <entry key="WinSubProjectDisplayName" val=""/>
            </MetaData>
           </AMFile>
           <AMFile id="1568" start="806" duration="1427" scalar="1/1" mediaStart="882/1" mediaDuration="1427/1" trackNumber="1" src="4" channelNumber="0" >
            <Parameters>
             <InterpolatingParam id="1569" interp="linr"  time="0/1" value="1" leadInLength="0/1"  name="volume"/>
             <Parameter id="1570"  name="captions"/>
            </Parameters>
            <Attributes>
             <Attribute id="1571" value="" name="ident"/>
             <Attribute id="1572" value="22050" name="sampleRate"/>
             <Attribute id="1573" value="16" name="bitDepth"/>
             <Attribute id="1574" value="1" name="gain"/>
            </Attributes>
            <MetaData>
             <entry key="WinSubProjectDisplayName" val=""/>
            </MetaData>
           </AMFile>
           <AMFile id="1575" start="2233" duration="434" scalar="1/1" mediaStart="2382/1" mediaDuration="434/1" trackNumber="1" src="4" channelNumber="0" >
            <Parameters>
             <InterpolatingParam id="1576" interp="linr"  time="0/1" value="1" leadInLength="0/1"  name="volume"/>
             <Parameter id="1577"  name="captions"/>
            </Parameters>
            <Attributes>
             <Attribute id="1578" value="" name="ident"/>
             <Attribute id="1579" value="22050" name="sampleRate"/>
             <Attribute id="1580" value="16" name="bitDepth"/>
             <Attribute id="1581" value="1" name="gain"/>
            </Attributes>
            <MetaData>
             <entry key="WinSubProjectDisplayName" val=""/>
            </MetaData>
           </AMFile>
           <AMFile id="1582" start="2667" duration="187" scalar="1/1" mediaStart="2860/1" mediaDuration="187/1" trackNumber="1" src="4" channelNumber="0" >
            <Parameters>
             <InterpolatingParam id="1583" interp="linr"  time="0/1" value="1" leadInLength="0/1"  name="volume"/>
             <Parameter id="1584"  name="captions"/>
            </Parameters>
            <Attributes>
             <Attribute id="1585" value="" name="ident"/>
             <Attribute id="1586" value="22050" name="sampleRate"/>
             <Attribute id="1587" value="16" name="bitDepth"/>
             <Attribute id="1588" value="1" name="gain"/>
            </Attributes>
            <MetaData>
             <entry key="WinSubProjectDisplayName" val=""/>
            </MetaData>
           </AMFile>
           <AMFile id="1589" start="2854" duration="101" scalar="1/1" mediaStart="3087/1" mediaDuration="101/1" trackNumber="1" src="4" channelNumber="0" >
            <Parameters>
             <InterpolatingParam id="1590" interp="linr"  time="0/1" value="1" leadInLength="0/1"  name="volume"/>
             <Parameter id="1591"  name="captions"/>
            </Parameters>
            <Attributes>
             <Attribute id="1592" value="" name="ident"/>
             <Attribute id="1593" value="22050" name="sampleRate"/>
             <Attribute id="1594" value="16" name="bitDepth"/>
             <Attribute id="1595" value="1" name="gain"/>
            </Attributes>
            <MetaData>
             <entry key="WinSubProjectDisplayName" val=""/>
            </MetaData>
           </AMFile>
           <AMFile id="1596" start="2955" duration="233" scalar="1/1" mediaStart="3217/1" mediaDuration="233/1" trackNumber="1" src="4" channelNumber="0" >
            <Parameters>
             <InterpolatingParam id="1597" interp="linr"  time="0/1" value="1" leadInLength="0/1"  name="volume"/>
             <Parameter id="1598"  name="captions"/>
            </Parameters>
            <Attributes>
             <Attribute id="1599" value="" name="ident"/>
             <Attribute id="1600" value="22050" name="sampleRate"/>
             <Attribute id="1601" value="16" name="bitDepth"/>
             <Attribute id="1602" value="1" name="gain"/>
            </Attributes>
            <MetaData>
             <entry key="WinSubProjectDisplayName" val=""/>
            </MetaData>
           </AMFile>
           <AMFile id="1603" start="3188" duration="303" scalar="1/1" mediaStart="3982/1" mediaDuration="303/1" trackNumber="1" src="4" channelNumber="0" >
            <Parameters>
             <InterpolatingParam id="1604" interp="linr"  time="0/1" value="1" leadInLength="0/1"  name="volume"/>
             <Parameter id="1605"  name="captions"/>
            </Parameters>
            <Attributes>
             <Attribute id="1606" value="" name="ident"/>
             <Attribute id="1607" value="22050" name="sampleRate"/>
             <Attribute id="1608" value="16" name="bitDepth"/>
             <Attribute id="1609" value="1" name="gain"/>
            </Attributes>
            <MetaData>
             <entry key="WinSubProjectDisplayName" val=""/>
            </MetaData>
           </AMFile>
           <AMFile id="1610" start="3491" duration="1353" scalar="1/1" mediaStart="4367/1" mediaDuration="1353/1" trackNumber="1" src="4" channelNumber="0" >
            <Parameters>
             <InterpolatingParam id="1611" interp="linr"  time="0/1" value="1" leadInLength="0/1"  name="volume"/>
             <Parameter id="1612"  name="captions"/>
            </Parameters>
            <Attributes>
             <Attribute id="1613" value="" name="ident"/>
             <Attribute id="1614" value="22050" name="sampleRate"/>
             <Attribute id="1615" value="16" name="bitDepth"/>
             <Attribute id="1616" value="1" name="gain"/>
            </Attributes>
            <MetaData>
             <entry key="WinSubProjectDisplayName" val=""/>
            </MetaData>
           </AMFile>
           <AMFile id="1617" start="4844" duration="1606" scalar="1/1" mediaStart="6179/1" mediaDuration="1606/1" trackNumber="1" src="4" channelNumber="0" >
            <Parameters>
             <InterpolatingParam id="1618" interp="linr"  time="0/1" value="1" leadInLength="0/1"  name="volume"/>
             <Parameter id="1619"  name="captions"/>
            </Parameters>
            <Attributes>
             <Attribute id="1620" value="" name="ident"/>
             <Attribute id="1621" value="22050" name="sampleRate"/>
             <Attribute id="1622" value="16" name="bitDepth"/>
             <Attribute id="1623" value="1" name="gain"/>
            </Attributes>
            <MetaData>
             <entry key="WinSubProjectDisplayName" val=""/>
            </MetaData>
           </AMFile>
          </Medias>
         </GenericTrack>
        </StitchedMedia>
        <StitchedMedia id="1624" start="4528" duration="3228" scalar="1/1" mediaStart="0/1" mediaDuration="3228/1" minMediaStart="0/1" >
         <Transformer>
          <VectorParam id="1625"  name="translation">
           <InterpolatingParam id="1626" interp="linr"  time="0/1" value="0" leadInLength="0/1"  />
           <InterpolatingParam id="1627" interp="linr"  time="0/1" value="0" leadInLength="0/1"  />
           <InterpolatingParam id="1628" interp="linr"  time="0/1" value="0" leadInLength="0/1"  />
          </VectorParam>
          <VectorParam id="1629"  name="rotation">
           <InterpolatingParam id="1630" interp="linr"  time="0/1" value="0" leadInLength="0/1"  />
           <InterpolatingParam id="1631" interp="linr"  time="0/1" value="0" leadInLength="0/1"  />
           <InterpolatingParam id="1632" interp="linr"  time="0/1" value="0" leadInLength="0/1"  />
          </VectorParam>
          <VectorParam id="1633"  name="shear">
           <InterpolatingParam id="1634" interp="linr"  time="0/1" value="0" leadInLength="0/1"  />
           <InterpolatingParam id="1635" interp="linr"  time="0/1" value="0" leadInLength="0/1"  />
           <InterpolatingParam id="1636" interp="linr"  time="0/1" value="0" leadInLength="0/1"  />
          </VectorParam>
          <VectorParam id="1637"  name="scale">
           <InterpolatingParam id="1638" interp="linr"  time="0/1" value="1" leadInLength="0/1"  />
           <InterpolatingParam id="1639" interp="linr"  time="0/1" value="1" leadInLength="0/1"  />
           <InterpolatingParam id="1640" interp="linr"  time="0/1" value="1" leadInLength="0/1"  />
          </VectorParam>
          <VectorParam id="1641"  name="anchor">
           <InterpolatingParam id="1642" interp="linr"  time="0/1" value="0" leadInLength="0/1"  />
           <InterpolatingParam id="1643" interp="linr"  time="0/1" value="0" leadInLength="0/1"  />
           <InterpolatingParam id="1644" interp="linr"  time="0/1" value="0" leadInLength="0/1"  />
          </VectorParam>
         </Transformer>
         <Parameters>
          <InterpolatingParam id="1645" interp="linr"  time="0/1" value="1" leadInLength="0/1"  name="cursorOpacity"/>
          <InterpolatingParam id="1646" interp="linr"  time="0/1" value="1" leadInLength="0/1"  name="cursorScale"/>
          <InterpolatingParam id="1647" interp="linr"  time="0/1" value="5" leadInLength="0/1"  name="volume"/>
          <Parameter id="1648"  name="captions"/>
         </Parameters>
         <Attributes>
          <Attribute id="1649" value="" name="ident"/>
         </Attributes>
         <MetaData>
          <entry key="WinSubProjectDisplayName" val=""/>
         </MetaData>
         <ExtraData>
          <Entry key="ZoomPanBin">
           <ZoomPanBin id="1650"  >
            <ZoomPanKeyframes>
            </ZoomPanKeyframes>
           </ZoomPanBin>
          </Entry>
          <Entry key="CursorEffectBin">
           <CursorEffectBin id="1651"  >
            <CursorEffectKeyframes>
            </CursorEffectKeyframes>
           </CursorEffectBin>
          </Entry>
         </ExtraData>
         <GenericTrack id="1652"  >
          <Attributes>
           <Attribute id="1653" value="" name="ident"/>
          </Attributes>
          <MetaData>
           <entry key="IsLocked" val="False"/>
           <entry key="WinTrackHeight" val="0"/>
          </MetaData>
          <Medias>
           <AMFile id="1654" start="0" duration="690" scalar="1/1" mediaStart="0/1" mediaDuration="690/1" trackNumber="1" src="5" channelNumber="0" >
            <Parameters>
             <InterpolatingParam id="1655" interp="linr"  time="0/1" value="1" leadInLength="0/1"  name="volume"/>
             <Parameter id="1656"  name="captions"/>
            </Parameters>
            <Attributes>
             <Attribute id="1657" value="" name="ident"/>
             <Attribute id="1658" value="22050" name="sampleRate"/>
             <Attribute id="1659" value="16" name="bitDepth"/>
             <Attribute id="1660" value="1" name="gain"/>
            </Attributes>
            <MetaData>
             <entry key="WinSubProjectDisplayName" val=""/>
            </MetaData>
           </AMFile>
           <AMFile id="1661" start="690" duration="397" scalar="1/1" mediaStart="765/1" mediaDuration="397/1" trackNumber="1" src="5" channelNumber="0" >
            <Parameters>
             <InterpolatingParam id="1662" interp="linr"  time="0/1" value="1" leadInLength="0/1"  name="volume"/>
             <Parameter id="1663"  name="captions"/>
            </Parameters>
            <Attributes>
             <Attribute id="1664" value="" name="ident"/>
             <Attribute id="1665" value="22050" name="sampleRate"/>
             <Attribute id="1666" value="16" name="bitDepth"/>
             <Attribute id="1667" value="1" name="gain"/>
            </Attributes>
            <MetaData>
             <entry key="WinSubProjectDisplayName" val=""/>
            </MetaData>
           </AMFile>
           <AMFile id="1668" start="1087" duration="935" scalar="1/1" mediaStart="1204/1" mediaDuration="935/1" trackNumber="1" src="5" channelNumber="0" >
            <Parameters>
             <InterpolatingParam id="1669" interp="linr"  time="0/1" value="1" leadInLength="0/1"  name="volume"/>
             <Parameter id="1670"  name="captions"/>
            </Parameters>
            <Attributes>
             <Attribute id="1671" value="" name="ident"/>
             <Attribute id="1672" value="22050" name="sampleRate"/>
             <Attribute id="1673" value="16" name="bitDepth"/>
             <Attribute id="1674" value="1" name="gain"/>
            </Attributes>
            <MetaData>
             <entry key="WinSubProjectDisplayName" val=""/>
            </MetaData>
           </AMFile>
           <AMFile id="1675" start="2022" duration="1254" scalar="1/1" mediaStart="2466/1" mediaDuration="1254/1" trackNumber="1" src="5" channelNumber="0" >
            <Parameters>
             <InterpolatingParam id="1676" interp="linr"  time="0/1" value="1" leadInLength="0/1"  name="volume"/>
             <Parameter id="1677"  name="captions"/>
            </Parameters>
            <Attributes>
             <Attribute id="1678" value="" name="ident"/>
             <Attribute id="1679" value="22050" name="sampleRate"/>
             <Attribute id="1680" value="16" name="bitDepth"/>
             <Attribute id="1681" value="1" name="gain"/>
            </Attributes>
            <MetaData>
             <entry key="WinSubProjectDisplayName" val=""/>
            </MetaData>
           </AMFile>
          </Medias>
         </GenericTrack>
        </StitchedMedia>
       </Medias>
      </GenericTrack>
      <GenericTrack id="1682"  >
       <Attributes>
        <Attribute id="1683" value="" name="ident"/>
       </Attributes>
       <MetaData>
        <entry key="IsLocked" val="False"/>
        <entry key="WinTrackHeight" val="62"/>
       </MetaData>
       <Medias>
       </Medias>
      </GenericTrack>
      <GenericTrack id="1684"  >
       <Attributes>
        <Attribute id="1685" value="" name="ident"/>
       </Attributes>
       <MetaData>
        <entry key="IsLocked" val="False"/>
        <entry key="WinTrackHeight" val="62"/>
       </MetaData>
       <Medias>
       </Medias>
      </GenericTrack>
     </Tracks>
    </GenericMixer>
   <CaptionAttributes id="1686"  >
    <Attribute id="1687" value="1" name="captionsEnabled"/>
    <Attribute id="1688" value="Arial" name="captionsFontName"/>
    <Attribute id="1689" value="28" name="captionsFontSize"/>
    <Attribute id="1690" value="(0,0,0,255)" name="captionsBackgroundColor"/>
    <Attribute id="1691" value="(255,255,255,255)" name="captionsForegroundColor"/>
    <Attribute id="1692" value="en" name="lang"/>
    <Attribute id="1693" value="0" name="captionsAlignment"/>
    <Attribute id="1694" value="1" name="captionsDefaultFontSize"/>
    <Attribute id="1695" value="0.5" name="captionsOpacity"/>
    <Attribute id="1696" value="1" name="captionsBackgroundEnabled"/>
    <Attribute id="1697" value="1" name="captionsBackgroundOnlyAroundText"/>
   </CaptionAttributes>
   <Parameters>
    <VectorParam id="1698"  name="eyePosition">
     <InterpolatingParam id="1699" interp="linr"  time="0/1" value="0" leadInLength="0/1"  />
     <InterpolatingParam id="1700" interp="linr"  time="0/1" value="0" leadInLength="0/1"  />
     <InterpolatingParam id="1701" interp="linr"  time="0/1" value="3000" leadInLength="0/1"  />
    </VectorParam>
    <VectorParam id="1702"  name="eyeLookAtPosition">
     <InterpolatingParam id="1703" interp="linr"  time="0/1" value="0" leadInLength="0/1"  />
     <InterpolatingParam id="1704" interp="linr"  time="0/1" value="0" leadInLength="0/1"  />
     <InterpolatingParam id="1705" interp="linr"  time="0/1" value="0" leadInLength="0/1"  />
    </VectorParam>
    <VectorParam id="1706"  name="eyeUpVector">
     <InterpolatingParam id="1707" interp="linr"  time="0/1" value="0" leadInLength="0/1"  />
     <InterpolatingParam id="1708" interp="linr"  time="0/1" value="1" leadInLength="0/1"  />
     <InterpolatingParam id="1709" interp="linr"  time="0/1" value="0" leadInLength="0/1"  />
    </VectorParam>
    <InterpolatingParam id="1710" interp="linr"  time="0/1" value="0.23885785" leadInLength="0/1"  name="fov"/>
    <InterpolatingParam id="1711" interp="linr"  time="0/1" value="1.5" leadInLength="0/1"  name="nearClipDistance"/>
    <InterpolatingParam id="1712" interp="linr"  time="0/1" value="6000" leadInLength="0/1"  name="farClipDistance"/>
   </Parameters>
  </Timeline>
 </Project>
</GoProject>
</CSMLData>

</Project_Data>
