<?xml version="1.0"?>
<Project_Data Version="8.00">
<Project_Settings>
<ProfileName>MP4 only (up to 720p)</ProfileName>
<ProjectWidth>1278</ProjectWidth>
<ProjectHeight>720</ProjectHeight>
<IsCustomProject>1</IsCustomProject>
<SavedProjectSettings>1</SavedProjectSettings>
<LastFlashTemplate>-1</LastFlashTemplate>
</Project_Settings>


<AutoSaveFile>C:\Users\Fangy\AppData\Local\TechSmith\Camtasia Studio\8.0\Auto-Saves\css15-16menua4aa36.autosave.camproj</AutoSaveFile>

<ProjectID>7796231E-E3D3-4F81-ADC5-2258453B29A8</ProjectID>

<PowerPointProject>0</PowerPointProject>

<PowerPointFilename></PowerPointFilename>


<Project_Notes>
</Project_Notes>

<Project_MetaData>
<Project_MetaData_Object>
<FieldArrayKey>8</FieldArrayKey>
<Value>css15-16menu</Value>
</Project_MetaData_Object>
<Project_MetaData_Object>
<FieldArrayKey>13</FieldArrayKey>
<Value>2013-09-10 05:40:10 PM</Value>
</Project_MetaData_Object>
<Project_MetaData_Object>
<FieldArrayKey>16</FieldArrayKey>
<Value>ENU</Value>
</Project_MetaData_Object>
</Project_MetaData>

<CSMLData>
<GoProject id="1" version="3.0" >
 <Project id="2" editRate="30/1" version="3.0" >
  <Author></Author>
  <Comment></Comment>
  <System></System>
  <SourceBin id="3"  >
    <Source id="4" src="C:\Users\Fangy\Desktop\menu7.camrec" lastMod="20130910T224004" rect="(0,0,1364,768)" >
      <SourceTrack range="(0,827666667)" type="0" editRate="10000000/1" trackRect="(0,0,1364,768)" sampleRate="10000000/333333" bitDepth="24" numChannels="0" filename="menu7.camrec!Screen_Stream.avi" metaData="menu7.camrec!Events.dat;menu7.camrec!manifest.camxml;" />
      <SourceTrack range="(0,829000000)" type="2" editRate="10000000/1" trackRect="(0,0,0,0)" sampleRate="22050/1" bitDepth="16" numChannels="1" filename="menu7.camrec!Screen_Stream.avi" metaData="" />
      <SourceTrack range="(0,830000000)" type="2" editRate="10000000/1" trackRect="(0,0,0,0)" sampleRate="44100/1" bitDepth="16" numChannels="2" filename="menu7.camrec!SysAudio.wav" metaData="" />
    </Source>
    <Source id="5" src="C:\Users\Fangy\Desktop\menu1.camrec" lastMod="20130910T221142" rect="(0,0,1364,768)" >
      <SourceTrack range="(0,1912333333)" type="0" editRate="10000000/1" trackRect="(0,0,1364,768)" sampleRate="10000000/333333" bitDepth="24" numChannels="0" filename="menu1.camrec!Screen_Stream.avi" metaData="menu1.camrec!Events.dat;menu1.camrec!manifest.camxml;" />
      <SourceTrack range="(0,1914000000)" type="2" editRate="10000000/1" trackRect="(0,0,0,0)" sampleRate="22050/1" bitDepth="16" numChannels="1" filename="menu1.camrec!Screen_Stream.avi" metaData="" />
      <SourceTrack range="(0,1916666667)" type="2" editRate="10000000/1" trackRect="(0,0,0,0)" sampleRate="44100/1" bitDepth="16" numChannels="2" filename="menu1.camrec!SysAudio.wav" metaData="" />
    </Source>
    <Source id="6" src="C:\Users\Fangy\Desktop\menu2.camrec" lastMod="20130910T221900" rect="(0,0,1364,768)" >
      <SourceTrack range="(0,3237000000)" type="0" editRate="10000000/1" trackRect="(0,0,1364,768)" sampleRate="10000000/333333" bitDepth="24" numChannels="0" filename="menu2.camrec!Screen_Stream.avi" metaData="menu2.camrec!Events.dat;menu2.camrec!manifest.camxml;" />
      <SourceTrack range="(0,3239000000)" type="2" editRate="10000000/1" trackRect="(0,0,0,0)" sampleRate="22050/1" bitDepth="16" numChannels="1" filename="menu2.camrec!Screen_Stream.avi" metaData="" />
      <SourceTrack range="(0,3243333333)" type="2" editRate="10000000/1" trackRect="(0,0,0,0)" sampleRate="44100/1" bitDepth="16" numChannels="2" filename="menu2.camrec!SysAudio.wav" metaData="" />
    </Source>
    <Source id="7" src="C:\Users\Fangy\Desktop\menu3.camrec" lastMod="20130910T222158" rect="(0,0,1364,768)" >
      <SourceTrack range="(0,1206333333)" type="0" editRate="10000000/1" trackRect="(0,0,1364,768)" sampleRate="10000000/333333" bitDepth="24" numChannels="0" filename="menu3.camrec!Screen_Stream.avi" metaData="menu3.camrec!Events.dat;menu3.camrec!manifest.camxml;" />
      <SourceTrack range="(0,1209000000)" type="2" editRate="10000000/1" trackRect="(0,0,0,0)" sampleRate="22050/1" bitDepth="16" numChannels="1" filename="menu3.camrec!Screen_Stream.avi" metaData="" />
      <SourceTrack range="(0,1212000000)" type="2" editRate="10000000/1" trackRect="(0,0,0,0)" sampleRate="44100/1" bitDepth="16" numChannels="2" filename="menu3.camrec!SysAudio.wav" metaData="" />
    </Source>
    <Source id="8" src="C:\Users\Fangy\Desktop\menu4.camrec" lastMod="20130910T222800" rect="(0,0,1364,768)" >
      <SourceTrack range="(0,2033666667)" type="0" editRate="10000000/1" trackRect="(0,0,1364,768)" sampleRate="10000000/333333" bitDepth="24" numChannels="0" filename="menu4.camrec!Screen_Stream.avi" metaData="menu4.camrec!Events.dat;menu4.camrec!manifest.camxml;" />
      <SourceTrack range="(0,2035000000)" type="2" editRate="10000000/1" trackRect="(0,0,0,0)" sampleRate="22050/1" bitDepth="16" numChannels="1" filename="menu4.camrec!Screen_Stream.avi" metaData="" />
      <SourceTrack range="(0,2036666667)" type="2" editRate="10000000/1" trackRect="(0,0,0,0)" sampleRate="44100/1" bitDepth="16" numChannels="2" filename="menu4.camrec!SysAudio.wav" metaData="" />
    </Source>
    <Source id="9" src="C:\Users\Fangy\Desktop\menu5.camrec" lastMod="20130910T223136" rect="(0,0,1364,768)" >
      <SourceTrack range="(0,1704000000)" type="0" editRate="10000000/1" trackRect="(0,0,1364,768)" sampleRate="10000000/333333" bitDepth="24" numChannels="0" filename="menu5.camrec!Screen_Stream.avi" metaData="menu5.camrec!Events.dat;menu5.camrec!manifest.camxml;" />
      <SourceTrack range="(0,1705000000)" type="2" editRate="10000000/1" trackRect="(0,0,0,0)" sampleRate="22050/1" bitDepth="16" numChannels="1" filename="menu5.camrec!Screen_Stream.avi" metaData="" />
      <SourceTrack range="(0,1709666667)" type="2" editRate="10000000/1" trackRect="(0,0,0,0)" sampleRate="44100/1" bitDepth="16" numChannels="2" filename="menu5.camrec!SysAudio.wav" metaData="" />
    </Source>
    <Source id="10" src="C:\Users\Fangy\Desktop\menu6.camrec" lastMod="20130910T223730" rect="(0,0,1364,768)" >
      <SourceTrack range="(0,1860333333)" type="0" editRate="10000000/1" trackRect="(0,0,1364,768)" sampleRate="10000000/333333" bitDepth="24" numChannels="0" filename="menu6.camrec!Screen_Stream.avi" metaData="menu6.camrec!Events.dat;menu6.camrec!manifest.camxml;" />
      <SourceTrack range="(0,1862000000)" type="2" editRate="10000000/1" trackRect="(0,0,0,0)" sampleRate="22050/1" bitDepth="16" numChannels="1" filename="menu6.camrec!Screen_Stream.avi" metaData="" />
      <SourceTrack range="(0,1865333333)" type="2" editRate="10000000/1" trackRect="(0,0,0,0)" sampleRate="44100/1" bitDepth="16" numChannels="2" filename="menu6.camrec!SysAudio.wav" metaData="" />
    </Source>
    <Source id="11" src="C:\Users\Fangy\Desktop\menu8.camrec" lastMod="20130912T205158" rect="(0,0,1364,768)" >
      <SourceTrack range="(0,317333333)" type="0" editRate="10000000/1" trackRect="(0,0,1364,768)" sampleRate="10000000/333333" bitDepth="24" numChannels="0" filename="menu8.camrec!Screen_Stream.avi" metaData="menu8.camrec!Events.dat;menu8.camrec!manifest.camxml;" />
      <SourceTrack range="(0,319000000)" type="2" editRate="10000000/1" trackRect="(0,0,0,0)" sampleRate="22050/1" bitDepth="16" numChannels="1" filename="menu8.camrec!Screen_Stream.avi" metaData="" />
      <SourceTrack range="(0,322000000)" type="2" editRate="10000000/1" trackRect="(0,0,0,0)" sampleRate="44100/1" bitDepth="16" numChannels="2" filename="menu8.camrec!SysAudio.wav" metaData="" />
    </Source>
  </SourceBin>
  <Timeline id="12"  >
   <Attributes>
    <Attribute id="13" value="1278" name="width"/>
    <Attribute id="14" value="720" name="height"/>
    <Attribute id="15" value="(0,0,0,255)" name="backgroundColor"/>
   </Attributes>
    <GenericMixer id="16"  name="Unified Mixer">
     <MetaData>
      <entry key="MixerType" val="TimelineMixer"/>
     </MetaData>
     <Tracks>
      <GenericTrack id="17"  >
       <Attributes>
        <Attribute id="18" value="" name="ident"/>
       </Attributes>
       <MetaData>
        <entry key="IsLocked" val="False"/>
        <entry key="WinTrackHeight" val="62"/>
       </MetaData>
       <Medias>
        <ScreenVMFile id="19" start="0" duration="3503" scalar="1/1" mediaStart="0/1" mediaDuration="3503/1" trackNumber="0" src="5" >
         <Transformer>
          <VectorParam id="20"  name="translation">
           <InterpolatingParam id="21" interp="linr"  time="-9999999/1" value="0" leadInLength="0/1"  />
           <InterpolatingParam id="22" interp="linr"  time="-9999999/1" value="0" leadInLength="0/1"  />
           <InterpolatingParam id="23" interp="linr"  time="-9999999/1" value="0" leadInLength="0/1"  />
          </VectorParam>
          <VectorParam id="24"  name="rotation">
           <InterpolatingParam id="25" interp="linr"  time="-9999999/1" value="0" leadInLength="0/1"  />
           <InterpolatingParam id="26" interp="linr"  time="-9999999/1" value="0" leadInLength="0/1"  />
           <InterpolatingParam id="27" interp="linr"  time="-9999999/1" value="0" leadInLength="0/1"  />
          </VectorParam>
          <VectorParam id="28"  name="shear">
           <InterpolatingParam id="29" interp="linr"  time="-9999999/1" value="0" leadInLength="0/1"  />
           <InterpolatingParam id="30" interp="linr"  time="-9999999/1" value="0" leadInLength="0/1"  />
           <InterpolatingParam id="31" interp="linr"  time="-9999999/1" value="0" leadInLength="0/1"  />
          </VectorParam>
          <VectorParam id="32"  name="scale">
           <InterpolatingParam id="33" interp="linr"  time="-9999999/1" value="0.93695014662756593" leadInLength="0/1"  />
           <InterpolatingParam id="34" interp="linr"  time="-9999999/1" value="0.93695014662756593" leadInLength="0/1"  />
           <InterpolatingParam id="35" interp="linr"  time="-9999999/1" value="1" leadInLength="0/1"  />
          </VectorParam>
          <VectorParam id="36"  name="anchor">
           <InterpolatingParam id="37" interp="linr"  time="0/1" value="0" leadInLength="0/1"  />
           <InterpolatingParam id="38" interp="linr"  time="0/1" value="0" leadInLength="0/1"  />
           <InterpolatingParam id="39" interp="linr"  time="0/1" value="0" leadInLength="0/1"  />
          </VectorParam>
         </Transformer>
         <Parameters>
          <VectorParam id="40"  name="sourceCrop">
           <InterpolatingParam id="41" interp="linr"  time="0/1" value="0" leadInLength="0/1"  />
           <InterpolatingParam id="42" interp="linr"  time="0/1" value="0" leadInLength="0/1"  />
           <InterpolatingParam id="43" interp="linr"  time="0/1" value="0" leadInLength="0/1"  />
           <InterpolatingParam id="44" interp="linr"  time="0/1" value="0" leadInLength="0/1"  />
          </VectorParam>
          <VectorParam id="45"  name="geometryCrop">
           <InterpolatingParam id="46" interp="linr"  time="-9999999/1" value="0" leadInLength="0/1"  />
           <InterpolatingParam id="47" interp="linr"  time="-9999999/1" value="0" leadInLength="0/1"  />
           <InterpolatingParam id="48" interp="linr"  time="-9999999/1" value="0" leadInLength="0/1"  />
           <InterpolatingParam id="49" interp="linr"  time="-9999999/1" value="0" leadInLength="0/1"  />
          </VectorParam>
          <InterpolatingParam id="50" interp="linr"  time="-9999999/1" value="1" leadInLength="0/1"  name="opacity"/>
          <InterpolatingParam id="51" interp="linr"  time="0/1" value="1" leadInLength="0/1"  name="cursorOpacity"/>
          <InterpolatingParam id="52" interp="linr"  time="0/1" value="1" leadInLength="0/1"  name="cursorScale"/>
         </Parameters>
         <Effects>
          <GenericEffect id="53" name = "CursorBaseEffectName" >
           <Parameters>
           <InterpolatingParam id="54" interp="linr"  time="-9999999/1" value="1" leadInLength="0/1"   name="cursorSize"/>
           <InterpolatingParam id="55" interp="linr"  time="-9999999/1" value="0" leadInLength="0/1"   name="highlightBlurRadius"/>
           <InterpolatingParam id="56" interp="linr"  time="-9999999/1" value="0" leadInLength="0/1"   name="highlightColorBlue"/>
           <InterpolatingParam id="57" interp="linr"  time="-9999999/1" value="255" leadInLength="0/1"   name="highlightColorGreen"/>
           <InterpolatingParam id="58" interp="linr"  time="-9999999/1" value="255" leadInLength="0/1"   name="highlightColorRed"/>
           <InterpolatingParam id="59" interp="linr"  time="-9999999/1" value="5" leadInLength="0/1"   name="highlightFeatherSize"/>
           <InterpolatingParam id="60" interp="linr"  time="-9999999/1" value="2" leadInLength="0/1"   name="highlightMagnification"/>
           <InterpolatingParam id="61" interp="linr"  time="-9999999/1" value="1" leadInLength="0/1"   name="highlightOpacity"/>
           <InterpolatingParam id="62" interp="linr"  time="-9999999/1" value="45" leadInLength="0/1"   name="highlightSize"/>
           <Parameter id="63"   name="highlightType">
            <Keyframes>
            <Keyframe id="64"  time="-9999999/1" value="0" leadInLength="0/1"  />
            </Keyframes>
           </Parameter>
           <InterpolatingParam id="65" interp="linr"  time="-9999999/1" value="0" leadInLength="0/1"   name="leftClickColorBlue"/>
           <InterpolatingParam id="66" interp="linr"  time="-9999999/1" value="0" leadInLength="0/1"   name="leftClickColorGreen"/>
           <InterpolatingParam id="67" interp="linr"  time="-9999999/1" value="255" leadInLength="0/1"   name="leftClickColorRed"/>
           <InterpolatingParam id="68" interp="linr"  time="-9999999/1" value="0.80000000000000004" leadInLength="0/1"   name="leftClickDuration"/>
           <InterpolatingParam id="69" interp="linr"  time="-9999999/1" value="20" leadInLength="0/1"   name="leftClickSize"/>
           <Parameter id="70"   name="leftClickSoundFilename">
            <Keyframes>
            <Keyframe id="71"  time="-9999999/1" value="" leadInLength="0/1"  />
            </Keyframes>
           </Parameter>
           <InterpolatingParam id="72" interp="linr"  time="-9999999/1" value="1" leadInLength="0/1"   name="leftClickSoundVolume"/>
           <Parameter id="73"   name="leftClickType">
            <Keyframes>
            <Keyframe id="74"  time="-9999999/1" value="0" leadInLength="0/1"  />
            </Keyframes>
           </Parameter>
           <InterpolatingParam id="75" interp="linr"  time="-9999999/1" value="1" leadInLength="0/1"   name="opacity"/>
           <InterpolatingParam id="76" interp="linr"  time="-9999999/1" value="255" leadInLength="0/1"   name="rightClickColorBlue"/>
           <InterpolatingParam id="77" interp="linr"  time="-9999999/1" value="0" leadInLength="0/1"   name="rightClickColorGreen"/>
           <InterpolatingParam id="78" interp="linr"  time="-9999999/1" value="0" leadInLength="0/1"   name="rightClickColorRed"/>
           <InterpolatingParam id="79" interp="linr"  time="-9999999/1" value="0.80000000000000004" leadInLength="0/1"   name="rightClickDuration"/>
           <InterpolatingParam id="80" interp="linr"  time="-9999999/1" value="20" leadInLength="0/1"   name="rightClickSize"/>
           <Parameter id="81"   name="rightClickSoundFilename">
            <Keyframes>
            <Keyframe id="82"  time="-9999999/1" value="" leadInLength="0/1"  />
            </Keyframes>
           </Parameter>
           <InterpolatingParam id="83" interp="linr"  time="-9999999/1" value="1" leadInLength="0/1"   name="rightClickSoundVolume"/>
           <Parameter id="84"   name="rightClickType">
            <Keyframes>
            <Keyframe id="85"  time="-9999999/1" value="0" leadInLength="0/1"  />
            </Keyframes>
           </Parameter>
           </Parameters>
           <MetaData>
            <entry key="effectIndex" val="0"/>
           </MetaData>
          </GenericEffect>
         </Effects>
         <Attributes>
          <Attribute id="86" value="" name="ident"/>
         </Attributes>
         <MetaData>
          <entry key="AutoAppliedSmartFocus" val="False"/>
          <entry key="WinSubProjectDisplayName" val=""/>
         </MetaData>
         <ExtraData>
          <Entry key="ZoomPanBin">
           <ZoomPanBin id="87"  >
            <ZoomPanKeyframes>
             <ZoomPanKeyframe id="88" timeRangeEnd="-9999999/1" timeRangeDuration="0/1" interpolaterName="linr"  />
            </ZoomPanKeyframes>
           </ZoomPanBin>
          </Entry>
          <Entry key="CursorEffectBin">
           <CursorEffectBin id="89"  >
            <CursorEffectKeyframes>
             <CursorEffectKeyframe id="90" timeRangeEnd="-9999999/1" timeRangeDuration="0/1" interpolaterName=""  />
            </CursorEffectKeyframes>
           </CursorEffectBin>
          </Entry>
         </ExtraData>
        </ScreenVMFile>
        <StitchedMedia id="91" start="3503" duration="4067" scalar="1/1" mediaStart="28/1" mediaDuration="4067/1" minMediaStart="0/1" >
         <Transformer>
          <VectorParam id="92"  name="translation">
           <InterpolatingParam id="93" interp="linr"  time="-9999999/1" value="0" leadInLength="0/1"  />
           <InterpolatingParam id="94" interp="linr"  time="-9999999/1" value="0" leadInLength="0/1"  />
           <InterpolatingParam id="95" interp="linr"  time="-9999999/1" value="0" leadInLength="0/1"  />
          </VectorParam>
          <VectorParam id="96"  name="rotation">
           <InterpolatingParam id="97" interp="linr"  time="-9999999/1" value="0" leadInLength="0/1"  />
           <InterpolatingParam id="98" interp="linr"  time="-9999999/1" value="0" leadInLength="0/1"  />
           <InterpolatingParam id="99" interp="linr"  time="-9999999/1" value="0" leadInLength="0/1"  />
          </VectorParam>
          <VectorParam id="100"  name="shear">
           <InterpolatingParam id="101" interp="linr"  time="-9999999/1" value="0" leadInLength="0/1"  />
           <InterpolatingParam id="102" interp="linr"  time="-9999999/1" value="0" leadInLength="0/1"  />
           <InterpolatingParam id="103" interp="linr"  time="-9999999/1" value="0" leadInLength="0/1"  />
          </VectorParam>
          <VectorParam id="104"  name="scale">
           <InterpolatingParam id="105" interp="linr"  time="-9999999/1" value="0.93695014662756593" leadInLength="0/1"  />
           <InterpolatingParam id="106" interp="linr"  time="-9999999/1" value="0.93695014662756593" leadInLength="0/1"  />
           <InterpolatingParam id="107" interp="linr"  time="-9999999/1" value="1" leadInLength="0/1"  />
          </VectorParam>
          <VectorParam id="108"  name="anchor">
           <InterpolatingParam id="109" interp="linr"  time="0/1" value="0" leadInLength="0/1"  />
           <InterpolatingParam id="110" interp="linr"  time="0/1" value="0" leadInLength="0/1"  />
           <InterpolatingParam id="111" interp="linr"  time="0/1" value="0" leadInLength="0/1"  />
          </VectorParam>
         </Transformer>
         <Parameters>
          <VectorParam id="112"  name="sourceCrop">
           <InterpolatingParam id="113" interp="linr"  time="0/1" value="0" leadInLength="0/1"  />
           <InterpolatingParam id="114" interp="linr"  time="0/1" value="0" leadInLength="0/1"  />
           <InterpolatingParam id="115" interp="linr"  time="0/1" value="0" leadInLength="0/1"  />
           <InterpolatingParam id="116" interp="linr"  time="0/1" value="0" leadInLength="0/1"  />
          </VectorParam>
          <VectorParam id="117"  name="geometryCrop">
           <InterpolatingParam id="118" interp="linr"  time="-9999999/1" value="0" leadInLength="0/1"  />
           <InterpolatingParam id="119" interp="linr"  time="-9999999/1" value="0" leadInLength="0/1"  />
           <InterpolatingParam id="120" interp="linr"  time="-9999999/1" value="0" leadInLength="0/1"  />
           <InterpolatingParam id="121" interp="linr"  time="-9999999/1" value="0" leadInLength="0/1"  />
          </VectorParam>
          <InterpolatingParam id="122" interp="linr"  time="-9999999/1" value="1" leadInLength="0/1"  name="opacity"/>
          <InterpolatingParam id="123" interp="linr"  time="0/1" value="1" leadInLength="0/1"  name="cursorOpacity"/>
          <InterpolatingParam id="124" interp="linr"  time="0/1" value="1" leadInLength="0/1"  name="cursorScale"/>
          <Parameter id="125"  name="captions"/>
         </Parameters>
         <Effects>
          <GenericEffect id="126" name = "CursorBaseEffectName" >
           <Parameters>
           <InterpolatingParam id="127" interp="linr"  time="-9999999/1" value="1" leadInLength="0/1"   name="cursorSize"/>
           <InterpolatingParam id="128" interp="linr"  time="-9999999/1" value="0" leadInLength="0/1"   name="highlightBlurRadius"/>
           <InterpolatingParam id="129" interp="linr"  time="-9999999/1" value="0" leadInLength="0/1"   name="highlightColorBlue"/>
           <InterpolatingParam id="130" interp="linr"  time="-9999999/1" value="255" leadInLength="0/1"   name="highlightColorGreen"/>
           <InterpolatingParam id="131" interp="linr"  time="-9999999/1" value="255" leadInLength="0/1"   name="highlightColorRed"/>
           <InterpolatingParam id="132" interp="linr"  time="-9999999/1" value="5" leadInLength="0/1"   name="highlightFeatherSize"/>
           <InterpolatingParam id="133" interp="linr"  time="-9999999/1" value="2" leadInLength="0/1"   name="highlightMagnification"/>
           <InterpolatingParam id="134" interp="linr"  time="-9999999/1" value="1" leadInLength="0/1"   name="highlightOpacity"/>
           <InterpolatingParam id="135" interp="linr"  time="-9999999/1" value="45" leadInLength="0/1"   name="highlightSize"/>
           <Parameter id="136"   name="highlightType">
            <Keyframes>
            <Keyframe id="137"  time="-9999999/1" value="0" leadInLength="0/1"  />
            </Keyframes>
           </Parameter>
           <InterpolatingParam id="138" interp="linr"  time="-9999999/1" value="0" leadInLength="0/1"   name="leftClickColorBlue"/>
           <InterpolatingParam id="139" interp="linr"  time="-9999999/1" value="0" leadInLength="0/1"   name="leftClickColorGreen"/>
           <InterpolatingParam id="140" interp="linr"  time="-9999999/1" value="255" leadInLength="0/1"   name="leftClickColorRed"/>
           <InterpolatingParam id="141" interp="linr"  time="-9999999/1" value="0.80000000000000004" leadInLength="0/1"   name="leftClickDuration"/>
           <InterpolatingParam id="142" interp="linr"  time="-9999999/1" value="20" leadInLength="0/1"   name="leftClickSize"/>
           <Parameter id="143"   name="leftClickSoundFilename">
            <Keyframes>
            <Keyframe id="144"  time="-9999999/1" value="" leadInLength="0/1"  />
            </Keyframes>
           </Parameter>
           <InterpolatingParam id="145" interp="linr"  time="-9999999/1" value="1" leadInLength="0/1"   name="leftClickSoundVolume"/>
           <Parameter id="146"   name="leftClickType">
            <Keyframes>
            <Keyframe id="147"  time="-9999999/1" value="0" leadInLength="0/1"  />
            </Keyframes>
           </Parameter>
           <InterpolatingParam id="148" interp="linr"  time="-9999999/1" value="1" leadInLength="0/1"   name="opacity"/>
           <InterpolatingParam id="149" interp="linr"  time="-9999999/1" value="255" leadInLength="0/1"   name="rightClickColorBlue"/>
           <InterpolatingParam id="150" interp="linr"  time="-9999999/1" value="0" leadInLength="0/1"   name="rightClickColorGreen"/>
           <InterpolatingParam id="151" interp="linr"  time="-9999999/1" value="0" leadInLength="0/1"   name="rightClickColorRed"/>
           <InterpolatingParam id="152" interp="linr"  time="-9999999/1" value="0.80000000000000004" leadInLength="0/1"   name="rightClickDuration"/>
           <InterpolatingParam id="153" interp="linr"  time="-9999999/1" value="20" leadInLength="0/1"   name="rightClickSize"/>
           <Parameter id="154"   name="rightClickSoundFilename">
            <Keyframes>
            <Keyframe id="155"  time="-9999999/1" value="" leadInLength="0/1"  />
            </Keyframes>
           </Parameter>
           <InterpolatingParam id="156" interp="linr"  time="-9999999/1" value="1" leadInLength="0/1"   name="rightClickSoundVolume"/>
           <Parameter id="157"   name="rightClickType">
            <Keyframes>
            <Keyframe id="158"  time="-9999999/1" value="0" leadInLength="0/1"  />
            </Keyframes>
           </Parameter>
           </Parameters>
           <MetaData>
            <entry key="effectIndex" val="0"/>
           </MetaData>
          </GenericEffect>
         </Effects>
         <Attributes>
          <Attribute id="159" value="" name="ident"/>
         </Attributes>
         <MetaData>
          <entry key="AutoAppliedSmartFocus" val="False"/>
          <entry key="WinSubProjectDisplayName" val=""/>
         </MetaData>
         <ExtraData>
          <Entry key="ZoomPanBin">
           <ZoomPanBin id="160"  >
            <ZoomPanKeyframes>
             <ZoomPanKeyframe id="161" timeRangeEnd="-9999999/1" timeRangeDuration="0/1" interpolaterName="linr"  />
            </ZoomPanKeyframes>
           </ZoomPanBin>
          </Entry>
          <Entry key="CursorEffectBin">
           <CursorEffectBin id="162"  >
            <CursorEffectKeyframes>
             <CursorEffectKeyframe id="163" timeRangeEnd="-9999999/1" timeRangeDuration="0/1" interpolaterName=""  />
            </CursorEffectKeyframes>
           </CursorEffectBin>
          </Entry>
         </ExtraData>
         <GenericTrack id="164"  >
          <Attributes>
           <Attribute id="165" value="" name="ident"/>
          </Attributes>
          <MetaData>
           <entry key="IsLocked" val="False"/>
           <entry key="WinTrackHeight" val="0"/>
          </MetaData>
          <Medias>
           <ScreenVMFile id="166" start="0" duration="4093" scalar="1/1" mediaStart="0/1" mediaDuration="4093/1" trackNumber="0" src="6" >
            <Transformer>
             <VectorParam id="167"  name="translation">
              <InterpolatingParam id="168" interp="linr"  time="-9999999/1" value="0" leadInLength="0/1"  />
              <InterpolatingParam id="169" interp="linr"  time="-9999999/1" value="0" leadInLength="0/1"  />
              <InterpolatingParam id="170" interp="linr"  time="-9999999/1" value="0" leadInLength="0/1"  />
             </VectorParam>
             <VectorParam id="171"  name="rotation">
              <InterpolatingParam id="172" interp="linr"  time="-9999999/1" value="0" leadInLength="0/1"  />
              <InterpolatingParam id="173" interp="linr"  time="-9999999/1" value="0" leadInLength="0/1"  />
              <InterpolatingParam id="174" interp="linr"  time="-9999999/1" value="0" leadInLength="0/1"  />
             </VectorParam>
             <VectorParam id="175"  name="shear">
              <InterpolatingParam id="176" interp="linr"  time="-9999999/1" value="0" leadInLength="0/1"  />
              <InterpolatingParam id="177" interp="linr"  time="-9999999/1" value="0" leadInLength="0/1"  />
              <InterpolatingParam id="178" interp="linr"  time="-9999999/1" value="0" leadInLength="0/1"  />
             </VectorParam>
             <VectorParam id="179"  name="scale">
              <InterpolatingParam id="180" interp="linr"  time="-9999999/1" value="1" leadInLength="0/1"  />
              <InterpolatingParam id="181" interp="linr"  time="-9999999/1" value="1" leadInLength="0/1"  />
              <InterpolatingParam id="182" interp="linr"  time="-9999999/1" value="1" leadInLength="0/1"  />
             </VectorParam>
             <VectorParam id="183"  name="anchor">
              <InterpolatingParam id="184" interp="linr"  time="0/1" value="0" leadInLength="0/1"  />
              <InterpolatingParam id="185" interp="linr"  time="0/1" value="0" leadInLength="0/1"  />
              <InterpolatingParam id="186" interp="linr"  time="0/1" value="0" leadInLength="0/1"  />
             </VectorParam>
            </Transformer>
            <Parameters>
             <VectorParam id="187"  name="sourceCrop">
              <InterpolatingParam id="188" interp="linr"  time="0/1" value="0" leadInLength="0/1"  />
              <InterpolatingParam id="189" interp="linr"  time="0/1" value="0" leadInLength="0/1"  />
              <InterpolatingParam id="190" interp="linr"  time="0/1" value="0" leadInLength="0/1"  />
              <InterpolatingParam id="191" interp="linr"  time="0/1" value="0" leadInLength="0/1"  />
             </VectorParam>
             <VectorParam id="192"  name="geometryCrop">
              <InterpolatingParam id="193" interp="linr"  time="-9999999/1" value="0" leadInLength="0/1"  />
              <InterpolatingParam id="194" interp="linr"  time="-9999999/1" value="0" leadInLength="0/1"  />
              <InterpolatingParam id="195" interp="linr"  time="-9999999/1" value="0" leadInLength="0/1"  />
              <InterpolatingParam id="196" interp="linr"  time="-9999999/1" value="0" leadInLength="0/1"  />
             </VectorParam>
             <InterpolatingParam id="197" interp="linr"  time="-9999999/1" value="1" leadInLength="0/1"  name="opacity"/>
             <InterpolatingParam id="198" interp="linr"  time="0/1" value="0" leadInLength="0/1"  name="cursorOpacity"/>
             <InterpolatingParam id="199" interp="linr"  time="0/1" value="0" leadInLength="0/1"  name="cursorScale"/>
            </Parameters>
            <Attributes>
             <Attribute id="200" value="" name="ident"/>
            </Attributes>
            <MetaData>
             <entry key="AutoAppliedSmartFocus" val="False"/>
             <entry key="WinSubProjectDisplayName" val=""/>
            </MetaData>
            <ExtraData>
             <Entry key="ZoomPanBin">
              <ZoomPanBin id="201"  >
               <ZoomPanKeyframes>
                <ZoomPanKeyframe id="202" timeRangeEnd="-9999999/1" timeRangeDuration="0/1" interpolaterName="linr"  />
               </ZoomPanKeyframes>
              </ZoomPanBin>
             </Entry>
             <Entry key="CursorEffectBin">
              <CursorEffectBin id="203"  >
               <CursorEffectKeyframes>
               </CursorEffectKeyframes>
              </CursorEffectBin>
             </Entry>
            </ExtraData>
           </ScreenVMFile>
           <ScreenVMFile id="204" start="4093" duration="5388" scalar="1/1" mediaStart="4323/1" mediaDuration="5388/1" trackNumber="0" src="6" >
            <Transformer>
             <VectorParam id="205"  name="translation">
              <InterpolatingParam id="206" interp="linr"  time="-9999999/1" value="0" leadInLength="0/1"  />
              <InterpolatingParam id="207" interp="linr"  time="-9999999/1" value="0" leadInLength="0/1"  />
              <InterpolatingParam id="208" interp="linr"  time="-9999999/1" value="0" leadInLength="0/1"  />
             </VectorParam>
             <VectorParam id="209"  name="rotation">
              <InterpolatingParam id="210" interp="linr"  time="-9999999/1" value="0" leadInLength="0/1"  />
              <InterpolatingParam id="211" interp="linr"  time="-9999999/1" value="0" leadInLength="0/1"  />
              <InterpolatingParam id="212" interp="linr"  time="-9999999/1" value="0" leadInLength="0/1"  />
             </VectorParam>
             <VectorParam id="213"  name="shear">
              <InterpolatingParam id="214" interp="linr"  time="-9999999/1" value="0" leadInLength="0/1"  />
              <InterpolatingParam id="215" interp="linr"  time="-9999999/1" value="0" leadInLength="0/1"  />
              <InterpolatingParam id="216" interp="linr"  time="-9999999/1" value="0" leadInLength="0/1"  />
             </VectorParam>
             <VectorParam id="217"  name="scale">
              <InterpolatingParam id="218" interp="linr"  time="-9999999/1" value="1" leadInLength="0/1"  />
              <InterpolatingParam id="219" interp="linr"  time="-9999999/1" value="1" leadInLength="0/1"  />
              <InterpolatingParam id="220" interp="linr"  time="-9999999/1" value="1" leadInLength="0/1"  />
             </VectorParam>
             <VectorParam id="221"  name="anchor">
              <InterpolatingParam id="222" interp="linr"  time="0/1" value="0" leadInLength="0/1"  />
              <InterpolatingParam id="223" interp="linr"  time="0/1" value="0" leadInLength="0/1"  />
              <InterpolatingParam id="224" interp="linr"  time="0/1" value="0" leadInLength="0/1"  />
             </VectorParam>
            </Transformer>
            <Parameters>
             <VectorParam id="225"  name="sourceCrop">
              <InterpolatingParam id="226" interp="linr"  time="0/1" value="0" leadInLength="0/1"  />
              <InterpolatingParam id="227" interp="linr"  time="0/1" value="0" leadInLength="0/1"  />
              <InterpolatingParam id="228" interp="linr"  time="0/1" value="0" leadInLength="0/1"  />
              <InterpolatingParam id="229" interp="linr"  time="0/1" value="0" leadInLength="0/1"  />
             </VectorParam>
             <VectorParam id="230"  name="geometryCrop">
              <InterpolatingParam id="231" interp="linr"  time="-9999999/1" value="0" leadInLength="0/1"  />
              <InterpolatingParam id="232" interp="linr"  time="-9999999/1" value="0" leadInLength="0/1"  />
              <InterpolatingParam id="233" interp="linr"  time="-9999999/1" value="0" leadInLength="0/1"  />
              <InterpolatingParam id="234" interp="linr"  time="-9999999/1" value="0" leadInLength="0/1"  />
             </VectorParam>
             <InterpolatingParam id="235" interp="linr"  time="-9999999/1" value="1" leadInLength="0/1"  name="opacity"/>
             <InterpolatingParam id="236" interp="linr"  time="0/1" value="0" leadInLength="0/1"  name="cursorOpacity"/>
             <InterpolatingParam id="237" interp="linr"  time="0/1" value="0" leadInLength="0/1"  name="cursorScale"/>
            </Parameters>
            <Attributes>
             <Attribute id="238" value="" name="ident"/>
            </Attributes>
            <MetaData>
             <entry key="AutoAppliedSmartFocus" val="False"/>
             <entry key="WinSubProjectDisplayName" val=""/>
            </MetaData>
            <ExtraData>
             <Entry key="ZoomPanBin">
              <ZoomPanBin id="239"  >
               <ZoomPanKeyframes>
                <ZoomPanKeyframe id="240" timeRangeEnd="-9999999/1" timeRangeDuration="0/1" interpolaterName="linr"  />
               </ZoomPanKeyframes>
              </ZoomPanBin>
             </Entry>
             <Entry key="CursorEffectBin">
              <CursorEffectBin id="241"  >
               <CursorEffectKeyframes>
               </CursorEffectKeyframes>
              </CursorEffectBin>
             </Entry>
            </ExtraData>
           </ScreenVMFile>
          </Medias>
         </GenericTrack>
        </StitchedMedia>
        <StitchedMedia id="242" start="7570" duration="288" scalar="1/1" mediaStart="4095/1" mediaDuration="288/1" minMediaStart="0/1" >
         <Transformer>
          <VectorParam id="243"  name="translation">
           <InterpolatingParam id="244" interp="linr"  time="-9999999/1" value="0" leadInLength="0/1"  />
           <InterpolatingParam id="245" interp="linr"  time="-9999999/1" value="0" leadInLength="0/1"  />
           <InterpolatingParam id="246" interp="linr"  time="-9999999/1" value="0" leadInLength="0/1"  />
          </VectorParam>
          <VectorParam id="247"  name="rotation">
           <InterpolatingParam id="248" interp="linr"  time="-9999999/1" value="0" leadInLength="0/1"  />
           <InterpolatingParam id="249" interp="linr"  time="-9999999/1" value="0" leadInLength="0/1"  />
           <InterpolatingParam id="250" interp="linr"  time="-9999999/1" value="0" leadInLength="0/1"  />
          </VectorParam>
          <VectorParam id="251"  name="shear">
           <InterpolatingParam id="252" interp="linr"  time="-9999999/1" value="0" leadInLength="0/1"  />
           <InterpolatingParam id="253" interp="linr"  time="-9999999/1" value="0" leadInLength="0/1"  />
           <InterpolatingParam id="254" interp="linr"  time="-9999999/1" value="0" leadInLength="0/1"  />
          </VectorParam>
          <VectorParam id="255"  name="scale">
           <InterpolatingParam id="256" interp="linr"  time="-9999999/1" value="0.93695014662756593" leadInLength="0/1"  />
           <InterpolatingParam id="257" interp="linr"  time="-9999999/1" value="0.93695014662756593" leadInLength="0/1"  />
           <InterpolatingParam id="258" interp="linr"  time="-9999999/1" value="1" leadInLength="0/1"  />
          </VectorParam>
          <VectorParam id="259"  name="anchor">
           <InterpolatingParam id="260" interp="linr"  time="0/1" value="0" leadInLength="0/1"  />
           <InterpolatingParam id="261" interp="linr"  time="0/1" value="0" leadInLength="0/1"  />
           <InterpolatingParam id="262" interp="linr"  time="0/1" value="0" leadInLength="0/1"  />
          </VectorParam>
         </Transformer>
         <Parameters>
          <VectorParam id="263"  name="sourceCrop">
           <InterpolatingParam id="264" interp="linr"  time="0/1" value="0" leadInLength="0/1"  />
           <InterpolatingParam id="265" interp="linr"  time="0/1" value="0" leadInLength="0/1"  />
           <InterpolatingParam id="266" interp="linr"  time="0/1" value="0" leadInLength="0/1"  />
           <InterpolatingParam id="267" interp="linr"  time="0/1" value="0" leadInLength="0/1"  />
          </VectorParam>
          <VectorParam id="268"  name="geometryCrop">
           <InterpolatingParam id="269" interp="linr"  time="-9999999/1" value="0" leadInLength="0/1"  />
           <InterpolatingParam id="270" interp="linr"  time="-9999999/1" value="0" leadInLength="0/1"  />
           <InterpolatingParam id="271" interp="linr"  time="-9999999/1" value="0" leadInLength="0/1"  />
           <InterpolatingParam id="272" interp="linr"  time="-9999999/1" value="0" leadInLength="0/1"  />
          </VectorParam>
          <InterpolatingParam id="273" interp="linr"  time="-9999999/1" value="1" leadInLength="0/1"  name="opacity"/>
          <InterpolatingParam id="274" interp="linr"  time="0/1" value="1" leadInLength="0/1"  name="cursorOpacity"/>
          <InterpolatingParam id="275" interp="linr"  time="0/1" value="1" leadInLength="0/1"  name="cursorScale"/>
          <Parameter id="276"  name="captions"/>
         </Parameters>
         <Effects>
          <GenericEffect id="277" name = "CursorBaseEffectName" >
           <Parameters>
           <InterpolatingParam id="278" interp="linr"  time="-9999999/1" value="1" leadInLength="0/1"   name="cursorSize"/>
           <InterpolatingParam id="279" interp="linr"  time="-9999999/1" value="0" leadInLength="0/1"   name="highlightBlurRadius"/>
           <InterpolatingParam id="280" interp="linr"  time="-9999999/1" value="0" leadInLength="0/1"   name="highlightColorBlue"/>
           <InterpolatingParam id="281" interp="linr"  time="-9999999/1" value="255" leadInLength="0/1"   name="highlightColorGreen"/>
           <InterpolatingParam id="282" interp="linr"  time="-9999999/1" value="255" leadInLength="0/1"   name="highlightColorRed"/>
           <InterpolatingParam id="283" interp="linr"  time="-9999999/1" value="5" leadInLength="0/1"   name="highlightFeatherSize"/>
           <InterpolatingParam id="284" interp="linr"  time="-9999999/1" value="2" leadInLength="0/1"   name="highlightMagnification"/>
           <InterpolatingParam id="285" interp="linr"  time="-9999999/1" value="1" leadInLength="0/1"   name="highlightOpacity"/>
           <InterpolatingParam id="286" interp="linr"  time="-9999999/1" value="45" leadInLength="0/1"   name="highlightSize"/>
           <Parameter id="287"   name="highlightType">
            <Keyframes>
            <Keyframe id="288"  time="-9999999/1" value="0" leadInLength="0/1"  />
            </Keyframes>
           </Parameter>
           <InterpolatingParam id="289" interp="linr"  time="-9999999/1" value="0" leadInLength="0/1"   name="leftClickColorBlue"/>
           <InterpolatingParam id="290" interp="linr"  time="-9999999/1" value="0" leadInLength="0/1"   name="leftClickColorGreen"/>
           <InterpolatingParam id="291" interp="linr"  time="-9999999/1" value="255" leadInLength="0/1"   name="leftClickColorRed"/>
           <InterpolatingParam id="292" interp="linr"  time="-9999999/1" value="0.80000000000000004" leadInLength="0/1"   name="leftClickDuration"/>
           <InterpolatingParam id="293" interp="linr"  time="-9999999/1" value="20" leadInLength="0/1"   name="leftClickSize"/>
           <Parameter id="294"   name="leftClickSoundFilename">
            <Keyframes>
            <Keyframe id="295"  time="-9999999/1" value="" leadInLength="0/1"  />
            </Keyframes>
           </Parameter>
           <InterpolatingParam id="296" interp="linr"  time="-9999999/1" value="1" leadInLength="0/1"   name="leftClickSoundVolume"/>
           <Parameter id="297"   name="leftClickType">
            <Keyframes>
            <Keyframe id="298"  time="-9999999/1" value="0" leadInLength="0/1"  />
            </Keyframes>
           </Parameter>
           <InterpolatingParam id="299" interp="linr"  time="-9999999/1" value="1" leadInLength="0/1"   name="opacity"/>
           <InterpolatingParam id="300" interp="linr"  time="-9999999/1" value="255" leadInLength="0/1"   name="rightClickColorBlue"/>
           <InterpolatingParam id="301" interp="linr"  time="-9999999/1" value="0" leadInLength="0/1"   name="rightClickColorGreen"/>
           <InterpolatingParam id="302" interp="linr"  time="-9999999/1" value="0" leadInLength="0/1"   name="rightClickColorRed"/>
           <InterpolatingParam id="303" interp="linr"  time="-9999999/1" value="0.80000000000000004" leadInLength="0/1"   name="rightClickDuration"/>
           <InterpolatingParam id="304" interp="linr"  time="-9999999/1" value="20" leadInLength="0/1"   name="rightClickSize"/>
           <Parameter id="305"   name="rightClickSoundFilename">
            <Keyframes>
            <Keyframe id="306"  time="-9999999/1" value="" leadInLength="0/1"  />
            </Keyframes>
           </Parameter>
           <InterpolatingParam id="307" interp="linr"  time="-9999999/1" value="1" leadInLength="0/1"   name="rightClickSoundVolume"/>
           <Parameter id="308"   name="rightClickType">
            <Keyframes>
            <Keyframe id="309"  time="-9999999/1" value="0" leadInLength="0/1"  />
            </Keyframes>
           </Parameter>
           </Parameters>
           <MetaData>
            <entry key="effectIndex" val="0"/>
           </MetaData>
          </GenericEffect>
         </Effects>
         <Attributes>
          <Attribute id="310" value="" name="ident"/>
         </Attributes>
         <MetaData>
          <entry key="AutoAppliedSmartFocus" val="False"/>
          <entry key="WinSubProjectDisplayName" val=""/>
         </MetaData>
         <ExtraData>
          <Entry key="ZoomPanBin">
           <ZoomPanBin id="311"  >
            <ZoomPanKeyframes>
             <ZoomPanKeyframe id="312" timeRangeEnd="-9999999/1" timeRangeDuration="0/1" interpolaterName="linr"  />
            </ZoomPanKeyframes>
           </ZoomPanBin>
          </Entry>
          <Entry key="CursorEffectBin">
           <CursorEffectBin id="313"  >
            <CursorEffectKeyframes>
             <CursorEffectKeyframe id="314" timeRangeEnd="-9999999/1" timeRangeDuration="0/1" interpolaterName=""  />
            </CursorEffectKeyframes>
           </CursorEffectBin>
          </Entry>
         </ExtraData>
         <GenericTrack id="315"  >
          <Attributes>
           <Attribute id="316" value="" name="ident"/>
          </Attributes>
          <MetaData>
           <entry key="IsLocked" val="False"/>
           <entry key="WinTrackHeight" val="0"/>
          </MetaData>
          <Medias>
           <ScreenVMFile id="317" start="0" duration="4093" scalar="1/1" mediaStart="0/1" mediaDuration="4093/1" trackNumber="0" src="6" >
            <Transformer>
             <VectorParam id="318"  name="translation">
              <InterpolatingParam id="319" interp="linr"  time="-9999999/1" value="0" leadInLength="0/1"  />
              <InterpolatingParam id="320" interp="linr"  time="-9999999/1" value="0" leadInLength="0/1"  />
              <InterpolatingParam id="321" interp="linr"  time="-9999999/1" value="0" leadInLength="0/1"  />
             </VectorParam>
             <VectorParam id="322"  name="rotation">
              <InterpolatingParam id="323" interp="linr"  time="-9999999/1" value="0" leadInLength="0/1"  />
              <InterpolatingParam id="324" interp="linr"  time="-9999999/1" value="0" leadInLength="0/1"  />
              <InterpolatingParam id="325" interp="linr"  time="-9999999/1" value="0" leadInLength="0/1"  />
             </VectorParam>
             <VectorParam id="326"  name="shear">
              <InterpolatingParam id="327" interp="linr"  time="-9999999/1" value="0" leadInLength="0/1"  />
              <InterpolatingParam id="328" interp="linr"  time="-9999999/1" value="0" leadInLength="0/1"  />
              <InterpolatingParam id="329" interp="linr"  time="-9999999/1" value="0" leadInLength="0/1"  />
             </VectorParam>
             <VectorParam id="330"  name="scale">
              <InterpolatingParam id="331" interp="linr"  time="-9999999/1" value="1" leadInLength="0/1"  />
              <InterpolatingParam id="332" interp="linr"  time="-9999999/1" value="1" leadInLength="0/1"  />
              <InterpolatingParam id="333" interp="linr"  time="-9999999/1" value="1" leadInLength="0/1"  />
             </VectorParam>
             <VectorParam id="334"  name="anchor">
              <InterpolatingParam id="335" interp="linr"  time="0/1" value="0" leadInLength="0/1"  />
              <InterpolatingParam id="336" interp="linr"  time="0/1" value="0" leadInLength="0/1"  />
              <InterpolatingParam id="337" interp="linr"  time="0/1" value="0" leadInLength="0/1"  />
             </VectorParam>
            </Transformer>
            <Parameters>
             <VectorParam id="338"  name="sourceCrop">
              <InterpolatingParam id="339" interp="linr"  time="0/1" value="0" leadInLength="0/1"  />
              <InterpolatingParam id="340" interp="linr"  time="0/1" value="0" leadInLength="0/1"  />
              <InterpolatingParam id="341" interp="linr"  time="0/1" value="0" leadInLength="0/1"  />
              <InterpolatingParam id="342" interp="linr"  time="0/1" value="0" leadInLength="0/1"  />
             </VectorParam>
             <VectorParam id="343"  name="geometryCrop">
              <InterpolatingParam id="344" interp="linr"  time="-9999999/1" value="0" leadInLength="0/1"  />
              <InterpolatingParam id="345" interp="linr"  time="-9999999/1" value="0" leadInLength="0/1"  />
              <InterpolatingParam id="346" interp="linr"  time="-9999999/1" value="0" leadInLength="0/1"  />
              <InterpolatingParam id="347" interp="linr"  time="-9999999/1" value="0" leadInLength="0/1"  />
             </VectorParam>
             <InterpolatingParam id="348" interp="linr"  time="-9999999/1" value="1" leadInLength="0/1"  name="opacity"/>
             <InterpolatingParam id="349" interp="linr"  time="0/1" value="0" leadInLength="0/1"  name="cursorOpacity"/>
             <InterpolatingParam id="350" interp="linr"  time="0/1" value="0" leadInLength="0/1"  name="cursorScale"/>
            </Parameters>
            <Attributes>
             <Attribute id="351" value="" name="ident"/>
            </Attributes>
            <MetaData>
             <entry key="AutoAppliedSmartFocus" val="False"/>
             <entry key="WinSubProjectDisplayName" val=""/>
            </MetaData>
            <ExtraData>
             <Entry key="ZoomPanBin">
              <ZoomPanBin id="352"  >
               <ZoomPanKeyframes>
                <ZoomPanKeyframe id="353" timeRangeEnd="-9999999/1" timeRangeDuration="0/1" interpolaterName="linr"  />
               </ZoomPanKeyframes>
              </ZoomPanBin>
             </Entry>
             <Entry key="CursorEffectBin">
              <CursorEffectBin id="354"  >
               <CursorEffectKeyframes>
               </CursorEffectKeyframes>
              </CursorEffectBin>
             </Entry>
            </ExtraData>
           </ScreenVMFile>
           <ScreenVMFile id="355" start="4093" duration="5388" scalar="1/1" mediaStart="4323/1" mediaDuration="5388/1" trackNumber="0" src="6" >
            <Transformer>
             <VectorParam id="356"  name="translation">
              <InterpolatingParam id="357" interp="linr"  time="-9999999/1" value="0" leadInLength="0/1"  />
              <InterpolatingParam id="358" interp="linr"  time="-9999999/1" value="0" leadInLength="0/1"  />
              <InterpolatingParam id="359" interp="linr"  time="-9999999/1" value="0" leadInLength="0/1"  />
             </VectorParam>
             <VectorParam id="360"  name="rotation">
              <InterpolatingParam id="361" interp="linr"  time="-9999999/1" value="0" leadInLength="0/1"  />
              <InterpolatingParam id="362" interp="linr"  time="-9999999/1" value="0" leadInLength="0/1"  />
              <InterpolatingParam id="363" interp="linr"  time="-9999999/1" value="0" leadInLength="0/1"  />
             </VectorParam>
             <VectorParam id="364"  name="shear">
              <InterpolatingParam id="365" interp="linr"  time="-9999999/1" value="0" leadInLength="0/1"  />
              <InterpolatingParam id="366" interp="linr"  time="-9999999/1" value="0" leadInLength="0/1"  />
              <InterpolatingParam id="367" interp="linr"  time="-9999999/1" value="0" leadInLength="0/1"  />
             </VectorParam>
             <VectorParam id="368"  name="scale">
              <InterpolatingParam id="369" interp="linr"  time="-9999999/1" value="1" leadInLength="0/1"  />
              <InterpolatingParam id="370" interp="linr"  time="-9999999/1" value="1" leadInLength="0/1"  />
              <InterpolatingParam id="371" interp="linr"  time="-9999999/1" value="1" leadInLength="0/1"  />
             </VectorParam>
             <VectorParam id="372"  name="anchor">
              <InterpolatingParam id="373" interp="linr"  time="0/1" value="0" leadInLength="0/1"  />
              <InterpolatingParam id="374" interp="linr"  time="0/1" value="0" leadInLength="0/1"  />
              <InterpolatingParam id="375" interp="linr"  time="0/1" value="0" leadInLength="0/1"  />
             </VectorParam>
            </Transformer>
            <Parameters>
             <VectorParam id="376"  name="sourceCrop">
              <InterpolatingParam id="377" interp="linr"  time="0/1" value="0" leadInLength="0/1"  />
              <InterpolatingParam id="378" interp="linr"  time="0/1" value="0" leadInLength="0/1"  />
              <InterpolatingParam id="379" interp="linr"  time="0/1" value="0" leadInLength="0/1"  />
              <InterpolatingParam id="380" interp="linr"  time="0/1" value="0" leadInLength="0/1"  />
             </VectorParam>
             <VectorParam id="381"  name="geometryCrop">
              <InterpolatingParam id="382" interp="linr"  time="-9999999/1" value="0" leadInLength="0/1"  />
              <InterpolatingParam id="383" interp="linr"  time="-9999999/1" value="0" leadInLength="0/1"  />
              <InterpolatingParam id="384" interp="linr"  time="-9999999/1" value="0" leadInLength="0/1"  />
              <InterpolatingParam id="385" interp="linr"  time="-9999999/1" value="0" leadInLength="0/1"  />
             </VectorParam>
             <InterpolatingParam id="386" interp="linr"  time="-9999999/1" value="1" leadInLength="0/1"  name="opacity"/>
             <InterpolatingParam id="387" interp="linr"  time="0/1" value="0" leadInLength="0/1"  name="cursorOpacity"/>
             <InterpolatingParam id="388" interp="linr"  time="0/1" value="0" leadInLength="0/1"  name="cursorScale"/>
            </Parameters>
            <Attributes>
             <Attribute id="389" value="" name="ident"/>
            </Attributes>
            <MetaData>
             <entry key="AutoAppliedSmartFocus" val="False"/>
             <entry key="WinSubProjectDisplayName" val=""/>
            </MetaData>
            <ExtraData>
             <Entry key="ZoomPanBin">
              <ZoomPanBin id="390"  >
               <ZoomPanKeyframes>
                <ZoomPanKeyframe id="391" timeRangeEnd="-9999999/1" timeRangeDuration="0/1" interpolaterName="linr"  />
               </ZoomPanKeyframes>
              </ZoomPanBin>
             </Entry>
             <Entry key="CursorEffectBin">
              <CursorEffectBin id="392"  >
               <CursorEffectKeyframes>
               </CursorEffectKeyframes>
              </CursorEffectBin>
             </Entry>
            </ExtraData>
           </ScreenVMFile>
          </Medias>
         </GenericTrack>
        </StitchedMedia>
        <ScreenVMFile id="393" start="7858" duration="3435" scalar="1/1" mediaStart="0/1" mediaDuration="3435/1" trackNumber="0" src="7" >
         <Transformer>
          <VectorParam id="394"  name="translation">
           <InterpolatingParam id="395" interp="linr"  time="-9999999/1" value="0" leadInLength="0/1"  />
           <InterpolatingParam id="396" interp="linr"  time="-9999999/1" value="0" leadInLength="0/1"  />
           <InterpolatingParam id="397" interp="linr"  time="-9999999/1" value="0" leadInLength="0/1"  />
          </VectorParam>
          <VectorParam id="398"  name="rotation">
           <InterpolatingParam id="399" interp="linr"  time="-9999999/1" value="0" leadInLength="0/1"  />
           <InterpolatingParam id="400" interp="linr"  time="-9999999/1" value="0" leadInLength="0/1"  />
           <InterpolatingParam id="401" interp="linr"  time="-9999999/1" value="0" leadInLength="0/1"  />
          </VectorParam>
          <VectorParam id="402"  name="shear">
           <InterpolatingParam id="403" interp="linr"  time="-9999999/1" value="0" leadInLength="0/1"  />
           <InterpolatingParam id="404" interp="linr"  time="-9999999/1" value="0" leadInLength="0/1"  />
           <InterpolatingParam id="405" interp="linr"  time="-9999999/1" value="0" leadInLength="0/1"  />
          </VectorParam>
          <VectorParam id="406"  name="scale">
           <InterpolatingParam id="407" interp="linr"  time="-9999999/1" value="0.93695014662756593" leadInLength="0/1"  />
           <InterpolatingParam id="408" interp="linr"  time="-9999999/1" value="0.93695014662756593" leadInLength="0/1"  />
           <InterpolatingParam id="409" interp="linr"  time="-9999999/1" value="1" leadInLength="0/1"  />
          </VectorParam>
          <VectorParam id="410"  name="anchor">
           <InterpolatingParam id="411" interp="linr"  time="0/1" value="0" leadInLength="0/1"  />
           <InterpolatingParam id="412" interp="linr"  time="0/1" value="0" leadInLength="0/1"  />
           <InterpolatingParam id="413" interp="linr"  time="0/1" value="0" leadInLength="0/1"  />
          </VectorParam>
         </Transformer>
         <Parameters>
          <VectorParam id="414"  name="sourceCrop">
           <InterpolatingParam id="415" interp="linr"  time="0/1" value="0" leadInLength="0/1"  />
           <InterpolatingParam id="416" interp="linr"  time="0/1" value="0" leadInLength="0/1"  />
           <InterpolatingParam id="417" interp="linr"  time="0/1" value="0" leadInLength="0/1"  />
           <InterpolatingParam id="418" interp="linr"  time="0/1" value="0" leadInLength="0/1"  />
          </VectorParam>
          <VectorParam id="419"  name="geometryCrop">
           <InterpolatingParam id="420" interp="linr"  time="-9999999/1" value="0" leadInLength="0/1"  />
           <InterpolatingParam id="421" interp="linr"  time="-9999999/1" value="0" leadInLength="0/1"  />
           <InterpolatingParam id="422" interp="linr"  time="-9999999/1" value="0" leadInLength="0/1"  />
           <InterpolatingParam id="423" interp="linr"  time="-9999999/1" value="0" leadInLength="0/1"  />
          </VectorParam>
          <InterpolatingParam id="424" interp="linr"  time="-9999999/1" value="1" leadInLength="0/1"  name="opacity"/>
          <InterpolatingParam id="425" interp="linr"  time="0/1" value="1" leadInLength="0/1"  name="cursorOpacity"/>
          <InterpolatingParam id="426" interp="linr"  time="0/1" value="1" leadInLength="0/1"  name="cursorScale"/>
         </Parameters>
         <Effects>
          <GenericEffect id="427" name = "CursorBaseEffectName" >
           <Parameters>
           <InterpolatingParam id="428" interp="linr"  time="-9999999/1" value="1" leadInLength="0/1"   name="cursorSize"/>
           <InterpolatingParam id="429" interp="linr"  time="-9999999/1" value="0" leadInLength="0/1"   name="highlightBlurRadius"/>
           <InterpolatingParam id="430" interp="linr"  time="-9999999/1" value="0" leadInLength="0/1"   name="highlightColorBlue"/>
           <InterpolatingParam id="431" interp="linr"  time="-9999999/1" value="255" leadInLength="0/1"   name="highlightColorGreen"/>
           <InterpolatingParam id="432" interp="linr"  time="-9999999/1" value="255" leadInLength="0/1"   name="highlightColorRed"/>
           <InterpolatingParam id="433" interp="linr"  time="-9999999/1" value="5" leadInLength="0/1"   name="highlightFeatherSize"/>
           <InterpolatingParam id="434" interp="linr"  time="-9999999/1" value="2" leadInLength="0/1"   name="highlightMagnification"/>
           <InterpolatingParam id="435" interp="linr"  time="-9999999/1" value="1" leadInLength="0/1"   name="highlightOpacity"/>
           <InterpolatingParam id="436" interp="linr"  time="-9999999/1" value="45" leadInLength="0/1"   name="highlightSize"/>
           <Parameter id="437"   name="highlightType">
            <Keyframes>
            <Keyframe id="438"  time="-9999999/1" value="0" leadInLength="0/1"  />
            </Keyframes>
           </Parameter>
           <InterpolatingParam id="439" interp="linr"  time="-9999999/1" value="0" leadInLength="0/1"   name="leftClickColorBlue"/>
           <InterpolatingParam id="440" interp="linr"  time="-9999999/1" value="0" leadInLength="0/1"   name="leftClickColorGreen"/>
           <InterpolatingParam id="441" interp="linr"  time="-9999999/1" value="255" leadInLength="0/1"   name="leftClickColorRed"/>
           <InterpolatingParam id="442" interp="linr"  time="-9999999/1" value="0.80000000000000004" leadInLength="0/1"   name="leftClickDuration"/>
           <InterpolatingParam id="443" interp="linr"  time="-9999999/1" value="20" leadInLength="0/1"   name="leftClickSize"/>
           <Parameter id="444"   name="leftClickSoundFilename">
            <Keyframes>
            <Keyframe id="445"  time="-9999999/1" value="" leadInLength="0/1"  />
            </Keyframes>
           </Parameter>
           <InterpolatingParam id="446" interp="linr"  time="-9999999/1" value="1" leadInLength="0/1"   name="leftClickSoundVolume"/>
           <Parameter id="447"   name="leftClickType">
            <Keyframes>
            <Keyframe id="448"  time="-9999999/1" value="0" leadInLength="0/1"  />
            </Keyframes>
           </Parameter>
           <InterpolatingParam id="449" interp="linr"  time="-9999999/1" value="1" leadInLength="0/1"   name="opacity"/>
           <InterpolatingParam id="450" interp="linr"  time="-9999999/1" value="255" leadInLength="0/1"   name="rightClickColorBlue"/>
           <InterpolatingParam id="451" interp="linr"  time="-9999999/1" value="0" leadInLength="0/1"   name="rightClickColorGreen"/>
           <InterpolatingParam id="452" interp="linr"  time="-9999999/1" value="0" leadInLength="0/1"   name="rightClickColorRed"/>
           <InterpolatingParam id="453" interp="linr"  time="-9999999/1" value="0.80000000000000004" leadInLength="0/1"   name="rightClickDuration"/>
           <InterpolatingParam id="454" interp="linr"  time="-9999999/1" value="20" leadInLength="0/1"   name="rightClickSize"/>
           <Parameter id="455"   name="rightClickSoundFilename">
            <Keyframes>
            <Keyframe id="456"  time="-9999999/1" value="" leadInLength="0/1"  />
            </Keyframes>
           </Parameter>
           <InterpolatingParam id="457" interp="linr"  time="-9999999/1" value="1" leadInLength="0/1"   name="rightClickSoundVolume"/>
           <Parameter id="458"   name="rightClickType">
            <Keyframes>
            <Keyframe id="459"  time="-9999999/1" value="0" leadInLength="0/1"  />
            </Keyframes>
           </Parameter>
           </Parameters>
           <MetaData>
            <entry key="effectIndex" val="0"/>
           </MetaData>
          </GenericEffect>
         </Effects>
         <Attributes>
          <Attribute id="460" value="" name="ident"/>
         </Attributes>
         <MetaData>
          <entry key="AutoAppliedSmartFocus" val="False"/>
          <entry key="WinSubProjectDisplayName" val=""/>
         </MetaData>
         <ExtraData>
          <Entry key="ZoomPanBin">
           <ZoomPanBin id="461"  >
            <ZoomPanKeyframes>
             <ZoomPanKeyframe id="462" timeRangeEnd="-9999999/1" timeRangeDuration="0/1" interpolaterName="linr"  />
            </ZoomPanKeyframes>
           </ZoomPanBin>
          </Entry>
          <Entry key="CursorEffectBin">
           <CursorEffectBin id="463"  >
            <CursorEffectKeyframes>
             <CursorEffectKeyframe id="464" timeRangeEnd="-9999999/1" timeRangeDuration="0/1" interpolaterName=""  />
            </CursorEffectKeyframes>
           </CursorEffectBin>
          </Entry>
         </ExtraData>
        </ScreenVMFile>
        <StitchedMedia id="465" start="11293" duration="3633" scalar="1/1" mediaStart="49/1" mediaDuration="3633/1" minMediaStart="0/1" >
         <Transformer>
          <VectorParam id="466"  name="translation">
           <InterpolatingParam id="467" interp="linr"  time="-9999999/1" value="0" leadInLength="0/1"  />
           <InterpolatingParam id="468" interp="linr"  time="-9999999/1" value="0" leadInLength="0/1"  />
           <InterpolatingParam id="469" interp="linr"  time="-9999999/1" value="0" leadInLength="0/1"  />
          </VectorParam>
          <VectorParam id="470"  name="rotation">
           <InterpolatingParam id="471" interp="linr"  time="-9999999/1" value="0" leadInLength="0/1"  />
           <InterpolatingParam id="472" interp="linr"  time="-9999999/1" value="0" leadInLength="0/1"  />
           <InterpolatingParam id="473" interp="linr"  time="-9999999/1" value="0" leadInLength="0/1"  />
          </VectorParam>
          <VectorParam id="474"  name="shear">
           <InterpolatingParam id="475" interp="linr"  time="-9999999/1" value="0" leadInLength="0/1"  />
           <InterpolatingParam id="476" interp="linr"  time="-9999999/1" value="0" leadInLength="0/1"  />
           <InterpolatingParam id="477" interp="linr"  time="-9999999/1" value="0" leadInLength="0/1"  />
          </VectorParam>
          <VectorParam id="478"  name="scale">
           <InterpolatingParam id="479" interp="linr"  time="-9999999/1" value="0.93695014662756593" leadInLength="0/1"  />
           <InterpolatingParam id="480" interp="linr"  time="-9999999/1" value="0.93695014662756593" leadInLength="0/1"  />
           <InterpolatingParam id="481" interp="linr"  time="-9999999/1" value="1" leadInLength="0/1"  />
          </VectorParam>
          <VectorParam id="482"  name="anchor">
           <InterpolatingParam id="483" interp="linr"  time="0/1" value="0" leadInLength="0/1"  />
           <InterpolatingParam id="484" interp="linr"  time="0/1" value="0" leadInLength="0/1"  />
           <InterpolatingParam id="485" interp="linr"  time="0/1" value="0" leadInLength="0/1"  />
          </VectorParam>
         </Transformer>
         <Parameters>
          <VectorParam id="486"  name="sourceCrop">
           <InterpolatingParam id="487" interp="linr"  time="0/1" value="0" leadInLength="0/1"  />
           <InterpolatingParam id="488" interp="linr"  time="0/1" value="0" leadInLength="0/1"  />
           <InterpolatingParam id="489" interp="linr"  time="0/1" value="0" leadInLength="0/1"  />
           <InterpolatingParam id="490" interp="linr"  time="0/1" value="0" leadInLength="0/1"  />
          </VectorParam>
          <VectorParam id="491"  name="geometryCrop">
           <InterpolatingParam id="492" interp="linr"  time="-9999999/1" value="0" leadInLength="0/1"  />
           <InterpolatingParam id="493" interp="linr"  time="-9999999/1" value="0" leadInLength="0/1"  />
           <InterpolatingParam id="494" interp="linr"  time="-9999999/1" value="0" leadInLength="0/1"  />
           <InterpolatingParam id="495" interp="linr"  time="-9999999/1" value="0" leadInLength="0/1"  />
          </VectorParam>
          <InterpolatingParam id="496" interp="linr"  time="-9999999/1" value="1" leadInLength="0/1"  name="opacity"/>
          <InterpolatingParam id="497" interp="linr"  time="0/1" value="1" leadInLength="0/1"  name="cursorOpacity"/>
          <InterpolatingParam id="498" interp="linr"  time="0/1" value="1" leadInLength="0/1"  name="cursorScale"/>
          <Parameter id="499"  name="captions"/>
         </Parameters>
         <Effects>
          <GenericEffect id="500" name = "CursorBaseEffectName" >
           <Parameters>
           <InterpolatingParam id="501" interp="linr"  time="-9999999/1" value="1" leadInLength="0/1"   name="cursorSize"/>
           <InterpolatingParam id="502" interp="linr"  time="-9999999/1" value="0" leadInLength="0/1"   name="highlightBlurRadius"/>
           <InterpolatingParam id="503" interp="linr"  time="-9999999/1" value="0" leadInLength="0/1"   name="highlightColorBlue"/>
           <InterpolatingParam id="504" interp="linr"  time="-9999999/1" value="255" leadInLength="0/1"   name="highlightColorGreen"/>
           <InterpolatingParam id="505" interp="linr"  time="-9999999/1" value="255" leadInLength="0/1"   name="highlightColorRed"/>
           <InterpolatingParam id="506" interp="linr"  time="-9999999/1" value="5" leadInLength="0/1"   name="highlightFeatherSize"/>
           <InterpolatingParam id="507" interp="linr"  time="-9999999/1" value="2" leadInLength="0/1"   name="highlightMagnification"/>
           <InterpolatingParam id="508" interp="linr"  time="-9999999/1" value="1" leadInLength="0/1"   name="highlightOpacity"/>
           <InterpolatingParam id="509" interp="linr"  time="-9999999/1" value="45" leadInLength="0/1"   name="highlightSize"/>
           <Parameter id="510"   name="highlightType">
            <Keyframes>
            <Keyframe id="511"  time="-9999999/1" value="0" leadInLength="0/1"  />
            </Keyframes>
           </Parameter>
           <InterpolatingParam id="512" interp="linr"  time="-9999999/1" value="0" leadInLength="0/1"   name="leftClickColorBlue"/>
           <InterpolatingParam id="513" interp="linr"  time="-9999999/1" value="0" leadInLength="0/1"   name="leftClickColorGreen"/>
           <InterpolatingParam id="514" interp="linr"  time="-9999999/1" value="255" leadInLength="0/1"   name="leftClickColorRed"/>
           <InterpolatingParam id="515" interp="linr"  time="-9999999/1" value="0.80000000000000004" leadInLength="0/1"   name="leftClickDuration"/>
           <InterpolatingParam id="516" interp="linr"  time="-9999999/1" value="20" leadInLength="0/1"   name="leftClickSize"/>
           <Parameter id="517"   name="leftClickSoundFilename">
            <Keyframes>
            <Keyframe id="518"  time="-9999999/1" value="" leadInLength="0/1"  />
            </Keyframes>
           </Parameter>
           <InterpolatingParam id="519" interp="linr"  time="-9999999/1" value="1" leadInLength="0/1"   name="leftClickSoundVolume"/>
           <Parameter id="520"   name="leftClickType">
            <Keyframes>
            <Keyframe id="521"  time="-9999999/1" value="0" leadInLength="0/1"  />
            </Keyframes>
           </Parameter>
           <InterpolatingParam id="522" interp="linr"  time="-9999999/1" value="1" leadInLength="0/1"   name="opacity"/>
           <InterpolatingParam id="523" interp="linr"  time="-9999999/1" value="255" leadInLength="0/1"   name="rightClickColorBlue"/>
           <InterpolatingParam id="524" interp="linr"  time="-9999999/1" value="0" leadInLength="0/1"   name="rightClickColorGreen"/>
           <InterpolatingParam id="525" interp="linr"  time="-9999999/1" value="0" leadInLength="0/1"   name="rightClickColorRed"/>
           <InterpolatingParam id="526" interp="linr"  time="-9999999/1" value="0.80000000000000004" leadInLength="0/1"   name="rightClickDuration"/>
           <InterpolatingParam id="527" interp="linr"  time="-9999999/1" value="20" leadInLength="0/1"   name="rightClickSize"/>
           <Parameter id="528"   name="rightClickSoundFilename">
            <Keyframes>
            <Keyframe id="529"  time="-9999999/1" value="" leadInLength="0/1"  />
            </Keyframes>
           </Parameter>
           <InterpolatingParam id="530" interp="linr"  time="-9999999/1" value="1" leadInLength="0/1"   name="rightClickSoundVolume"/>
           <Parameter id="531"   name="rightClickType">
            <Keyframes>
            <Keyframe id="532"  time="-9999999/1" value="0" leadInLength="0/1"  />
            </Keyframes>
           </Parameter>
           </Parameters>
           <MetaData>
            <entry key="effectIndex" val="0"/>
           </MetaData>
          </GenericEffect>
         </Effects>
         <Attributes>
          <Attribute id="533" value="" name="ident"/>
         </Attributes>
         <MetaData>
          <entry key="AutoAppliedSmartFocus" val="False"/>
          <entry key="WinSubProjectDisplayName" val=""/>
         </MetaData>
         <ExtraData>
          <Entry key="ZoomPanBin">
           <ZoomPanBin id="534"  >
            <ZoomPanKeyframes>
             <ZoomPanKeyframe id="535" timeRangeEnd="-9999999/1" timeRangeDuration="0/1" interpolaterName="linr"  />
            </ZoomPanKeyframes>
           </ZoomPanBin>
          </Entry>
          <Entry key="CursorEffectBin">
           <CursorEffectBin id="536"  >
            <CursorEffectKeyframes>
             <CursorEffectKeyframe id="537" timeRangeEnd="-9999999/1" timeRangeDuration="0/1" interpolaterName=""  />
            </CursorEffectKeyframes>
           </CursorEffectBin>
          </Entry>
         </ExtraData>
         <GenericTrack id="538"  >
          <Attributes>
           <Attribute id="539" value="" name="ident"/>
          </Attributes>
          <MetaData>
           <entry key="IsLocked" val="False"/>
           <entry key="WinTrackHeight" val="0"/>
          </MetaData>
          <Medias>
           <ScreenVMFile id="540" start="0" duration="423" scalar="1/1" mediaStart="0/1" mediaDuration="423/1" trackNumber="0" src="8" >
            <Transformer>
             <VectorParam id="541"  name="translation">
              <InterpolatingParam id="542" interp="linr"  time="-9999999/1" value="0" leadInLength="0/1"  />
              <InterpolatingParam id="543" interp="linr"  time="-9999999/1" value="0" leadInLength="0/1"  />
              <InterpolatingParam id="544" interp="linr"  time="-9999999/1" value="0" leadInLength="0/1"  />
             </VectorParam>
             <VectorParam id="545"  name="rotation">
              <InterpolatingParam id="546" interp="linr"  time="-9999999/1" value="0" leadInLength="0/1"  />
              <InterpolatingParam id="547" interp="linr"  time="-9999999/1" value="0" leadInLength="0/1"  />
              <InterpolatingParam id="548" interp="linr"  time="-9999999/1" value="0" leadInLength="0/1"  />
             </VectorParam>
             <VectorParam id="549"  name="shear">
              <InterpolatingParam id="550" interp="linr"  time="-9999999/1" value="0" leadInLength="0/1"  />
              <InterpolatingParam id="551" interp="linr"  time="-9999999/1" value="0" leadInLength="0/1"  />
              <InterpolatingParam id="552" interp="linr"  time="-9999999/1" value="0" leadInLength="0/1"  />
             </VectorParam>
             <VectorParam id="553"  name="scale">
              <InterpolatingParam id="554" interp="linr"  time="-9999999/1" value="1" leadInLength="0/1"  />
              <InterpolatingParam id="555" interp="linr"  time="-9999999/1" value="1" leadInLength="0/1"  />
              <InterpolatingParam id="556" interp="linr"  time="-9999999/1" value="1" leadInLength="0/1"  />
             </VectorParam>
             <VectorParam id="557"  name="anchor">
              <InterpolatingParam id="558" interp="linr"  time="0/1" value="0" leadInLength="0/1"  />
              <InterpolatingParam id="559" interp="linr"  time="0/1" value="0" leadInLength="0/1"  />
              <InterpolatingParam id="560" interp="linr"  time="0/1" value="0" leadInLength="0/1"  />
             </VectorParam>
            </Transformer>
            <Parameters>
             <VectorParam id="561"  name="sourceCrop">
              <InterpolatingParam id="562" interp="linr"  time="0/1" value="0" leadInLength="0/1"  />
              <InterpolatingParam id="563" interp="linr"  time="0/1" value="0" leadInLength="0/1"  />
              <InterpolatingParam id="564" interp="linr"  time="0/1" value="0" leadInLength="0/1"  />
              <InterpolatingParam id="565" interp="linr"  time="0/1" value="0" leadInLength="0/1"  />
             </VectorParam>
             <VectorParam id="566"  name="geometryCrop">
              <InterpolatingParam id="567" interp="linr"  time="-9999999/1" value="0" leadInLength="0/1"  />
              <InterpolatingParam id="568" interp="linr"  time="-9999999/1" value="0" leadInLength="0/1"  />
              <InterpolatingParam id="569" interp="linr"  time="-9999999/1" value="0" leadInLength="0/1"  />
              <InterpolatingParam id="570" interp="linr"  time="-9999999/1" value="0" leadInLength="0/1"  />
             </VectorParam>
             <InterpolatingParam id="571" interp="linr"  time="-9999999/1" value="1" leadInLength="0/1"  name="opacity"/>
             <InterpolatingParam id="572" interp="linr"  time="0/1" value="0" leadInLength="0/1"  name="cursorOpacity"/>
             <InterpolatingParam id="573" interp="linr"  time="0/1" value="0" leadInLength="0/1"  name="cursorScale"/>
            </Parameters>
            <Attributes>
             <Attribute id="574" value="" name="ident"/>
            </Attributes>
            <MetaData>
             <entry key="AutoAppliedSmartFocus" val="False"/>
             <entry key="WinSubProjectDisplayName" val=""/>
            </MetaData>
            <ExtraData>
             <Entry key="ZoomPanBin">
              <ZoomPanBin id="575"  >
               <ZoomPanKeyframes>
                <ZoomPanKeyframe id="576" timeRangeEnd="-9999999/1" timeRangeDuration="0/1" interpolaterName="linr"  />
               </ZoomPanKeyframes>
              </ZoomPanBin>
             </Entry>
             <Entry key="CursorEffectBin">
              <CursorEffectBin id="577"  >
               <CursorEffectKeyframes>
               </CursorEffectKeyframes>
              </CursorEffectBin>
             </Entry>
            </ExtraData>
           </ScreenVMFile>
           <ScreenVMFile id="578" start="423" duration="374" scalar="1/1" mediaStart="491/1" mediaDuration="374/1" trackNumber="0" src="8" >
            <Transformer>
             <VectorParam id="579"  name="translation">
              <InterpolatingParam id="580" interp="linr"  time="-9999999/1" value="0" leadInLength="0/1"  />
              <InterpolatingParam id="581" interp="linr"  time="-9999999/1" value="0" leadInLength="0/1"  />
              <InterpolatingParam id="582" interp="linr"  time="-9999999/1" value="0" leadInLength="0/1"  />
             </VectorParam>
             <VectorParam id="583"  name="rotation">
              <InterpolatingParam id="584" interp="linr"  time="-9999999/1" value="0" leadInLength="0/1"  />
              <InterpolatingParam id="585" interp="linr"  time="-9999999/1" value="0" leadInLength="0/1"  />
              <InterpolatingParam id="586" interp="linr"  time="-9999999/1" value="0" leadInLength="0/1"  />
             </VectorParam>
             <VectorParam id="587"  name="shear">
              <InterpolatingParam id="588" interp="linr"  time="-9999999/1" value="0" leadInLength="0/1"  />
              <InterpolatingParam id="589" interp="linr"  time="-9999999/1" value="0" leadInLength="0/1"  />
              <InterpolatingParam id="590" interp="linr"  time="-9999999/1" value="0" leadInLength="0/1"  />
             </VectorParam>
             <VectorParam id="591"  name="scale">
              <InterpolatingParam id="592" interp="linr"  time="-9999999/1" value="1" leadInLength="0/1"  />
              <InterpolatingParam id="593" interp="linr"  time="-9999999/1" value="1" leadInLength="0/1"  />
              <InterpolatingParam id="594" interp="linr"  time="-9999999/1" value="1" leadInLength="0/1"  />
             </VectorParam>
             <VectorParam id="595"  name="anchor">
              <InterpolatingParam id="596" interp="linr"  time="0/1" value="0" leadInLength="0/1"  />
              <InterpolatingParam id="597" interp="linr"  time="0/1" value="0" leadInLength="0/1"  />
              <InterpolatingParam id="598" interp="linr"  time="0/1" value="0" leadInLength="0/1"  />
             </VectorParam>
            </Transformer>
            <Parameters>
             <VectorParam id="599"  name="sourceCrop">
              <InterpolatingParam id="600" interp="linr"  time="0/1" value="0" leadInLength="0/1"  />
              <InterpolatingParam id="601" interp="linr"  time="0/1" value="0" leadInLength="0/1"  />
              <InterpolatingParam id="602" interp="linr"  time="0/1" value="0" leadInLength="0/1"  />
              <InterpolatingParam id="603" interp="linr"  time="0/1" value="0" leadInLength="0/1"  />
             </VectorParam>
             <VectorParam id="604"  name="geometryCrop">
              <InterpolatingParam id="605" interp="linr"  time="-9999999/1" value="0" leadInLength="0/1"  />
              <InterpolatingParam id="606" interp="linr"  time="-9999999/1" value="0" leadInLength="0/1"  />
              <InterpolatingParam id="607" interp="linr"  time="-9999999/1" value="0" leadInLength="0/1"  />
              <InterpolatingParam id="608" interp="linr"  time="-9999999/1" value="0" leadInLength="0/1"  />
             </VectorParam>
             <InterpolatingParam id="609" interp="linr"  time="-9999999/1" value="1" leadInLength="0/1"  name="opacity"/>
             <InterpolatingParam id="610" interp="linr"  time="0/1" value="0" leadInLength="0/1"  name="cursorOpacity"/>
             <InterpolatingParam id="611" interp="linr"  time="0/1" value="0" leadInLength="0/1"  name="cursorScale"/>
            </Parameters>
            <Attributes>
             <Attribute id="612" value="" name="ident"/>
            </Attributes>
            <MetaData>
             <entry key="AutoAppliedSmartFocus" val="False"/>
             <entry key="WinSubProjectDisplayName" val=""/>
            </MetaData>
            <ExtraData>
             <Entry key="ZoomPanBin">
              <ZoomPanBin id="613"  >
               <ZoomPanKeyframes>
                <ZoomPanKeyframe id="614" timeRangeEnd="-9999999/1" timeRangeDuration="0/1" interpolaterName="linr"  />
               </ZoomPanKeyframes>
              </ZoomPanBin>
             </Entry>
             <Entry key="CursorEffectBin">
              <CursorEffectBin id="615"  >
               <CursorEffectKeyframes>
               </CursorEffectKeyframes>
              </CursorEffectBin>
             </Entry>
            </ExtraData>
           </ScreenVMFile>
           <ScreenVMFile id="616" start="797" duration="1773" scalar="1/1" mediaStart="912/1" mediaDuration="1773/1" trackNumber="0" src="8" >
            <Transformer>
             <VectorParam id="617"  name="translation">
              <InterpolatingParam id="618" interp="linr"  time="-9999999/1" value="0" leadInLength="0/1"  />
              <InterpolatingParam id="619" interp="linr"  time="-9999999/1" value="0" leadInLength="0/1"  />
              <InterpolatingParam id="620" interp="linr"  time="-9999999/1" value="0" leadInLength="0/1"  />
             </VectorParam>
             <VectorParam id="621"  name="rotation">
              <InterpolatingParam id="622" interp="linr"  time="-9999999/1" value="0" leadInLength="0/1"  />
              <InterpolatingParam id="623" interp="linr"  time="-9999999/1" value="0" leadInLength="0/1"  />
              <InterpolatingParam id="624" interp="linr"  time="-9999999/1" value="0" leadInLength="0/1"  />
             </VectorParam>
             <VectorParam id="625"  name="shear">
              <InterpolatingParam id="626" interp="linr"  time="-9999999/1" value="0" leadInLength="0/1"  />
              <InterpolatingParam id="627" interp="linr"  time="-9999999/1" value="0" leadInLength="0/1"  />
              <InterpolatingParam id="628" interp="linr"  time="-9999999/1" value="0" leadInLength="0/1"  />
             </VectorParam>
             <VectorParam id="629"  name="scale">
              <InterpolatingParam id="630" interp="linr"  time="-9999999/1" value="1" leadInLength="0/1"  />
              <InterpolatingParam id="631" interp="linr"  time="-9999999/1" value="1" leadInLength="0/1"  />
              <InterpolatingParam id="632" interp="linr"  time="-9999999/1" value="1" leadInLength="0/1"  />
             </VectorParam>
             <VectorParam id="633"  name="anchor">
              <InterpolatingParam id="634" interp="linr"  time="0/1" value="0" leadInLength="0/1"  />
              <InterpolatingParam id="635" interp="linr"  time="0/1" value="0" leadInLength="0/1"  />
              <InterpolatingParam id="636" interp="linr"  time="0/1" value="0" leadInLength="0/1"  />
             </VectorParam>
            </Transformer>
            <Parameters>
             <VectorParam id="637"  name="sourceCrop">
              <InterpolatingParam id="638" interp="linr"  time="0/1" value="0" leadInLength="0/1"  />
              <InterpolatingParam id="639" interp="linr"  time="0/1" value="0" leadInLength="0/1"  />
              <InterpolatingParam id="640" interp="linr"  time="0/1" value="0" leadInLength="0/1"  />
              <InterpolatingParam id="641" interp="linr"  time="0/1" value="0" leadInLength="0/1"  />
             </VectorParam>
             <VectorParam id="642"  name="geometryCrop">
              <InterpolatingParam id="643" interp="linr"  time="-9999999/1" value="0" leadInLength="0/1"  />
              <InterpolatingParam id="644" interp="linr"  time="-9999999/1" value="0" leadInLength="0/1"  />
              <InterpolatingParam id="645" interp="linr"  time="-9999999/1" value="0" leadInLength="0/1"  />
              <InterpolatingParam id="646" interp="linr"  time="-9999999/1" value="0" leadInLength="0/1"  />
             </VectorParam>
             <InterpolatingParam id="647" interp="linr"  time="-9999999/1" value="1" leadInLength="0/1"  name="opacity"/>
             <InterpolatingParam id="648" interp="linr"  time="0/1" value="0" leadInLength="0/1"  name="cursorOpacity"/>
             <InterpolatingParam id="649" interp="linr"  time="0/1" value="0" leadInLength="0/1"  name="cursorScale"/>
            </Parameters>
            <Attributes>
             <Attribute id="650" value="" name="ident"/>
            </Attributes>
            <MetaData>
             <entry key="AutoAppliedSmartFocus" val="False"/>
             <entry key="WinSubProjectDisplayName" val=""/>
            </MetaData>
            <ExtraData>
             <Entry key="ZoomPanBin">
              <ZoomPanBin id="651"  >
               <ZoomPanKeyframes>
                <ZoomPanKeyframe id="652" timeRangeEnd="-9999999/1" timeRangeDuration="0/1" interpolaterName="linr"  />
               </ZoomPanKeyframes>
              </ZoomPanBin>
             </Entry>
             <Entry key="CursorEffectBin">
              <CursorEffectBin id="653"  >
               <CursorEffectKeyframes>
               </CursorEffectKeyframes>
              </CursorEffectBin>
             </Entry>
            </ExtraData>
           </ScreenVMFile>
           <ScreenVMFile id="654" start="2570" duration="1954" scalar="1/1" mediaStart="4147/1" mediaDuration="1954/1" trackNumber="0" src="8" >
            <Transformer>
             <VectorParam id="655"  name="translation">
              <InterpolatingParam id="656" interp="linr"  time="-9999999/1" value="0" leadInLength="0/1"  />
              <InterpolatingParam id="657" interp="linr"  time="-9999999/1" value="0" leadInLength="0/1"  />
              <InterpolatingParam id="658" interp="linr"  time="-9999999/1" value="0" leadInLength="0/1"  />
             </VectorParam>
             <VectorParam id="659"  name="rotation">
              <InterpolatingParam id="660" interp="linr"  time="-9999999/1" value="0" leadInLength="0/1"  />
              <InterpolatingParam id="661" interp="linr"  time="-9999999/1" value="0" leadInLength="0/1"  />
              <InterpolatingParam id="662" interp="linr"  time="-9999999/1" value="0" leadInLength="0/1"  />
             </VectorParam>
             <VectorParam id="663"  name="shear">
              <InterpolatingParam id="664" interp="linr"  time="-9999999/1" value="0" leadInLength="0/1"  />
              <InterpolatingParam id="665" interp="linr"  time="-9999999/1" value="0" leadInLength="0/1"  />
              <InterpolatingParam id="666" interp="linr"  time="-9999999/1" value="0" leadInLength="0/1"  />
             </VectorParam>
             <VectorParam id="667"  name="scale">
              <InterpolatingParam id="668" interp="linr"  time="-9999999/1" value="1" leadInLength="0/1"  />
              <InterpolatingParam id="669" interp="linr"  time="-9999999/1" value="1" leadInLength="0/1"  />
              <InterpolatingParam id="670" interp="linr"  time="-9999999/1" value="1" leadInLength="0/1"  />
             </VectorParam>
             <VectorParam id="671"  name="anchor">
              <InterpolatingParam id="672" interp="linr"  time="0/1" value="0" leadInLength="0/1"  />
              <InterpolatingParam id="673" interp="linr"  time="0/1" value="0" leadInLength="0/1"  />
              <InterpolatingParam id="674" interp="linr"  time="0/1" value="0" leadInLength="0/1"  />
             </VectorParam>
            </Transformer>
            <Parameters>
             <VectorParam id="675"  name="sourceCrop">
              <InterpolatingParam id="676" interp="linr"  time="0/1" value="0" leadInLength="0/1"  />
              <InterpolatingParam id="677" interp="linr"  time="0/1" value="0" leadInLength="0/1"  />
              <InterpolatingParam id="678" interp="linr"  time="0/1" value="0" leadInLength="0/1"  />
              <InterpolatingParam id="679" interp="linr"  time="0/1" value="0" leadInLength="0/1"  />
             </VectorParam>
             <VectorParam id="680"  name="geometryCrop">
              <InterpolatingParam id="681" interp="linr"  time="-9999999/1" value="0" leadInLength="0/1"  />
              <InterpolatingParam id="682" interp="linr"  time="-9999999/1" value="0" leadInLength="0/1"  />
              <InterpolatingParam id="683" interp="linr"  time="-9999999/1" value="0" leadInLength="0/1"  />
              <InterpolatingParam id="684" interp="linr"  time="-9999999/1" value="0" leadInLength="0/1"  />
             </VectorParam>
             <InterpolatingParam id="685" interp="linr"  time="-9999999/1" value="1" leadInLength="0/1"  name="opacity"/>
             <InterpolatingParam id="686" interp="linr"  time="0/1" value="0" leadInLength="0/1"  name="cursorOpacity"/>
             <InterpolatingParam id="687" interp="linr"  time="0/1" value="0" leadInLength="0/1"  name="cursorScale"/>
            </Parameters>
            <Attributes>
             <Attribute id="688" value="" name="ident"/>
            </Attributes>
            <MetaData>
             <entry key="AutoAppliedSmartFocus" val="False"/>
             <entry key="WinSubProjectDisplayName" val=""/>
            </MetaData>
            <ExtraData>
             <Entry key="ZoomPanBin">
              <ZoomPanBin id="689"  >
               <ZoomPanKeyframes>
                <ZoomPanKeyframe id="690" timeRangeEnd="-9999999/1" timeRangeDuration="0/1" interpolaterName="linr"  />
               </ZoomPanKeyframes>
              </ZoomPanBin>
             </Entry>
             <Entry key="CursorEffectBin">
              <CursorEffectBin id="691"  >
               <CursorEffectKeyframes>
               </CursorEffectKeyframes>
              </CursorEffectBin>
             </Entry>
            </ExtraData>
           </ScreenVMFile>
          </Medias>
         </GenericTrack>
        </StitchedMedia>
        <ScreenVMFile id="692" start="14926" duration="865" scalar="1/1" mediaStart="72/1" mediaDuration="865/1" trackNumber="0" src="9" >
         <Transformer>
          <VectorParam id="693"  name="translation">
           <InterpolatingParam id="694" interp="linr"  time="-9999999/1" value="0" leadInLength="0/1"  />
           <InterpolatingParam id="695" interp="linr"  time="-9999999/1" value="0" leadInLength="0/1"  />
           <InterpolatingParam id="696" interp="linr"  time="-9999999/1" value="0" leadInLength="0/1"  />
          </VectorParam>
          <VectorParam id="697"  name="rotation">
           <InterpolatingParam id="698" interp="linr"  time="-9999999/1" value="0" leadInLength="0/1"  />
           <InterpolatingParam id="699" interp="linr"  time="-9999999/1" value="0" leadInLength="0/1"  />
           <InterpolatingParam id="700" interp="linr"  time="-9999999/1" value="0" leadInLength="0/1"  />
          </VectorParam>
          <VectorParam id="701"  name="shear">
           <InterpolatingParam id="702" interp="linr"  time="-9999999/1" value="0" leadInLength="0/1"  />
           <InterpolatingParam id="703" interp="linr"  time="-9999999/1" value="0" leadInLength="0/1"  />
           <InterpolatingParam id="704" interp="linr"  time="-9999999/1" value="0" leadInLength="0/1"  />
          </VectorParam>
          <VectorParam id="705"  name="scale">
           <InterpolatingParam id="706" interp="linr"  time="-9999999/1" value="0.93695014662756593" leadInLength="0/1"  />
           <InterpolatingParam id="707" interp="linr"  time="-9999999/1" value="0.93695014662756593" leadInLength="0/1"  />
           <InterpolatingParam id="708" interp="linr"  time="-9999999/1" value="1" leadInLength="0/1"  />
          </VectorParam>
          <VectorParam id="709"  name="anchor">
           <InterpolatingParam id="710" interp="linr"  time="0/1" value="0" leadInLength="0/1"  />
           <InterpolatingParam id="711" interp="linr"  time="0/1" value="0" leadInLength="0/1"  />
           <InterpolatingParam id="712" interp="linr"  time="0/1" value="0" leadInLength="0/1"  />
          </VectorParam>
         </Transformer>
         <Parameters>
          <VectorParam id="713"  name="sourceCrop">
           <InterpolatingParam id="714" interp="linr"  time="0/1" value="0" leadInLength="0/1"  />
           <InterpolatingParam id="715" interp="linr"  time="0/1" value="0" leadInLength="0/1"  />
           <InterpolatingParam id="716" interp="linr"  time="0/1" value="0" leadInLength="0/1"  />
           <InterpolatingParam id="717" interp="linr"  time="0/1" value="0" leadInLength="0/1"  />
          </VectorParam>
          <VectorParam id="718"  name="geometryCrop">
           <InterpolatingParam id="719" interp="linr"  time="-9999999/1" value="0" leadInLength="0/1"  />
           <InterpolatingParam id="720" interp="linr"  time="-9999999/1" value="0" leadInLength="0/1"  />
           <InterpolatingParam id="721" interp="linr"  time="-9999999/1" value="0" leadInLength="0/1"  />
           <InterpolatingParam id="722" interp="linr"  time="-9999999/1" value="0" leadInLength="0/1"  />
          </VectorParam>
          <InterpolatingParam id="723" interp="linr"  time="-9999999/1" value="1" leadInLength="0/1"  name="opacity"/>
          <InterpolatingParam id="724" interp="linr"  time="0/1" value="1" leadInLength="0/1"  name="cursorOpacity"/>
          <InterpolatingParam id="725" interp="linr"  time="0/1" value="1" leadInLength="0/1"  name="cursorScale"/>
         </Parameters>
         <Effects>
          <GenericEffect id="726" name = "CursorBaseEffectName" >
           <Parameters>
           <InterpolatingParam id="727" interp="linr"  time="-9999999/1" value="1" leadInLength="0/1"   name="cursorSize"/>
           <InterpolatingParam id="728" interp="linr"  time="-9999999/1" value="0" leadInLength="0/1"   name="highlightBlurRadius"/>
           <InterpolatingParam id="729" interp="linr"  time="-9999999/1" value="0" leadInLength="0/1"   name="highlightColorBlue"/>
           <InterpolatingParam id="730" interp="linr"  time="-9999999/1" value="255" leadInLength="0/1"   name="highlightColorGreen"/>
           <InterpolatingParam id="731" interp="linr"  time="-9999999/1" value="255" leadInLength="0/1"   name="highlightColorRed"/>
           <InterpolatingParam id="732" interp="linr"  time="-9999999/1" value="5" leadInLength="0/1"   name="highlightFeatherSize"/>
           <InterpolatingParam id="733" interp="linr"  time="-9999999/1" value="2" leadInLength="0/1"   name="highlightMagnification"/>
           <InterpolatingParam id="734" interp="linr"  time="-9999999/1" value="1" leadInLength="0/1"   name="highlightOpacity"/>
           <InterpolatingParam id="735" interp="linr"  time="-9999999/1" value="45" leadInLength="0/1"   name="highlightSize"/>
           <Parameter id="736"   name="highlightType">
            <Keyframes>
            <Keyframe id="737"  time="-9999999/1" value="0" leadInLength="0/1"  />
            </Keyframes>
           </Parameter>
           <InterpolatingParam id="738" interp="linr"  time="-9999999/1" value="0" leadInLength="0/1"   name="leftClickColorBlue"/>
           <InterpolatingParam id="739" interp="linr"  time="-9999999/1" value="0" leadInLength="0/1"   name="leftClickColorGreen"/>
           <InterpolatingParam id="740" interp="linr"  time="-9999999/1" value="255" leadInLength="0/1"   name="leftClickColorRed"/>
           <InterpolatingParam id="741" interp="linr"  time="-9999999/1" value="0.80000000000000004" leadInLength="0/1"   name="leftClickDuration"/>
           <InterpolatingParam id="742" interp="linr"  time="-9999999/1" value="20" leadInLength="0/1"   name="leftClickSize"/>
           <Parameter id="743"   name="leftClickSoundFilename">
            <Keyframes>
            <Keyframe id="744"  time="-9999999/1" value="" leadInLength="0/1"  />
            </Keyframes>
           </Parameter>
           <InterpolatingParam id="745" interp="linr"  time="-9999999/1" value="1" leadInLength="0/1"   name="leftClickSoundVolume"/>
           <Parameter id="746"   name="leftClickType">
            <Keyframes>
            <Keyframe id="747"  time="-9999999/1" value="0" leadInLength="0/1"  />
            </Keyframes>
           </Parameter>
           <InterpolatingParam id="748" interp="linr"  time="-9999999/1" value="1" leadInLength="0/1"   name="opacity"/>
           <InterpolatingParam id="749" interp="linr"  time="-9999999/1" value="255" leadInLength="0/1"   name="rightClickColorBlue"/>
           <InterpolatingParam id="750" interp="linr"  time="-9999999/1" value="0" leadInLength="0/1"   name="rightClickColorGreen"/>
           <InterpolatingParam id="751" interp="linr"  time="-9999999/1" value="0" leadInLength="0/1"   name="rightClickColorRed"/>
           <InterpolatingParam id="752" interp="linr"  time="-9999999/1" value="0.80000000000000004" leadInLength="0/1"   name="rightClickDuration"/>
           <InterpolatingParam id="753" interp="linr"  time="-9999999/1" value="20" leadInLength="0/1"   name="rightClickSize"/>
           <Parameter id="754"   name="rightClickSoundFilename">
            <Keyframes>
            <Keyframe id="755"  time="-9999999/1" value="" leadInLength="0/1"  />
            </Keyframes>
           </Parameter>
           <InterpolatingParam id="756" interp="linr"  time="-9999999/1" value="1" leadInLength="0/1"   name="rightClickSoundVolume"/>
           <Parameter id="757"   name="rightClickType">
            <Keyframes>
            <Keyframe id="758"  time="-9999999/1" value="0" leadInLength="0/1"  />
            </Keyframes>
           </Parameter>
           </Parameters>
           <MetaData>
            <entry key="effectIndex" val="0"/>
           </MetaData>
          </GenericEffect>
         </Effects>
         <Attributes>
          <Attribute id="759" value="" name="ident"/>
         </Attributes>
         <MetaData>
          <entry key="AutoAppliedSmartFocus" val="False"/>
          <entry key="WinSubProjectDisplayName" val=""/>
         </MetaData>
         <ExtraData>
          <Entry key="ZoomPanBin">
           <ZoomPanBin id="760"  >
            <ZoomPanKeyframes>
             <ZoomPanKeyframe id="761" timeRangeEnd="-9999999/1" timeRangeDuration="0/1" interpolaterName="linr"  />
            </ZoomPanKeyframes>
           </ZoomPanBin>
          </Entry>
          <Entry key="CursorEffectBin">
           <CursorEffectBin id="762"  >
            <CursorEffectKeyframes>
             <CursorEffectKeyframe id="763" timeRangeEnd="-9999999/1" timeRangeDuration="0/1" interpolaterName=""  />
            </CursorEffectKeyframes>
           </CursorEffectBin>
          </Entry>
         </ExtraData>
        </ScreenVMFile>
        <StitchedMedia id="764" start="15791" duration="4530" scalar="1/1" mediaStart="0/1" mediaDuration="4530/1" minMediaStart="0/1" >
         <Transformer>
          <VectorParam id="765"  name="translation">
           <InterpolatingParam id="766" interp="linr"  time="-9999999/1" value="0" leadInLength="0/1"  />
           <InterpolatingParam id="767" interp="linr"  time="-9999999/1" value="0" leadInLength="0/1"  />
           <InterpolatingParam id="768" interp="linr"  time="-9999999/1" value="0" leadInLength="0/1"  />
          </VectorParam>
          <VectorParam id="769"  name="rotation">
           <InterpolatingParam id="770" interp="linr"  time="-9999999/1" value="0" leadInLength="0/1"  />
           <InterpolatingParam id="771" interp="linr"  time="-9999999/1" value="0" leadInLength="0/1"  />
           <InterpolatingParam id="772" interp="linr"  time="-9999999/1" value="0" leadInLength="0/1"  />
          </VectorParam>
          <VectorParam id="773"  name="shear">
           <InterpolatingParam id="774" interp="linr"  time="-9999999/1" value="0" leadInLength="0/1"  />
           <InterpolatingParam id="775" interp="linr"  time="-9999999/1" value="0" leadInLength="0/1"  />
           <InterpolatingParam id="776" interp="linr"  time="-9999999/1" value="0" leadInLength="0/1"  />
          </VectorParam>
          <VectorParam id="777"  name="scale">
           <InterpolatingParam id="778" interp="linr"  time="-9999999/1" value="0.93695014662756593" leadInLength="0/1"  />
           <InterpolatingParam id="779" interp="linr"  time="-9999999/1" value="0.93695014662756593" leadInLength="0/1"  />
           <InterpolatingParam id="780" interp="linr"  time="-9999999/1" value="1" leadInLength="0/1"  />
          </VectorParam>
          <VectorParam id="781"  name="anchor">
           <InterpolatingParam id="782" interp="linr"  time="0/1" value="0" leadInLength="0/1"  />
           <InterpolatingParam id="783" interp="linr"  time="0/1" value="0" leadInLength="0/1"  />
           <InterpolatingParam id="784" interp="linr"  time="0/1" value="0" leadInLength="0/1"  />
          </VectorParam>
         </Transformer>
         <Parameters>
          <VectorParam id="785"  name="sourceCrop">
           <InterpolatingParam id="786" interp="linr"  time="0/1" value="0" leadInLength="0/1"  />
           <InterpolatingParam id="787" interp="linr"  time="0/1" value="0" leadInLength="0/1"  />
           <InterpolatingParam id="788" interp="linr"  time="0/1" value="0" leadInLength="0/1"  />
           <InterpolatingParam id="789" interp="linr"  time="0/1" value="0" leadInLength="0/1"  />
          </VectorParam>
          <VectorParam id="790"  name="geometryCrop">
           <InterpolatingParam id="791" interp="linr"  time="-9999999/1" value="0" leadInLength="0/1"  />
           <InterpolatingParam id="792" interp="linr"  time="-9999999/1" value="0" leadInLength="0/1"  />
           <InterpolatingParam id="793" interp="linr"  time="-9999999/1" value="0" leadInLength="0/1"  />
           <InterpolatingParam id="794" interp="linr"  time="-9999999/1" value="0" leadInLength="0/1"  />
          </VectorParam>
          <InterpolatingParam id="795" interp="linr"  time="-9999999/1" value="1" leadInLength="0/1"  name="opacity"/>
          <InterpolatingParam id="796" interp="linr"  time="0/1" value="1" leadInLength="0/1"  name="cursorOpacity"/>
          <InterpolatingParam id="797" interp="linr"  time="0/1" value="1" leadInLength="0/1"  name="cursorScale"/>
          <Parameter id="798"  name="captions"/>
         </Parameters>
         <Effects>
          <GenericEffect id="799" name = "CursorBaseEffectName" >
           <Parameters>
           <InterpolatingParam id="800" interp="linr"  time="-9999999/1" value="1" leadInLength="0/1"   name="cursorSize"/>
           <InterpolatingParam id="801" interp="linr"  time="-9999999/1" value="0" leadInLength="0/1"   name="highlightBlurRadius"/>
           <InterpolatingParam id="802" interp="linr"  time="-9999999/1" value="0" leadInLength="0/1"   name="highlightColorBlue"/>
           <InterpolatingParam id="803" interp="linr"  time="-9999999/1" value="255" leadInLength="0/1"   name="highlightColorGreen"/>
           <InterpolatingParam id="804" interp="linr"  time="-9999999/1" value="255" leadInLength="0/1"   name="highlightColorRed"/>
           <InterpolatingParam id="805" interp="linr"  time="-9999999/1" value="5" leadInLength="0/1"   name="highlightFeatherSize"/>
           <InterpolatingParam id="806" interp="linr"  time="-9999999/1" value="2" leadInLength="0/1"   name="highlightMagnification"/>
           <InterpolatingParam id="807" interp="linr"  time="-9999999/1" value="1" leadInLength="0/1"   name="highlightOpacity"/>
           <InterpolatingParam id="808" interp="linr"  time="-9999999/1" value="45" leadInLength="0/1"   name="highlightSize"/>
           <Parameter id="809"   name="highlightType">
            <Keyframes>
            <Keyframe id="810"  time="-9999999/1" value="0" leadInLength="0/1"  />
            </Keyframes>
           </Parameter>
           <InterpolatingParam id="811" interp="linr"  time="-9999999/1" value="0" leadInLength="0/1"   name="leftClickColorBlue"/>
           <InterpolatingParam id="812" interp="linr"  time="-9999999/1" value="0" leadInLength="0/1"   name="leftClickColorGreen"/>
           <InterpolatingParam id="813" interp="linr"  time="-9999999/1" value="255" leadInLength="0/1"   name="leftClickColorRed"/>
           <InterpolatingParam id="814" interp="linr"  time="-9999999/1" value="0.80000000000000004" leadInLength="0/1"   name="leftClickDuration"/>
           <InterpolatingParam id="815" interp="linr"  time="-9999999/1" value="20" leadInLength="0/1"   name="leftClickSize"/>
           <Parameter id="816"   name="leftClickSoundFilename">
            <Keyframes>
            <Keyframe id="817"  time="-9999999/1" value="" leadInLength="0/1"  />
            </Keyframes>
           </Parameter>
           <InterpolatingParam id="818" interp="linr"  time="-9999999/1" value="1" leadInLength="0/1"   name="leftClickSoundVolume"/>
           <Parameter id="819"   name="leftClickType">
            <Keyframes>
            <Keyframe id="820"  time="-9999999/1" value="0" leadInLength="0/1"  />
            </Keyframes>
           </Parameter>
           <InterpolatingParam id="821" interp="linr"  time="-9999999/1" value="1" leadInLength="0/1"   name="opacity"/>
           <InterpolatingParam id="822" interp="linr"  time="-9999999/1" value="255" leadInLength="0/1"   name="rightClickColorBlue"/>
           <InterpolatingParam id="823" interp="linr"  time="-9999999/1" value="0" leadInLength="0/1"   name="rightClickColorGreen"/>
           <InterpolatingParam id="824" interp="linr"  time="-9999999/1" value="0" leadInLength="0/1"   name="rightClickColorRed"/>
           <InterpolatingParam id="825" interp="linr"  time="-9999999/1" value="0.80000000000000004" leadInLength="0/1"   name="rightClickDuration"/>
           <InterpolatingParam id="826" interp="linr"  time="-9999999/1" value="20" leadInLength="0/1"   name="rightClickSize"/>
           <Parameter id="827"   name="rightClickSoundFilename">
            <Keyframes>
            <Keyframe id="828"  time="-9999999/1" value="" leadInLength="0/1"  />
            </Keyframes>
           </Parameter>
           <InterpolatingParam id="829" interp="linr"  time="-9999999/1" value="1" leadInLength="0/1"   name="rightClickSoundVolume"/>
           <Parameter id="830"   name="rightClickType">
            <Keyframes>
            <Keyframe id="831"  time="-9999999/1" value="0" leadInLength="0/1"  />
            </Keyframes>
           </Parameter>
           </Parameters>
           <MetaData>
            <entry key="effectIndex" val="0"/>
           </MetaData>
          </GenericEffect>
         </Effects>
         <Attributes>
          <Attribute id="832" value="" name="ident"/>
         </Attributes>
         <MetaData>
          <entry key="AutoAppliedSmartFocus" val="False"/>
          <entry key="WinSubProjectDisplayName" val=""/>
         </MetaData>
         <ExtraData>
          <Entry key="ZoomPanBin">
           <ZoomPanBin id="833"  >
            <ZoomPanKeyframes>
             <ZoomPanKeyframe id="834" timeRangeEnd="-9999999/1" timeRangeDuration="0/1" interpolaterName="linr"  />
            </ZoomPanKeyframes>
           </ZoomPanBin>
          </Entry>
          <Entry key="CursorEffectBin">
           <CursorEffectBin id="835"  >
            <CursorEffectKeyframes>
             <CursorEffectKeyframe id="836" timeRangeEnd="-9999999/1" timeRangeDuration="0/1" interpolaterName=""  />
            </CursorEffectKeyframes>
           </CursorEffectBin>
          </Entry>
         </ExtraData>
         <GenericTrack id="837"  >
          <Attributes>
           <Attribute id="838" value="" name="ident"/>
          </Attributes>
          <MetaData>
           <entry key="IsLocked" val="False"/>
           <entry key="WinTrackHeight" val="0"/>
          </MetaData>
          <Medias>
           <ScreenVMFile id="839" start="0" duration="360" scalar="1/1" mediaStart="0/1" mediaDuration="360/1" trackNumber="0" src="10" >
            <Transformer>
             <VectorParam id="840"  name="translation">
              <InterpolatingParam id="841" interp="linr"  time="-9999999/1" value="0" leadInLength="0/1"  />
              <InterpolatingParam id="842" interp="linr"  time="-9999999/1" value="0" leadInLength="0/1"  />
              <InterpolatingParam id="843" interp="linr"  time="-9999999/1" value="0" leadInLength="0/1"  />
             </VectorParam>
             <VectorParam id="844"  name="rotation">
              <InterpolatingParam id="845" interp="linr"  time="-9999999/1" value="0" leadInLength="0/1"  />
              <InterpolatingParam id="846" interp="linr"  time="-9999999/1" value="0" leadInLength="0/1"  />
              <InterpolatingParam id="847" interp="linr"  time="-9999999/1" value="0" leadInLength="0/1"  />
             </VectorParam>
             <VectorParam id="848"  name="shear">
              <InterpolatingParam id="849" interp="linr"  time="-9999999/1" value="0" leadInLength="0/1"  />
              <InterpolatingParam id="850" interp="linr"  time="-9999999/1" value="0" leadInLength="0/1"  />
              <InterpolatingParam id="851" interp="linr"  time="-9999999/1" value="0" leadInLength="0/1"  />
             </VectorParam>
             <VectorParam id="852"  name="scale">
              <InterpolatingParam id="853" interp="linr"  time="-9999999/1" value="1" leadInLength="0/1"  />
              <InterpolatingParam id="854" interp="linr"  time="-9999999/1" value="1" leadInLength="0/1"  />
              <InterpolatingParam id="855" interp="linr"  time="-9999999/1" value="1" leadInLength="0/1"  />
             </VectorParam>
             <VectorParam id="856"  name="anchor">
              <InterpolatingParam id="857" interp="linr"  time="0/1" value="0" leadInLength="0/1"  />
              <InterpolatingParam id="858" interp="linr"  time="0/1" value="0" leadInLength="0/1"  />
              <InterpolatingParam id="859" interp="linr"  time="0/1" value="0" leadInLength="0/1"  />
             </VectorParam>
            </Transformer>
            <Parameters>
             <VectorParam id="860"  name="sourceCrop">
              <InterpolatingParam id="861" interp="linr"  time="0/1" value="0" leadInLength="0/1"  />
              <InterpolatingParam id="862" interp="linr"  time="0/1" value="0" leadInLength="0/1"  />
              <InterpolatingParam id="863" interp="linr"  time="0/1" value="0" leadInLength="0/1"  />
              <InterpolatingParam id="864" interp="linr"  time="0/1" value="0" leadInLength="0/1"  />
             </VectorParam>
             <VectorParam id="865"  name="geometryCrop">
              <InterpolatingParam id="866" interp="linr"  time="-9999999/1" value="0" leadInLength="0/1"  />
              <InterpolatingParam id="867" interp="linr"  time="-9999999/1" value="0" leadInLength="0/1"  />
              <InterpolatingParam id="868" interp="linr"  time="-9999999/1" value="0" leadInLength="0/1"  />
              <InterpolatingParam id="869" interp="linr"  time="-9999999/1" value="0" leadInLength="0/1"  />
             </VectorParam>
             <InterpolatingParam id="870" interp="linr"  time="-9999999/1" value="1" leadInLength="0/1"  name="opacity"/>
             <InterpolatingParam id="871" interp="linr"  time="0/1" value="0" leadInLength="0/1"  name="cursorOpacity"/>
             <InterpolatingParam id="872" interp="linr"  time="0/1" value="0" leadInLength="0/1"  name="cursorScale"/>
            </Parameters>
            <Attributes>
             <Attribute id="873" value="" name="ident"/>
            </Attributes>
            <MetaData>
             <entry key="AutoAppliedSmartFocus" val="False"/>
             <entry key="WinSubProjectDisplayName" val=""/>
            </MetaData>
            <ExtraData>
             <Entry key="ZoomPanBin">
              <ZoomPanBin id="874"  >
               <ZoomPanKeyframes>
                <ZoomPanKeyframe id="875" timeRangeEnd="-9999999/1" timeRangeDuration="0/1" interpolaterName="linr"  />
               </ZoomPanKeyframes>
              </ZoomPanBin>
             </Entry>
             <Entry key="CursorEffectBin">
              <CursorEffectBin id="876"  >
               <CursorEffectKeyframes>
               </CursorEffectKeyframes>
              </CursorEffectBin>
             </Entry>
            </ExtraData>
           </ScreenVMFile>
           <ScreenVMFile id="877" start="360" duration="1453" scalar="1/1" mediaStart="631/1" mediaDuration="1453/1" trackNumber="0" src="10" >
            <Transformer>
             <VectorParam id="878"  name="translation">
              <InterpolatingParam id="879" interp="linr"  time="-9999999/1" value="0" leadInLength="0/1"  />
              <InterpolatingParam id="880" interp="linr"  time="-9999999/1" value="0" leadInLength="0/1"  />
              <InterpolatingParam id="881" interp="linr"  time="-9999999/1" value="0" leadInLength="0/1"  />
             </VectorParam>
             <VectorParam id="882"  name="rotation">
              <InterpolatingParam id="883" interp="linr"  time="-9999999/1" value="0" leadInLength="0/1"  />
              <InterpolatingParam id="884" interp="linr"  time="-9999999/1" value="0" leadInLength="0/1"  />
              <InterpolatingParam id="885" interp="linr"  time="-9999999/1" value="0" leadInLength="0/1"  />
             </VectorParam>
             <VectorParam id="886"  name="shear">
              <InterpolatingParam id="887" interp="linr"  time="-9999999/1" value="0" leadInLength="0/1"  />
              <InterpolatingParam id="888" interp="linr"  time="-9999999/1" value="0" leadInLength="0/1"  />
              <InterpolatingParam id="889" interp="linr"  time="-9999999/1" value="0" leadInLength="0/1"  />
             </VectorParam>
             <VectorParam id="890"  name="scale">
              <InterpolatingParam id="891" interp="linr"  time="-9999999/1" value="1" leadInLength="0/1"  />
              <InterpolatingParam id="892" interp="linr"  time="-9999999/1" value="1" leadInLength="0/1"  />
              <InterpolatingParam id="893" interp="linr"  time="-9999999/1" value="1" leadInLength="0/1"  />
             </VectorParam>
             <VectorParam id="894"  name="anchor">
              <InterpolatingParam id="895" interp="linr"  time="0/1" value="0" leadInLength="0/1"  />
              <InterpolatingParam id="896" interp="linr"  time="0/1" value="0" leadInLength="0/1"  />
              <InterpolatingParam id="897" interp="linr"  time="0/1" value="0" leadInLength="0/1"  />
             </VectorParam>
            </Transformer>
            <Parameters>
             <VectorParam id="898"  name="sourceCrop">
              <InterpolatingParam id="899" interp="linr"  time="0/1" value="0" leadInLength="0/1"  />
              <InterpolatingParam id="900" interp="linr"  time="0/1" value="0" leadInLength="0/1"  />
              <InterpolatingParam id="901" interp="linr"  time="0/1" value="0" leadInLength="0/1"  />
              <InterpolatingParam id="902" interp="linr"  time="0/1" value="0" leadInLength="0/1"  />
             </VectorParam>
             <VectorParam id="903"  name="geometryCrop">
              <InterpolatingParam id="904" interp="linr"  time="-9999999/1" value="0" leadInLength="0/1"  />
              <InterpolatingParam id="905" interp="linr"  time="-9999999/1" value="0" leadInLength="0/1"  />
              <InterpolatingParam id="906" interp="linr"  time="-9999999/1" value="0" leadInLength="0/1"  />
              <InterpolatingParam id="907" interp="linr"  time="-9999999/1" value="0" leadInLength="0/1"  />
             </VectorParam>
             <InterpolatingParam id="908" interp="linr"  time="-9999999/1" value="1" leadInLength="0/1"  name="opacity"/>
             <InterpolatingParam id="909" interp="linr"  time="0/1" value="0" leadInLength="0/1"  name="cursorOpacity"/>
             <InterpolatingParam id="910" interp="linr"  time="0/1" value="0" leadInLength="0/1"  name="cursorScale"/>
            </Parameters>
            <Attributes>
             <Attribute id="911" value="" name="ident"/>
            </Attributes>
            <MetaData>
             <entry key="AutoAppliedSmartFocus" val="False"/>
             <entry key="WinSubProjectDisplayName" val=""/>
            </MetaData>
            <ExtraData>
             <Entry key="ZoomPanBin">
              <ZoomPanBin id="912"  >
               <ZoomPanKeyframes>
                <ZoomPanKeyframe id="913" timeRangeEnd="-9999999/1" timeRangeDuration="0/1" interpolaterName="linr"  />
               </ZoomPanKeyframes>
              </ZoomPanBin>
             </Entry>
             <Entry key="CursorEffectBin">
              <CursorEffectBin id="914"  >
               <CursorEffectKeyframes>
               </CursorEffectKeyframes>
              </CursorEffectBin>
             </Entry>
            </ExtraData>
           </ScreenVMFile>
           <ScreenVMFile id="915" start="1813" duration="1654" scalar="1/1" mediaStart="2217/1" mediaDuration="1654/1" trackNumber="0" src="10" >
            <Transformer>
             <VectorParam id="916"  name="translation">
              <InterpolatingParam id="917" interp="linr"  time="-9999999/1" value="0" leadInLength="0/1"  />
              <InterpolatingParam id="918" interp="linr"  time="-9999999/1" value="0" leadInLength="0/1"  />
              <InterpolatingParam id="919" interp="linr"  time="-9999999/1" value="0" leadInLength="0/1"  />
             </VectorParam>
             <VectorParam id="920"  name="rotation">
              <InterpolatingParam id="921" interp="linr"  time="-9999999/1" value="0" leadInLength="0/1"  />
              <InterpolatingParam id="922" interp="linr"  time="-9999999/1" value="0" leadInLength="0/1"  />
              <InterpolatingParam id="923" interp="linr"  time="-9999999/1" value="0" leadInLength="0/1"  />
             </VectorParam>
             <VectorParam id="924"  name="shear">
              <InterpolatingParam id="925" interp="linr"  time="-9999999/1" value="0" leadInLength="0/1"  />
              <InterpolatingParam id="926" interp="linr"  time="-9999999/1" value="0" leadInLength="0/1"  />
              <InterpolatingParam id="927" interp="linr"  time="-9999999/1" value="0" leadInLength="0/1"  />
             </VectorParam>
             <VectorParam id="928"  name="scale">
              <InterpolatingParam id="929" interp="linr"  time="-9999999/1" value="1" leadInLength="0/1"  />
              <InterpolatingParam id="930" interp="linr"  time="-9999999/1" value="1" leadInLength="0/1"  />
              <InterpolatingParam id="931" interp="linr"  time="-9999999/1" value="1" leadInLength="0/1"  />
             </VectorParam>
             <VectorParam id="932"  name="anchor">
              <InterpolatingParam id="933" interp="linr"  time="0/1" value="0" leadInLength="0/1"  />
              <InterpolatingParam id="934" interp="linr"  time="0/1" value="0" leadInLength="0/1"  />
              <InterpolatingParam id="935" interp="linr"  time="0/1" value="0" leadInLength="0/1"  />
             </VectorParam>
            </Transformer>
            <Parameters>
             <VectorParam id="936"  name="sourceCrop">
              <InterpolatingParam id="937" interp="linr"  time="0/1" value="0" leadInLength="0/1"  />
              <InterpolatingParam id="938" interp="linr"  time="0/1" value="0" leadInLength="0/1"  />
              <InterpolatingParam id="939" interp="linr"  time="0/1" value="0" leadInLength="0/1"  />
              <InterpolatingParam id="940" interp="linr"  time="0/1" value="0" leadInLength="0/1"  />
             </VectorParam>
             <VectorParam id="941"  name="geometryCrop">
              <InterpolatingParam id="942" interp="linr"  time="-9999999/1" value="0" leadInLength="0/1"  />
              <InterpolatingParam id="943" interp="linr"  time="-9999999/1" value="0" leadInLength="0/1"  />
              <InterpolatingParam id="944" interp="linr"  time="-9999999/1" value="0" leadInLength="0/1"  />
              <InterpolatingParam id="945" interp="linr"  time="-9999999/1" value="0" leadInLength="0/1"  />
             </VectorParam>
             <InterpolatingParam id="946" interp="linr"  time="-9999999/1" value="1" leadInLength="0/1"  name="opacity"/>
             <InterpolatingParam id="947" interp="linr"  time="0/1" value="0" leadInLength="0/1"  name="cursorOpacity"/>
             <InterpolatingParam id="948" interp="linr"  time="0/1" value="0" leadInLength="0/1"  name="cursorScale"/>
            </Parameters>
            <Attributes>
             <Attribute id="949" value="" name="ident"/>
            </Attributes>
            <MetaData>
             <entry key="AutoAppliedSmartFocus" val="False"/>
             <entry key="WinSubProjectDisplayName" val=""/>
            </MetaData>
            <ExtraData>
             <Entry key="ZoomPanBin">
              <ZoomPanBin id="950"  >
               <ZoomPanKeyframes>
                <ZoomPanKeyframe id="951" timeRangeEnd="-9999999/1" timeRangeDuration="0/1" interpolaterName="linr"  />
               </ZoomPanKeyframes>
              </ZoomPanBin>
             </Entry>
             <Entry key="CursorEffectBin">
              <CursorEffectBin id="952"  >
               <CursorEffectKeyframes>
               </CursorEffectKeyframes>
              </CursorEffectBin>
             </Entry>
            </ExtraData>
           </ScreenVMFile>
           <ScreenVMFile id="953" start="3467" duration="626" scalar="1/1" mediaStart="4077/1" mediaDuration="626/1" trackNumber="0" src="10" >
            <Transformer>
             <VectorParam id="954"  name="translation">
              <InterpolatingParam id="955" interp="linr"  time="-9999999/1" value="0" leadInLength="0/1"  />
              <InterpolatingParam id="956" interp="linr"  time="-9999999/1" value="0" leadInLength="0/1"  />
              <InterpolatingParam id="957" interp="linr"  time="-9999999/1" value="0" leadInLength="0/1"  />
             </VectorParam>
             <VectorParam id="958"  name="rotation">
              <InterpolatingParam id="959" interp="linr"  time="-9999999/1" value="0" leadInLength="0/1"  />
              <InterpolatingParam id="960" interp="linr"  time="-9999999/1" value="0" leadInLength="0/1"  />
              <InterpolatingParam id="961" interp="linr"  time="-9999999/1" value="0" leadInLength="0/1"  />
             </VectorParam>
             <VectorParam id="962"  name="shear">
              <InterpolatingParam id="963" interp="linr"  time="-9999999/1" value="0" leadInLength="0/1"  />
              <InterpolatingParam id="964" interp="linr"  time="-9999999/1" value="0" leadInLength="0/1"  />
              <InterpolatingParam id="965" interp="linr"  time="-9999999/1" value="0" leadInLength="0/1"  />
             </VectorParam>
             <VectorParam id="966"  name="scale">
              <InterpolatingParam id="967" interp="linr"  time="-9999999/1" value="1" leadInLength="0/1"  />
              <InterpolatingParam id="968" interp="linr"  time="-9999999/1" value="1" leadInLength="0/1"  />
              <InterpolatingParam id="969" interp="linr"  time="-9999999/1" value="1" leadInLength="0/1"  />
             </VectorParam>
             <VectorParam id="970"  name="anchor">
              <InterpolatingParam id="971" interp="linr"  time="0/1" value="0" leadInLength="0/1"  />
              <InterpolatingParam id="972" interp="linr"  time="0/1" value="0" leadInLength="0/1"  />
              <InterpolatingParam id="973" interp="linr"  time="0/1" value="0" leadInLength="0/1"  />
             </VectorParam>
            </Transformer>
            <Parameters>
             <VectorParam id="974"  name="sourceCrop">
              <InterpolatingParam id="975" interp="linr"  time="0/1" value="0" leadInLength="0/1"  />
              <InterpolatingParam id="976" interp="linr"  time="0/1" value="0" leadInLength="0/1"  />
              <InterpolatingParam id="977" interp="linr"  time="0/1" value="0" leadInLength="0/1"  />
              <InterpolatingParam id="978" interp="linr"  time="0/1" value="0" leadInLength="0/1"  />
             </VectorParam>
             <VectorParam id="979"  name="geometryCrop">
              <InterpolatingParam id="980" interp="linr"  time="-9999999/1" value="0" leadInLength="0/1"  />
              <InterpolatingParam id="981" interp="linr"  time="-9999999/1" value="0" leadInLength="0/1"  />
              <InterpolatingParam id="982" interp="linr"  time="-9999999/1" value="0" leadInLength="0/1"  />
              <InterpolatingParam id="983" interp="linr"  time="-9999999/1" value="0" leadInLength="0/1"  />
             </VectorParam>
             <InterpolatingParam id="984" interp="linr"  time="-9999999/1" value="1" leadInLength="0/1"  name="opacity"/>
             <InterpolatingParam id="985" interp="linr"  time="0/1" value="0" leadInLength="0/1"  name="cursorOpacity"/>
             <InterpolatingParam id="986" interp="linr"  time="0/1" value="0" leadInLength="0/1"  name="cursorScale"/>
            </Parameters>
            <Attributes>
             <Attribute id="987" value="" name="ident"/>
            </Attributes>
            <MetaData>
             <entry key="AutoAppliedSmartFocus" val="False"/>
             <entry key="WinSubProjectDisplayName" val=""/>
            </MetaData>
            <ExtraData>
             <Entry key="ZoomPanBin">
              <ZoomPanBin id="988"  >
               <ZoomPanKeyframes>
                <ZoomPanKeyframe id="989" timeRangeEnd="-9999999/1" timeRangeDuration="0/1" interpolaterName="linr"  />
               </ZoomPanKeyframes>
              </ZoomPanBin>
             </Entry>
             <Entry key="CursorEffectBin">
              <CursorEffectBin id="990"  >
               <CursorEffectKeyframes>
               </CursorEffectKeyframes>
              </CursorEffectBin>
             </Entry>
            </ExtraData>
           </ScreenVMFile>
           <ScreenVMFile id="991" start="4093" duration="276" scalar="1/1" mediaStart="4876/1" mediaDuration="276/1" trackNumber="0" src="10" >
            <Transformer>
             <VectorParam id="992"  name="translation">
              <InterpolatingParam id="993" interp="linr"  time="-9999999/1" value="0" leadInLength="0/1"  />
              <InterpolatingParam id="994" interp="linr"  time="-9999999/1" value="0" leadInLength="0/1"  />
              <InterpolatingParam id="995" interp="linr"  time="-9999999/1" value="0" leadInLength="0/1"  />
             </VectorParam>
             <VectorParam id="996"  name="rotation">
              <InterpolatingParam id="997" interp="linr"  time="-9999999/1" value="0" leadInLength="0/1"  />
              <InterpolatingParam id="998" interp="linr"  time="-9999999/1" value="0" leadInLength="0/1"  />
              <InterpolatingParam id="999" interp="linr"  time="-9999999/1" value="0" leadInLength="0/1"  />
             </VectorParam>
             <VectorParam id="1000"  name="shear">
              <InterpolatingParam id="1001" interp="linr"  time="-9999999/1" value="0" leadInLength="0/1"  />
              <InterpolatingParam id="1002" interp="linr"  time="-9999999/1" value="0" leadInLength="0/1"  />
              <InterpolatingParam id="1003" interp="linr"  time="-9999999/1" value="0" leadInLength="0/1"  />
             </VectorParam>
             <VectorParam id="1004"  name="scale">
              <InterpolatingParam id="1005" interp="linr"  time="-9999999/1" value="1" leadInLength="0/1"  />
              <InterpolatingParam id="1006" interp="linr"  time="-9999999/1" value="1" leadInLength="0/1"  />
              <InterpolatingParam id="1007" interp="linr"  time="-9999999/1" value="1" leadInLength="0/1"  />
             </VectorParam>
             <VectorParam id="1008"  name="anchor">
              <InterpolatingParam id="1009" interp="linr"  time="0/1" value="0" leadInLength="0/1"  />
              <InterpolatingParam id="1010" interp="linr"  time="0/1" value="0" leadInLength="0/1"  />
              <InterpolatingParam id="1011" interp="linr"  time="0/1" value="0" leadInLength="0/1"  />
             </VectorParam>
            </Transformer>
            <Parameters>
             <VectorParam id="1012"  name="sourceCrop">
              <InterpolatingParam id="1013" interp="linr"  time="0/1" value="0" leadInLength="0/1"  />
              <InterpolatingParam id="1014" interp="linr"  time="0/1" value="0" leadInLength="0/1"  />
              <InterpolatingParam id="1015" interp="linr"  time="0/1" value="0" leadInLength="0/1"  />
              <InterpolatingParam id="1016" interp="linr"  time="0/1" value="0" leadInLength="0/1"  />
             </VectorParam>
             <VectorParam id="1017"  name="geometryCrop">
              <InterpolatingParam id="1018" interp="linr"  time="-9999999/1" value="0" leadInLength="0/1"  />
              <InterpolatingParam id="1019" interp="linr"  time="-9999999/1" value="0" leadInLength="0/1"  />
              <InterpolatingParam id="1020" interp="linr"  time="-9999999/1" value="0" leadInLength="0/1"  />
              <InterpolatingParam id="1021" interp="linr"  time="-9999999/1" value="0" leadInLength="0/1"  />
             </VectorParam>
             <InterpolatingParam id="1022" interp="linr"  time="-9999999/1" value="1" leadInLength="0/1"  name="opacity"/>
             <InterpolatingParam id="1023" interp="linr"  time="0/1" value="0" leadInLength="0/1"  name="cursorOpacity"/>
             <InterpolatingParam id="1024" interp="linr"  time="0/1" value="0" leadInLength="0/1"  name="cursorScale"/>
            </Parameters>
            <Attributes>
             <Attribute id="1025" value="" name="ident"/>
            </Attributes>
            <MetaData>
             <entry key="AutoAppliedSmartFocus" val="False"/>
             <entry key="WinSubProjectDisplayName" val=""/>
            </MetaData>
            <ExtraData>
             <Entry key="ZoomPanBin">
              <ZoomPanBin id="1026"  >
               <ZoomPanKeyframes>
                <ZoomPanKeyframe id="1027" timeRangeEnd="-9999999/1" timeRangeDuration="0/1" interpolaterName="linr"  />
               </ZoomPanKeyframes>
              </ZoomPanBin>
             </Entry>
             <Entry key="CursorEffectBin">
              <CursorEffectBin id="1028"  >
               <CursorEffectKeyframes>
               </CursorEffectKeyframes>
              </CursorEffectBin>
             </Entry>
            </ExtraData>
           </ScreenVMFile>
           <ScreenVMFile id="1029" start="4369" duration="333" scalar="1/1" mediaStart="5247/1" mediaDuration="333/1" trackNumber="0" src="10" >
            <Transformer>
             <VectorParam id="1030"  name="translation">
              <InterpolatingParam id="1031" interp="linr"  time="-9999999/1" value="0" leadInLength="0/1"  />
              <InterpolatingParam id="1032" interp="linr"  time="-9999999/1" value="0" leadInLength="0/1"  />
              <InterpolatingParam id="1033" interp="linr"  time="-9999999/1" value="0" leadInLength="0/1"  />
             </VectorParam>
             <VectorParam id="1034"  name="rotation">
              <InterpolatingParam id="1035" interp="linr"  time="-9999999/1" value="0" leadInLength="0/1"  />
              <InterpolatingParam id="1036" interp="linr"  time="-9999999/1" value="0" leadInLength="0/1"  />
              <InterpolatingParam id="1037" interp="linr"  time="-9999999/1" value="0" leadInLength="0/1"  />
             </VectorParam>
             <VectorParam id="1038"  name="shear">
              <InterpolatingParam id="1039" interp="linr"  time="-9999999/1" value="0" leadInLength="0/1"  />
              <InterpolatingParam id="1040" interp="linr"  time="-9999999/1" value="0" leadInLength="0/1"  />
              <InterpolatingParam id="1041" interp="linr"  time="-9999999/1" value="0" leadInLength="0/1"  />
             </VectorParam>
             <VectorParam id="1042"  name="scale">
              <InterpolatingParam id="1043" interp="linr"  time="-9999999/1" value="1" leadInLength="0/1"  />
              <InterpolatingParam id="1044" interp="linr"  time="-9999999/1" value="1" leadInLength="0/1"  />
              <InterpolatingParam id="1045" interp="linr"  time="-9999999/1" value="1" leadInLength="0/1"  />
             </VectorParam>
             <VectorParam id="1046"  name="anchor">
              <InterpolatingParam id="1047" interp="linr"  time="0/1" value="0" leadInLength="0/1"  />
              <InterpolatingParam id="1048" interp="linr"  time="0/1" value="0" leadInLength="0/1"  />
              <InterpolatingParam id="1049" interp="linr"  time="0/1" value="0" leadInLength="0/1"  />
             </VectorParam>
            </Transformer>
            <Parameters>
             <VectorParam id="1050"  name="sourceCrop">
              <InterpolatingParam id="1051" interp="linr"  time="0/1" value="0" leadInLength="0/1"  />
              <InterpolatingParam id="1052" interp="linr"  time="0/1" value="0" leadInLength="0/1"  />
              <InterpolatingParam id="1053" interp="linr"  time="0/1" value="0" leadInLength="0/1"  />
              <InterpolatingParam id="1054" interp="linr"  time="0/1" value="0" leadInLength="0/1"  />
             </VectorParam>
             <VectorParam id="1055"  name="geometryCrop">
              <InterpolatingParam id="1056" interp="linr"  time="-9999999/1" value="0" leadInLength="0/1"  />
              <InterpolatingParam id="1057" interp="linr"  time="-9999999/1" value="0" leadInLength="0/1"  />
              <InterpolatingParam id="1058" interp="linr"  time="-9999999/1" value="0" leadInLength="0/1"  />
              <InterpolatingParam id="1059" interp="linr"  time="-9999999/1" value="0" leadInLength="0/1"  />
             </VectorParam>
             <InterpolatingParam id="1060" interp="linr"  time="-9999999/1" value="1" leadInLength="0/1"  name="opacity"/>
             <InterpolatingParam id="1061" interp="linr"  time="0/1" value="0" leadInLength="0/1"  name="cursorOpacity"/>
             <InterpolatingParam id="1062" interp="linr"  time="0/1" value="0" leadInLength="0/1"  name="cursorScale"/>
            </Parameters>
            <Attributes>
             <Attribute id="1063" value="" name="ident"/>
            </Attributes>
            <MetaData>
             <entry key="AutoAppliedSmartFocus" val="False"/>
             <entry key="WinSubProjectDisplayName" val=""/>
            </MetaData>
            <ExtraData>
             <Entry key="ZoomPanBin">
              <ZoomPanBin id="1064"  >
               <ZoomPanKeyframes>
                <ZoomPanKeyframe id="1065" timeRangeEnd="-9999999/1" timeRangeDuration="0/1" interpolaterName="linr"  />
               </ZoomPanKeyframes>
              </ZoomPanBin>
             </Entry>
             <Entry key="CursorEffectBin">
              <CursorEffectBin id="1066"  >
               <CursorEffectKeyframes>
               </CursorEffectKeyframes>
              </CursorEffectBin>
             </Entry>
            </ExtraData>
           </ScreenVMFile>
          </Medias>
         </GenericTrack>
        </StitchedMedia>
        <StitchedMedia id="1067" start="20321" duration="2387" scalar="1/1" mediaStart="0/1" mediaDuration="2387/1" minMediaStart="0/1" >
         <Transformer>
          <VectorParam id="1068"  name="translation">
           <InterpolatingParam id="1069" interp="linr"  time="-9999999/1" value="0" leadInLength="0/1"  />
           <InterpolatingParam id="1070" interp="linr"  time="-9999999/1" value="0" leadInLength="0/1"  />
           <InterpolatingParam id="1071" interp="linr"  time="-9999999/1" value="0" leadInLength="0/1"  />
          </VectorParam>
          <VectorParam id="1072"  name="rotation">
           <InterpolatingParam id="1073" interp="linr"  time="-9999999/1" value="0" leadInLength="0/1"  />
           <InterpolatingParam id="1074" interp="linr"  time="-9999999/1" value="0" leadInLength="0/1"  />
           <InterpolatingParam id="1075" interp="linr"  time="-9999999/1" value="0" leadInLength="0/1"  />
          </VectorParam>
          <VectorParam id="1076"  name="shear">
           <InterpolatingParam id="1077" interp="linr"  time="-9999999/1" value="0" leadInLength="0/1"  />
           <InterpolatingParam id="1078" interp="linr"  time="-9999999/1" value="0" leadInLength="0/1"  />
           <InterpolatingParam id="1079" interp="linr"  time="-9999999/1" value="0" leadInLength="0/1"  />
          </VectorParam>
          <VectorParam id="1080"  name="scale">
           <InterpolatingParam id="1081" interp="linr"  time="-9999999/1" value="0.93695014662756593" leadInLength="0/1"  />
           <InterpolatingParam id="1082" interp="linr"  time="-9999999/1" value="0.93695014662756593" leadInLength="0/1"  />
           <InterpolatingParam id="1083" interp="linr"  time="-9999999/1" value="1" leadInLength="0/1"  />
          </VectorParam>
          <VectorParam id="1084"  name="anchor">
           <InterpolatingParam id="1085" interp="linr"  >
            <Keyframes>
            <Keyframe id="1086"  time="0/1" value="0" leadInLength="0/1"  />
            <Keyframe id="1087"  time="1494/1" value="0" leadInLength="0/1"  />
            </Keyframes>
           </InterpolatingParam>
           <InterpolatingParam id="1088" interp="linr"  >
            <Keyframes>
            <Keyframe id="1089"  time="0/1" value="0" leadInLength="0/1"  />
            <Keyframe id="1090"  time="1494/1" value="0" leadInLength="0/1"  />
            </Keyframes>
           </InterpolatingParam>
           <InterpolatingParam id="1091" interp="linr"  >
            <Keyframes>
            <Keyframe id="1092"  time="0/1" value="0" leadInLength="0/1"  />
            <Keyframe id="1093"  time="1494/1" value="0" leadInLength="0/1"  />
            </Keyframes>
           </InterpolatingParam>
          </VectorParam>
         </Transformer>
         <Parameters>
          <VectorParam id="1094"  name="sourceCrop">
           <InterpolatingParam id="1095" interp="linr"  >
            <Keyframes>
            <Keyframe id="1096"  time="0/1" value="0" leadInLength="0/1"  />
            <Keyframe id="1097"  time="1494/1" value="0" leadInLength="0/1"  />
            </Keyframes>
           </InterpolatingParam>
           <InterpolatingParam id="1098" interp="linr"  >
            <Keyframes>
            <Keyframe id="1099"  time="0/1" value="0" leadInLength="0/1"  />
            <Keyframe id="1100"  time="1494/1" value="0" leadInLength="0/1"  />
            </Keyframes>
           </InterpolatingParam>
           <InterpolatingParam id="1101" interp="linr"  >
            <Keyframes>
            <Keyframe id="1102"  time="0/1" value="0" leadInLength="0/1"  />
            <Keyframe id="1103"  time="1494/1" value="0" leadInLength="0/1"  />
            </Keyframes>
           </InterpolatingParam>
           <InterpolatingParam id="1104" interp="linr"  >
            <Keyframes>
            <Keyframe id="1105"  time="0/1" value="0" leadInLength="0/1"  />
            <Keyframe id="1106"  time="1494/1" value="0" leadInLength="0/1"  />
            </Keyframes>
           </InterpolatingParam>
          </VectorParam>
          <VectorParam id="1107"  name="geometryCrop">
           <InterpolatingParam id="1108" interp="linr"  time="-9999999/1" value="0" leadInLength="0/1"  />
           <InterpolatingParam id="1109" interp="linr"  time="-9999999/1" value="0" leadInLength="0/1"  />
           <InterpolatingParam id="1110" interp="linr"  time="-9999999/1" value="0" leadInLength="0/1"  />
           <InterpolatingParam id="1111" interp="linr"  time="-9999999/1" value="0" leadInLength="0/1"  />
          </VectorParam>
          <InterpolatingParam id="1112" interp="linr"  time="-9999999/1" value="1" leadInLength="0/1"  name="opacity"/>
          <InterpolatingParam id="1113" interp="linr"  time="0/1" value="1" leadInLength="0/1"  name="cursorOpacity"/>
          <InterpolatingParam id="1114" interp="linr"  time="0/1" value="1" leadInLength="0/1"  name="cursorScale"/>
          <Parameter id="1115"  name="captions"/>
         </Parameters>
         <Effects>
          <GenericEffect id="1116" name = "CursorBaseEffectName" >
           <Parameters>
           <InterpolatingParam id="1117" interp="linr"  time="-9999999/1" value="1" leadInLength="0/1"   name="cursorSize"/>
           <InterpolatingParam id="1118" interp="linr"  time="-9999999/1" value="0" leadInLength="0/1"   name="highlightBlurRadius"/>
           <InterpolatingParam id="1119" interp="linr"  time="-9999999/1" value="0" leadInLength="0/1"   name="highlightColorBlue"/>
           <InterpolatingParam id="1120" interp="linr"  time="-9999999/1" value="255" leadInLength="0/1"   name="highlightColorGreen"/>
           <InterpolatingParam id="1121" interp="linr"  time="-9999999/1" value="255" leadInLength="0/1"   name="highlightColorRed"/>
           <InterpolatingParam id="1122" interp="linr"  time="-9999999/1" value="5" leadInLength="0/1"   name="highlightFeatherSize"/>
           <InterpolatingParam id="1123" interp="linr"  time="-9999999/1" value="2" leadInLength="0/1"   name="highlightMagnification"/>
           <InterpolatingParam id="1124" interp="linr"  time="-9999999/1" value="1" leadInLength="0/1"   name="highlightOpacity"/>
           <InterpolatingParam id="1125" interp="linr"  time="-9999999/1" value="45" leadInLength="0/1"   name="highlightSize"/>
           <Parameter id="1126"   name="highlightType">
            <Keyframes>
            <Keyframe id="1127"  time="-9999999/1" value="0" leadInLength="0/1"  />
            </Keyframes>
           </Parameter>
           <InterpolatingParam id="1128" interp="linr"  time="-9999999/1" value="0" leadInLength="0/1"   name="leftClickColorBlue"/>
           <InterpolatingParam id="1129" interp="linr"  time="-9999999/1" value="0" leadInLength="0/1"   name="leftClickColorGreen"/>
           <InterpolatingParam id="1130" interp="linr"  time="-9999999/1" value="255" leadInLength="0/1"   name="leftClickColorRed"/>
           <InterpolatingParam id="1131" interp="linr"  time="-9999999/1" value="0.80000000000000004" leadInLength="0/1"   name="leftClickDuration"/>
           <InterpolatingParam id="1132" interp="linr"  time="-9999999/1" value="20" leadInLength="0/1"   name="leftClickSize"/>
           <Parameter id="1133"   name="leftClickSoundFilename">
            <Keyframes>
            <Keyframe id="1134"  time="-9999999/1" value="" leadInLength="0/1"  />
            </Keyframes>
           </Parameter>
           <InterpolatingParam id="1135" interp="linr"  time="-9999999/1" value="1" leadInLength="0/1"   name="leftClickSoundVolume"/>
           <Parameter id="1136"   name="leftClickType">
            <Keyframes>
            <Keyframe id="1137"  time="-9999999/1" value="0" leadInLength="0/1"  />
            </Keyframes>
           </Parameter>
           <InterpolatingParam id="1138" interp="linr"  time="-9999999/1" value="1" leadInLength="0/1"   name="opacity"/>
           <InterpolatingParam id="1139" interp="linr"  time="-9999999/1" value="255" leadInLength="0/1"   name="rightClickColorBlue"/>
           <InterpolatingParam id="1140" interp="linr"  time="-9999999/1" value="0" leadInLength="0/1"   name="rightClickColorGreen"/>
           <InterpolatingParam id="1141" interp="linr"  time="-9999999/1" value="0" leadInLength="0/1"   name="rightClickColorRed"/>
           <InterpolatingParam id="1142" interp="linr"  time="-9999999/1" value="0.80000000000000004" leadInLength="0/1"   name="rightClickDuration"/>
           <InterpolatingParam id="1143" interp="linr"  time="-9999999/1" value="20" leadInLength="0/1"   name="rightClickSize"/>
           <Parameter id="1144"   name="rightClickSoundFilename">
            <Keyframes>
            <Keyframe id="1145"  time="-9999999/1" value="" leadInLength="0/1"  />
            </Keyframes>
           </Parameter>
           <InterpolatingParam id="1146" interp="linr"  time="-9999999/1" value="1" leadInLength="0/1"   name="rightClickSoundVolume"/>
           <Parameter id="1147"   name="rightClickType">
            <Keyframes>
            <Keyframe id="1148"  time="-9999999/1" value="0" leadInLength="0/1"  />
            </Keyframes>
           </Parameter>
           </Parameters>
           <MetaData>
            <entry key="effectIndex" val="0"/>
           </MetaData>
          </GenericEffect>
         </Effects>
         <Attributes>
          <Attribute id="1149" value="" name="ident"/>
         </Attributes>
         <MetaData>
          <entry key="AutoAppliedSmartFocus" val="False"/>
          <entry key="WinSubProjectDisplayName" val=""/>
         </MetaData>
         <ExtraData>
          <Entry key="ZoomPanBin">
           <ZoomPanBin id="1150"  >
            <ZoomPanKeyframes>
             <ZoomPanKeyframe id="1151" timeRangeEnd="-9999999/1" timeRangeDuration="0/1" interpolaterName="linr"  />
            </ZoomPanKeyframes>
           </ZoomPanBin>
          </Entry>
          <Entry key="CursorEffectBin">
           <CursorEffectBin id="1152"  >
            <CursorEffectKeyframes>
             <CursorEffectKeyframe id="1153" timeRangeEnd="-9999999/1" timeRangeDuration="0/1" interpolaterName=""  />
            </CursorEffectKeyframes>
           </CursorEffectBin>
          </Entry>
         </ExtraData>
         <GenericTrack id="1154"  >
          <Attributes>
           <Attribute id="1155" value="" name="ident"/>
          </Attributes>
          <MetaData>
           <entry key="IsLocked" val="False"/>
           <entry key="WinTrackHeight" val="0"/>
          </MetaData>
          <Medias>
           <ScreenVMFile id="1156" start="0" duration="240" scalar="1/1" mediaStart="0/1" mediaDuration="240/1" trackNumber="0" src="4" >
            <Transformer>
             <VectorParam id="1157"  name="translation">
              <InterpolatingParam id="1158" interp="linr"  time="-9999999/1" value="0" leadInLength="0/1"  />
              <InterpolatingParam id="1159" interp="linr"  time="-9999999/1" value="0" leadInLength="0/1"  />
              <InterpolatingParam id="1160" interp="linr"  time="-9999999/1" value="0" leadInLength="0/1"  />
             </VectorParam>
             <VectorParam id="1161"  name="rotation">
              <InterpolatingParam id="1162" interp="linr"  time="-9999999/1" value="0" leadInLength="0/1"  />
              <InterpolatingParam id="1163" interp="linr"  time="-9999999/1" value="0" leadInLength="0/1"  />
              <InterpolatingParam id="1164" interp="linr"  time="-9999999/1" value="0" leadInLength="0/1"  />
             </VectorParam>
             <VectorParam id="1165"  name="shear">
              <InterpolatingParam id="1166" interp="linr"  time="-9999999/1" value="0" leadInLength="0/1"  />
              <InterpolatingParam id="1167" interp="linr"  time="-9999999/1" value="0" leadInLength="0/1"  />
              <InterpolatingParam id="1168" interp="linr"  time="-9999999/1" value="0" leadInLength="0/1"  />
             </VectorParam>
             <VectorParam id="1169"  name="scale">
              <InterpolatingParam id="1170" interp="linr"  time="-9999999/1" value="1" leadInLength="0/1"  />
              <InterpolatingParam id="1171" interp="linr"  time="-9999999/1" value="1" leadInLength="0/1"  />
              <InterpolatingParam id="1172" interp="linr"  time="-9999999/1" value="1" leadInLength="0/1"  />
             </VectorParam>
             <VectorParam id="1173"  name="anchor">
              <InterpolatingParam id="1174" interp="linr"  time="0/1" value="0" leadInLength="0/1"  />
              <InterpolatingParam id="1175" interp="linr"  time="0/1" value="0" leadInLength="0/1"  />
              <InterpolatingParam id="1176" interp="linr"  time="0/1" value="0" leadInLength="0/1"  />
             </VectorParam>
            </Transformer>
            <Parameters>
             <VectorParam id="1177"  name="sourceCrop">
              <InterpolatingParam id="1178" interp="linr"  time="0/1" value="0" leadInLength="0/1"  />
              <InterpolatingParam id="1179" interp="linr"  time="0/1" value="0" leadInLength="0/1"  />
              <InterpolatingParam id="1180" interp="linr"  time="0/1" value="0" leadInLength="0/1"  />
              <InterpolatingParam id="1181" interp="linr"  time="0/1" value="0" leadInLength="0/1"  />
             </VectorParam>
             <VectorParam id="1182"  name="geometryCrop">
              <InterpolatingParam id="1183" interp="linr"  time="-9999999/1" value="0" leadInLength="0/1"  />
              <InterpolatingParam id="1184" interp="linr"  time="-9999999/1" value="0" leadInLength="0/1"  />
              <InterpolatingParam id="1185" interp="linr"  time="-9999999/1" value="0" leadInLength="0/1"  />
              <InterpolatingParam id="1186" interp="linr"  time="-9999999/1" value="0" leadInLength="0/1"  />
             </VectorParam>
             <InterpolatingParam id="1187" interp="linr"  time="-9999999/1" value="1" leadInLength="0/1"  name="opacity"/>
             <InterpolatingParam id="1188" interp="linr"  time="0/1" value="0" leadInLength="0/1"  name="cursorOpacity"/>
             <InterpolatingParam id="1189" interp="linr"  time="0/1" value="0" leadInLength="0/1"  name="cursorScale"/>
            </Parameters>
            <Attributes>
             <Attribute id="1190" value="" name="ident"/>
            </Attributes>
            <MetaData>
             <entry key="AutoAppliedSmartFocus" val="False"/>
             <entry key="WinSubProjectDisplayName" val=""/>
            </MetaData>
            <ExtraData>
             <Entry key="ZoomPanBin">
              <ZoomPanBin id="1191"  >
               <ZoomPanKeyframes>
                <ZoomPanKeyframe id="1192" timeRangeEnd="-9999999/1" timeRangeDuration="0/1" interpolaterName="linr"  />
               </ZoomPanKeyframes>
              </ZoomPanBin>
             </Entry>
             <Entry key="CursorEffectBin">
              <CursorEffectBin id="1193"  >
               <CursorEffectKeyframes>
               </CursorEffectKeyframes>
              </CursorEffectBin>
             </Entry>
            </ExtraData>
           </ScreenVMFile>
           <ScreenVMFile id="1194" start="240" duration="90" scalar="1/1" mediaStart="502/1" mediaDuration="90/1" trackNumber="0" src="4" >
            <Transformer>
             <VectorParam id="1195"  name="translation">
              <InterpolatingParam id="1196" interp="linr"  time="-9999999/1" value="0" leadInLength="0/1"  />
              <InterpolatingParam id="1197" interp="linr"  time="-9999999/1" value="0" leadInLength="0/1"  />
              <InterpolatingParam id="1198" interp="linr"  time="-9999999/1" value="0" leadInLength="0/1"  />
             </VectorParam>
             <VectorParam id="1199"  name="rotation">
              <InterpolatingParam id="1200" interp="linr"  time="-9999999/1" value="0" leadInLength="0/1"  />
              <InterpolatingParam id="1201" interp="linr"  time="-9999999/1" value="0" leadInLength="0/1"  />
              <InterpolatingParam id="1202" interp="linr"  time="-9999999/1" value="0" leadInLength="0/1"  />
             </VectorParam>
             <VectorParam id="1203"  name="shear">
              <InterpolatingParam id="1204" interp="linr"  time="-9999999/1" value="0" leadInLength="0/1"  />
              <InterpolatingParam id="1205" interp="linr"  time="-9999999/1" value="0" leadInLength="0/1"  />
              <InterpolatingParam id="1206" interp="linr"  time="-9999999/1" value="0" leadInLength="0/1"  />
             </VectorParam>
             <VectorParam id="1207"  name="scale">
              <InterpolatingParam id="1208" interp="linr"  time="-9999999/1" value="1" leadInLength="0/1"  />
              <InterpolatingParam id="1209" interp="linr"  time="-9999999/1" value="1" leadInLength="0/1"  />
              <InterpolatingParam id="1210" interp="linr"  time="-9999999/1" value="1" leadInLength="0/1"  />
             </VectorParam>
             <VectorParam id="1211"  name="anchor">
              <InterpolatingParam id="1212" interp="linr"  time="0/1" value="0" leadInLength="0/1"  />
              <InterpolatingParam id="1213" interp="linr"  time="0/1" value="0" leadInLength="0/1"  />
              <InterpolatingParam id="1214" interp="linr"  time="0/1" value="0" leadInLength="0/1"  />
             </VectorParam>
            </Transformer>
            <Parameters>
             <VectorParam id="1215"  name="sourceCrop">
              <InterpolatingParam id="1216" interp="linr"  time="0/1" value="0" leadInLength="0/1"  />
              <InterpolatingParam id="1217" interp="linr"  time="0/1" value="0" leadInLength="0/1"  />
              <InterpolatingParam id="1218" interp="linr"  time="0/1" value="0" leadInLength="0/1"  />
              <InterpolatingParam id="1219" interp="linr"  time="0/1" value="0" leadInLength="0/1"  />
             </VectorParam>
             <VectorParam id="1220"  name="geometryCrop">
              <InterpolatingParam id="1221" interp="linr"  time="-9999999/1" value="0" leadInLength="0/1"  />
              <InterpolatingParam id="1222" interp="linr"  time="-9999999/1" value="0" leadInLength="0/1"  />
              <InterpolatingParam id="1223" interp="linr"  time="-9999999/1" value="0" leadInLength="0/1"  />
              <InterpolatingParam id="1224" interp="linr"  time="-9999999/1" value="0" leadInLength="0/1"  />
             </VectorParam>
             <InterpolatingParam id="1225" interp="linr"  time="-9999999/1" value="1" leadInLength="0/1"  name="opacity"/>
             <InterpolatingParam id="1226" interp="linr"  time="0/1" value="0" leadInLength="0/1"  name="cursorOpacity"/>
             <InterpolatingParam id="1227" interp="linr"  time="0/1" value="0" leadInLength="0/1"  name="cursorScale"/>
            </Parameters>
            <Attributes>
             <Attribute id="1228" value="" name="ident"/>
            </Attributes>
            <MetaData>
             <entry key="AutoAppliedSmartFocus" val="False"/>
             <entry key="WinSubProjectDisplayName" val=""/>
            </MetaData>
            <ExtraData>
             <Entry key="ZoomPanBin">
              <ZoomPanBin id="1229"  >
               <ZoomPanKeyframes>
                <ZoomPanKeyframe id="1230" timeRangeEnd="-9999999/1" timeRangeDuration="0/1" interpolaterName="linr"  />
               </ZoomPanKeyframes>
              </ZoomPanBin>
             </Entry>
             <Entry key="CursorEffectBin">
              <CursorEffectBin id="1231"  >
               <CursorEffectKeyframes>
               </CursorEffectKeyframes>
              </CursorEffectBin>
             </Entry>
            </ExtraData>
           </ScreenVMFile>
           <ScreenVMFile id="1232" start="330" duration="235" scalar="1/1" mediaStart="704/1" mediaDuration="235/1" trackNumber="0" src="4" >
            <Transformer>
             <VectorParam id="1233"  name="translation">
              <InterpolatingParam id="1234" interp="linr"  time="-9999999/1" value="0" leadInLength="0/1"  />
              <InterpolatingParam id="1235" interp="linr"  time="-9999999/1" value="0" leadInLength="0/1"  />
              <InterpolatingParam id="1236" interp="linr"  time="-9999999/1" value="0" leadInLength="0/1"  />
             </VectorParam>
             <VectorParam id="1237"  name="rotation">
              <InterpolatingParam id="1238" interp="linr"  time="-9999999/1" value="0" leadInLength="0/1"  />
              <InterpolatingParam id="1239" interp="linr"  time="-9999999/1" value="0" leadInLength="0/1"  />
              <InterpolatingParam id="1240" interp="linr"  time="-9999999/1" value="0" leadInLength="0/1"  />
             </VectorParam>
             <VectorParam id="1241"  name="shear">
              <InterpolatingParam id="1242" interp="linr"  time="-9999999/1" value="0" leadInLength="0/1"  />
              <InterpolatingParam id="1243" interp="linr"  time="-9999999/1" value="0" leadInLength="0/1"  />
              <InterpolatingParam id="1244" interp="linr"  time="-9999999/1" value="0" leadInLength="0/1"  />
             </VectorParam>
             <VectorParam id="1245"  name="scale">
              <InterpolatingParam id="1246" interp="linr"  time="-9999999/1" value="1" leadInLength="0/1"  />
              <InterpolatingParam id="1247" interp="linr"  time="-9999999/1" value="1" leadInLength="0/1"  />
              <InterpolatingParam id="1248" interp="linr"  time="-9999999/1" value="1" leadInLength="0/1"  />
             </VectorParam>
             <VectorParam id="1249"  name="anchor">
              <InterpolatingParam id="1250" interp="linr"  time="0/1" value="0" leadInLength="0/1"  />
              <InterpolatingParam id="1251" interp="linr"  time="0/1" value="0" leadInLength="0/1"  />
              <InterpolatingParam id="1252" interp="linr"  time="0/1" value="0" leadInLength="0/1"  />
             </VectorParam>
            </Transformer>
            <Parameters>
             <VectorParam id="1253"  name="sourceCrop">
              <InterpolatingParam id="1254" interp="linr"  time="0/1" value="0" leadInLength="0/1"  />
              <InterpolatingParam id="1255" interp="linr"  time="0/1" value="0" leadInLength="0/1"  />
              <InterpolatingParam id="1256" interp="linr"  time="0/1" value="0" leadInLength="0/1"  />
              <InterpolatingParam id="1257" interp="linr"  time="0/1" value="0" leadInLength="0/1"  />
             </VectorParam>
             <VectorParam id="1258"  name="geometryCrop">
              <InterpolatingParam id="1259" interp="linr"  time="-9999999/1" value="0" leadInLength="0/1"  />
              <InterpolatingParam id="1260" interp="linr"  time="-9999999/1" value="0" leadInLength="0/1"  />
              <InterpolatingParam id="1261" interp="linr"  time="-9999999/1" value="0" leadInLength="0/1"  />
              <InterpolatingParam id="1262" interp="linr"  time="-9999999/1" value="0" leadInLength="0/1"  />
             </VectorParam>
             <InterpolatingParam id="1263" interp="linr"  time="-9999999/1" value="1" leadInLength="0/1"  name="opacity"/>
             <InterpolatingParam id="1264" interp="linr"  time="0/1" value="0" leadInLength="0/1"  name="cursorOpacity"/>
             <InterpolatingParam id="1265" interp="linr"  time="0/1" value="0" leadInLength="0/1"  name="cursorScale"/>
            </Parameters>
            <Attributes>
             <Attribute id="1266" value="" name="ident"/>
            </Attributes>
            <MetaData>
             <entry key="AutoAppliedSmartFocus" val="False"/>
             <entry key="WinSubProjectDisplayName" val=""/>
            </MetaData>
            <ExtraData>
             <Entry key="ZoomPanBin">
              <ZoomPanBin id="1267"  >
               <ZoomPanKeyframes>
                <ZoomPanKeyframe id="1268" timeRangeEnd="-9999999/1" timeRangeDuration="0/1" interpolaterName="linr"  />
               </ZoomPanKeyframes>
              </ZoomPanBin>
             </Entry>
             <Entry key="CursorEffectBin">
              <CursorEffectBin id="1269"  >
               <CursorEffectKeyframes>
               </CursorEffectKeyframes>
              </CursorEffectBin>
             </Entry>
            </ExtraData>
           </ScreenVMFile>
           <ScreenVMFile id="1270" start="565" duration="71" scalar="1/1" mediaStart="1199/1" mediaDuration="71/1" trackNumber="0" src="4" >
            <Transformer>
             <VectorParam id="1271"  name="translation">
              <InterpolatingParam id="1272" interp="linr"  time="-9999999/1" value="0" leadInLength="0/1"  />
              <InterpolatingParam id="1273" interp="linr"  time="-9999999/1" value="0" leadInLength="0/1"  />
              <InterpolatingParam id="1274" interp="linr"  time="-9999999/1" value="0" leadInLength="0/1"  />
             </VectorParam>
             <VectorParam id="1275"  name="rotation">
              <InterpolatingParam id="1276" interp="linr"  time="-9999999/1" value="0" leadInLength="0/1"  />
              <InterpolatingParam id="1277" interp="linr"  time="-9999999/1" value="0" leadInLength="0/1"  />
              <InterpolatingParam id="1278" interp="linr"  time="-9999999/1" value="0" leadInLength="0/1"  />
             </VectorParam>
             <VectorParam id="1279"  name="shear">
              <InterpolatingParam id="1280" interp="linr"  time="-9999999/1" value="0" leadInLength="0/1"  />
              <InterpolatingParam id="1281" interp="linr"  time="-9999999/1" value="0" leadInLength="0/1"  />
              <InterpolatingParam id="1282" interp="linr"  time="-9999999/1" value="0" leadInLength="0/1"  />
             </VectorParam>
             <VectorParam id="1283"  name="scale">
              <InterpolatingParam id="1284" interp="linr"  time="-9999999/1" value="1" leadInLength="0/1"  />
              <InterpolatingParam id="1285" interp="linr"  time="-9999999/1" value="1" leadInLength="0/1"  />
              <InterpolatingParam id="1286" interp="linr"  time="-9999999/1" value="1" leadInLength="0/1"  />
             </VectorParam>
             <VectorParam id="1287"  name="anchor">
              <InterpolatingParam id="1288" interp="linr"  time="0/1" value="0" leadInLength="0/1"  />
              <InterpolatingParam id="1289" interp="linr"  time="0/1" value="0" leadInLength="0/1"  />
              <InterpolatingParam id="1290" interp="linr"  time="0/1" value="0" leadInLength="0/1"  />
             </VectorParam>
            </Transformer>
            <Parameters>
             <VectorParam id="1291"  name="sourceCrop">
              <InterpolatingParam id="1292" interp="linr"  time="0/1" value="0" leadInLength="0/1"  />
              <InterpolatingParam id="1293" interp="linr"  time="0/1" value="0" leadInLength="0/1"  />
              <InterpolatingParam id="1294" interp="linr"  time="0/1" value="0" leadInLength="0/1"  />
              <InterpolatingParam id="1295" interp="linr"  time="0/1" value="0" leadInLength="0/1"  />
             </VectorParam>
             <VectorParam id="1296"  name="geometryCrop">
              <InterpolatingParam id="1297" interp="linr"  time="-9999999/1" value="0" leadInLength="0/1"  />
              <InterpolatingParam id="1298" interp="linr"  time="-9999999/1" value="0" leadInLength="0/1"  />
              <InterpolatingParam id="1299" interp="linr"  time="-9999999/1" value="0" leadInLength="0/1"  />
              <InterpolatingParam id="1300" interp="linr"  time="-9999999/1" value="0" leadInLength="0/1"  />
             </VectorParam>
             <InterpolatingParam id="1301" interp="linr"  time="-9999999/1" value="1" leadInLength="0/1"  name="opacity"/>
             <InterpolatingParam id="1302" interp="linr"  time="0/1" value="0" leadInLength="0/1"  name="cursorOpacity"/>
             <InterpolatingParam id="1303" interp="linr"  time="0/1" value="0" leadInLength="0/1"  name="cursorScale"/>
            </Parameters>
            <Attributes>
             <Attribute id="1304" value="" name="ident"/>
            </Attributes>
            <MetaData>
             <entry key="AutoAppliedSmartFocus" val="False"/>
             <entry key="WinSubProjectDisplayName" val=""/>
            </MetaData>
            <ExtraData>
             <Entry key="ZoomPanBin">
              <ZoomPanBin id="1305"  >
               <ZoomPanKeyframes>
                <ZoomPanKeyframe id="1306" timeRangeEnd="-9999999/1" timeRangeDuration="0/1" interpolaterName="linr"  />
               </ZoomPanKeyframes>
              </ZoomPanBin>
             </Entry>
             <Entry key="CursorEffectBin">
              <CursorEffectBin id="1307"  >
               <CursorEffectKeyframes>
               </CursorEffectKeyframes>
              </CursorEffectBin>
             </Entry>
            </ExtraData>
           </ScreenVMFile>
           <ScreenVMFile id="1308" start="636" duration="69" scalar="1/1" mediaStart="1321/1" mediaDuration="69/1" trackNumber="0" src="4" >
            <Transformer>
             <VectorParam id="1309"  name="translation">
              <InterpolatingParam id="1310" interp="linr"  time="-9999999/1" value="0" leadInLength="0/1"  />
              <InterpolatingParam id="1311" interp="linr"  time="-9999999/1" value="0" leadInLength="0/1"  />
              <InterpolatingParam id="1312" interp="linr"  time="-9999999/1" value="0" leadInLength="0/1"  />
             </VectorParam>
             <VectorParam id="1313"  name="rotation">
              <InterpolatingParam id="1314" interp="linr"  time="-9999999/1" value="0" leadInLength="0/1"  />
              <InterpolatingParam id="1315" interp="linr"  time="-9999999/1" value="0" leadInLength="0/1"  />
              <InterpolatingParam id="1316" interp="linr"  time="-9999999/1" value="0" leadInLength="0/1"  />
             </VectorParam>
             <VectorParam id="1317"  name="shear">
              <InterpolatingParam id="1318" interp="linr"  time="-9999999/1" value="0" leadInLength="0/1"  />
              <InterpolatingParam id="1319" interp="linr"  time="-9999999/1" value="0" leadInLength="0/1"  />
              <InterpolatingParam id="1320" interp="linr"  time="-9999999/1" value="0" leadInLength="0/1"  />
             </VectorParam>
             <VectorParam id="1321"  name="scale">
              <InterpolatingParam id="1322" interp="linr"  time="-9999999/1" value="1" leadInLength="0/1"  />
              <InterpolatingParam id="1323" interp="linr"  time="-9999999/1" value="1" leadInLength="0/1"  />
              <InterpolatingParam id="1324" interp="linr"  time="-9999999/1" value="1" leadInLength="0/1"  />
             </VectorParam>
             <VectorParam id="1325"  name="anchor">
              <InterpolatingParam id="1326" interp="linr"  time="0/1" value="0" leadInLength="0/1"  />
              <InterpolatingParam id="1327" interp="linr"  time="0/1" value="0" leadInLength="0/1"  />
              <InterpolatingParam id="1328" interp="linr"  time="0/1" value="0" leadInLength="0/1"  />
             </VectorParam>
            </Transformer>
            <Parameters>
             <VectorParam id="1329"  name="sourceCrop">
              <InterpolatingParam id="1330" interp="linr"  time="0/1" value="0" leadInLength="0/1"  />
              <InterpolatingParam id="1331" interp="linr"  time="0/1" value="0" leadInLength="0/1"  />
              <InterpolatingParam id="1332" interp="linr"  time="0/1" value="0" leadInLength="0/1"  />
              <InterpolatingParam id="1333" interp="linr"  time="0/1" value="0" leadInLength="0/1"  />
             </VectorParam>
             <VectorParam id="1334"  name="geometryCrop">
              <InterpolatingParam id="1335" interp="linr"  time="-9999999/1" value="0" leadInLength="0/1"  />
              <InterpolatingParam id="1336" interp="linr"  time="-9999999/1" value="0" leadInLength="0/1"  />
              <InterpolatingParam id="1337" interp="linr"  time="-9999999/1" value="0" leadInLength="0/1"  />
              <InterpolatingParam id="1338" interp="linr"  time="-9999999/1" value="0" leadInLength="0/1"  />
             </VectorParam>
             <InterpolatingParam id="1339" interp="linr"  time="-9999999/1" value="1" leadInLength="0/1"  name="opacity"/>
             <InterpolatingParam id="1340" interp="linr"  time="0/1" value="0" leadInLength="0/1"  name="cursorOpacity"/>
             <InterpolatingParam id="1341" interp="linr"  time="0/1" value="0" leadInLength="0/1"  name="cursorScale"/>
            </Parameters>
            <Attributes>
             <Attribute id="1342" value="" name="ident"/>
            </Attributes>
            <MetaData>
             <entry key="AutoAppliedSmartFocus" val="False"/>
             <entry key="WinSubProjectDisplayName" val=""/>
            </MetaData>
            <ExtraData>
             <Entry key="ZoomPanBin">
              <ZoomPanBin id="1343"  >
               <ZoomPanKeyframes>
                <ZoomPanKeyframe id="1344" timeRangeEnd="-9999999/1" timeRangeDuration="0/1" interpolaterName="linr"  />
               </ZoomPanKeyframes>
              </ZoomPanBin>
             </Entry>
             <Entry key="CursorEffectBin">
              <CursorEffectBin id="1345"  >
               <CursorEffectKeyframes>
               </CursorEffectKeyframes>
              </CursorEffectBin>
             </Entry>
            </ExtraData>
           </ScreenVMFile>
           <ScreenVMFile id="1346" start="705" duration="392" scalar="1/1" mediaStart="1462/1" mediaDuration="392/1" trackNumber="0" src="4" >
            <Transformer>
             <VectorParam id="1347"  name="translation">
              <InterpolatingParam id="1348" interp="linr"  time="-9999999/1" value="0" leadInLength="0/1"  />
              <InterpolatingParam id="1349" interp="linr"  time="-9999999/1" value="0" leadInLength="0/1"  />
              <InterpolatingParam id="1350" interp="linr"  time="-9999999/1" value="0" leadInLength="0/1"  />
             </VectorParam>
             <VectorParam id="1351"  name="rotation">
              <InterpolatingParam id="1352" interp="linr"  time="-9999999/1" value="0" leadInLength="0/1"  />
              <InterpolatingParam id="1353" interp="linr"  time="-9999999/1" value="0" leadInLength="0/1"  />
              <InterpolatingParam id="1354" interp="linr"  time="-9999999/1" value="0" leadInLength="0/1"  />
             </VectorParam>
             <VectorParam id="1355"  name="shear">
              <InterpolatingParam id="1356" interp="linr"  time="-9999999/1" value="0" leadInLength="0/1"  />
              <InterpolatingParam id="1357" interp="linr"  time="-9999999/1" value="0" leadInLength="0/1"  />
              <InterpolatingParam id="1358" interp="linr"  time="-9999999/1" value="0" leadInLength="0/1"  />
             </VectorParam>
             <VectorParam id="1359"  name="scale">
              <InterpolatingParam id="1360" interp="linr"  time="-9999999/1" value="1" leadInLength="0/1"  />
              <InterpolatingParam id="1361" interp="linr"  time="-9999999/1" value="1" leadInLength="0/1"  />
              <InterpolatingParam id="1362" interp="linr"  time="-9999999/1" value="1" leadInLength="0/1"  />
             </VectorParam>
             <VectorParam id="1363"  name="anchor">
              <InterpolatingParam id="1364" interp="linr"  time="0/1" value="0" leadInLength="0/1"  />
              <InterpolatingParam id="1365" interp="linr"  time="0/1" value="0" leadInLength="0/1"  />
              <InterpolatingParam id="1366" interp="linr"  time="0/1" value="0" leadInLength="0/1"  />
             </VectorParam>
            </Transformer>
            <Parameters>
             <VectorParam id="1367"  name="sourceCrop">
              <InterpolatingParam id="1368" interp="linr"  time="0/1" value="0" leadInLength="0/1"  />
              <InterpolatingParam id="1369" interp="linr"  time="0/1" value="0" leadInLength="0/1"  />
              <InterpolatingParam id="1370" interp="linr"  time="0/1" value="0" leadInLength="0/1"  />
              <InterpolatingParam id="1371" interp="linr"  time="0/1" value="0" leadInLength="0/1"  />
             </VectorParam>
             <VectorParam id="1372"  name="geometryCrop">
              <InterpolatingParam id="1373" interp="linr"  time="-9999999/1" value="0" leadInLength="0/1"  />
              <InterpolatingParam id="1374" interp="linr"  time="-9999999/1" value="0" leadInLength="0/1"  />
              <InterpolatingParam id="1375" interp="linr"  time="-9999999/1" value="0" leadInLength="0/1"  />
              <InterpolatingParam id="1376" interp="linr"  time="-9999999/1" value="0" leadInLength="0/1"  />
             </VectorParam>
             <InterpolatingParam id="1377" interp="linr"  time="-9999999/1" value="1" leadInLength="0/1"  name="opacity"/>
             <InterpolatingParam id="1378" interp="linr"  time="0/1" value="0" leadInLength="0/1"  name="cursorOpacity"/>
             <InterpolatingParam id="1379" interp="linr"  time="0/1" value="0" leadInLength="0/1"  name="cursorScale"/>
            </Parameters>
            <Attributes>
             <Attribute id="1380" value="" name="ident"/>
            </Attributes>
            <MetaData>
             <entry key="AutoAppliedSmartFocus" val="False"/>
             <entry key="WinSubProjectDisplayName" val=""/>
            </MetaData>
            <ExtraData>
             <Entry key="ZoomPanBin">
              <ZoomPanBin id="1381"  >
               <ZoomPanKeyframes>
                <ZoomPanKeyframe id="1382" timeRangeEnd="-9999999/1" timeRangeDuration="0/1" interpolaterName="linr"  />
               </ZoomPanKeyframes>
              </ZoomPanBin>
             </Entry>
             <Entry key="CursorEffectBin">
              <CursorEffectBin id="1383"  >
               <CursorEffectKeyframes>
               </CursorEffectKeyframes>
              </CursorEffectBin>
             </Entry>
            </ExtraData>
           </ScreenVMFile>
           <ScreenVMFile id="1384" start="1097" duration="269" scalar="1/1" mediaStart="1946/1" mediaDuration="269/1" trackNumber="0" src="4" >
            <Transformer>
             <VectorParam id="1385"  name="translation">
              <InterpolatingParam id="1386" interp="linr"  time="-9999999/1" value="0" leadInLength="0/1"  />
              <InterpolatingParam id="1387" interp="linr"  time="-9999999/1" value="0" leadInLength="0/1"  />
              <InterpolatingParam id="1388" interp="linr"  time="-9999999/1" value="0" leadInLength="0/1"  />
             </VectorParam>
             <VectorParam id="1389"  name="rotation">
              <InterpolatingParam id="1390" interp="linr"  time="-9999999/1" value="0" leadInLength="0/1"  />
              <InterpolatingParam id="1391" interp="linr"  time="-9999999/1" value="0" leadInLength="0/1"  />
              <InterpolatingParam id="1392" interp="linr"  time="-9999999/1" value="0" leadInLength="0/1"  />
             </VectorParam>
             <VectorParam id="1393"  name="shear">
              <InterpolatingParam id="1394" interp="linr"  time="-9999999/1" value="0" leadInLength="0/1"  />
              <InterpolatingParam id="1395" interp="linr"  time="-9999999/1" value="0" leadInLength="0/1"  />
              <InterpolatingParam id="1396" interp="linr"  time="-9999999/1" value="0" leadInLength="0/1"  />
             </VectorParam>
             <VectorParam id="1397"  name="scale">
              <InterpolatingParam id="1398" interp="linr"  time="-9999999/1" value="1" leadInLength="0/1"  />
              <InterpolatingParam id="1399" interp="linr"  time="-9999999/1" value="1" leadInLength="0/1"  />
              <InterpolatingParam id="1400" interp="linr"  time="-9999999/1" value="1" leadInLength="0/1"  />
             </VectorParam>
             <VectorParam id="1401"  name="anchor">
              <InterpolatingParam id="1402" interp="linr"  time="0/1" value="0" leadInLength="0/1"  />
              <InterpolatingParam id="1403" interp="linr"  time="0/1" value="0" leadInLength="0/1"  />
              <InterpolatingParam id="1404" interp="linr"  time="0/1" value="0" leadInLength="0/1"  />
             </VectorParam>
            </Transformer>
            <Parameters>
             <VectorParam id="1405"  name="sourceCrop">
              <InterpolatingParam id="1406" interp="linr"  time="0/1" value="0" leadInLength="0/1"  />
              <InterpolatingParam id="1407" interp="linr"  time="0/1" value="0" leadInLength="0/1"  />
              <InterpolatingParam id="1408" interp="linr"  time="0/1" value="0" leadInLength="0/1"  />
              <InterpolatingParam id="1409" interp="linr"  time="0/1" value="0" leadInLength="0/1"  />
             </VectorParam>
             <VectorParam id="1410"  name="geometryCrop">
              <InterpolatingParam id="1411" interp="linr"  time="-9999999/1" value="0" leadInLength="0/1"  />
              <InterpolatingParam id="1412" interp="linr"  time="-9999999/1" value="0" leadInLength="0/1"  />
              <InterpolatingParam id="1413" interp="linr"  time="-9999999/1" value="0" leadInLength="0/1"  />
              <InterpolatingParam id="1414" interp="linr"  time="-9999999/1" value="0" leadInLength="0/1"  />
             </VectorParam>
             <InterpolatingParam id="1415" interp="linr"  time="-9999999/1" value="1" leadInLength="0/1"  name="opacity"/>
             <InterpolatingParam id="1416" interp="linr"  time="0/1" value="0" leadInLength="0/1"  name="cursorOpacity"/>
             <InterpolatingParam id="1417" interp="linr"  time="0/1" value="0" leadInLength="0/1"  name="cursorScale"/>
            </Parameters>
            <Attributes>
             <Attribute id="1418" value="" name="ident"/>
            </Attributes>
            <MetaData>
             <entry key="AutoAppliedSmartFocus" val="False"/>
             <entry key="WinSubProjectDisplayName" val=""/>
            </MetaData>
            <ExtraData>
             <Entry key="ZoomPanBin">
              <ZoomPanBin id="1419"  >
               <ZoomPanKeyframes>
                <ZoomPanKeyframe id="1420" timeRangeEnd="-9999999/1" timeRangeDuration="0/1" interpolaterName="linr"  />
               </ZoomPanKeyframes>
              </ZoomPanBin>
             </Entry>
             <Entry key="CursorEffectBin">
              <CursorEffectBin id="1421"  >
               <CursorEffectKeyframes>
               </CursorEffectKeyframes>
              </CursorEffectBin>
             </Entry>
            </ExtraData>
           </ScreenVMFile>
           <ScreenVMFile id="1422" start="1366" duration="128" scalar="1/1" mediaStart="2241/1" mediaDuration="128/1" trackNumber="0" src="4" >
            <Transformer>
             <VectorParam id="1423"  name="translation">
              <InterpolatingParam id="1424" interp="linr"  time="-9999999/1" value="0" leadInLength="0/1"  />
              <InterpolatingParam id="1425" interp="linr"  time="-9999999/1" value="0" leadInLength="0/1"  />
              <InterpolatingParam id="1426" interp="linr"  time="-9999999/1" value="0" leadInLength="0/1"  />
             </VectorParam>
             <VectorParam id="1427"  name="rotation">
              <InterpolatingParam id="1428" interp="linr"  time="-9999999/1" value="0" leadInLength="0/1"  />
              <InterpolatingParam id="1429" interp="linr"  time="-9999999/1" value="0" leadInLength="0/1"  />
              <InterpolatingParam id="1430" interp="linr"  time="-9999999/1" value="0" leadInLength="0/1"  />
             </VectorParam>
             <VectorParam id="1431"  name="shear">
              <InterpolatingParam id="1432" interp="linr"  time="-9999999/1" value="0" leadInLength="0/1"  />
              <InterpolatingParam id="1433" interp="linr"  time="-9999999/1" value="0" leadInLength="0/1"  />
              <InterpolatingParam id="1434" interp="linr"  time="-9999999/1" value="0" leadInLength="0/1"  />
             </VectorParam>
             <VectorParam id="1435"  name="scale">
              <InterpolatingParam id="1436" interp="linr"  time="-9999999/1" value="1" leadInLength="0/1"  />
              <InterpolatingParam id="1437" interp="linr"  time="-9999999/1" value="1" leadInLength="0/1"  />
              <InterpolatingParam id="1438" interp="linr"  time="-9999999/1" value="1" leadInLength="0/1"  />
             </VectorParam>
             <VectorParam id="1439"  name="anchor">
              <InterpolatingParam id="1440" interp="linr"  time="0/1" value="0" leadInLength="0/1"  />
              <InterpolatingParam id="1441" interp="linr"  time="0/1" value="0" leadInLength="0/1"  />
              <InterpolatingParam id="1442" interp="linr"  time="0/1" value="0" leadInLength="0/1"  />
             </VectorParam>
            </Transformer>
            <Parameters>
             <VectorParam id="1443"  name="sourceCrop">
              <InterpolatingParam id="1444" interp="linr"  time="0/1" value="0" leadInLength="0/1"  />
              <InterpolatingParam id="1445" interp="linr"  time="0/1" value="0" leadInLength="0/1"  />
              <InterpolatingParam id="1446" interp="linr"  time="0/1" value="0" leadInLength="0/1"  />
              <InterpolatingParam id="1447" interp="linr"  time="0/1" value="0" leadInLength="0/1"  />
             </VectorParam>
             <VectorParam id="1448"  name="geometryCrop">
              <InterpolatingParam id="1449" interp="linr"  time="-9999999/1" value="0" leadInLength="0/1"  />
              <InterpolatingParam id="1450" interp="linr"  time="-9999999/1" value="0" leadInLength="0/1"  />
              <InterpolatingParam id="1451" interp="linr"  time="-9999999/1" value="0" leadInLength="0/1"  />
              <InterpolatingParam id="1452" interp="linr"  time="-9999999/1" value="0" leadInLength="0/1"  />
             </VectorParam>
             <InterpolatingParam id="1453" interp="linr"  time="-9999999/1" value="1" leadInLength="0/1"  name="opacity"/>
             <InterpolatingParam id="1454" interp="linr"  time="0/1" value="0" leadInLength="0/1"  name="cursorOpacity"/>
             <InterpolatingParam id="1455" interp="linr"  time="0/1" value="0" leadInLength="0/1"  name="cursorScale"/>
            </Parameters>
            <Attributes>
             <Attribute id="1456" value="" name="ident"/>
            </Attributes>
            <MetaData>
             <entry key="AutoAppliedSmartFocus" val="False"/>
             <entry key="WinSubProjectDisplayName" val=""/>
            </MetaData>
            <ExtraData>
             <Entry key="ZoomPanBin">
              <ZoomPanBin id="1457"  >
               <ZoomPanKeyframes>
                <ZoomPanKeyframe id="1458" timeRangeEnd="-9999999/1" timeRangeDuration="0/1" interpolaterName="linr"  />
               </ZoomPanKeyframes>
              </ZoomPanBin>
             </Entry>
             <Entry key="CursorEffectBin">
              <CursorEffectBin id="1459"  >
               <CursorEffectKeyframes>
               </CursorEffectKeyframes>
              </CursorEffectBin>
             </Entry>
            </ExtraData>
           </ScreenVMFile>
           <ScreenIMFile id="1460" start="1494" duration="900" scalar="1/1" mediaStart="2369/1" mediaDuration="1/1" trackNumber="0" src="4" trimStartSum="0/1" >
            <Transformer>
             <VectorParam id="1461"  name="translation">
              <InterpolatingParam id="1462" interp="linr"  time="-9999999/1" value="0" leadInLength="0/1"  />
              <InterpolatingParam id="1463" interp="linr"  time="-9999999/1" value="0" leadInLength="0/1"  />
              <InterpolatingParam id="1464" interp="linr"  time="-9999999/1" value="0" leadInLength="0/1"  />
             </VectorParam>
             <VectorParam id="1465"  name="rotation">
              <InterpolatingParam id="1466" interp="linr"  time="-9999999/1" value="0" leadInLength="0/1"  />
              <InterpolatingParam id="1467" interp="linr"  time="-9999999/1" value="0" leadInLength="0/1"  />
              <InterpolatingParam id="1468" interp="linr"  time="-9999999/1" value="0" leadInLength="0/1"  />
             </VectorParam>
             <VectorParam id="1469"  name="shear">
              <InterpolatingParam id="1470" interp="linr"  time="-9999999/1" value="0" leadInLength="0/1"  />
              <InterpolatingParam id="1471" interp="linr"  time="-9999999/1" value="0" leadInLength="0/1"  />
              <InterpolatingParam id="1472" interp="linr"  time="-9999999/1" value="0" leadInLength="0/1"  />
             </VectorParam>
             <VectorParam id="1473"  name="scale">
              <InterpolatingParam id="1474" interp="linr"  time="-9999999/1" value="1" leadInLength="0/1"  />
              <InterpolatingParam id="1475" interp="linr"  time="-9999999/1" value="1" leadInLength="0/1"  />
              <InterpolatingParam id="1476" interp="linr"  time="-9999999/1" value="1" leadInLength="0/1"  />
             </VectorParam>
             <VectorParam id="1477"  name="anchor">
              <InterpolatingParam id="1478" interp="linr"  time="0/1" value="0" leadInLength="0/1"  />
              <InterpolatingParam id="1479" interp="linr"  time="0/1" value="0" leadInLength="0/1"  />
              <InterpolatingParam id="1480" interp="linr"  time="0/1" value="0" leadInLength="0/1"  />
             </VectorParam>
            </Transformer>
            <Parameters>
             <VectorParam id="1481"  name="sourceCrop">
              <InterpolatingParam id="1482" interp="linr"  time="0/1" value="0" leadInLength="0/1"  />
              <InterpolatingParam id="1483" interp="linr"  time="0/1" value="0" leadInLength="0/1"  />
              <InterpolatingParam id="1484" interp="linr"  time="0/1" value="0" leadInLength="0/1"  />
              <InterpolatingParam id="1485" interp="linr"  time="0/1" value="0" leadInLength="0/1"  />
             </VectorParam>
             <VectorParam id="1486"  name="geometryCrop">
              <InterpolatingParam id="1487" interp="linr"  time="-9999999/1" value="0" leadInLength="0/1"  />
              <InterpolatingParam id="1488" interp="linr"  time="-9999999/1" value="0" leadInLength="0/1"  />
              <InterpolatingParam id="1489" interp="linr"  time="-9999999/1" value="0" leadInLength="0/1"  />
              <InterpolatingParam id="1490" interp="linr"  time="-9999999/1" value="0" leadInLength="0/1"  />
             </VectorParam>
             <InterpolatingParam id="1491" interp="linr"  time="-9999999/1" value="1" leadInLength="0/1"  name="opacity"/>
             <InterpolatingParam id="1492" interp="linr"  time="0/1" value="0" leadInLength="0/1"  name="cursorOpacity"/>
             <InterpolatingParam id="1493" interp="linr"  time="0/1" value="0" leadInLength="0/1"  name="recordedCursorOpacity"/>
             <InterpolatingParam id="1494" interp="linr"  time="0/1" value="0" leadInLength="0/1"  name="cursorScale"/>
            </Parameters>
            <Attributes>
             <Attribute id="1495" value="" name="ident"/>
            </Attributes>
            <MetaData>
             <entry key="AutoAppliedSmartFocus" val="False"/>
             <entry key="WinSubProjectDisplayName" val=""/>
            </MetaData>
            <ExtraData>
             <Entry key="ZoomPanBin">
              <ZoomPanBin id="1496"  >
               <ZoomPanKeyframes>
                <ZoomPanKeyframe id="1497" timeRangeEnd="-9999999/1" timeRangeDuration="0/1" interpolaterName="linr"  />
               </ZoomPanKeyframes>
              </ZoomPanBin>
             </Entry>
             <Entry key="CursorEffectBin">
              <CursorEffectBin id="1498"  >
               <CursorEffectKeyframes>
               </CursorEffectKeyframes>
              </CursorEffectBin>
             </Entry>
            </ExtraData>
           </ScreenIMFile>
           <ScreenVMFile id="1499" start="2394" duration="114" scalar="1/1" mediaStart="2369/1" mediaDuration="114/1" trackNumber="0" src="4" >
            <Transformer>
             <VectorParam id="1500"  name="translation">
              <InterpolatingParam id="1501" interp="linr"  time="-9999999/1" value="0" leadInLength="0/1"  />
              <InterpolatingParam id="1502" interp="linr"  time="-9999999/1" value="0" leadInLength="0/1"  />
              <InterpolatingParam id="1503" interp="linr"  time="-9999999/1" value="0" leadInLength="0/1"  />
             </VectorParam>
             <VectorParam id="1504"  name="rotation">
              <InterpolatingParam id="1505" interp="linr"  time="-9999999/1" value="0" leadInLength="0/1"  />
              <InterpolatingParam id="1506" interp="linr"  time="-9999999/1" value="0" leadInLength="0/1"  />
              <InterpolatingParam id="1507" interp="linr"  time="-9999999/1" value="0" leadInLength="0/1"  />
             </VectorParam>
             <VectorParam id="1508"  name="shear">
              <InterpolatingParam id="1509" interp="linr"  time="-9999999/1" value="0" leadInLength="0/1"  />
              <InterpolatingParam id="1510" interp="linr"  time="-9999999/1" value="0" leadInLength="0/1"  />
              <InterpolatingParam id="1511" interp="linr"  time="-9999999/1" value="0" leadInLength="0/1"  />
             </VectorParam>
             <VectorParam id="1512"  name="scale">
              <InterpolatingParam id="1513" interp="linr"  time="-9999999/1" value="1" leadInLength="0/1"  />
              <InterpolatingParam id="1514" interp="linr"  time="-9999999/1" value="1" leadInLength="0/1"  />
              <InterpolatingParam id="1515" interp="linr"  time="-9999999/1" value="1" leadInLength="0/1"  />
             </VectorParam>
             <VectorParam id="1516"  name="anchor">
              <InterpolatingParam id="1517" interp="linr"  time="0/1" value="0" leadInLength="0/1"  />
              <InterpolatingParam id="1518" interp="linr"  time="0/1" value="0" leadInLength="0/1"  />
              <InterpolatingParam id="1519" interp="linr"  time="0/1" value="0" leadInLength="0/1"  />
             </VectorParam>
            </Transformer>
            <Parameters>
             <VectorParam id="1520"  name="sourceCrop">
              <InterpolatingParam id="1521" interp="linr"  time="0/1" value="0" leadInLength="0/1"  />
              <InterpolatingParam id="1522" interp="linr"  time="0/1" value="0" leadInLength="0/1"  />
              <InterpolatingParam id="1523" interp="linr"  time="0/1" value="0" leadInLength="0/1"  />
              <InterpolatingParam id="1524" interp="linr"  time="0/1" value="0" leadInLength="0/1"  />
             </VectorParam>
             <VectorParam id="1525"  name="geometryCrop">
              <InterpolatingParam id="1526" interp="linr"  time="-9999999/1" value="0" leadInLength="0/1"  />
              <InterpolatingParam id="1527" interp="linr"  time="-9999999/1" value="0" leadInLength="0/1"  />
              <InterpolatingParam id="1528" interp="linr"  time="-9999999/1" value="0" leadInLength="0/1"  />
              <InterpolatingParam id="1529" interp="linr"  time="-9999999/1" value="0" leadInLength="0/1"  />
             </VectorParam>
             <InterpolatingParam id="1530" interp="linr"  time="-9999999/1" value="1" leadInLength="0/1"  name="opacity"/>
             <InterpolatingParam id="1531" interp="linr"  time="0/1" value="0" leadInLength="0/1"  name="cursorOpacity"/>
             <InterpolatingParam id="1532" interp="linr"  time="0/1" value="0" leadInLength="0/1"  name="cursorScale"/>
            </Parameters>
            <Attributes>
             <Attribute id="1533" value="" name="ident"/>
            </Attributes>
            <MetaData>
             <entry key="AutoAppliedSmartFocus" val="False"/>
             <entry key="WinSubProjectDisplayName" val=""/>
            </MetaData>
            <ExtraData>
             <Entry key="ZoomPanBin">
              <ZoomPanBin id="1534"  >
               <ZoomPanKeyframes>
                <ZoomPanKeyframe id="1535" timeRangeEnd="-9999999/1" timeRangeDuration="0/1" interpolaterName="linr"  />
               </ZoomPanKeyframes>
              </ZoomPanBin>
             </Entry>
             <Entry key="CursorEffectBin">
              <CursorEffectBin id="1536"  >
               <CursorEffectKeyframes>
               </CursorEffectKeyframes>
              </CursorEffectBin>
             </Entry>
            </ExtraData>
           </ScreenVMFile>
          </Medias>
         </GenericTrack>
        </StitchedMedia>
       </Medias>
      </GenericTrack>
      <GenericTrack id="1537"  >
       <Attributes>
        <Attribute id="1538" value="" name="ident"/>
       </Attributes>
       <MetaData>
        <entry key="IsLocked" val="False"/>
        <entry key="WinTrackHeight" val="62"/>
       </MetaData>
       <Medias>
        <AMFile id="1539" start="0" duration="3503" scalar="1/1" mediaStart="0/1" mediaDuration="3503/1" trackNumber="1" src="5" channelNumber="0" >
         <Parameters>
          <InterpolatingParam id="1540" interp="linr"  name="volume">
           <Keyframes>
           <Keyframe id="1541"  time="0/1" value="3.7054560804868566" leadInLength="0/1"  />
           <Keyframe id="1542"  time="1510/1" value="3.7054560804868566" leadInLength="0/1"  />
           <Keyframe id="1543"  time="1511/1" value="0" leadInLength="0/1"  />
           <Keyframe id="1544"  time="1546/1" value="0" leadInLength="0/1"  />
           <Keyframe id="1545"  time="1547/1" value="1.8663594470046081" leadInLength="0/1"  />
           <Keyframe id="1546"  time="2332/1" value="1.8663594470046081" leadInLength="0/1"  />
           <Keyframe id="1547"  time="2333/1" value="0" leadInLength="0/1"  />
           <Keyframe id="1548"  time="2380/1" value="0" leadInLength="0/1"  />
           <Keyframe id="1549"  time="2381/1" value="1.8663594470046081" leadInLength="0/1"  />
           <Keyframe id="1550"  time="2549/1" value="1.8663594470046081" leadInLength="0/1"  />
           <Keyframe id="1551"  time="2550/1" value="0" leadInLength="0/1"  />
           <Keyframe id="1552"  time="2563/1" value="0" leadInLength="0/1"  />
           <Keyframe id="1553"  time="2564/1" value="1.8663594470046081" leadInLength="0/1"  />
           </Keyframes>
          </InterpolatingParam>
          <Parameter id="1554"  name="captions"/>
         </Parameters>
         <Attributes>
          <Attribute id="1555" value="" name="ident"/>
          <Attribute id="1556" value="22050" name="sampleRate"/>
          <Attribute id="1557" value="16" name="bitDepth"/>
          <Attribute id="1558" value="1" name="gain"/>
         </Attributes>
         <MetaData>
          <entry key="WinSubProjectDisplayName" val=""/>
         </MetaData>
        </AMFile>
        <StitchedMedia id="1559" start="3503" duration="4067" scalar="1/1" mediaStart="28/1" mediaDuration="4067/1" minMediaStart="0/1" >
         <Transformer>
          <VectorParam id="1560"  name="translation">
           <InterpolatingParam id="1561" interp="linr"  time="0/1" value="0" leadInLength="0/1"  />
           <InterpolatingParam id="1562" interp="linr"  time="0/1" value="0" leadInLength="0/1"  />
           <InterpolatingParam id="1563" interp="linr"  time="0/1" value="0" leadInLength="0/1"  />
          </VectorParam>
          <VectorParam id="1564"  name="rotation">
           <InterpolatingParam id="1565" interp="linr"  time="0/1" value="0" leadInLength="0/1"  />
           <InterpolatingParam id="1566" interp="linr"  time="0/1" value="0" leadInLength="0/1"  />
           <InterpolatingParam id="1567" interp="linr"  time="0/1" value="0" leadInLength="0/1"  />
          </VectorParam>
          <VectorParam id="1568"  name="shear">
           <InterpolatingParam id="1569" interp="linr"  time="0/1" value="0" leadInLength="0/1"  />
           <InterpolatingParam id="1570" interp="linr"  time="0/1" value="0" leadInLength="0/1"  />
           <InterpolatingParam id="1571" interp="linr"  time="0/1" value="0" leadInLength="0/1"  />
          </VectorParam>
          <VectorParam id="1572"  name="scale">
           <InterpolatingParam id="1573" interp="linr"  time="0/1" value="1" leadInLength="0/1"  />
           <InterpolatingParam id="1574" interp="linr"  time="0/1" value="1" leadInLength="0/1"  />
           <InterpolatingParam id="1575" interp="linr"  time="0/1" value="1" leadInLength="0/1"  />
          </VectorParam>
          <VectorParam id="1576"  name="anchor">
           <InterpolatingParam id="1577" interp="linr"  time="0/1" value="0" leadInLength="0/1"  />
           <InterpolatingParam id="1578" interp="linr"  time="0/1" value="0" leadInLength="0/1"  />
           <InterpolatingParam id="1579" interp="linr"  time="0/1" value="0" leadInLength="0/1"  />
          </VectorParam>
         </Transformer>
         <Parameters>
          <InterpolatingParam id="1580" interp="linr"  time="0/1" value="1" leadInLength="0/1"  name="cursorOpacity"/>
          <InterpolatingParam id="1581" interp="linr"  time="0/1" value="1" leadInLength="0/1"  name="cursorScale"/>
          <InterpolatingParam id="1582" interp="linr"  name="volume">
           <Keyframes>
           <Keyframe id="1583"  time="0/1" value="3.8897878777218793" leadInLength="0/1"  />
           <Keyframe id="1584"  time="2249/1" value="3.8897878777218793" leadInLength="0/1"  />
           <Keyframe id="1585"  time="2250/1" value="0" leadInLength="0/1"  />
           <Keyframe id="1586"  time="2282/1" value="0" leadInLength="0/1"  />
           <Keyframe id="1587"  time="2283/1" value="3.8897878777218793" leadInLength="0/1"  />
           <Keyframe id="1588"  time="2328/1" value="3.8897878777218793" leadInLength="0/1"  />
           <Keyframe id="1589"  time="2329/1" value="0" leadInLength="0/1"  />
           <Keyframe id="1590"  time="2342/1" value="0" leadInLength="0/1"  />
           <Keyframe id="1591"  time="2343/1" value="3.7054560804868562" leadInLength="0/1"  />
           </Keyframes>
          </InterpolatingParam>
          <Parameter id="1592"  name="captions"/>
         </Parameters>
         <Attributes>
          <Attribute id="1593" value="" name="ident"/>
         </Attributes>
         <MetaData>
          <entry key="WinSubProjectDisplayName" val=""/>
         </MetaData>
         <ExtraData>
          <Entry key="ZoomPanBin">
           <ZoomPanBin id="1594"  >
            <ZoomPanKeyframes>
            </ZoomPanKeyframes>
           </ZoomPanBin>
          </Entry>
          <Entry key="CursorEffectBin">
           <CursorEffectBin id="1595"  >
            <CursorEffectKeyframes>
            </CursorEffectKeyframes>
           </CursorEffectBin>
          </Entry>
         </ExtraData>
         <GenericTrack id="1596"  >
          <Attributes>
           <Attribute id="1597" value="" name="ident"/>
          </Attributes>
          <MetaData>
           <entry key="IsLocked" val="False"/>
           <entry key="WinTrackHeight" val="0"/>
          </MetaData>
          <Medias>
           <AMFile id="1598" start="0" duration="4093" scalar="1/1" mediaStart="0/1" mediaDuration="4093/1" trackNumber="1" src="6" channelNumber="0" >
            <Parameters>
             <InterpolatingParam id="1599" interp="linr"  time="0/1" value="1" leadInLength="0/1"  name="volume"/>
             <Parameter id="1600"  name="captions"/>
            </Parameters>
            <Attributes>
             <Attribute id="1601" value="" name="ident"/>
             <Attribute id="1602" value="22050" name="sampleRate"/>
             <Attribute id="1603" value="16" name="bitDepth"/>
             <Attribute id="1604" value="1" name="gain"/>
            </Attributes>
            <MetaData>
             <entry key="WinSubProjectDisplayName" val=""/>
            </MetaData>
           </AMFile>
           <AMFile id="1605" start="4093" duration="5394" scalar="1/1" mediaStart="4323/1" mediaDuration="5394/1" trackNumber="1" src="6" channelNumber="0" >
            <Parameters>
             <InterpolatingParam id="1606" interp="linr"  time="0/1" value="1" leadInLength="0/1"  name="volume"/>
             <Parameter id="1607"  name="captions"/>
            </Parameters>
            <Attributes>
             <Attribute id="1608" value="" name="ident"/>
             <Attribute id="1609" value="22050" name="sampleRate"/>
             <Attribute id="1610" value="16" name="bitDepth"/>
             <Attribute id="1611" value="1" name="gain"/>
            </Attributes>
            <MetaData>
             <entry key="WinSubProjectDisplayName" val=""/>
            </MetaData>
           </AMFile>
          </Medias>
         </GenericTrack>
        </StitchedMedia>
        <StitchedMedia id="1612" start="7570" duration="288" scalar="1/1" mediaStart="4095/1" mediaDuration="288/1" minMediaStart="0/1" >
         <Transformer>
          <VectorParam id="1613"  name="translation">
           <InterpolatingParam id="1614" interp="linr"  time="0/1" value="0" leadInLength="0/1"  />
           <InterpolatingParam id="1615" interp="linr"  time="0/1" value="0" leadInLength="0/1"  />
           <InterpolatingParam id="1616" interp="linr"  time="0/1" value="0" leadInLength="0/1"  />
          </VectorParam>
          <VectorParam id="1617"  name="rotation">
           <InterpolatingParam id="1618" interp="linr"  time="0/1" value="0" leadInLength="0/1"  />
           <InterpolatingParam id="1619" interp="linr"  time="0/1" value="0" leadInLength="0/1"  />
           <InterpolatingParam id="1620" interp="linr"  time="0/1" value="0" leadInLength="0/1"  />
          </VectorParam>
          <VectorParam id="1621"  name="shear">
           <InterpolatingParam id="1622" interp="linr"  time="0/1" value="0" leadInLength="0/1"  />
           <InterpolatingParam id="1623" interp="linr"  time="0/1" value="0" leadInLength="0/1"  />
           <InterpolatingParam id="1624" interp="linr"  time="0/1" value="0" leadInLength="0/1"  />
          </VectorParam>
          <VectorParam id="1625"  name="scale">
           <InterpolatingParam id="1626" interp="linr"  time="0/1" value="1" leadInLength="0/1"  />
           <InterpolatingParam id="1627" interp="linr"  time="0/1" value="1" leadInLength="0/1"  />
           <InterpolatingParam id="1628" interp="linr"  time="0/1" value="1" leadInLength="0/1"  />
          </VectorParam>
          <VectorParam id="1629"  name="anchor">
           <InterpolatingParam id="1630" interp="linr"  time="0/1" value="0" leadInLength="0/1"  />
           <InterpolatingParam id="1631" interp="linr"  time="0/1" value="0" leadInLength="0/1"  />
           <InterpolatingParam id="1632" interp="linr"  time="0/1" value="0" leadInLength="0/1"  />
          </VectorParam>
         </Transformer>
         <Parameters>
          <InterpolatingParam id="1633" interp="linr"  time="0/1" value="1" leadInLength="0/1"  name="cursorOpacity"/>
          <InterpolatingParam id="1634" interp="linr"  time="0/1" value="1" leadInLength="0/1"  name="cursorScale"/>
          <InterpolatingParam id="1635" interp="linr"  name="volume">
           <Keyframes>
           <Keyframe id="1636"  time="0/1" value="1.8663594470046081" leadInLength="0/1"  />
           <Keyframe id="1637"  time="2249/1" value="1.8663594470046081" leadInLength="0/1"  />
           <Keyframe id="1638"  time="2250/1" value="0" leadInLength="0/1"  />
           <Keyframe id="1639"  time="2282/1" value="0" leadInLength="0/1"  />
           <Keyframe id="1640"  time="2283/1" value="1.8663594470046081" leadInLength="0/1"  />
           <Keyframe id="1641"  time="2328/1" value="1.8663594470046081" leadInLength="0/1"  />
           <Keyframe id="1642"  time="2329/1" value="0" leadInLength="0/1"  />
           <Keyframe id="1643"  time="2342/1" value="0" leadInLength="0/1"  />
           <Keyframe id="1644"  time="2343/1" value="3.7054560804868562" leadInLength="0/1"  />
           </Keyframes>
          </InterpolatingParam>
          <Parameter id="1645"  name="captions"/>
         </Parameters>
         <Attributes>
          <Attribute id="1646" value="" name="ident"/>
         </Attributes>
         <MetaData>
          <entry key="WinSubProjectDisplayName" val=""/>
         </MetaData>
         <ExtraData>
          <Entry key="ZoomPanBin">
           <ZoomPanBin id="1647"  >
            <ZoomPanKeyframes>
            </ZoomPanKeyframes>
           </ZoomPanBin>
          </Entry>
          <Entry key="CursorEffectBin">
           <CursorEffectBin id="1648"  >
            <CursorEffectKeyframes>
            </CursorEffectKeyframes>
           </CursorEffectBin>
          </Entry>
         </ExtraData>
         <GenericTrack id="1649"  >
          <Attributes>
           <Attribute id="1650" value="" name="ident"/>
          </Attributes>
          <MetaData>
           <entry key="IsLocked" val="False"/>
           <entry key="WinTrackHeight" val="0"/>
          </MetaData>
          <Medias>
           <AMFile id="1651" start="0" duration="4093" scalar="1/1" mediaStart="0/1" mediaDuration="4093/1" trackNumber="1" src="6" channelNumber="0" >
            <Parameters>
             <InterpolatingParam id="1652" interp="linr"  time="0/1" value="1" leadInLength="0/1"  name="volume"/>
             <Parameter id="1653"  name="captions"/>
            </Parameters>
            <Attributes>
             <Attribute id="1654" value="" name="ident"/>
             <Attribute id="1655" value="22050" name="sampleRate"/>
             <Attribute id="1656" value="16" name="bitDepth"/>
             <Attribute id="1657" value="1" name="gain"/>
            </Attributes>
            <MetaData>
             <entry key="WinSubProjectDisplayName" val=""/>
            </MetaData>
           </AMFile>
           <AMFile id="1658" start="4093" duration="5394" scalar="1/1" mediaStart="4323/1" mediaDuration="5394/1" trackNumber="1" src="6" channelNumber="0" >
            <Parameters>
             <InterpolatingParam id="1659" interp="linr"  time="0/1" value="1" leadInLength="0/1"  name="volume"/>
             <Parameter id="1660"  name="captions"/>
            </Parameters>
            <Attributes>
             <Attribute id="1661" value="" name="ident"/>
             <Attribute id="1662" value="22050" name="sampleRate"/>
             <Attribute id="1663" value="16" name="bitDepth"/>
             <Attribute id="1664" value="1" name="gain"/>
            </Attributes>
            <MetaData>
             <entry key="WinSubProjectDisplayName" val=""/>
            </MetaData>
           </AMFile>
          </Medias>
         </GenericTrack>
        </StitchedMedia>
        <AMFile id="1665" start="7858" duration="3435" scalar="1/1" mediaStart="0/1" mediaDuration="3435/1" trackNumber="1" src="7" channelNumber="0" >
         <Parameters>
          <InterpolatingParam id="1666" interp="linr"  name="volume">
           <Keyframes>
           <Keyframe id="1667"  time="0/1" value="3.7054560804868566" leadInLength="0/1"  />
           <Keyframe id="1668"  time="2744/1" value="3.7054560804868566" leadInLength="0/1"  />
           <Keyframe id="1669"  time="2745/1" value="0" leadInLength="0/1"  />
           <Keyframe id="1670"  time="2765/1" value="0" leadInLength="0/1"  />
           <Keyframe id="1671"  time="2766/1" value="3.7054560804868562" leadInLength="0/1"  />
           </Keyframes>
          </InterpolatingParam>
          <Parameter id="1672"  name="captions"/>
         </Parameters>
         <Attributes>
          <Attribute id="1673" value="" name="ident"/>
          <Attribute id="1674" value="22050" name="sampleRate"/>
          <Attribute id="1675" value="16" name="bitDepth"/>
          <Attribute id="1676" value="1" name="gain"/>
         </Attributes>
         <MetaData>
          <entry key="WinSubProjectDisplayName" val=""/>
         </MetaData>
        </AMFile>
        <StitchedMedia id="1677" start="11293" duration="3633" scalar="1/1" mediaStart="49/1" mediaDuration="3633/1" minMediaStart="0/1" >
         <Transformer>
          <VectorParam id="1678"  name="translation">
           <InterpolatingParam id="1679" interp="linr"  time="0/1" value="0" leadInLength="0/1"  />
           <InterpolatingParam id="1680" interp="linr"  time="0/1" value="0" leadInLength="0/1"  />
           <InterpolatingParam id="1681" interp="linr"  time="0/1" value="0" leadInLength="0/1"  />
          </VectorParam>
          <VectorParam id="1682"  name="rotation">
           <InterpolatingParam id="1683" interp="linr"  time="0/1" value="0" leadInLength="0/1"  />
           <InterpolatingParam id="1684" interp="linr"  time="0/1" value="0" leadInLength="0/1"  />
           <InterpolatingParam id="1685" interp="linr"  time="0/1" value="0" leadInLength="0/1"  />
          </VectorParam>
          <VectorParam id="1686"  name="shear">
           <InterpolatingParam id="1687" interp="linr"  time="0/1" value="0" leadInLength="0/1"  />
           <InterpolatingParam id="1688" interp="linr"  time="0/1" value="0" leadInLength="0/1"  />
           <InterpolatingParam id="1689" interp="linr"  time="0/1" value="0" leadInLength="0/1"  />
          </VectorParam>
          <VectorParam id="1690"  name="scale">
           <InterpolatingParam id="1691" interp="linr"  time="0/1" value="1" leadInLength="0/1"  />
           <InterpolatingParam id="1692" interp="linr"  time="0/1" value="1" leadInLength="0/1"  />
           <InterpolatingParam id="1693" interp="linr"  time="0/1" value="1" leadInLength="0/1"  />
          </VectorParam>
          <VectorParam id="1694"  name="anchor">
           <InterpolatingParam id="1695" interp="linr"  time="0/1" value="0" leadInLength="0/1"  />
           <InterpolatingParam id="1696" interp="linr"  time="0/1" value="0" leadInLength="0/1"  />
           <InterpolatingParam id="1697" interp="linr"  time="0/1" value="0" leadInLength="0/1"  />
          </VectorParam>
         </Transformer>
         <Parameters>
          <InterpolatingParam id="1698" interp="linr"  time="0/1" value="1" leadInLength="0/1"  name="cursorOpacity"/>
          <InterpolatingParam id="1699" interp="linr"  time="0/1" value="1" leadInLength="0/1"  name="cursorScale"/>
          <InterpolatingParam id="1700" interp="linr"  time="0/1" value="3.7054560804868562" leadInLength="0/1"  name="volume"/>
          <Parameter id="1701"  name="captions"/>
         </Parameters>
         <Attributes>
          <Attribute id="1702" value="" name="ident"/>
         </Attributes>
         <MetaData>
          <entry key="WinSubProjectDisplayName" val=""/>
         </MetaData>
         <ExtraData>
          <Entry key="ZoomPanBin">
           <ZoomPanBin id="1703"  >
            <ZoomPanKeyframes>
            </ZoomPanKeyframes>
           </ZoomPanBin>
          </Entry>
          <Entry key="CursorEffectBin">
           <CursorEffectBin id="1704"  >
            <CursorEffectKeyframes>
            </CursorEffectKeyframes>
           </CursorEffectBin>
          </Entry>
         </ExtraData>
         <GenericTrack id="1705"  >
          <Attributes>
           <Attribute id="1706" value="" name="ident"/>
          </Attributes>
          <MetaData>
           <entry key="IsLocked" val="False"/>
           <entry key="WinTrackHeight" val="0"/>
          </MetaData>
          <Medias>
           <AMFile id="1707" start="0" duration="423" scalar="1/1" mediaStart="0/1" mediaDuration="423/1" trackNumber="1" src="8" channelNumber="0" >
            <Parameters>
             <InterpolatingParam id="1708" interp="linr"  time="0/1" value="1" leadInLength="0/1"  name="volume"/>
             <Parameter id="1709"  name="captions"/>
            </Parameters>
            <Attributes>
             <Attribute id="1710" value="" name="ident"/>
             <Attribute id="1711" value="22050" name="sampleRate"/>
             <Attribute id="1712" value="16" name="bitDepth"/>
             <Attribute id="1713" value="1" name="gain"/>
            </Attributes>
            <MetaData>
             <entry key="WinSubProjectDisplayName" val=""/>
            </MetaData>
           </AMFile>
           <AMFile id="1714" start="423" duration="374" scalar="1/1" mediaStart="491/1" mediaDuration="374/1" trackNumber="1" src="8" channelNumber="0" >
            <Parameters>
             <InterpolatingParam id="1715" interp="linr"  time="0/1" value="1" leadInLength="0/1"  name="volume"/>
             <Parameter id="1716"  name="captions"/>
            </Parameters>
            <Attributes>
             <Attribute id="1717" value="" name="ident"/>
             <Attribute id="1718" value="22050" name="sampleRate"/>
             <Attribute id="1719" value="16" name="bitDepth"/>
             <Attribute id="1720" value="1" name="gain"/>
            </Attributes>
            <MetaData>
             <entry key="WinSubProjectDisplayName" val=""/>
            </MetaData>
           </AMFile>
           <AMFile id="1721" start="797" duration="1773" scalar="1/1" mediaStart="912/1" mediaDuration="1773/1" trackNumber="1" src="8" channelNumber="0" >
            <Parameters>
             <InterpolatingParam id="1722" interp="linr"  time="0/1" value="1" leadInLength="0/1"  name="volume"/>
             <Parameter id="1723"  name="captions"/>
            </Parameters>
            <Attributes>
             <Attribute id="1724" value="" name="ident"/>
             <Attribute id="1725" value="22050" name="sampleRate"/>
             <Attribute id="1726" value="16" name="bitDepth"/>
             <Attribute id="1727" value="1" name="gain"/>
            </Attributes>
            <MetaData>
             <entry key="WinSubProjectDisplayName" val=""/>
            </MetaData>
           </AMFile>
           <AMFile id="1728" start="2570" duration="1958" scalar="1/1" mediaStart="4147/1" mediaDuration="1958/1" trackNumber="1" src="8" channelNumber="0" >
            <Parameters>
             <InterpolatingParam id="1729" interp="linr"  time="0/1" value="1" leadInLength="0/1"  name="volume"/>
             <Parameter id="1730"  name="captions"/>
            </Parameters>
            <Attributes>
             <Attribute id="1731" value="" name="ident"/>
             <Attribute id="1732" value="22050" name="sampleRate"/>
             <Attribute id="1733" value="16" name="bitDepth"/>
             <Attribute id="1734" value="1" name="gain"/>
            </Attributes>
            <MetaData>
             <entry key="WinSubProjectDisplayName" val=""/>
            </MetaData>
           </AMFile>
          </Medias>
         </GenericTrack>
        </StitchedMedia>
        <AMFile id="1735" start="14926" duration="865" scalar="1/1" mediaStart="72/1" mediaDuration="865/1" trackNumber="1" src="9" channelNumber="0" >
         <Parameters>
          <InterpolatingParam id="1736" interp="linr"  time="0/1" value="3.7054560804868562" leadInLength="0/1"  name="volume"/>
          <Parameter id="1737"  name="captions"/>
         </Parameters>
         <Attributes>
          <Attribute id="1738" value="" name="ident"/>
          <Attribute id="1739" value="22050" name="sampleRate"/>
          <Attribute id="1740" value="16" name="bitDepth"/>
          <Attribute id="1741" value="1" name="gain"/>
         </Attributes>
         <MetaData>
          <entry key="WinSubProjectDisplayName" val=""/>
         </MetaData>
        </AMFile>
        <StitchedMedia id="1742" start="15791" duration="4530" scalar="1/1" mediaStart="0/1" mediaDuration="4530/1" minMediaStart="0/1" >
         <Transformer>
          <VectorParam id="1743"  name="translation">
           <InterpolatingParam id="1744" interp="linr"  time="0/1" value="0" leadInLength="0/1"  />
           <InterpolatingParam id="1745" interp="linr"  time="0/1" value="0" leadInLength="0/1"  />
           <InterpolatingParam id="1746" interp="linr"  time="0/1" value="0" leadInLength="0/1"  />
          </VectorParam>
          <VectorParam id="1747"  name="rotation">
           <InterpolatingParam id="1748" interp="linr"  time="0/1" value="0" leadInLength="0/1"  />
           <InterpolatingParam id="1749" interp="linr"  time="0/1" value="0" leadInLength="0/1"  />
           <InterpolatingParam id="1750" interp="linr"  time="0/1" value="0" leadInLength="0/1"  />
          </VectorParam>
          <VectorParam id="1751"  name="shear">
           <InterpolatingParam id="1752" interp="linr"  time="0/1" value="0" leadInLength="0/1"  />
           <InterpolatingParam id="1753" interp="linr"  time="0/1" value="0" leadInLength="0/1"  />
           <InterpolatingParam id="1754" interp="linr"  time="0/1" value="0" leadInLength="0/1"  />
          </VectorParam>
          <VectorParam id="1755"  name="scale">
           <InterpolatingParam id="1756" interp="linr"  time="0/1" value="1" leadInLength="0/1"  />
           <InterpolatingParam id="1757" interp="linr"  time="0/1" value="1" leadInLength="0/1"  />
           <InterpolatingParam id="1758" interp="linr"  time="0/1" value="1" leadInLength="0/1"  />
          </VectorParam>
          <VectorParam id="1759"  name="anchor">
           <InterpolatingParam id="1760" interp="linr"  time="0/1" value="0" leadInLength="0/1"  />
           <InterpolatingParam id="1761" interp="linr"  time="0/1" value="0" leadInLength="0/1"  />
           <InterpolatingParam id="1762" interp="linr"  time="0/1" value="0" leadInLength="0/1"  />
          </VectorParam>
         </Transformer>
         <Parameters>
          <InterpolatingParam id="1763" interp="linr"  time="0/1" value="1" leadInLength="0/1"  name="cursorOpacity"/>
          <InterpolatingParam id="1764" interp="linr"  time="0/1" value="1" leadInLength="0/1"  name="cursorScale"/>
          <InterpolatingParam id="1765" interp="linr"  time="0/1" value="3.7054560804868562" leadInLength="0/1"  name="volume"/>
          <Parameter id="1766"  name="captions"/>
         </Parameters>
         <Attributes>
          <Attribute id="1767" value="" name="ident"/>
         </Attributes>
         <MetaData>
          <entry key="WinSubProjectDisplayName" val=""/>
         </MetaData>
         <ExtraData>
          <Entry key="ZoomPanBin">
           <ZoomPanBin id="1768"  >
            <ZoomPanKeyframes>
            </ZoomPanKeyframes>
           </ZoomPanBin>
          </Entry>
          <Entry key="CursorEffectBin">
           <CursorEffectBin id="1769"  >
            <CursorEffectKeyframes>
            </CursorEffectKeyframes>
           </CursorEffectBin>
          </Entry>
         </ExtraData>
         <GenericTrack id="1770"  >
          <Attributes>
           <Attribute id="1771" value="" name="ident"/>
          </Attributes>
          <MetaData>
           <entry key="IsLocked" val="False"/>
           <entry key="WinTrackHeight" val="0"/>
          </MetaData>
          <Medias>
           <AMFile id="1772" start="0" duration="360" scalar="1/1" mediaStart="0/1" mediaDuration="360/1" trackNumber="1" src="10" channelNumber="0" >
            <Parameters>
             <InterpolatingParam id="1773" interp="linr"  time="0/1" value="1" leadInLength="0/1"  name="volume"/>
             <Parameter id="1774"  name="captions"/>
            </Parameters>
            <Attributes>
             <Attribute id="1775" value="" name="ident"/>
             <Attribute id="1776" value="22050" name="sampleRate"/>
             <Attribute id="1777" value="16" name="bitDepth"/>
             <Attribute id="1778" value="1" name="gain"/>
            </Attributes>
            <MetaData>
             <entry key="WinSubProjectDisplayName" val=""/>
            </MetaData>
           </AMFile>
           <AMFile id="1779" start="360" duration="1453" scalar="1/1" mediaStart="631/1" mediaDuration="1453/1" trackNumber="1" src="10" channelNumber="0" >
            <Parameters>
             <InterpolatingParam id="1780" interp="linr"  time="0/1" value="1" leadInLength="0/1"  name="volume"/>
             <Parameter id="1781"  name="captions"/>
            </Parameters>
            <Attributes>
             <Attribute id="1782" value="" name="ident"/>
             <Attribute id="1783" value="22050" name="sampleRate"/>
             <Attribute id="1784" value="16" name="bitDepth"/>
             <Attribute id="1785" value="1" name="gain"/>
            </Attributes>
            <MetaData>
             <entry key="WinSubProjectDisplayName" val=""/>
            </MetaData>
           </AMFile>
           <AMFile id="1786" start="1813" duration="1654" scalar="1/1" mediaStart="2217/1" mediaDuration="1654/1" trackNumber="1" src="10" channelNumber="0" >
            <Parameters>
             <InterpolatingParam id="1787" interp="linr"  time="0/1" value="1" leadInLength="0/1"  name="volume"/>
             <Parameter id="1788"  name="captions"/>
            </Parameters>
            <Attributes>
             <Attribute id="1789" value="" name="ident"/>
             <Attribute id="1790" value="22050" name="sampleRate"/>
             <Attribute id="1791" value="16" name="bitDepth"/>
             <Attribute id="1792" value="1" name="gain"/>
            </Attributes>
            <MetaData>
             <entry key="WinSubProjectDisplayName" val=""/>
            </MetaData>
           </AMFile>
           <AMFile id="1793" start="3467" duration="626" scalar="1/1" mediaStart="4077/1" mediaDuration="626/1" trackNumber="1" src="10" channelNumber="0" >
            <Parameters>
             <InterpolatingParam id="1794" interp="linr"  time="0/1" value="1" leadInLength="0/1"  name="volume"/>
             <Parameter id="1795"  name="captions"/>
            </Parameters>
            <Attributes>
             <Attribute id="1796" value="" name="ident"/>
             <Attribute id="1797" value="22050" name="sampleRate"/>
             <Attribute id="1798" value="16" name="bitDepth"/>
             <Attribute id="1799" value="1" name="gain"/>
            </Attributes>
            <MetaData>
             <entry key="WinSubProjectDisplayName" val=""/>
            </MetaData>
           </AMFile>
           <AMFile id="1800" start="4093" duration="276" scalar="1/1" mediaStart="4876/1" mediaDuration="276/1" trackNumber="1" src="10" channelNumber="0" >
            <Parameters>
             <InterpolatingParam id="1801" interp="linr"  time="0/1" value="1" leadInLength="0/1"  name="volume"/>
             <Parameter id="1802"  name="captions"/>
            </Parameters>
            <Attributes>
             <Attribute id="1803" value="" name="ident"/>
             <Attribute id="1804" value="22050" name="sampleRate"/>
             <Attribute id="1805" value="16" name="bitDepth"/>
             <Attribute id="1806" value="1" name="gain"/>
            </Attributes>
            <MetaData>
             <entry key="WinSubProjectDisplayName" val=""/>
            </MetaData>
           </AMFile>
           <AMFile id="1807" start="4369" duration="339" scalar="1/1" mediaStart="5247/1" mediaDuration="339/1" trackNumber="1" src="10" channelNumber="0" >
            <Parameters>
             <InterpolatingParam id="1808" interp="linr"  time="0/1" value="1" leadInLength="0/1"  name="volume"/>
             <Parameter id="1809"  name="captions"/>
            </Parameters>
            <Attributes>
             <Attribute id="1810" value="" name="ident"/>
             <Attribute id="1811" value="22050" name="sampleRate"/>
             <Attribute id="1812" value="16" name="bitDepth"/>
             <Attribute id="1813" value="1" name="gain"/>
            </Attributes>
            <MetaData>
             <entry key="WinSubProjectDisplayName" val=""/>
            </MetaData>
           </AMFile>
          </Medias>
         </GenericTrack>
        </StitchedMedia>
        <StitchedMedia id="1814" start="20321" duration="1608" scalar="1/1" mediaStart="0/1" mediaDuration="1608/1" minMediaStart="0/1" >
         <Transformer>
          <VectorParam id="1815"  name="translation">
           <InterpolatingParam id="1816" interp="linr"  time="0/1" value="0" leadInLength="0/1"  />
           <InterpolatingParam id="1817" interp="linr"  time="0/1" value="0" leadInLength="0/1"  />
           <InterpolatingParam id="1818" interp="linr"  time="0/1" value="0" leadInLength="0/1"  />
          </VectorParam>
          <VectorParam id="1819"  name="rotation">
           <InterpolatingParam id="1820" interp="linr"  time="0/1" value="0" leadInLength="0/1"  />
           <InterpolatingParam id="1821" interp="linr"  time="0/1" value="0" leadInLength="0/1"  />
           <InterpolatingParam id="1822" interp="linr"  time="0/1" value="0" leadInLength="0/1"  />
          </VectorParam>
          <VectorParam id="1823"  name="shear">
           <InterpolatingParam id="1824" interp="linr"  time="0/1" value="0" leadInLength="0/1"  />
           <InterpolatingParam id="1825" interp="linr"  time="0/1" value="0" leadInLength="0/1"  />
           <InterpolatingParam id="1826" interp="linr"  time="0/1" value="0" leadInLength="0/1"  />
          </VectorParam>
          <VectorParam id="1827"  name="scale">
           <InterpolatingParam id="1828" interp="linr"  time="0/1" value="1" leadInLength="0/1"  />
           <InterpolatingParam id="1829" interp="linr"  time="0/1" value="1" leadInLength="0/1"  />
           <InterpolatingParam id="1830" interp="linr"  time="0/1" value="1" leadInLength="0/1"  />
          </VectorParam>
          <VectorParam id="1831"  name="anchor">
           <InterpolatingParam id="1832" interp="linr"  time="0/1" value="0" leadInLength="0/1"  />
           <InterpolatingParam id="1833" interp="linr"  time="0/1" value="0" leadInLength="0/1"  />
           <InterpolatingParam id="1834" interp="linr"  time="0/1" value="0" leadInLength="0/1"  />
          </VectorParam>
         </Transformer>
         <Parameters>
          <InterpolatingParam id="1835" interp="linr"  time="0/1" value="1" leadInLength="0/1"  name="cursorOpacity"/>
          <InterpolatingParam id="1836" interp="linr"  time="0/1" value="1" leadInLength="0/1"  name="cursorScale"/>
          <InterpolatingParam id="1837" interp="linr"  name="volume">
           <Keyframes>
           <Keyframe id="1838"  time="0/1" value="3.7054560804868566" leadInLength="0/1"  />
           <Keyframe id="1839"  time="1480/1" value="3.7054560804868566" leadInLength="0/1"  />
           <Keyframe id="1840"  time="1481/1" value="0" leadInLength="0/1"  />
           <Keyframe id="1841"  time="1608/1" value="0" leadInLength="0/1"  />
           <Keyframe id="1842"  time="1609/1" value="1.8663594470046081" leadInLength="0/1"  />
           </Keyframes>
          </InterpolatingParam>
          <Parameter id="1843"  name="captions"/>
         </Parameters>
         <Attributes>
          <Attribute id="1844" value="" name="ident"/>
         </Attributes>
         <MetaData>
          <entry key="WinSubProjectDisplayName" val=""/>
         </MetaData>
         <ExtraData>
          <Entry key="ZoomPanBin">
           <ZoomPanBin id="1845"  >
            <ZoomPanKeyframes>
            </ZoomPanKeyframes>
           </ZoomPanBin>
          </Entry>
          <Entry key="CursorEffectBin">
           <CursorEffectBin id="1846"  >
            <CursorEffectKeyframes>
            </CursorEffectKeyframes>
           </CursorEffectBin>
          </Entry>
         </ExtraData>
         <GenericTrack id="1847"  >
          <Attributes>
           <Attribute id="1848" value="" name="ident"/>
          </Attributes>
          <MetaData>
           <entry key="IsLocked" val="False"/>
           <entry key="WinTrackHeight" val="0"/>
          </MetaData>
          <Medias>
           <AMFile id="1849" start="0" duration="240" scalar="1/1" mediaStart="0/1" mediaDuration="240/1" trackNumber="1" src="4" channelNumber="0" >
            <Parameters>
             <InterpolatingParam id="1850" interp="linr"  time="0/1" value="1" leadInLength="0/1"  name="volume"/>
             <Parameter id="1851"  name="captions"/>
            </Parameters>
            <Attributes>
             <Attribute id="1852" value="" name="ident"/>
             <Attribute id="1853" value="22050" name="sampleRate"/>
             <Attribute id="1854" value="16" name="bitDepth"/>
             <Attribute id="1855" value="1" name="gain"/>
            </Attributes>
            <MetaData>
             <entry key="WinSubProjectDisplayName" val=""/>
            </MetaData>
           </AMFile>
           <AMFile id="1856" start="240" duration="90" scalar="1/1" mediaStart="502/1" mediaDuration="90/1" trackNumber="1" src="4" channelNumber="0" >
            <Parameters>
             <InterpolatingParam id="1857" interp="linr"  time="0/1" value="1" leadInLength="0/1"  name="volume"/>
             <Parameter id="1858"  name="captions"/>
            </Parameters>
            <Attributes>
             <Attribute id="1859" value="" name="ident"/>
             <Attribute id="1860" value="22050" name="sampleRate"/>
             <Attribute id="1861" value="16" name="bitDepth"/>
             <Attribute id="1862" value="1" name="gain"/>
            </Attributes>
            <MetaData>
             <entry key="WinSubProjectDisplayName" val=""/>
            </MetaData>
           </AMFile>
           <AMFile id="1863" start="330" duration="235" scalar="1/1" mediaStart="704/1" mediaDuration="235/1" trackNumber="1" src="4" channelNumber="0" >
            <Parameters>
             <InterpolatingParam id="1864" interp="linr"  time="0/1" value="1" leadInLength="0/1"  name="volume"/>
             <Parameter id="1865"  name="captions"/>
            </Parameters>
            <Attributes>
             <Attribute id="1866" value="" name="ident"/>
             <Attribute id="1867" value="22050" name="sampleRate"/>
             <Attribute id="1868" value="16" name="bitDepth"/>
             <Attribute id="1869" value="1" name="gain"/>
            </Attributes>
            <MetaData>
             <entry key="WinSubProjectDisplayName" val=""/>
            </MetaData>
           </AMFile>
           <AMFile id="1870" start="565" duration="71" scalar="1/1" mediaStart="1199/1" mediaDuration="71/1" trackNumber="1" src="4" channelNumber="0" >
            <Parameters>
             <InterpolatingParam id="1871" interp="linr"  time="0/1" value="1" leadInLength="0/1"  name="volume"/>
             <Parameter id="1872"  name="captions"/>
            </Parameters>
            <Attributes>
             <Attribute id="1873" value="" name="ident"/>
             <Attribute id="1874" value="22050" name="sampleRate"/>
             <Attribute id="1875" value="16" name="bitDepth"/>
             <Attribute id="1876" value="1" name="gain"/>
            </Attributes>
            <MetaData>
             <entry key="WinSubProjectDisplayName" val=""/>
            </MetaData>
           </AMFile>
           <AMFile id="1877" start="636" duration="69" scalar="1/1" mediaStart="1321/1" mediaDuration="69/1" trackNumber="1" src="4" channelNumber="0" >
            <Parameters>
             <InterpolatingParam id="1878" interp="linr"  time="0/1" value="1" leadInLength="0/1"  name="volume"/>
             <Parameter id="1879"  name="captions"/>
            </Parameters>
            <Attributes>
             <Attribute id="1880" value="" name="ident"/>
             <Attribute id="1881" value="22050" name="sampleRate"/>
             <Attribute id="1882" value="16" name="bitDepth"/>
             <Attribute id="1883" value="1" name="gain"/>
            </Attributes>
            <MetaData>
             <entry key="WinSubProjectDisplayName" val=""/>
            </MetaData>
           </AMFile>
           <AMFile id="1884" start="705" duration="392" scalar="1/1" mediaStart="1462/1" mediaDuration="392/1" trackNumber="1" src="4" channelNumber="0" >
            <Parameters>
             <InterpolatingParam id="1885" interp="linr"  time="0/1" value="1" leadInLength="0/1"  name="volume"/>
             <Parameter id="1886"  name="captions"/>
            </Parameters>
            <Attributes>
             <Attribute id="1887" value="" name="ident"/>
             <Attribute id="1888" value="22050" name="sampleRate"/>
             <Attribute id="1889" value="16" name="bitDepth"/>
             <Attribute id="1890" value="1" name="gain"/>
            </Attributes>
            <MetaData>
             <entry key="WinSubProjectDisplayName" val=""/>
            </MetaData>
           </AMFile>
           <AMFile id="1891" start="1097" duration="269" scalar="1/1" mediaStart="1946/1" mediaDuration="269/1" trackNumber="1" src="4" channelNumber="0" >
            <Parameters>
             <InterpolatingParam id="1892" interp="linr"  time="0/1" value="1" leadInLength="0/1"  name="volume"/>
             <Parameter id="1893"  name="captions"/>
            </Parameters>
            <Attributes>
             <Attribute id="1894" value="" name="ident"/>
             <Attribute id="1895" value="22050" name="sampleRate"/>
             <Attribute id="1896" value="16" name="bitDepth"/>
             <Attribute id="1897" value="1" name="gain"/>
            </Attributes>
            <MetaData>
             <entry key="WinSubProjectDisplayName" val=""/>
            </MetaData>
           </AMFile>
           <AMFile id="1898" start="1366" duration="246" scalar="1/1" mediaStart="2241/1" mediaDuration="246/1" trackNumber="1" src="4" channelNumber="0" >
            <Parameters>
             <InterpolatingParam id="1899" interp="linr"  time="0/1" value="1" leadInLength="0/1"  name="volume"/>
             <Parameter id="1900"  name="captions"/>
            </Parameters>
            <Attributes>
             <Attribute id="1901" value="" name="ident"/>
             <Attribute id="1902" value="22050" name="sampleRate"/>
             <Attribute id="1903" value="16" name="bitDepth"/>
             <Attribute id="1904" value="1" name="gain"/>
            </Attributes>
            <MetaData>
             <entry key="WinSubProjectDisplayName" val=""/>
            </MetaData>
           </AMFile>
          </Medias>
         </GenericTrack>
        </StitchedMedia>
       </Medias>
      </GenericTrack>
      <GenericTrack id="1905"  >
       <Attributes>
        <Attribute id="1906" value="" name="ident"/>
       </Attributes>
       <MetaData>
        <entry key="IsLocked" val="False"/>
        <entry key="WinTrackHeight" val="62"/>
       </MetaData>
       <Medias>
        <AMFile id="1907" start="21802" duration="906" scalar="1/1" mediaStart="0/1" mediaDuration="906/1" trackNumber="1" src="11" channelNumber="0" >
         <Parameters>
          <InterpolatingParam id="1908" interp="linr"  time="0/1" value="3.7054560804868562" leadInLength="0/1"  name="volume"/>
          <Parameter id="1909"  name="captions"/>
         </Parameters>
         <Attributes>
          <Attribute id="1910" value="" name="ident"/>
          <Attribute id="1911" value="22050" name="sampleRate"/>
          <Attribute id="1912" value="16" name="bitDepth"/>
          <Attribute id="1913" value="1" name="gain"/>
         </Attributes>
         <MetaData>
          <entry key="WinSubProjectDisplayName" val=""/>
         </MetaData>
        </AMFile>
       </Medias>
      </GenericTrack>
      <GenericTrack id="1914"  >
       <Attributes>
        <Attribute id="1915" value="" name="ident"/>
       </Attributes>
       <MetaData>
        <entry key="IsLocked" val="False"/>
        <entry key="WinTrackHeight" val="62"/>
       </MetaData>
       <Medias>
       </Medias>
      </GenericTrack>
      <GenericTrack id="1916"  >
       <Attributes>
        <Attribute id="1917" value="" name="ident"/>
       </Attributes>
       <MetaData>
        <entry key="IsLocked" val="False"/>
        <entry key="WinTrackHeight" val="62"/>
       </MetaData>
       <Medias>
       </Medias>
      </GenericTrack>
     </Tracks>
    </GenericMixer>
   <CaptionAttributes id="1918"  >
    <Attribute id="1919" value="1" name="captionsEnabled"/>
    <Attribute id="1920" value="Arial" name="captionsFontName"/>
    <Attribute id="1921" value="28" name="captionsFontSize"/>
    <Attribute id="1922" value="(0,0,0,255)" name="captionsBackgroundColor"/>
    <Attribute id="1923" value="(255,255,255,255)" name="captionsForegroundColor"/>
    <Attribute id="1924" value="en" name="lang"/>
    <Attribute id="1925" value="0" name="captionsAlignment"/>
    <Attribute id="1926" value="1" name="captionsDefaultFontSize"/>
    <Attribute id="1927" value="0.5" name="captionsOpacity"/>
    <Attribute id="1928" value="1" name="captionsBackgroundEnabled"/>
    <Attribute id="1929" value="1" name="captionsBackgroundOnlyAroundText"/>
   </CaptionAttributes>
   <Parameters>
    <VectorParam id="1930"  name="eyePosition">
     <InterpolatingParam id="1931" interp="linr"  time="0/1" value="0" leadInLength="0/1"  />
     <InterpolatingParam id="1932" interp="linr"  time="0/1" value="0" leadInLength="0/1"  />
     <InterpolatingParam id="1933" interp="linr"  time="0/1" value="3000" leadInLength="0/1"  />
    </VectorParam>
    <VectorParam id="1934"  name="eyeLookAtPosition">
     <InterpolatingParam id="1935" interp="linr"  time="0/1" value="0" leadInLength="0/1"  />
     <InterpolatingParam id="1936" interp="linr"  time="0/1" value="0" leadInLength="0/1"  />
     <InterpolatingParam id="1937" interp="linr"  time="0/1" value="0" leadInLength="0/1"  />
    </VectorParam>
    <VectorParam id="1938"  name="eyeUpVector">
     <InterpolatingParam id="1939" interp="linr"  time="0/1" value="0" leadInLength="0/1"  />
     <InterpolatingParam id="1940" interp="linr"  time="0/1" value="1" leadInLength="0/1"  />
     <InterpolatingParam id="1941" interp="linr"  time="0/1" value="0" leadInLength="0/1"  />
    </VectorParam>
    <InterpolatingParam id="1942" interp="linr"  time="0/1" value="0.23885785" leadInLength="0/1"  name="fov"/>
    <InterpolatingParam id="1943" interp="linr"  time="0/1" value="1.5" leadInLength="0/1"  name="nearClipDistance"/>
    <InterpolatingParam id="1944" interp="linr"  time="0/1" value="6000" leadInLength="0/1"  name="farClipDistance"/>
   </Parameters>
  </Timeline>
 </Project>
</GoProject>
</CSMLData>

</Project_Data>
