<?xml version="1.0"?>
<Project_Data Version="8.00">
<Project_Settings>
<ProfileName>MP4 only (up to 720p)</ProfileName>
<ProjectWidth>1024</ProjectWidth>
<ProjectHeight>768</ProjectHeight>
<IsCustomProject>1</IsCustomProject>
<SavedProjectSettings>1</SavedProjectSettings>
<LastFlashTemplate>-1</LastFlashTemplate>
</Project_Settings>


<AutoSaveFile>C:\Users\Scott\AppData\Local\TechSmith\Camtasia Studio\8.0\Auto-Saves\css15-17tablecss5ceca2.autosave.camproj</AutoSaveFile>

<ProjectID>F5CF17D5-9515-4816-BAAC-AC91EE1285B4</ProjectID>

<PowerPointProject>0</PowerPointProject>

<PowerPointFilename></PowerPointFilename>


<Project_Notes>
</Project_Notes>

<Project_MetaData>
<Project_MetaData_Object>
<FieldArrayKey>8</FieldArrayKey>
<Value>css15-17tablecss</Value>
</Project_MetaData_Object>
<Project_MetaData_Object>
<FieldArrayKey>13</FieldArrayKey>
<Value>2013-07-03 11:36:02 AM</Value>
</Project_MetaData_Object>
<Project_MetaData_Object>
<FieldArrayKey>16</FieldArrayKey>
<Value>ENU</Value>
</Project_MetaData_Object>
</Project_MetaData>

<CSMLData>
<GoProject id="1" version="3.0" >
 <Project id="2" editRate="30/1" version="3.0" >
  <Author></Author>
  <Comment></Comment>
  <System></System>
  <SourceBin id="3"  >
    <Source id="4" src="C:\Users\Scott\IECS\screencasts\css\buyflowerscss.camrec" lastMod="20130703T135526" rect="(0,0,1024,768)" >
      <SourceTrack range="(0,5519666667)" type="0" editRate="10000000/1" trackRect="(0,0,1024,768)" sampleRate="10000000/333333" bitDepth="24" numChannels="0" filename="buyflowerscss.camrec!Screen_Stream.avi" metaData="buyflowerscss.camrec!Events.dat;buyflowerscss.camrec!manifest.camxml;" />
      <SourceTrack range="(0,5522000000)" type="2" editRate="10000000/1" trackRect="(0,0,0,0)" sampleRate="22050/1" bitDepth="16" numChannels="1" filename="buyflowerscss.camrec!Screen_Stream.avi" metaData="" />
      <SourceTrack range="(0,5522000000)" type="2" editRate="10000000/1" trackRect="(0,0,0,0)" sampleRate="44100/1" bitDepth="16" numChannels="2" filename="buyflowerscss.camrec!SysAudio.wav" metaData="" />
    </Source>
    <Source id="5" src="C:\Users\Scott\IECS\screencasts\css\narration\tablecss\1.wav" lastMod="20130703T153721" rect="(0,0,0,0)" >
      <SourceTrack range="(0,281333333)" type="2" editRate="10000000/1" trackRect="(0,0,0,0)" sampleRate="22050/1" bitDepth="16" numChannels="1" filename="" metaData="" />
    </Source>
    <Source id="6" src="C:\Users\Scott\IECS\screencasts\css\narration\tablecss\2.wav" lastMod="20130703T154128" rect="(0,0,0,0)" >
      <SourceTrack range="(0,310000000)" type="2" editRate="10000000/1" trackRect="(0,0,0,0)" sampleRate="22050/1" bitDepth="16" numChannels="1" filename="" metaData="" />
    </Source>
    <Source id="7" src="C:\Users\Scott\IECS\screencasts\css\narration\tablecss\3.wav" lastMod="20130703T154212" rect="(0,0,0,0)" >
      <SourceTrack range="(0,97333333)" type="2" editRate="10000000/1" trackRect="(0,0,0,0)" sampleRate="22050/1" bitDepth="16" numChannels="1" filename="" metaData="" />
    </Source>
    <Source id="8" src="C:\Users\Scott\IECS\screencasts\css\narration\tablecss\4.wav" lastMod="20130703T154528" rect="(0,0,0,0)" >
      <SourceTrack range="(0,212333333)" type="2" editRate="10000000/1" trackRect="(0,0,0,0)" sampleRate="22050/1" bitDepth="16" numChannels="1" filename="" metaData="" />
    </Source>
    <Source id="9" src="C:\Users\Scott\IECS\screencasts\css\narration\tablecss\5.wav" lastMod="20130703T154612" rect="(0,0,0,0)" >
      <SourceTrack range="(0,166333333)" type="2" editRate="10000000/1" trackRect="(0,0,0,0)" sampleRate="22050/1" bitDepth="16" numChannels="1" filename="" metaData="" />
    </Source>
    <Source id="10" src="C:\Users\Scott\IECS\screencasts\css\narration\tablecss\6.wav" lastMod="20130703T154823" rect="(0,0,0,0)" >
      <SourceTrack range="(0,156333333)" type="2" editRate="10000000/1" trackRect="(0,0,0,0)" sampleRate="22050/1" bitDepth="16" numChannels="1" filename="" metaData="" />
    </Source>
    <Source id="11" src="C:\Users\Scott\IECS\screencasts\css\narration\tablecss\7.wav" lastMod="20130703T155008" rect="(0,0,0,0)" >
      <SourceTrack range="(0,311333333)" type="2" editRate="10000000/1" trackRect="(0,0,0,0)" sampleRate="22050/1" bitDepth="16" numChannels="1" filename="" metaData="" />
    </Source>
    <Source id="12" src="C:\Users\Scott\IECS\screencasts\css\narration\tablecss\8.wav" lastMod="20130703T155442" rect="(0,0,0,0)" >
      <SourceTrack range="(0,168666667)" type="2" editRate="10000000/1" trackRect="(0,0,0,0)" sampleRate="22050/1" bitDepth="16" numChannels="1" filename="" metaData="" />
    </Source>
    <Source id="13" src="C:\Users\Scott\IECS\screencasts\css\narration\tablecss\9.wav" lastMod="20130703T155625" rect="(0,0,0,0)" >
      <SourceTrack range="(0,206333333)" type="2" editRate="10000000/1" trackRect="(0,0,0,0)" sampleRate="22050/1" bitDepth="16" numChannels="1" filename="" metaData="" />
    </Source>
    <Source id="14" src="C:\Users\Scott\IECS\screencasts\css\narration\tablecss\10.wav" lastMod="20130703T155832" rect="(0,0,0,0)" >
      <SourceTrack range="(0,241333333)" type="2" editRate="10000000/1" trackRect="(0,0,0,0)" sampleRate="22050/1" bitDepth="16" numChannels="1" filename="" metaData="" />
    </Source>
    <Source id="15" src="C:\Users\Scott\IECS\screencasts\css\narration\tablecss\11.wav" lastMod="20130703T160008" rect="(0,0,0,0)" >
      <SourceTrack range="(0,356333333)" type="2" editRate="10000000/1" trackRect="(0,0,0,0)" sampleRate="22050/1" bitDepth="16" numChannels="1" filename="" metaData="" />
    </Source>
    <Source id="16" src="C:\Users\Scott\IECS\screencasts\css\narration\tablecss\12.wav" lastMod="20130703T165335" rect="(0,0,0,0)" >
      <SourceTrack range="(0,317333333)" type="2" editRate="10000000/1" trackRect="(0,0,0,0)" sampleRate="22050/1" bitDepth="16" numChannels="1" filename="" metaData="" />
    </Source>
    <Source id="17" src="C:\Users\Scott\IECS\screencasts\css\narration\tablecss\13.wav" lastMod="20130703T165536" rect="(0,0,0,0)" >
      <SourceTrack range="(0,228666667)" type="2" editRate="10000000/1" trackRect="(0,0,0,0)" sampleRate="22050/1" bitDepth="16" numChannels="1" filename="" metaData="" />
    </Source>
    <Source id="18" src="C:\Users\Scott\IECS\screencasts\css\narration\tablecss\14.wav" lastMod="20130703T165654" rect="(0,0,0,0)" >
      <SourceTrack range="(0,47333333)" type="2" editRate="10000000/1" trackRect="(0,0,0,0)" sampleRate="22050/1" bitDepth="16" numChannels="1" filename="" metaData="" />
    </Source>
    <Source id="19" src="C:\Users\Scott\IECS\screencasts\css\narration\tablecss\15.wav" lastMod="20130703T165953" rect="(0,0,0,0)" >
      <SourceTrack range="(0,261333333)" type="2" editRate="10000000/1" trackRect="(0,0,0,0)" sampleRate="22050/1" bitDepth="16" numChannels="1" filename="" metaData="" />
    </Source>
    <Source id="20" src="C:\Users\Scott\IECS\screencasts\css\narration\tablecss\16.wav" lastMod="20130703T170141" rect="(0,0,0,0)" >
      <SourceTrack range="(0,258666667)" type="2" editRate="10000000/1" trackRect="(0,0,0,0)" sampleRate="22050/1" bitDepth="16" numChannels="1" filename="" metaData="" />
    </Source>
  </SourceBin>
  <Timeline id="21"  >
   <Attributes>
    <Attribute id="22" value="1024" name="width"/>
    <Attribute id="23" value="768" name="height"/>
    <Attribute id="24" value="(0,0,0,255)" name="backgroundColor"/>
   </Attributes>
    <GenericMixer id="25"  name="Unified Mixer">
     <MetaData>
      <entry key="MixerType" val="TimelineMixer"/>
     </MetaData>
     <Tracks>
      <GenericTrack id="26"  >
       <Attributes>
        <Attribute id="27" value="" name="ident"/>
       </Attributes>
       <MetaData>
        <entry key="IsLocked" val="False"/>
        <entry key="WinTrackHeight" val="62"/>
       </MetaData>
       <Medias>
        <StitchedMedia id="28" start="0" duration="10577" scalar="1/1" mediaStart="0/1" mediaDuration="10577/1" minMediaStart="0/1" >
         <Transformer>
          <VectorParam id="29"  name="translation">
           <InterpolatingParam id="30" interp="linr"  >
            <Keyframes>
            <Keyframe id="31"  time="-9999999/1" value="0" leadInLength="0/1"  interpolater="leadin-linr"  />
            <Keyframe id="32"  time="554/1" value="-389.05286260021307" leadInLength="30/1"  interpolater="leadin-linr"  />
            <Keyframe id="33"  time="671/1" value="-9.8928841509859908e-005" leadInLength="30/1"  interpolater="leadin-linr"  />
            <Keyframe id="34"  time="2169/1" value="730.60132714359747" leadInLength="30/1"  interpolater="leadin-linr"  />
            <Keyframe id="35"  time="3385/1" value="-2.2737367544323206e-013" leadInLength="30/1"  interpolater="leadin-linr"  />
            <Keyframe id="36"  time="3654/1" value="329.17589805342539" leadInLength="30/1"  interpolater="leadin-linr"  />
            <Keyframe id="37"  time="4260/1" value="-2.8421709430404007e-014" leadInLength="30/1"  interpolater="leadin-linr"  />
            <Keyframe id="38"  time="5050/1" value="374.31054986790394" leadInLength="30/1"  interpolater="leadin-linr"  />
            <Keyframe id="39"  time="5390/1" value="-1.7053025658242404e-013" leadInLength="30/1"  interpolater="leadin-linr"  />
            <Keyframe id="40"  time="6152/1" value="892.37134223353416" leadInLength="30/1"  interpolater="leadin-linr"  />
            <Keyframe id="41"  time="7983/1" value="892.37133512349226" leadInLength="30/1"  interpolater="leadin-linr"  />
            <Keyframe id="42"  time="8653/1" value="-2.2737367544323206e-013" leadInLength="30/1"  interpolater="leadin-linr"  />
            <Keyframe id="43"  time="8915/1" value="356.82808697967255" leadInLength="30/1"  interpolater="leadin-linr"  />
            </Keyframes>
           </InterpolatingParam>
           <InterpolatingParam id="44" interp="linr"  >
            <Keyframes>
            <Keyframe id="45"  time="-9999999/1" value="0" leadInLength="0/1"  interpolater="leadin-linr"  />
            <Keyframe id="46"  time="554/1" value="-432.58311373241048" leadInLength="30/1"  interpolater="leadin-linr"  />
            <Keyframe id="47"  time="671/1" value="-3.3753318829710104e-005" leadInLength="30/1"  interpolater="leadin-linr"  />
            <Keyframe id="48"  time="2169/1" value="-381.85072262600056" leadInLength="30/1"  interpolater="leadin-linr"  />
            <Keyframe id="49"  time="3385/1" value="2.8421709430404007e-014" leadInLength="30/1"  interpolater="leadin-linr"  />
            <Keyframe id="50"  time="3654/1" value="12.221812632292162" leadInLength="30/1"  interpolater="leadin-linr"  />
            <Keyframe id="51"  time="4260/1" value="-7.1054273576010019e-014" leadInLength="30/1"  interpolater="leadin-linr"  />
            <Keyframe id="52"  time="5050/1" value="-69.53953371082757" leadInLength="30/1"  interpolater="leadin-linr"  />
            <Keyframe id="53"  time="5390/1" value="-3.5527136788005009e-014" leadInLength="30/1"  interpolater="leadin-linr"  />
            <Keyframe id="54"  time="6152/1" value="-122.42921608548875" leadInLength="30/1"  interpolater="leadin-linr"  />
            <Keyframe id="55"  time="7983/1" value="367.28754015162917" leadInLength="30/1"  interpolater="leadin-linr"  />
            <Keyframe id="56"  time="8653/1" value="-1.1368683772161603e-013" leadInLength="30/1"  interpolater="leadin-linr"  />
            <Keyframe id="57"  time="8915/1" value="-40.395795888622338" leadInLength="30/1"  interpolater="leadin-linr"  />
            </Keyframes>
           </InterpolatingParam>
           <InterpolatingParam id="58" interp="linr"  >
            <Keyframes>
            <Keyframe id="59"  time="-9999999/1" value="0" leadInLength="0/1"  interpolater="leadin-linr"  />
            <Keyframe id="60"  time="554/1" value="0" leadInLength="30/1"  interpolater="leadin-linr"  />
            <Keyframe id="61"  time="671/1" value="0" leadInLength="30/1"  interpolater="leadin-linr"  />
            <Keyframe id="62"  time="2169/1" value="0" leadInLength="30/1"  interpolater="leadin-linr"  />
            <Keyframe id="63"  time="3385/1" value="0" leadInLength="30/1"  interpolater="leadin-linr"  />
            <Keyframe id="64"  time="3654/1" value="0" leadInLength="30/1"  interpolater="leadin-linr"  />
            <Keyframe id="65"  time="4260/1" value="0" leadInLength="30/1"  interpolater="leadin-linr"  />
            <Keyframe id="66"  time="5050/1" value="0" leadInLength="30/1"  interpolater="leadin-linr"  />
            <Keyframe id="67"  time="5390/1" value="0" leadInLength="30/1"  interpolater="leadin-linr"  />
            <Keyframe id="68"  time="6152/1" value="0" leadInLength="30/1"  interpolater="leadin-linr"  />
            <Keyframe id="69"  time="7983/1" value="0" leadInLength="30/1"  interpolater="leadin-linr"  />
            <Keyframe id="70"  time="8653/1" value="0" leadInLength="30/1"  interpolater="leadin-linr"  />
            <Keyframe id="71"  time="8915/1" value="0" leadInLength="30/1"  interpolater="leadin-linr"  />
            </Keyframes>
           </InterpolatingParam>
          </VectorParam>
          <VectorParam id="72"  name="rotation">
           <InterpolatingParam id="73" interp="linr"  >
            <Keyframes>
            <Keyframe id="74"  time="-9999999/1" value="0" leadInLength="0/1"  interpolater="leadin-linr"  />
            <Keyframe id="75"  time="554/1" value="0" leadInLength="30/1"  interpolater="leadin-linr"  />
            <Keyframe id="76"  time="671/1" value="0" leadInLength="30/1"  interpolater="leadin-linr"  />
            <Keyframe id="77"  time="2169/1" value="0" leadInLength="30/1"  interpolater="leadin-linr"  />
            <Keyframe id="78"  time="3385/1" value="0" leadInLength="30/1"  interpolater="leadin-linr"  />
            <Keyframe id="79"  time="3654/1" value="0" leadInLength="30/1"  interpolater="leadin-linr"  />
            <Keyframe id="80"  time="4260/1" value="0" leadInLength="30/1"  interpolater="leadin-linr"  />
            <Keyframe id="81"  time="5050/1" value="0" leadInLength="30/1"  interpolater="leadin-linr"  />
            <Keyframe id="82"  time="5390/1" value="0" leadInLength="30/1"  interpolater="leadin-linr"  />
            <Keyframe id="83"  time="6152/1" value="0" leadInLength="30/1"  interpolater="leadin-linr"  />
            <Keyframe id="84"  time="7983/1" value="0" leadInLength="30/1"  interpolater="leadin-linr"  />
            <Keyframe id="85"  time="8653/1" value="0" leadInLength="30/1"  interpolater="leadin-linr"  />
            <Keyframe id="86"  time="8915/1" value="0" leadInLength="30/1"  interpolater="leadin-linr"  />
            </Keyframes>
           </InterpolatingParam>
           <InterpolatingParam id="87" interp="linr"  >
            <Keyframes>
            <Keyframe id="88"  time="-9999999/1" value="0" leadInLength="0/1"  interpolater="leadin-linr"  />
            <Keyframe id="89"  time="554/1" value="0" leadInLength="30/1"  interpolater="leadin-linr"  />
            <Keyframe id="90"  time="671/1" value="0" leadInLength="30/1"  interpolater="leadin-linr"  />
            <Keyframe id="91"  time="2169/1" value="0" leadInLength="30/1"  interpolater="leadin-linr"  />
            <Keyframe id="92"  time="3385/1" value="0" leadInLength="30/1"  interpolater="leadin-linr"  />
            <Keyframe id="93"  time="3654/1" value="0" leadInLength="30/1"  interpolater="leadin-linr"  />
            <Keyframe id="94"  time="4260/1" value="0" leadInLength="30/1"  interpolater="leadin-linr"  />
            <Keyframe id="95"  time="5050/1" value="0" leadInLength="30/1"  interpolater="leadin-linr"  />
            <Keyframe id="96"  time="5390/1" value="0" leadInLength="30/1"  interpolater="leadin-linr"  />
            <Keyframe id="97"  time="6152/1" value="0" leadInLength="30/1"  interpolater="leadin-linr"  />
            <Keyframe id="98"  time="7983/1" value="0" leadInLength="30/1"  interpolater="leadin-linr"  />
            <Keyframe id="99"  time="8653/1" value="0" leadInLength="30/1"  interpolater="leadin-linr"  />
            <Keyframe id="100"  time="8915/1" value="0" leadInLength="30/1"  interpolater="leadin-linr"  />
            </Keyframes>
           </InterpolatingParam>
           <InterpolatingParam id="101" interp="linr"  >
            <Keyframes>
            <Keyframe id="102"  time="-9999999/1" value="0" leadInLength="0/1"  interpolater="leadin-linr"  />
            <Keyframe id="103"  time="554/1" value="0" leadInLength="30/1"  interpolater="leadin-linr"  />
            <Keyframe id="104"  time="671/1" value="0" leadInLength="30/1"  interpolater="leadin-linr"  />
            <Keyframe id="105"  time="2169/1" value="0" leadInLength="30/1"  interpolater="leadin-linr"  />
            <Keyframe id="106"  time="3385/1" value="0" leadInLength="30/1"  interpolater="leadin-linr"  />
            <Keyframe id="107"  time="3654/1" value="0" leadInLength="30/1"  interpolater="leadin-linr"  />
            <Keyframe id="108"  time="4260/1" value="0" leadInLength="30/1"  interpolater="leadin-linr"  />
            <Keyframe id="109"  time="5050/1" value="0" leadInLength="30/1"  interpolater="leadin-linr"  />
            <Keyframe id="110"  time="5390/1" value="0" leadInLength="30/1"  interpolater="leadin-linr"  />
            <Keyframe id="111"  time="6152/1" value="0" leadInLength="30/1"  interpolater="leadin-linr"  />
            <Keyframe id="112"  time="7983/1" value="0" leadInLength="30/1"  interpolater="leadin-linr"  />
            <Keyframe id="113"  time="8653/1" value="0" leadInLength="30/1"  interpolater="leadin-linr"  />
            <Keyframe id="114"  time="8915/1" value="0" leadInLength="30/1"  interpolater="leadin-linr"  />
            </Keyframes>
           </InterpolatingParam>
          </VectorParam>
          <VectorParam id="115"  name="shear">
           <InterpolatingParam id="116" interp="linr"  >
            <Keyframes>
            <Keyframe id="117"  time="-9999999/1" value="0" leadInLength="0/1"  interpolater="leadin-linr"  />
            <Keyframe id="118"  time="554/1" value="0" leadInLength="30/1"  interpolater="leadin-linr"  />
            <Keyframe id="119"  time="671/1" value="0" leadInLength="30/1"  interpolater="leadin-linr"  />
            <Keyframe id="120"  time="2169/1" value="0" leadInLength="30/1"  interpolater="leadin-linr"  />
            <Keyframe id="121"  time="3385/1" value="0" leadInLength="30/1"  interpolater="leadin-linr"  />
            <Keyframe id="122"  time="3654/1" value="0" leadInLength="30/1"  interpolater="leadin-linr"  />
            <Keyframe id="123"  time="4260/1" value="0" leadInLength="30/1"  interpolater="leadin-linr"  />
            <Keyframe id="124"  time="5050/1" value="0" leadInLength="30/1"  interpolater="leadin-linr"  />
            <Keyframe id="125"  time="5390/1" value="0" leadInLength="30/1"  interpolater="leadin-linr"  />
            <Keyframe id="126"  time="6152/1" value="0" leadInLength="30/1"  interpolater="leadin-linr"  />
            <Keyframe id="127"  time="7983/1" value="0" leadInLength="30/1"  interpolater="leadin-linr"  />
            <Keyframe id="128"  time="8653/1" value="0" leadInLength="30/1"  interpolater="leadin-linr"  />
            <Keyframe id="129"  time="8915/1" value="0" leadInLength="30/1"  interpolater="leadin-linr"  />
            </Keyframes>
           </InterpolatingParam>
           <InterpolatingParam id="130" interp="linr"  >
            <Keyframes>
            <Keyframe id="131"  time="-9999999/1" value="0" leadInLength="0/1"  interpolater="leadin-linr"  />
            <Keyframe id="132"  time="554/1" value="0" leadInLength="30/1"  interpolater="leadin-linr"  />
            <Keyframe id="133"  time="671/1" value="0" leadInLength="30/1"  interpolater="leadin-linr"  />
            <Keyframe id="134"  time="2169/1" value="0" leadInLength="30/1"  interpolater="leadin-linr"  />
            <Keyframe id="135"  time="3385/1" value="0" leadInLength="30/1"  interpolater="leadin-linr"  />
            <Keyframe id="136"  time="3654/1" value="0" leadInLength="30/1"  interpolater="leadin-linr"  />
            <Keyframe id="137"  time="4260/1" value="0" leadInLength="30/1"  interpolater="leadin-linr"  />
            <Keyframe id="138"  time="5050/1" value="0" leadInLength="30/1"  interpolater="leadin-linr"  />
            <Keyframe id="139"  time="5390/1" value="0" leadInLength="30/1"  interpolater="leadin-linr"  />
            <Keyframe id="140"  time="6152/1" value="0" leadInLength="30/1"  interpolater="leadin-linr"  />
            <Keyframe id="141"  time="7983/1" value="0" leadInLength="30/1"  interpolater="leadin-linr"  />
            <Keyframe id="142"  time="8653/1" value="0" leadInLength="30/1"  interpolater="leadin-linr"  />
            <Keyframe id="143"  time="8915/1" value="0" leadInLength="30/1"  interpolater="leadin-linr"  />
            </Keyframes>
           </InterpolatingParam>
           <InterpolatingParam id="144" interp="linr"  >
            <Keyframes>
            <Keyframe id="145"  time="-9999999/1" value="0" leadInLength="0/1"  interpolater="leadin-linr"  />
            <Keyframe id="146"  time="554/1" value="0" leadInLength="30/1"  interpolater="leadin-linr"  />
            <Keyframe id="147"  time="671/1" value="0" leadInLength="30/1"  interpolater="leadin-linr"  />
            <Keyframe id="148"  time="2169/1" value="0" leadInLength="30/1"  interpolater="leadin-linr"  />
            <Keyframe id="149"  time="3385/1" value="0" leadInLength="30/1"  interpolater="leadin-linr"  />
            <Keyframe id="150"  time="3654/1" value="0" leadInLength="30/1"  interpolater="leadin-linr"  />
            <Keyframe id="151"  time="4260/1" value="0" leadInLength="30/1"  interpolater="leadin-linr"  />
            <Keyframe id="152"  time="5050/1" value="0" leadInLength="30/1"  interpolater="leadin-linr"  />
            <Keyframe id="153"  time="5390/1" value="0" leadInLength="30/1"  interpolater="leadin-linr"  />
            <Keyframe id="154"  time="6152/1" value="0" leadInLength="30/1"  interpolater="leadin-linr"  />
            <Keyframe id="155"  time="7983/1" value="0" leadInLength="30/1"  interpolater="leadin-linr"  />
            <Keyframe id="156"  time="8653/1" value="0" leadInLength="30/1"  interpolater="leadin-linr"  />
            <Keyframe id="157"  time="8915/1" value="0" leadInLength="30/1"  interpolater="leadin-linr"  />
            </Keyframes>
           </InterpolatingParam>
          </VectorParam>
          <VectorParam id="158"  name="scale">
           <InterpolatingParam id="159" interp="linr"  >
            <Keyframes>
            <Keyframe id="160"  time="-9999999/1" value="1" leadInLength="0/1"  interpolater="leadin-linr"  />
            <Keyframe id="161"  time="554/1" value="2.7429146181372959" leadInLength="30/1"  interpolater="leadin-linr"  />
            <Keyframe id="162"  time="671/1" value="0.99999994942805914" leadInLength="30/1"  interpolater="leadin-linr"  />
            <Keyframe id="163"  time="2169/1" value="2.4269557533815473" leadInLength="30/1"  interpolater="leadin-linr"  />
            <Keyframe id="164"  time="3385/1" value="0.999999872059668" leadInLength="30/1"  interpolater="leadin-linr"  />
            <Keyframe id="165"  time="3654/1" value="1.6429217170836965" leadInLength="30/1"  interpolater="leadin-linr"  />
            <Keyframe id="166"  time="4260/1" value="0.99999962037845835" leadInLength="30/1"  interpolater="leadin-linr"  />
            <Keyframe id="167"  time="5050/1" value="1.7310753261786662" leadInLength="30/1"  interpolater="leadin-linr"  />
            <Keyframe id="168"  time="5390/1" value="0.99999926217966417" leadInLength="30/1"  interpolater="leadin-linr"  />
            <Keyframe id="169"  time="6152/1" value="2.7429127611589803" leadInLength="30/1"  interpolater="leadin-linr"  />
            <Keyframe id="170"  time="7983/1" value="2.7429127997692464" leadInLength="30/1"  interpolater="leadin-linr"  />
            <Keyframe id="171"  time="8653/1" value="0.99999895812382678" leadInLength="30/1"  interpolater="leadin-linr"  />
            <Keyframe id="172"  time="8915/1" value="1.6969297889570616" leadInLength="30/1"  interpolater="leadin-linr"  />
            </Keyframes>
           </InterpolatingParam>
           <InterpolatingParam id="173" interp="linr"  >
            <Keyframes>
            <Keyframe id="174"  time="-9999999/1" value="1" leadInLength="0/1"  interpolater="leadin-linr"  />
            <Keyframe id="175"  time="554/1" value="2.7429153965373234" leadInLength="30/1"  interpolater="leadin-linr"  />
            <Keyframe id="176"  time="671/1" value="1.0000000206893103" leadInLength="30/1"  interpolater="leadin-linr"  />
            <Keyframe id="177"  time="2169/1" value="2.4269560638871108" leadInLength="30/1"  interpolater="leadin-linr"  />
            <Keyframe id="178"  time="3385/1" value="0.99999999999999989" leadInLength="30/1"  interpolater="leadin-linr"  />
            <Keyframe id="179"  time="3654/1" value="1.6429223407724081" leadInLength="30/1"  interpolater="leadin-linr"  />
            <Keyframe id="180"  time="4260/1" value="0.99999999999999967" leadInLength="30/1"  interpolater="leadin-linr"  />
            <Keyframe id="181"  time="5050/1" value="1.7310766034021869" leadInLength="30/1"  interpolater="leadin-linr"  />
            <Keyframe id="182"  time="5390/1" value="0.99999999999999989" leadInLength="30/1"  interpolater="leadin-linr"  />
            <Keyframe id="183"  time="6152/1" value="2.7429153965373243" leadInLength="30/1"  interpolater="leadin-linr"  />
            <Keyframe id="184"  time="7983/1" value="2.7429156575477154" leadInLength="30/1"  interpolater="leadin-linr"  />
            <Keyframe id="185"  time="8653/1" value="1" leadInLength="30/1"  interpolater="leadin-linr"  />
            <Keyframe id="186"  time="8915/1" value="1.6969319825567075" leadInLength="30/1"  interpolater="leadin-linr"  />
            </Keyframes>
           </InterpolatingParam>
           <InterpolatingParam id="187" interp="linr"  >
            <Keyframes>
            <Keyframe id="188"  time="-9999999/1" value="1" leadInLength="0/1"  interpolater="leadin-linr"  />
            <Keyframe id="189"  time="554/1" value="1" leadInLength="30/1"  interpolater="leadin-linr"  />
            <Keyframe id="190"  time="671/1" value="0.99999999999999989" leadInLength="30/1"  interpolater="leadin-linr"  />
            <Keyframe id="191"  time="2169/1" value="0.99999999999999989" leadInLength="30/1"  interpolater="leadin-linr"  />
            <Keyframe id="192"  time="3385/1" value="0.99999999999999989" leadInLength="30/1"  interpolater="leadin-linr"  />
            <Keyframe id="193"  time="3654/1" value="0.99999999999999978" leadInLength="30/1"  interpolater="leadin-linr"  />
            <Keyframe id="194"  time="4260/1" value="0.99999999999999978" leadInLength="30/1"  interpolater="leadin-linr"  />
            <Keyframe id="195"  time="5050/1" value="1" leadInLength="30/1"  interpolater="leadin-linr"  />
            <Keyframe id="196"  time="5390/1" value="1" leadInLength="30/1"  interpolater="leadin-linr"  />
            <Keyframe id="197"  time="6152/1" value="1" leadInLength="30/1"  interpolater="leadin-linr"  />
            <Keyframe id="198"  time="7983/1" value="1" leadInLength="30/1"  interpolater="leadin-linr"  />
            <Keyframe id="199"  time="8653/1" value="1" leadInLength="30/1"  interpolater="leadin-linr"  />
            <Keyframe id="200"  time="8915/1" value="0.99999999999999989" leadInLength="30/1"  interpolater="leadin-linr"  />
            </Keyframes>
           </InterpolatingParam>
          </VectorParam>
          <VectorParam id="201"  name="anchor">
           <InterpolatingParam id="202" interp="linr"  time="0/1" value="0" leadInLength="0/1"  />
           <InterpolatingParam id="203" interp="linr"  time="0/1" value="0" leadInLength="0/1"  />
           <InterpolatingParam id="204" interp="linr"  time="0/1" value="0" leadInLength="0/1"  />
          </VectorParam>
         </Transformer>
         <Parameters>
          <VectorParam id="205"  name="sourceCrop">
           <InterpolatingParam id="206" interp="linr"  time="0/1" value="0" leadInLength="0/1"  />
           <InterpolatingParam id="207" interp="linr"  time="0/1" value="0" leadInLength="0/1"  />
           <InterpolatingParam id="208" interp="linr"  time="0/1" value="0" leadInLength="0/1"  />
           <InterpolatingParam id="209" interp="linr"  time="0/1" value="0" leadInLength="0/1"  />
          </VectorParam>
          <VectorParam id="210"  name="geometryCrop">
           <InterpolatingParam id="211" interp="linr"  >
            <Keyframes>
            <Keyframe id="212"  time="-9999999/1" value="0" leadInLength="0/1"  interpolater="leadin-linr"  />
            <Keyframe id="213"  time="554/1" value="0" leadInLength="30/1"  interpolater="leadin-linr"  />
            <Keyframe id="214"  time="671/1" value="0" leadInLength="30/1"  interpolater="leadin-linr"  />
            <Keyframe id="215"  time="2169/1" value="0" leadInLength="30/1"  interpolater="leadin-linr"  />
            <Keyframe id="216"  time="3385/1" value="0" leadInLength="30/1"  interpolater="leadin-linr"  />
            <Keyframe id="217"  time="3654/1" value="0" leadInLength="30/1"  interpolater="leadin-linr"  />
            <Keyframe id="218"  time="4260/1" value="0" leadInLength="30/1"  interpolater="leadin-linr"  />
            <Keyframe id="219"  time="5050/1" value="0" leadInLength="30/1"  interpolater="leadin-linr"  />
            <Keyframe id="220"  time="5390/1" value="0" leadInLength="30/1"  interpolater="leadin-linr"  />
            <Keyframe id="221"  time="6152/1" value="0" leadInLength="30/1"  interpolater="leadin-linr"  />
            <Keyframe id="222"  time="7983/1" value="0" leadInLength="30/1"  interpolater="leadin-linr"  />
            <Keyframe id="223"  time="8653/1" value="0" leadInLength="30/1"  interpolater="leadin-linr"  />
            <Keyframe id="224"  time="8915/1" value="0" leadInLength="30/1"  interpolater="leadin-linr"  />
            </Keyframes>
           </InterpolatingParam>
           <InterpolatingParam id="225" interp="linr"  >
            <Keyframes>
            <Keyframe id="226"  time="-9999999/1" value="0" leadInLength="0/1"  interpolater="leadin-linr"  />
            <Keyframe id="227"  time="554/1" value="0" leadInLength="30/1"  interpolater="leadin-linr"  />
            <Keyframe id="228"  time="671/1" value="0" leadInLength="30/1"  interpolater="leadin-linr"  />
            <Keyframe id="229"  time="2169/1" value="0" leadInLength="30/1"  interpolater="leadin-linr"  />
            <Keyframe id="230"  time="3385/1" value="0" leadInLength="30/1"  interpolater="leadin-linr"  />
            <Keyframe id="231"  time="3654/1" value="0" leadInLength="30/1"  interpolater="leadin-linr"  />
            <Keyframe id="232"  time="4260/1" value="0" leadInLength="30/1"  interpolater="leadin-linr"  />
            <Keyframe id="233"  time="5050/1" value="0" leadInLength="30/1"  interpolater="leadin-linr"  />
            <Keyframe id="234"  time="5390/1" value="0" leadInLength="30/1"  interpolater="leadin-linr"  />
            <Keyframe id="235"  time="6152/1" value="0" leadInLength="30/1"  interpolater="leadin-linr"  />
            <Keyframe id="236"  time="7983/1" value="0" leadInLength="30/1"  interpolater="leadin-linr"  />
            <Keyframe id="237"  time="8653/1" value="0" leadInLength="30/1"  interpolater="leadin-linr"  />
            <Keyframe id="238"  time="8915/1" value="0" leadInLength="30/1"  interpolater="leadin-linr"  />
            </Keyframes>
           </InterpolatingParam>
           <InterpolatingParam id="239" interp="linr"  >
            <Keyframes>
            <Keyframe id="240"  time="-9999999/1" value="0" leadInLength="0/1"  interpolater="leadin-linr"  />
            <Keyframe id="241"  time="554/1" value="0" leadInLength="30/1"  interpolater="leadin-linr"  />
            <Keyframe id="242"  time="671/1" value="0" leadInLength="30/1"  interpolater="leadin-linr"  />
            <Keyframe id="243"  time="2169/1" value="0" leadInLength="30/1"  interpolater="leadin-linr"  />
            <Keyframe id="244"  time="3385/1" value="0" leadInLength="30/1"  interpolater="leadin-linr"  />
            <Keyframe id="245"  time="3654/1" value="0" leadInLength="30/1"  interpolater="leadin-linr"  />
            <Keyframe id="246"  time="4260/1" value="0" leadInLength="30/1"  interpolater="leadin-linr"  />
            <Keyframe id="247"  time="5050/1" value="0" leadInLength="30/1"  interpolater="leadin-linr"  />
            <Keyframe id="248"  time="5390/1" value="0" leadInLength="30/1"  interpolater="leadin-linr"  />
            <Keyframe id="249"  time="6152/1" value="0" leadInLength="30/1"  interpolater="leadin-linr"  />
            <Keyframe id="250"  time="7983/1" value="0" leadInLength="30/1"  interpolater="leadin-linr"  />
            <Keyframe id="251"  time="8653/1" value="0" leadInLength="30/1"  interpolater="leadin-linr"  />
            <Keyframe id="252"  time="8915/1" value="0" leadInLength="30/1"  interpolater="leadin-linr"  />
            </Keyframes>
           </InterpolatingParam>
           <InterpolatingParam id="253" interp="linr"  >
            <Keyframes>
            <Keyframe id="254"  time="-9999999/1" value="0" leadInLength="0/1"  interpolater="leadin-linr"  />
            <Keyframe id="255"  time="554/1" value="0" leadInLength="30/1"  interpolater="leadin-linr"  />
            <Keyframe id="256"  time="671/1" value="0" leadInLength="30/1"  interpolater="leadin-linr"  />
            <Keyframe id="257"  time="2169/1" value="0" leadInLength="30/1"  interpolater="leadin-linr"  />
            <Keyframe id="258"  time="3385/1" value="0" leadInLength="30/1"  interpolater="leadin-linr"  />
            <Keyframe id="259"  time="3654/1" value="0" leadInLength="30/1"  interpolater="leadin-linr"  />
            <Keyframe id="260"  time="4260/1" value="0" leadInLength="30/1"  interpolater="leadin-linr"  />
            <Keyframe id="261"  time="5050/1" value="0" leadInLength="30/1"  interpolater="leadin-linr"  />
            <Keyframe id="262"  time="5390/1" value="0" leadInLength="30/1"  interpolater="leadin-linr"  />
            <Keyframe id="263"  time="6152/1" value="0" leadInLength="30/1"  interpolater="leadin-linr"  />
            <Keyframe id="264"  time="7983/1" value="0" leadInLength="30/1"  interpolater="leadin-linr"  />
            <Keyframe id="265"  time="8653/1" value="0" leadInLength="30/1"  interpolater="leadin-linr"  />
            <Keyframe id="266"  time="8915/1" value="0" leadInLength="30/1"  interpolater="leadin-linr"  />
            </Keyframes>
           </InterpolatingParam>
          </VectorParam>
          <InterpolatingParam id="267" interp="linr"  name="opacity">
           <Keyframes>
           <Keyframe id="268"  time="-9999999/1" value="1" leadInLength="0/1"  interpolater="leadin-linr"  />
           <Keyframe id="269"  time="554/1" value="1" leadInLength="30/1"  interpolater="leadin-linr"  />
           <Keyframe id="270"  time="671/1" value="1" leadInLength="30/1"  interpolater="leadin-linr"  />
           <Keyframe id="271"  time="2169/1" value="1" leadInLength="30/1"  interpolater="leadin-linr"  />
           <Keyframe id="272"  time="3385/1" value="1" leadInLength="30/1"  interpolater="leadin-linr"  />
           <Keyframe id="273"  time="3654/1" value="1" leadInLength="30/1"  interpolater="leadin-linr"  />
           <Keyframe id="274"  time="4260/1" value="1" leadInLength="30/1"  interpolater="leadin-linr"  />
           <Keyframe id="275"  time="5050/1" value="1" leadInLength="30/1"  interpolater="leadin-linr"  />
           <Keyframe id="276"  time="5390/1" value="1" leadInLength="30/1"  interpolater="leadin-linr"  />
           <Keyframe id="277"  time="6152/1" value="1" leadInLength="30/1"  interpolater="leadin-linr"  />
           <Keyframe id="278"  time="7983/1" value="1" leadInLength="30/1"  interpolater="leadin-linr"  />
           <Keyframe id="279"  time="8653/1" value="1" leadInLength="30/1"  interpolater="leadin-linr"  />
           <Keyframe id="280"  time="8915/1" value="1" leadInLength="30/1"  interpolater="leadin-linr"  />
           </Keyframes>
          </InterpolatingParam>
          <InterpolatingParam id="281" interp="linr"  time="0/1" value="1" leadInLength="0/1"  name="cursorOpacity"/>
          <InterpolatingParam id="282" interp="linr"  time="0/1" value="1" leadInLength="0/1"  name="cursorScale"/>
          <InterpolatingParam id="283" interp="linr"  time="0/1" value="1" leadInLength="0/1"  name="volume"/>
          <Parameter id="284"  name="captions"/>
         </Parameters>
         <Effects>
          <GenericEffect id="285" name = "CursorBaseEffectName" >
           <Parameters>
           <InterpolatingParam id="286" interp="linr"  time="-9999999/1" value="1" leadInLength="0/1"   name="cursorSize"/>
           <InterpolatingParam id="287" interp="linr"  time="-9999999/1" value="0" leadInLength="0/1"   name="highlightBlurRadius"/>
           <InterpolatingParam id="288" interp="linr"  time="-9999999/1" value="0" leadInLength="0/1"   name="highlightColorBlue"/>
           <InterpolatingParam id="289" interp="linr"  time="-9999999/1" value="255" leadInLength="0/1"   name="highlightColorGreen"/>
           <InterpolatingParam id="290" interp="linr"  time="-9999999/1" value="255" leadInLength="0/1"   name="highlightColorRed"/>
           <InterpolatingParam id="291" interp="linr"  time="-9999999/1" value="5" leadInLength="0/1"   name="highlightFeatherSize"/>
           <InterpolatingParam id="292" interp="linr"  time="-9999999/1" value="2" leadInLength="0/1"   name="highlightMagnification"/>
           <InterpolatingParam id="293" interp="linr"  time="-9999999/1" value="1" leadInLength="0/1"   name="highlightOpacity"/>
           <InterpolatingParam id="294" interp="linr"  time="-9999999/1" value="45" leadInLength="0/1"   name="highlightSize"/>
           <Parameter id="295"   name="highlightType">
            <Keyframes>
            <Keyframe id="296"  time="-9999999/1" value="0" leadInLength="0/1"  />
            </Keyframes>
           </Parameter>
           <InterpolatingParam id="297" interp="linr"  time="-9999999/1" value="0" leadInLength="0/1"   name="leftClickColorBlue"/>
           <InterpolatingParam id="298" interp="linr"  time="-9999999/1" value="0" leadInLength="0/1"   name="leftClickColorGreen"/>
           <InterpolatingParam id="299" interp="linr"  time="-9999999/1" value="255" leadInLength="0/1"   name="leftClickColorRed"/>
           <InterpolatingParam id="300" interp="linr"  time="-9999999/1" value="0.80000000000000004" leadInLength="0/1"   name="leftClickDuration"/>
           <InterpolatingParam id="301" interp="linr"  time="-9999999/1" value="20" leadInLength="0/1"   name="leftClickSize"/>
           <Parameter id="302"   name="leftClickSoundFilename">
            <Keyframes>
            <Keyframe id="303"  time="-9999999/1" value="" leadInLength="0/1"  />
            </Keyframes>
           </Parameter>
           <InterpolatingParam id="304" interp="linr"  time="-9999999/1" value="1" leadInLength="0/1"   name="leftClickSoundVolume"/>
           <Parameter id="305"   name="leftClickType">
            <Keyframes>
            <Keyframe id="306"  time="-9999999/1" value="0" leadInLength="0/1"  />
            </Keyframes>
           </Parameter>
           <InterpolatingParam id="307" interp="linr"  time="-9999999/1" value="1" leadInLength="0/1"   name="opacity"/>
           <InterpolatingParam id="308" interp="linr"  time="-9999999/1" value="255" leadInLength="0/1"   name="rightClickColorBlue"/>
           <InterpolatingParam id="309" interp="linr"  time="-9999999/1" value="0" leadInLength="0/1"   name="rightClickColorGreen"/>
           <InterpolatingParam id="310" interp="linr"  time="-9999999/1" value="0" leadInLength="0/1"   name="rightClickColorRed"/>
           <InterpolatingParam id="311" interp="linr"  time="-9999999/1" value="0.80000000000000004" leadInLength="0/1"   name="rightClickDuration"/>
           <InterpolatingParam id="312" interp="linr"  time="-9999999/1" value="20" leadInLength="0/1"   name="rightClickSize"/>
           <Parameter id="313"   name="rightClickSoundFilename">
            <Keyframes>
            <Keyframe id="314"  time="-9999999/1" value="" leadInLength="0/1"  />
            </Keyframes>
           </Parameter>
           <InterpolatingParam id="315" interp="linr"  time="-9999999/1" value="1" leadInLength="0/1"   name="rightClickSoundVolume"/>
           <Parameter id="316"   name="rightClickType">
            <Keyframes>
            <Keyframe id="317"  time="-9999999/1" value="0" leadInLength="0/1"  />
            </Keyframes>
           </Parameter>
           </Parameters>
           <MetaData>
            <entry key="effectIndex" val="0"/>
           </MetaData>
          </GenericEffect>
         </Effects>
         <Attributes>
          <Attribute id="318" value="" name="ident"/>
         </Attributes>
         <MetaData>
          <entry key="AutoAppliedSmartFocus" val="False"/>
          <entry key="WinSubProjectDisplayName" val=""/>
         </MetaData>
         <ExtraData>
          <Entry key="ZoomPanBin">
           <ZoomPanBin id="319"  >
            <ZoomPanKeyframes>
             <ZoomPanKeyframe id="320" timeRangeEnd="-9999999/1" timeRangeDuration="0/1" interpolaterName="linr"  />
             <ZoomPanKeyframe id="321" timeRangeEnd="554/1" timeRangeDuration="30/1" interpolaterName="linr"  />
             <ZoomPanKeyframe id="322" timeRangeEnd="671/1" timeRangeDuration="30/1" interpolaterName="linr"  />
             <ZoomPanKeyframe id="323" timeRangeEnd="2169/1" timeRangeDuration="30/1" interpolaterName="linr"  />
             <ZoomPanKeyframe id="324" timeRangeEnd="3385/1" timeRangeDuration="30/1" interpolaterName="linr"  />
             <ZoomPanKeyframe id="325" timeRangeEnd="3654/1" timeRangeDuration="30/1" interpolaterName="linr"  />
             <ZoomPanKeyframe id="326" timeRangeEnd="4260/1" timeRangeDuration="30/1" interpolaterName="linr"  />
             <ZoomPanKeyframe id="327" timeRangeEnd="5050/1" timeRangeDuration="30/1" interpolaterName="linr"  />
             <ZoomPanKeyframe id="328" timeRangeEnd="5390/1" timeRangeDuration="30/1" interpolaterName="linr"  />
             <ZoomPanKeyframe id="329" timeRangeEnd="6152/1" timeRangeDuration="30/1" interpolaterName="linr"  />
             <ZoomPanKeyframe id="330" timeRangeEnd="7983/1" timeRangeDuration="30/1" interpolaterName="linr"  />
             <ZoomPanKeyframe id="331" timeRangeEnd="8653/1" timeRangeDuration="30/1" interpolaterName="linr"  />
             <ZoomPanKeyframe id="332" timeRangeEnd="8915/1" timeRangeDuration="30/1" interpolaterName="linr"  />
            </ZoomPanKeyframes>
           </ZoomPanBin>
          </Entry>
          <Entry key="CursorEffectBin">
           <CursorEffectBin id="333"  >
            <CursorEffectKeyframes>
             <CursorEffectKeyframe id="334" timeRangeEnd="-9999999/1" timeRangeDuration="0/1" interpolaterName=""  />
            </CursorEffectKeyframes>
           </CursorEffectBin>
          </Entry>
         </ExtraData>
         <GenericTrack id="335"  >
          <Attributes>
           <Attribute id="336" value="" name="ident"/>
          </Attributes>
          <MetaData>
           <entry key="IsLocked" val="False"/>
           <entry key="WinTrackHeight" val="0"/>
          </MetaData>
          <Medias>
           <UnifiedMedia id="337"  >
            <AMFile id="338" start="0" duration="453" scalar="1/1" mediaStart="0/1" mediaDuration="453/1" trackNumber="1" src="4" channelNumber="0" >
             <Parameters>
              <InterpolatingParam id="339" interp="linr"  time="0/1" value="1" leadInLength="0/1"  name="volume"/>
              <Parameter id="340"  name="captions"/>
             </Parameters>
             <Attributes>
              <Attribute id="341" value="" name="ident"/>
              <Attribute id="342" value="22050" name="sampleRate"/>
              <Attribute id="343" value="16" name="bitDepth"/>
              <Attribute id="344" value="1" name="gain"/>
             </Attributes>
            </AMFile>
            <ScreenVMFile id="345" start="0" duration="453" scalar="1/1" mediaStart="0/1" mediaDuration="453/1" trackNumber="0" src="4" >
             <Transformer>
              <VectorParam id="346"  name="translation">
               <InterpolatingParam id="347" interp="linr"  time="-9999999/1" value="0" leadInLength="0/1"  />
               <InterpolatingParam id="348" interp="linr"  time="-9999999/1" value="0" leadInLength="0/1"  />
               <InterpolatingParam id="349" interp="linr"  time="-9999999/1" value="0" leadInLength="0/1"  />
              </VectorParam>
              <VectorParam id="350"  name="rotation">
               <InterpolatingParam id="351" interp="linr"  time="-9999999/1" value="0" leadInLength="0/1"  />
               <InterpolatingParam id="352" interp="linr"  time="-9999999/1" value="0" leadInLength="0/1"  />
               <InterpolatingParam id="353" interp="linr"  time="-9999999/1" value="0" leadInLength="0/1"  />
              </VectorParam>
              <VectorParam id="354"  name="shear">
               <InterpolatingParam id="355" interp="linr"  time="-9999999/1" value="0" leadInLength="0/1"  />
               <InterpolatingParam id="356" interp="linr"  time="-9999999/1" value="0" leadInLength="0/1"  />
               <InterpolatingParam id="357" interp="linr"  time="-9999999/1" value="0" leadInLength="0/1"  />
              </VectorParam>
              <VectorParam id="358"  name="scale">
               <InterpolatingParam id="359" interp="linr"  time="-9999999/1" value="1" leadInLength="0/1"  />
               <InterpolatingParam id="360" interp="linr"  time="-9999999/1" value="1" leadInLength="0/1"  />
               <InterpolatingParam id="361" interp="linr"  time="-9999999/1" value="1" leadInLength="0/1"  />
              </VectorParam>
              <VectorParam id="362"  name="anchor">
               <InterpolatingParam id="363" interp="linr"  time="0/1" value="0" leadInLength="0/1"  />
               <InterpolatingParam id="364" interp="linr"  time="0/1" value="0" leadInLength="0/1"  />
               <InterpolatingParam id="365" interp="linr"  time="0/1" value="0" leadInLength="0/1"  />
              </VectorParam>
             </Transformer>
             <Parameters>
              <VectorParam id="366"  name="sourceCrop">
               <InterpolatingParam id="367" interp="linr"  time="0/1" value="0" leadInLength="0/1"  />
               <InterpolatingParam id="368" interp="linr"  time="0/1" value="0" leadInLength="0/1"  />
               <InterpolatingParam id="369" interp="linr"  time="0/1" value="0" leadInLength="0/1"  />
               <InterpolatingParam id="370" interp="linr"  time="0/1" value="0" leadInLength="0/1"  />
              </VectorParam>
              <VectorParam id="371"  name="geometryCrop">
               <InterpolatingParam id="372" interp="linr"  time="-9999999/1" value="0" leadInLength="0/1"  />
               <InterpolatingParam id="373" interp="linr"  time="-9999999/1" value="0" leadInLength="0/1"  />
               <InterpolatingParam id="374" interp="linr"  time="-9999999/1" value="0" leadInLength="0/1"  />
               <InterpolatingParam id="375" interp="linr"  time="-9999999/1" value="0" leadInLength="0/1"  />
              </VectorParam>
              <InterpolatingParam id="376" interp="linr"  time="-9999999/1" value="1" leadInLength="0/1"  name="opacity"/>
              <InterpolatingParam id="377" interp="linr"  time="0/1" value="0" leadInLength="0/1"  name="cursorOpacity"/>
              <InterpolatingParam id="378" interp="linr"  time="0/1" value="0" leadInLength="0/1"  name="cursorScale"/>
             </Parameters>
             <Attributes>
              <Attribute id="379" value="" name="ident"/>
             </Attributes>
             <ExtraData>
              <Entry key="ZoomPanBin">
               <ZoomPanBin id="380"  >
                <ZoomPanKeyframes>
                 <ZoomPanKeyframe id="381" timeRangeEnd="-9999999/1" timeRangeDuration="0/1" interpolaterName=""  />
                </ZoomPanKeyframes>
               </ZoomPanBin>
              </Entry>
              <Entry key="CursorEffectBin">
               <CursorEffectBin id="382"  >
                <CursorEffectKeyframes>
                </CursorEffectKeyframes>
               </CursorEffectBin>
              </Entry>
             </ExtraData>
            </ScreenVMFile>
            <MetaData>
             <entry key="AutoAppliedSmartFocus" val="False"/>
             <entry key="WinSubProjectDisplayName" val=""/>
            </MetaData>
           </UnifiedMedia>
           <UnifiedMedia id="383"  >
            <AMFile id="384" start="453" duration="251" scalar="1/1" mediaStart="700/1" mediaDuration="251/1" trackNumber="1" src="4" channelNumber="0" >
             <Parameters>
              <InterpolatingParam id="385" interp="linr"  time="0/1" value="1" leadInLength="0/1"  name="volume"/>
              <Parameter id="386"  name="captions"/>
             </Parameters>
             <Attributes>
              <Attribute id="387" value="" name="ident"/>
              <Attribute id="388" value="22050" name="sampleRate"/>
              <Attribute id="389" value="16" name="bitDepth"/>
              <Attribute id="390" value="1" name="gain"/>
             </Attributes>
            </AMFile>
            <ScreenVMFile id="391" start="453" duration="251" scalar="1/1" mediaStart="700/1" mediaDuration="251/1" trackNumber="0" src="4" >
             <Transformer>
              <VectorParam id="392"  name="translation">
               <InterpolatingParam id="393" interp="linr"  time="-9999999/1" value="0" leadInLength="0/1"  />
               <InterpolatingParam id="394" interp="linr"  time="-9999999/1" value="0" leadInLength="0/1"  />
               <InterpolatingParam id="395" interp="linr"  time="-9999999/1" value="0" leadInLength="0/1"  />
              </VectorParam>
              <VectorParam id="396"  name="rotation">
               <InterpolatingParam id="397" interp="linr"  time="-9999999/1" value="0" leadInLength="0/1"  />
               <InterpolatingParam id="398" interp="linr"  time="-9999999/1" value="0" leadInLength="0/1"  />
               <InterpolatingParam id="399" interp="linr"  time="-9999999/1" value="0" leadInLength="0/1"  />
              </VectorParam>
              <VectorParam id="400"  name="shear">
               <InterpolatingParam id="401" interp="linr"  time="-9999999/1" value="0" leadInLength="0/1"  />
               <InterpolatingParam id="402" interp="linr"  time="-9999999/1" value="0" leadInLength="0/1"  />
               <InterpolatingParam id="403" interp="linr"  time="-9999999/1" value="0" leadInLength="0/1"  />
              </VectorParam>
              <VectorParam id="404"  name="scale">
               <InterpolatingParam id="405" interp="linr"  time="-9999999/1" value="1" leadInLength="0/1"  />
               <InterpolatingParam id="406" interp="linr"  time="-9999999/1" value="1" leadInLength="0/1"  />
               <InterpolatingParam id="407" interp="linr"  time="-9999999/1" value="1" leadInLength="0/1"  />
              </VectorParam>
              <VectorParam id="408"  name="anchor">
               <InterpolatingParam id="409" interp="linr"  time="0/1" value="0" leadInLength="0/1"  />
               <InterpolatingParam id="410" interp="linr"  time="0/1" value="0" leadInLength="0/1"  />
               <InterpolatingParam id="411" interp="linr"  time="0/1" value="0" leadInLength="0/1"  />
              </VectorParam>
             </Transformer>
             <Parameters>
              <VectorParam id="412"  name="sourceCrop">
               <InterpolatingParam id="413" interp="linr"  time="0/1" value="0" leadInLength="0/1"  />
               <InterpolatingParam id="414" interp="linr"  time="0/1" value="0" leadInLength="0/1"  />
               <InterpolatingParam id="415" interp="linr"  time="0/1" value="0" leadInLength="0/1"  />
               <InterpolatingParam id="416" interp="linr"  time="0/1" value="0" leadInLength="0/1"  />
              </VectorParam>
              <VectorParam id="417"  name="geometryCrop">
               <InterpolatingParam id="418" interp="linr"  time="-9999999/1" value="0" leadInLength="0/1"  />
               <InterpolatingParam id="419" interp="linr"  time="-9999999/1" value="0" leadInLength="0/1"  />
               <InterpolatingParam id="420" interp="linr"  time="-9999999/1" value="0" leadInLength="0/1"  />
               <InterpolatingParam id="421" interp="linr"  time="-9999999/1" value="0" leadInLength="0/1"  />
              </VectorParam>
              <InterpolatingParam id="422" interp="linr"  time="-9999999/1" value="1" leadInLength="0/1"  name="opacity"/>
              <InterpolatingParam id="423" interp="linr"  time="0/1" value="0" leadInLength="0/1"  name="cursorOpacity"/>
              <InterpolatingParam id="424" interp="linr"  time="0/1" value="0" leadInLength="0/1"  name="cursorScale"/>
             </Parameters>
             <Attributes>
              <Attribute id="425" value="" name="ident"/>
             </Attributes>
             <ExtraData>
              <Entry key="ZoomPanBin">
               <ZoomPanBin id="426"  >
                <ZoomPanKeyframes>
                 <ZoomPanKeyframe id="427" timeRangeEnd="-9999999/1" timeRangeDuration="0/1" interpolaterName=""  />
                </ZoomPanKeyframes>
               </ZoomPanBin>
              </Entry>
              <Entry key="CursorEffectBin">
               <CursorEffectBin id="428"  >
                <CursorEffectKeyframes>
                </CursorEffectKeyframes>
               </CursorEffectBin>
              </Entry>
             </ExtraData>
            </ScreenVMFile>
            <MetaData>
             <entry key="AutoAppliedSmartFocus" val="False"/>
             <entry key="WinSubProjectDisplayName" val=""/>
            </MetaData>
           </UnifiedMedia>
           <UnifiedMedia id="429"  >
            <AMFile id="430" start="704" duration="2173" scalar="1/1" mediaStart="1119/1" mediaDuration="2173/1" trackNumber="1" src="4" channelNumber="0" >
             <Parameters>
              <InterpolatingParam id="431" interp="linr"  time="0/1" value="1" leadInLength="0/1"  name="volume"/>
              <Parameter id="432"  name="captions"/>
             </Parameters>
             <Attributes>
              <Attribute id="433" value="" name="ident"/>
              <Attribute id="434" value="22050" name="sampleRate"/>
              <Attribute id="435" value="16" name="bitDepth"/>
              <Attribute id="436" value="1" name="gain"/>
             </Attributes>
            </AMFile>
            <ScreenVMFile id="437" start="704" duration="2173" scalar="1/1" mediaStart="1119/1" mediaDuration="2173/1" trackNumber="0" src="4" >
             <Transformer>
              <VectorParam id="438"  name="translation">
               <InterpolatingParam id="439" interp="linr"  time="-9999999/1" value="0" leadInLength="0/1"  />
               <InterpolatingParam id="440" interp="linr"  time="-9999999/1" value="0" leadInLength="0/1"  />
               <InterpolatingParam id="441" interp="linr"  time="-9999999/1" value="0" leadInLength="0/1"  />
              </VectorParam>
              <VectorParam id="442"  name="rotation">
               <InterpolatingParam id="443" interp="linr"  time="-9999999/1" value="0" leadInLength="0/1"  />
               <InterpolatingParam id="444" interp="linr"  time="-9999999/1" value="0" leadInLength="0/1"  />
               <InterpolatingParam id="445" interp="linr"  time="-9999999/1" value="0" leadInLength="0/1"  />
              </VectorParam>
              <VectorParam id="446"  name="shear">
               <InterpolatingParam id="447" interp="linr"  time="-9999999/1" value="0" leadInLength="0/1"  />
               <InterpolatingParam id="448" interp="linr"  time="-9999999/1" value="0" leadInLength="0/1"  />
               <InterpolatingParam id="449" interp="linr"  time="-9999999/1" value="0" leadInLength="0/1"  />
              </VectorParam>
              <VectorParam id="450"  name="scale">
               <InterpolatingParam id="451" interp="linr"  time="-9999999/1" value="1" leadInLength="0/1"  />
               <InterpolatingParam id="452" interp="linr"  time="-9999999/1" value="1" leadInLength="0/1"  />
               <InterpolatingParam id="453" interp="linr"  time="-9999999/1" value="1" leadInLength="0/1"  />
              </VectorParam>
              <VectorParam id="454"  name="anchor">
               <InterpolatingParam id="455" interp="linr"  time="0/1" value="0" leadInLength="0/1"  />
               <InterpolatingParam id="456" interp="linr"  time="0/1" value="0" leadInLength="0/1"  />
               <InterpolatingParam id="457" interp="linr"  time="0/1" value="0" leadInLength="0/1"  />
              </VectorParam>
             </Transformer>
             <Parameters>
              <VectorParam id="458"  name="sourceCrop">
               <InterpolatingParam id="459" interp="linr"  time="0/1" value="0" leadInLength="0/1"  />
               <InterpolatingParam id="460" interp="linr"  time="0/1" value="0" leadInLength="0/1"  />
               <InterpolatingParam id="461" interp="linr"  time="0/1" value="0" leadInLength="0/1"  />
               <InterpolatingParam id="462" interp="linr"  time="0/1" value="0" leadInLength="0/1"  />
              </VectorParam>
              <VectorParam id="463"  name="geometryCrop">
               <InterpolatingParam id="464" interp="linr"  time="-9999999/1" value="0" leadInLength="0/1"  />
               <InterpolatingParam id="465" interp="linr"  time="-9999999/1" value="0" leadInLength="0/1"  />
               <InterpolatingParam id="466" interp="linr"  time="-9999999/1" value="0" leadInLength="0/1"  />
               <InterpolatingParam id="467" interp="linr"  time="-9999999/1" value="0" leadInLength="0/1"  />
              </VectorParam>
              <InterpolatingParam id="468" interp="linr"  time="-9999999/1" value="1" leadInLength="0/1"  name="opacity"/>
              <InterpolatingParam id="469" interp="linr"  time="0/1" value="0" leadInLength="0/1"  name="cursorOpacity"/>
              <InterpolatingParam id="470" interp="linr"  time="0/1" value="0" leadInLength="0/1"  name="cursorScale"/>
             </Parameters>
             <Attributes>
              <Attribute id="471" value="" name="ident"/>
             </Attributes>
             <ExtraData>
              <Entry key="ZoomPanBin">
               <ZoomPanBin id="472"  >
                <ZoomPanKeyframes>
                 <ZoomPanKeyframe id="473" timeRangeEnd="-9999999/1" timeRangeDuration="0/1" interpolaterName=""  />
                </ZoomPanKeyframes>
               </ZoomPanBin>
              </Entry>
              <Entry key="CursorEffectBin">
               <CursorEffectBin id="474"  >
                <CursorEffectKeyframes>
                </CursorEffectKeyframes>
               </CursorEffectBin>
              </Entry>
             </ExtraData>
            </ScreenVMFile>
            <MetaData>
             <entry key="AutoAppliedSmartFocus" val="False"/>
             <entry key="WinSubProjectDisplayName" val=""/>
            </MetaData>
           </UnifiedMedia>
           <UnifiedMedia id="475"  >
            <AMFile id="476" start="2877" duration="791" scalar="1/1" mediaStart="3417/1" mediaDuration="791/1" trackNumber="1" src="4" channelNumber="0" >
             <Parameters>
              <InterpolatingParam id="477" interp="linr"  time="0/1" value="1" leadInLength="0/1"  name="volume"/>
              <Parameter id="478"  name="captions"/>
             </Parameters>
             <Attributes>
              <Attribute id="479" value="" name="ident"/>
              <Attribute id="480" value="22050" name="sampleRate"/>
              <Attribute id="481" value="16" name="bitDepth"/>
              <Attribute id="482" value="1" name="gain"/>
             </Attributes>
            </AMFile>
            <ScreenVMFile id="483" start="2877" duration="791" scalar="1/1" mediaStart="3417/1" mediaDuration="791/1" trackNumber="0" src="4" >
             <Transformer>
              <VectorParam id="484"  name="translation">
               <InterpolatingParam id="485" interp="linr"  time="-9999999/1" value="0" leadInLength="0/1"  />
               <InterpolatingParam id="486" interp="linr"  time="-9999999/1" value="0" leadInLength="0/1"  />
               <InterpolatingParam id="487" interp="linr"  time="-9999999/1" value="0" leadInLength="0/1"  />
              </VectorParam>
              <VectorParam id="488"  name="rotation">
               <InterpolatingParam id="489" interp="linr"  time="-9999999/1" value="0" leadInLength="0/1"  />
               <InterpolatingParam id="490" interp="linr"  time="-9999999/1" value="0" leadInLength="0/1"  />
               <InterpolatingParam id="491" interp="linr"  time="-9999999/1" value="0" leadInLength="0/1"  />
              </VectorParam>
              <VectorParam id="492"  name="shear">
               <InterpolatingParam id="493" interp="linr"  time="-9999999/1" value="0" leadInLength="0/1"  />
               <InterpolatingParam id="494" interp="linr"  time="-9999999/1" value="0" leadInLength="0/1"  />
               <InterpolatingParam id="495" interp="linr"  time="-9999999/1" value="0" leadInLength="0/1"  />
              </VectorParam>
              <VectorParam id="496"  name="scale">
               <InterpolatingParam id="497" interp="linr"  time="-9999999/1" value="1" leadInLength="0/1"  />
               <InterpolatingParam id="498" interp="linr"  time="-9999999/1" value="1" leadInLength="0/1"  />
               <InterpolatingParam id="499" interp="linr"  time="-9999999/1" value="1" leadInLength="0/1"  />
              </VectorParam>
              <VectorParam id="500"  name="anchor">
               <InterpolatingParam id="501" interp="linr"  time="0/1" value="0" leadInLength="0/1"  />
               <InterpolatingParam id="502" interp="linr"  time="0/1" value="0" leadInLength="0/1"  />
               <InterpolatingParam id="503" interp="linr"  time="0/1" value="0" leadInLength="0/1"  />
              </VectorParam>
             </Transformer>
             <Parameters>
              <VectorParam id="504"  name="sourceCrop">
               <InterpolatingParam id="505" interp="linr"  time="0/1" value="0" leadInLength="0/1"  />
               <InterpolatingParam id="506" interp="linr"  time="0/1" value="0" leadInLength="0/1"  />
               <InterpolatingParam id="507" interp="linr"  time="0/1" value="0" leadInLength="0/1"  />
               <InterpolatingParam id="508" interp="linr"  time="0/1" value="0" leadInLength="0/1"  />
              </VectorParam>
              <VectorParam id="509"  name="geometryCrop">
               <InterpolatingParam id="510" interp="linr"  time="-9999999/1" value="0" leadInLength="0/1"  />
               <InterpolatingParam id="511" interp="linr"  time="-9999999/1" value="0" leadInLength="0/1"  />
               <InterpolatingParam id="512" interp="linr"  time="-9999999/1" value="0" leadInLength="0/1"  />
               <InterpolatingParam id="513" interp="linr"  time="-9999999/1" value="0" leadInLength="0/1"  />
              </VectorParam>
              <InterpolatingParam id="514" interp="linr"  time="-9999999/1" value="1" leadInLength="0/1"  name="opacity"/>
              <InterpolatingParam id="515" interp="linr"  time="0/1" value="0" leadInLength="0/1"  name="cursorOpacity"/>
              <InterpolatingParam id="516" interp="linr"  time="0/1" value="0" leadInLength="0/1"  name="cursorScale"/>
             </Parameters>
             <Attributes>
              <Attribute id="517" value="" name="ident"/>
             </Attributes>
             <ExtraData>
              <Entry key="ZoomPanBin">
               <ZoomPanBin id="518"  >
                <ZoomPanKeyframes>
                 <ZoomPanKeyframe id="519" timeRangeEnd="-9999999/1" timeRangeDuration="0/1" interpolaterName=""  />
                </ZoomPanKeyframes>
               </ZoomPanBin>
              </Entry>
              <Entry key="CursorEffectBin">
               <CursorEffectBin id="520"  >
                <CursorEffectKeyframes>
                </CursorEffectKeyframes>
               </CursorEffectBin>
              </Entry>
             </ExtraData>
            </ScreenVMFile>
            <MetaData>
             <entry key="AutoAppliedSmartFocus" val="False"/>
             <entry key="WinSubProjectDisplayName" val=""/>
            </MetaData>
           </UnifiedMedia>
           <UnifiedMedia id="521"  >
            <AMFile id="522" start="3668" duration="753" scalar="1/1" mediaStart="4280/1" mediaDuration="753/1" trackNumber="1" src="4" channelNumber="0" >
             <Parameters>
              <InterpolatingParam id="523" interp="linr"  time="0/1" value="1" leadInLength="0/1"  name="volume"/>
              <Parameter id="524"  name="captions"/>
             </Parameters>
             <Attributes>
              <Attribute id="525" value="" name="ident"/>
              <Attribute id="526" value="22050" name="sampleRate"/>
              <Attribute id="527" value="16" name="bitDepth"/>
              <Attribute id="528" value="1" name="gain"/>
             </Attributes>
            </AMFile>
            <ScreenVMFile id="529" start="3668" duration="753" scalar="1/1" mediaStart="4280/1" mediaDuration="753/1" trackNumber="0" src="4" >
             <Transformer>
              <VectorParam id="530"  name="translation">
               <InterpolatingParam id="531" interp="linr"  time="-9999999/1" value="0" leadInLength="0/1"  />
               <InterpolatingParam id="532" interp="linr"  time="-9999999/1" value="0" leadInLength="0/1"  />
               <InterpolatingParam id="533" interp="linr"  time="-9999999/1" value="0" leadInLength="0/1"  />
              </VectorParam>
              <VectorParam id="534"  name="rotation">
               <InterpolatingParam id="535" interp="linr"  time="-9999999/1" value="0" leadInLength="0/1"  />
               <InterpolatingParam id="536" interp="linr"  time="-9999999/1" value="0" leadInLength="0/1"  />
               <InterpolatingParam id="537" interp="linr"  time="-9999999/1" value="0" leadInLength="0/1"  />
              </VectorParam>
              <VectorParam id="538"  name="shear">
               <InterpolatingParam id="539" interp="linr"  time="-9999999/1" value="0" leadInLength="0/1"  />
               <InterpolatingParam id="540" interp="linr"  time="-9999999/1" value="0" leadInLength="0/1"  />
               <InterpolatingParam id="541" interp="linr"  time="-9999999/1" value="0" leadInLength="0/1"  />
              </VectorParam>
              <VectorParam id="542"  name="scale">
               <InterpolatingParam id="543" interp="linr"  time="-9999999/1" value="1" leadInLength="0/1"  />
               <InterpolatingParam id="544" interp="linr"  time="-9999999/1" value="1" leadInLength="0/1"  />
               <InterpolatingParam id="545" interp="linr"  time="-9999999/1" value="1" leadInLength="0/1"  />
              </VectorParam>
              <VectorParam id="546"  name="anchor">
               <InterpolatingParam id="547" interp="linr"  time="0/1" value="0" leadInLength="0/1"  />
               <InterpolatingParam id="548" interp="linr"  time="0/1" value="0" leadInLength="0/1"  />
               <InterpolatingParam id="549" interp="linr"  time="0/1" value="0" leadInLength="0/1"  />
              </VectorParam>
             </Transformer>
             <Parameters>
              <VectorParam id="550"  name="sourceCrop">
               <InterpolatingParam id="551" interp="linr"  time="0/1" value="0" leadInLength="0/1"  />
               <InterpolatingParam id="552" interp="linr"  time="0/1" value="0" leadInLength="0/1"  />
               <InterpolatingParam id="553" interp="linr"  time="0/1" value="0" leadInLength="0/1"  />
               <InterpolatingParam id="554" interp="linr"  time="0/1" value="0" leadInLength="0/1"  />
              </VectorParam>
              <VectorParam id="555"  name="geometryCrop">
               <InterpolatingParam id="556" interp="linr"  time="-9999999/1" value="0" leadInLength="0/1"  />
               <InterpolatingParam id="557" interp="linr"  time="-9999999/1" value="0" leadInLength="0/1"  />
               <InterpolatingParam id="558" interp="linr"  time="-9999999/1" value="0" leadInLength="0/1"  />
               <InterpolatingParam id="559" interp="linr"  time="-9999999/1" value="0" leadInLength="0/1"  />
              </VectorParam>
              <InterpolatingParam id="560" interp="linr"  time="-9999999/1" value="1" leadInLength="0/1"  name="opacity"/>
              <InterpolatingParam id="561" interp="linr"  time="0/1" value="0" leadInLength="0/1"  name="cursorOpacity"/>
              <InterpolatingParam id="562" interp="linr"  time="0/1" value="0" leadInLength="0/1"  name="cursorScale"/>
             </Parameters>
             <Attributes>
              <Attribute id="563" value="" name="ident"/>
             </Attributes>
             <ExtraData>
              <Entry key="ZoomPanBin">
               <ZoomPanBin id="564"  >
                <ZoomPanKeyframes>
                 <ZoomPanKeyframe id="565" timeRangeEnd="-9999999/1" timeRangeDuration="0/1" interpolaterName=""  />
                </ZoomPanKeyframes>
               </ZoomPanBin>
              </Entry>
              <Entry key="CursorEffectBin">
               <CursorEffectBin id="566"  >
                <CursorEffectKeyframes>
                </CursorEffectKeyframes>
               </CursorEffectBin>
              </Entry>
             </ExtraData>
            </ScreenVMFile>
            <MetaData>
             <entry key="AutoAppliedSmartFocus" val="False"/>
             <entry key="WinSubProjectDisplayName" val=""/>
            </MetaData>
           </UnifiedMedia>
           <UnifiedMedia id="567"  >
            <AMFile id="568" start="4421" duration="2760" scalar="1/1" mediaStart="7336/1" mediaDuration="2760/1" trackNumber="1" src="4" channelNumber="0" >
             <Parameters>
              <InterpolatingParam id="569" interp="linr"  time="0/1" value="1" leadInLength="0/1"  name="volume"/>
              <Parameter id="570"  name="captions"/>
             </Parameters>
             <Attributes>
              <Attribute id="571" value="" name="ident"/>
              <Attribute id="572" value="22050" name="sampleRate"/>
              <Attribute id="573" value="16" name="bitDepth"/>
              <Attribute id="574" value="1" name="gain"/>
             </Attributes>
            </AMFile>
            <ScreenVMFile id="575" start="4421" duration="2760" scalar="1/1" mediaStart="7336/1" mediaDuration="2760/1" trackNumber="0" src="4" >
             <Transformer>
              <VectorParam id="576"  name="translation">
               <InterpolatingParam id="577" interp="linr"  time="-9999999/1" value="0" leadInLength="0/1"  />
               <InterpolatingParam id="578" interp="linr"  time="-9999999/1" value="0" leadInLength="0/1"  />
               <InterpolatingParam id="579" interp="linr"  time="-9999999/1" value="0" leadInLength="0/1"  />
              </VectorParam>
              <VectorParam id="580"  name="rotation">
               <InterpolatingParam id="581" interp="linr"  time="-9999999/1" value="0" leadInLength="0/1"  />
               <InterpolatingParam id="582" interp="linr"  time="-9999999/1" value="0" leadInLength="0/1"  />
               <InterpolatingParam id="583" interp="linr"  time="-9999999/1" value="0" leadInLength="0/1"  />
              </VectorParam>
              <VectorParam id="584"  name="shear">
               <InterpolatingParam id="585" interp="linr"  time="-9999999/1" value="0" leadInLength="0/1"  />
               <InterpolatingParam id="586" interp="linr"  time="-9999999/1" value="0" leadInLength="0/1"  />
               <InterpolatingParam id="587" interp="linr"  time="-9999999/1" value="0" leadInLength="0/1"  />
              </VectorParam>
              <VectorParam id="588"  name="scale">
               <InterpolatingParam id="589" interp="linr"  time="-9999999/1" value="1" leadInLength="0/1"  />
               <InterpolatingParam id="590" interp="linr"  time="-9999999/1" value="1" leadInLength="0/1"  />
               <InterpolatingParam id="591" interp="linr"  time="-9999999/1" value="1" leadInLength="0/1"  />
              </VectorParam>
              <VectorParam id="592"  name="anchor">
               <InterpolatingParam id="593" interp="linr"  time="0/1" value="0" leadInLength="0/1"  />
               <InterpolatingParam id="594" interp="linr"  time="0/1" value="0" leadInLength="0/1"  />
               <InterpolatingParam id="595" interp="linr"  time="0/1" value="0" leadInLength="0/1"  />
              </VectorParam>
             </Transformer>
             <Parameters>
              <VectorParam id="596"  name="sourceCrop">
               <InterpolatingParam id="597" interp="linr"  time="0/1" value="0" leadInLength="0/1"  />
               <InterpolatingParam id="598" interp="linr"  time="0/1" value="0" leadInLength="0/1"  />
               <InterpolatingParam id="599" interp="linr"  time="0/1" value="0" leadInLength="0/1"  />
               <InterpolatingParam id="600" interp="linr"  time="0/1" value="0" leadInLength="0/1"  />
              </VectorParam>
              <VectorParam id="601"  name="geometryCrop">
               <InterpolatingParam id="602" interp="linr"  time="-9999999/1" value="0" leadInLength="0/1"  />
               <InterpolatingParam id="603" interp="linr"  time="-9999999/1" value="0" leadInLength="0/1"  />
               <InterpolatingParam id="604" interp="linr"  time="-9999999/1" value="0" leadInLength="0/1"  />
               <InterpolatingParam id="605" interp="linr"  time="-9999999/1" value="0" leadInLength="0/1"  />
              </VectorParam>
              <InterpolatingParam id="606" interp="linr"  time="-9999999/1" value="1" leadInLength="0/1"  name="opacity"/>
              <InterpolatingParam id="607" interp="linr"  time="0/1" value="0" leadInLength="0/1"  name="cursorOpacity"/>
              <InterpolatingParam id="608" interp="linr"  time="0/1" value="0" leadInLength="0/1"  name="cursorScale"/>
             </Parameters>
             <Attributes>
              <Attribute id="609" value="" name="ident"/>
             </Attributes>
             <ExtraData>
              <Entry key="ZoomPanBin">
               <ZoomPanBin id="610"  >
                <ZoomPanKeyframes>
                 <ZoomPanKeyframe id="611" timeRangeEnd="-9999999/1" timeRangeDuration="0/1" interpolaterName=""  />
                </ZoomPanKeyframes>
               </ZoomPanBin>
              </Entry>
              <Entry key="CursorEffectBin">
               <CursorEffectBin id="612"  >
                <CursorEffectKeyframes>
                </CursorEffectKeyframes>
               </CursorEffectBin>
              </Entry>
             </ExtraData>
            </ScreenVMFile>
            <MetaData>
             <entry key="AutoAppliedSmartFocus" val="False"/>
             <entry key="WinSubProjectDisplayName" val=""/>
            </MetaData>
           </UnifiedMedia>
           <UnifiedMedia id="613"  >
            <AMFile id="614" start="7181" duration="3563" scalar="1/1" mediaStart="12996/1" mediaDuration="3563/1" trackNumber="1" src="4" channelNumber="0" >
             <Parameters>
              <InterpolatingParam id="615" interp="linr"  time="0/1" value="1" leadInLength="0/1"  name="volume"/>
              <Parameter id="616"  name="captions"/>
             </Parameters>
             <Attributes>
              <Attribute id="617" value="" name="ident"/>
              <Attribute id="618" value="22050" name="sampleRate"/>
              <Attribute id="619" value="16" name="bitDepth"/>
              <Attribute id="620" value="1" name="gain"/>
             </Attributes>
            </AMFile>
            <ScreenVMFile id="621" start="7181" duration="3563" scalar="1/1" mediaStart="12996/1" mediaDuration="3563/1" trackNumber="0" src="4" >
             <Transformer>
              <VectorParam id="622"  name="translation">
               <InterpolatingParam id="623" interp="linr"  time="-9999999/1" value="0" leadInLength="0/1"  />
               <InterpolatingParam id="624" interp="linr"  time="-9999999/1" value="0" leadInLength="0/1"  />
               <InterpolatingParam id="625" interp="linr"  time="-9999999/1" value="0" leadInLength="0/1"  />
              </VectorParam>
              <VectorParam id="626"  name="rotation">
               <InterpolatingParam id="627" interp="linr"  time="-9999999/1" value="0" leadInLength="0/1"  />
               <InterpolatingParam id="628" interp="linr"  time="-9999999/1" value="0" leadInLength="0/1"  />
               <InterpolatingParam id="629" interp="linr"  time="-9999999/1" value="0" leadInLength="0/1"  />
              </VectorParam>
              <VectorParam id="630"  name="shear">
               <InterpolatingParam id="631" interp="linr"  time="-9999999/1" value="0" leadInLength="0/1"  />
               <InterpolatingParam id="632" interp="linr"  time="-9999999/1" value="0" leadInLength="0/1"  />
               <InterpolatingParam id="633" interp="linr"  time="-9999999/1" value="0" leadInLength="0/1"  />
              </VectorParam>
              <VectorParam id="634"  name="scale">
               <InterpolatingParam id="635" interp="linr"  time="-9999999/1" value="1" leadInLength="0/1"  />
               <InterpolatingParam id="636" interp="linr"  time="-9999999/1" value="1" leadInLength="0/1"  />
               <InterpolatingParam id="637" interp="linr"  time="-9999999/1" value="1" leadInLength="0/1"  />
              </VectorParam>
              <VectorParam id="638"  name="anchor">
               <InterpolatingParam id="639" interp="linr"  time="0/1" value="0" leadInLength="0/1"  />
               <InterpolatingParam id="640" interp="linr"  time="0/1" value="0" leadInLength="0/1"  />
               <InterpolatingParam id="641" interp="linr"  time="0/1" value="0" leadInLength="0/1"  />
              </VectorParam>
             </Transformer>
             <Parameters>
              <VectorParam id="642"  name="sourceCrop">
               <InterpolatingParam id="643" interp="linr"  time="0/1" value="0" leadInLength="0/1"  />
               <InterpolatingParam id="644" interp="linr"  time="0/1" value="0" leadInLength="0/1"  />
               <InterpolatingParam id="645" interp="linr"  time="0/1" value="0" leadInLength="0/1"  />
               <InterpolatingParam id="646" interp="linr"  time="0/1" value="0" leadInLength="0/1"  />
              </VectorParam>
              <VectorParam id="647"  name="geometryCrop">
               <InterpolatingParam id="648" interp="linr"  time="-9999999/1" value="0" leadInLength="0/1"  />
               <InterpolatingParam id="649" interp="linr"  time="-9999999/1" value="0" leadInLength="0/1"  />
               <InterpolatingParam id="650" interp="linr"  time="-9999999/1" value="0" leadInLength="0/1"  />
               <InterpolatingParam id="651" interp="linr"  time="-9999999/1" value="0" leadInLength="0/1"  />
              </VectorParam>
              <InterpolatingParam id="652" interp="linr"  time="-9999999/1" value="1" leadInLength="0/1"  name="opacity"/>
              <InterpolatingParam id="653" interp="linr"  time="0/1" value="0" leadInLength="0/1"  name="cursorOpacity"/>
              <InterpolatingParam id="654" interp="linr"  time="0/1" value="0" leadInLength="0/1"  name="cursorScale"/>
             </Parameters>
             <Attributes>
              <Attribute id="655" value="" name="ident"/>
             </Attributes>
             <ExtraData>
              <Entry key="ZoomPanBin">
               <ZoomPanBin id="656"  >
                <ZoomPanKeyframes>
                 <ZoomPanKeyframe id="657" timeRangeEnd="-9999999/1" timeRangeDuration="0/1" interpolaterName=""  />
                </ZoomPanKeyframes>
               </ZoomPanBin>
              </Entry>
              <Entry key="CursorEffectBin">
               <CursorEffectBin id="658"  >
                <CursorEffectKeyframes>
                </CursorEffectKeyframes>
               </CursorEffectBin>
              </Entry>
             </ExtraData>
            </ScreenVMFile>
            <MetaData>
             <entry key="AutoAppliedSmartFocus" val="False"/>
             <entry key="WinSubProjectDisplayName" val=""/>
            </MetaData>
           </UnifiedMedia>
          </Medias>
         </GenericTrack>
        </StitchedMedia>
       </Medias>
      </GenericTrack>
      <GenericTrack id="659"  >
       <Attributes>
        <Attribute id="660" value="" name="ident"/>
       </Attributes>
       <MetaData>
        <entry key="IsLocked" val="False"/>
        <entry key="WinTrackHeight" val="62"/>
       </MetaData>
       <Medias>
        <AMFile id="661" start="0" duration="843" scalar="1/1" mediaStart="0/1" mediaDuration="843/1" trackNumber="0" src="5" channelNumber="0" >
         <Parameters>
          <InterpolatingParam id="662" interp="linr"  time="0/1" value="1.6820276497695852" leadInLength="0/1"  name="volume"/>
          <Parameter id="663"  name="captions"/>
         </Parameters>
         <Attributes>
          <Attribute id="664" value="" name="ident"/>
          <Attribute id="665" value="22050" name="sampleRate"/>
          <Attribute id="666" value="16" name="bitDepth"/>
          <Attribute id="667" value="1" name="gain"/>
         </Attributes>
         <MetaData>
          <entry key="WinSubProjectDisplayName" val=""/>
         </MetaData>
        </AMFile>
        <AMFile id="668" start="909" duration="930" scalar="1/1" mediaStart="0/1" mediaDuration="930/1" trackNumber="0" src="6" channelNumber="0" >
         <Parameters>
          <InterpolatingParam id="669" interp="linr"  time="0/1" value="1.6820276497695852" leadInLength="0/1"  name="volume"/>
          <Parameter id="670"  name="captions"/>
         </Parameters>
         <Attributes>
          <Attribute id="671" value="" name="ident"/>
          <Attribute id="672" value="22050" name="sampleRate"/>
          <Attribute id="673" value="16" name="bitDepth"/>
          <Attribute id="674" value="1" name="gain"/>
         </Attributes>
         <MetaData>
          <entry key="WinSubProjectDisplayName" val=""/>
         </MetaData>
        </AMFile>
        <AMFile id="675" start="1839" duration="183" scalar="1/1" mediaStart="0/1" mediaDuration="183/1" trackNumber="0" src="7" channelNumber="0" >
         <Parameters>
          <InterpolatingParam id="676" interp="linr"  time="0/1" value="1.6820276497695852" leadInLength="0/1"  name="volume"/>
          <Parameter id="677"  name="captions"/>
         </Parameters>
         <Attributes>
          <Attribute id="678" value="" name="ident"/>
          <Attribute id="679" value="22050" name="sampleRate"/>
          <Attribute id="680" value="16" name="bitDepth"/>
          <Attribute id="681" value="1" name="gain"/>
         </Attributes>
         <MetaData>
          <entry key="WinSubProjectDisplayName" val=""/>
         </MetaData>
        </AMFile>
        <AMFile id="682" start="2122" duration="636" scalar="1/1" mediaStart="0/1" mediaDuration="636/1" trackNumber="0" src="8" channelNumber="0" >
         <Parameters>
          <InterpolatingParam id="683" interp="linr"  time="0/1" value="1.6820276497695852" leadInLength="0/1"  name="volume"/>
          <Parameter id="684"  name="captions"/>
         </Parameters>
         <Attributes>
          <Attribute id="685" value="" name="ident"/>
          <Attribute id="686" value="22050" name="sampleRate"/>
          <Attribute id="687" value="16" name="bitDepth"/>
          <Attribute id="688" value="1" name="gain"/>
         </Attributes>
         <MetaData>
          <entry key="WinSubProjectDisplayName" val=""/>
         </MetaData>
        </AMFile>
        <AMFile id="689" start="2758" duration="252" scalar="1/1" mediaStart="0/1" mediaDuration="252/1" trackNumber="0" src="9" channelNumber="0" >
         <Parameters>
          <InterpolatingParam id="690" interp="linr"  time="0/1" value="1.8663594470046081" leadInLength="0/1"  name="volume"/>
          <Parameter id="691"  name="captions"/>
         </Parameters>
         <Attributes>
          <Attribute id="692" value="" name="ident"/>
          <Attribute id="693" value="22050" name="sampleRate"/>
          <Attribute id="694" value="16" name="bitDepth"/>
          <Attribute id="695" value="1" name="gain"/>
         </Attributes>
         <MetaData>
          <entry key="WinSubProjectDisplayName" val=""/>
         </MetaData>
        </AMFile>
        <AMFile id="696" start="3010" duration="427" scalar="1/1" mediaStart="0/1" mediaDuration="427/1" trackNumber="0" src="10" channelNumber="0" >
         <Parameters>
          <InterpolatingParam id="697" interp="linr"  time="0/1" value="1.6820276497695852" leadInLength="0/1"  name="volume"/>
          <Parameter id="698"  name="captions"/>
         </Parameters>
         <Attributes>
          <Attribute id="699" value="" name="ident"/>
          <Attribute id="700" value="22050" name="sampleRate"/>
          <Attribute id="701" value="16" name="bitDepth"/>
          <Attribute id="702" value="1" name="gain"/>
         </Attributes>
         <MetaData>
          <entry key="WinSubProjectDisplayName" val=""/>
         </MetaData>
        </AMFile>
        <StitchedMedia id="703" start="3477" duration="783" scalar="1/1" mediaStart="0/1" mediaDuration="783/1" minMediaStart="0/1" >
         <Transformer>
          <VectorParam id="704"  name="translation">
           <InterpolatingParam id="705" interp="linr"  time="0/1" value="0" leadInLength="0/1"  />
           <InterpolatingParam id="706" interp="linr"  time="0/1" value="0" leadInLength="0/1"  />
           <InterpolatingParam id="707" interp="linr"  time="0/1" value="0" leadInLength="0/1"  />
          </VectorParam>
          <VectorParam id="708"  name="rotation">
           <InterpolatingParam id="709" interp="linr"  time="0/1" value="0" leadInLength="0/1"  />
           <InterpolatingParam id="710" interp="linr"  time="0/1" value="0" leadInLength="0/1"  />
           <InterpolatingParam id="711" interp="linr"  time="0/1" value="0" leadInLength="0/1"  />
          </VectorParam>
          <VectorParam id="712"  name="shear">
           <InterpolatingParam id="713" interp="linr"  time="0/1" value="0" leadInLength="0/1"  />
           <InterpolatingParam id="714" interp="linr"  time="0/1" value="0" leadInLength="0/1"  />
           <InterpolatingParam id="715" interp="linr"  time="0/1" value="0" leadInLength="0/1"  />
          </VectorParam>
          <VectorParam id="716"  name="scale">
           <InterpolatingParam id="717" interp="linr"  time="0/1" value="1" leadInLength="0/1"  />
           <InterpolatingParam id="718" interp="linr"  time="0/1" value="1" leadInLength="0/1"  />
           <InterpolatingParam id="719" interp="linr"  time="0/1" value="1" leadInLength="0/1"  />
          </VectorParam>
          <VectorParam id="720"  name="anchor">
           <InterpolatingParam id="721" interp="linr"  time="0/1" value="0" leadInLength="0/1"  />
           <InterpolatingParam id="722" interp="linr"  time="0/1" value="0" leadInLength="0/1"  />
           <InterpolatingParam id="723" interp="linr"  time="0/1" value="0" leadInLength="0/1"  />
          </VectorParam>
         </Transformer>
         <Parameters>
          <InterpolatingParam id="724" interp="linr"  time="0/1" value="1" leadInLength="0/1"  name="cursorOpacity"/>
          <InterpolatingParam id="725" interp="linr"  time="0/1" value="1" leadInLength="0/1"  name="cursorScale"/>
          <InterpolatingParam id="726" interp="linr"  time="0/1" value="1.8663594470046081" leadInLength="0/1"  name="volume"/>
          <Parameter id="727"  name="captions"/>
         </Parameters>
         <Attributes>
          <Attribute id="728" value="" name="ident"/>
         </Attributes>
         <MetaData>
          <entry key="WinSubProjectDisplayName" val=""/>
         </MetaData>
         <ExtraData>
          <Entry key="ZoomPanBin">
           <ZoomPanBin id="729"  >
            <ZoomPanKeyframes>
            </ZoomPanKeyframes>
           </ZoomPanBin>
          </Entry>
          <Entry key="CursorEffectBin">
           <CursorEffectBin id="730"  >
            <CursorEffectKeyframes>
            </CursorEffectKeyframes>
           </CursorEffectBin>
          </Entry>
         </ExtraData>
         <GenericTrack id="731"  >
          <Attributes>
           <Attribute id="732" value="" name="ident"/>
          </Attributes>
          <MetaData>
           <entry key="IsLocked" val="False"/>
           <entry key="WinTrackHeight" val="0"/>
          </MetaData>
          <Medias>
           <AMFile id="733" start="0" duration="179" scalar="1/1" mediaStart="0/1" mediaDuration="179/1" trackNumber="0" src="11" channelNumber="0" >
            <Parameters>
             <InterpolatingParam id="734" interp="linr"  time="0/1" value="1" leadInLength="0/1"  name="volume"/>
             <Parameter id="735"  name="captions"/>
            </Parameters>
            <Attributes>
             <Attribute id="736" value="" name="ident"/>
             <Attribute id="737" value="22050" name="sampleRate"/>
             <Attribute id="738" value="16" name="bitDepth"/>
             <Attribute id="739" value="1" name="gain"/>
            </Attributes>
            <MetaData>
             <entry key="WinSubProjectDisplayName" val=""/>
            </MetaData>
           </AMFile>
           <AMFile id="740" start="179" duration="604" scalar="1/1" mediaStart="329/1" mediaDuration="604/1" trackNumber="0" src="11" channelNumber="0" >
            <Parameters>
             <InterpolatingParam id="741" interp="linr"  time="0/1" value="1" leadInLength="0/1"  name="volume"/>
             <Parameter id="742"  name="captions"/>
            </Parameters>
            <Attributes>
             <Attribute id="743" value="" name="ident"/>
             <Attribute id="744" value="22050" name="sampleRate"/>
             <Attribute id="745" value="16" name="bitDepth"/>
             <Attribute id="746" value="1" name="gain"/>
            </Attributes>
            <MetaData>
             <entry key="WinSubProjectDisplayName" val=""/>
            </MetaData>
           </AMFile>
          </Medias>
         </GenericTrack>
        </StitchedMedia>
        <AMFile id="747" start="4342" duration="506" scalar="1/1" mediaStart="0/1" mediaDuration="506/1" trackNumber="0" src="12" channelNumber="0" >
         <Parameters>
          <InterpolatingParam id="748" interp="linr"  time="0/1" value="1.8663594470046081" leadInLength="0/1"  name="volume"/>
          <Parameter id="749"  name="captions"/>
         </Parameters>
         <Attributes>
          <Attribute id="750" value="" name="ident"/>
          <Attribute id="751" value="22050" name="sampleRate"/>
          <Attribute id="752" value="16" name="bitDepth"/>
          <Attribute id="753" value="1" name="gain"/>
         </Attributes>
         <MetaData>
          <entry key="WinSubProjectDisplayName" val=""/>
         </MetaData>
        </AMFile>
        <AMFile id="754" start="4885" duration="505" scalar="1/1" mediaStart="0/1" mediaDuration="505/1" trackNumber="0" src="13" channelNumber="0" >
         <Parameters>
          <InterpolatingParam id="755" interp="linr"  time="0/1" value="1.8663594470046081" leadInLength="0/1"  name="volume"/>
          <Parameter id="756"  name="captions"/>
         </Parameters>
         <Attributes>
          <Attribute id="757" value="" name="ident"/>
          <Attribute id="758" value="22050" name="sampleRate"/>
          <Attribute id="759" value="16" name="bitDepth"/>
          <Attribute id="760" value="1" name="gain"/>
         </Attributes>
         <MetaData>
          <entry key="WinSubProjectDisplayName" val=""/>
         </MetaData>
        </AMFile>
        <AMFile id="761" start="5390" duration="723" scalar="1/1" mediaStart="0/1" mediaDuration="723/1" trackNumber="0" src="14" channelNumber="0" >
         <Parameters>
          <InterpolatingParam id="762" interp="linr"  time="0/1" value="1.6820276497695852" leadInLength="0/1"  name="volume"/>
          <Parameter id="763"  name="captions"/>
         </Parameters>
         <Attributes>
          <Attribute id="764" value="" name="ident"/>
          <Attribute id="765" value="22050" name="sampleRate"/>
          <Attribute id="766" value="16" name="bitDepth"/>
          <Attribute id="767" value="1" name="gain"/>
         </Attributes>
         <MetaData>
          <entry key="WinSubProjectDisplayName" val=""/>
         </MetaData>
        </AMFile>
        <AMFile id="768" start="6113" duration="1068" scalar="1/1" mediaStart="0/1" mediaDuration="1068/1" trackNumber="0" src="15" channelNumber="0" >
         <Parameters>
          <InterpolatingParam id="769" interp="linr"  time="0/1" value="1.6820276497695852" leadInLength="0/1"  name="volume"/>
          <Parameter id="770"  name="captions"/>
         </Parameters>
         <Attributes>
          <Attribute id="771" value="" name="ident"/>
          <Attribute id="772" value="22050" name="sampleRate"/>
          <Attribute id="773" value="16" name="bitDepth"/>
          <Attribute id="774" value="1" name="gain"/>
         </Attributes>
         <MetaData>
          <entry key="WinSubProjectDisplayName" val=""/>
         </MetaData>
        </AMFile>
        <AMFile id="775" start="7181" duration="786" scalar="1/1" mediaStart="0/1" mediaDuration="786/1" trackNumber="0" src="16" channelNumber="0" >
         <Parameters>
          <InterpolatingParam id="776" interp="linr"  time="0/1" value="1.6820276497695852" leadInLength="0/1"  name="volume"/>
          <Parameter id="777"  name="captions"/>
         </Parameters>
         <Attributes>
          <Attribute id="778" value="" name="ident"/>
          <Attribute id="779" value="22050" name="sampleRate"/>
          <Attribute id="780" value="16" name="bitDepth"/>
          <Attribute id="781" value="1" name="gain"/>
         </Attributes>
         <MetaData>
          <entry key="WinSubProjectDisplayName" val=""/>
         </MetaData>
        </AMFile>
        <AMFile id="782" start="7967" duration="686" scalar="1/1" mediaStart="0/1" mediaDuration="686/1" trackNumber="0" src="17" channelNumber="0" >
         <Parameters>
          <InterpolatingParam id="783" interp="linr"  time="0/1" value="1.6820276497695852" leadInLength="0/1"  name="volume"/>
          <Parameter id="784"  name="captions"/>
         </Parameters>
         <Attributes>
          <Attribute id="785" value="" name="ident"/>
          <Attribute id="786" value="22050" name="sampleRate"/>
          <Attribute id="787" value="16" name="bitDepth"/>
          <Attribute id="788" value="1" name="gain"/>
         </Attributes>
         <MetaData>
          <entry key="WinSubProjectDisplayName" val=""/>
         </MetaData>
        </AMFile>
        <AMFile id="789" start="8653" duration="141" scalar="1/1" mediaStart="0/1" mediaDuration="141/1" trackNumber="0" src="18" channelNumber="0" >
         <Parameters>
          <InterpolatingParam id="790" interp="linr"  time="0/1" value="2.0506912442396312" leadInLength="0/1"  name="volume"/>
          <Parameter id="791"  name="captions"/>
         </Parameters>
         <Attributes>
          <Attribute id="792" value="" name="ident"/>
          <Attribute id="793" value="22050" name="sampleRate"/>
          <Attribute id="794" value="16" name="bitDepth"/>
          <Attribute id="795" value="1" name="gain"/>
         </Attributes>
         <MetaData>
          <entry key="WinSubProjectDisplayName" val=""/>
         </MetaData>
        </AMFile>
        <AMFile id="796" start="8945" duration="783" scalar="1/1" mediaStart="0/1" mediaDuration="783/1" trackNumber="0" src="19" channelNumber="0" >
         <Parameters>
          <InterpolatingParam id="797" interp="linr"  time="0/1" value="1.8663594470046081" leadInLength="0/1"  name="volume"/>
          <Parameter id="798"  name="captions"/>
         </Parameters>
         <Attributes>
          <Attribute id="799" value="" name="ident"/>
          <Attribute id="800" value="22050" name="sampleRate"/>
          <Attribute id="801" value="16" name="bitDepth"/>
          <Attribute id="802" value="1" name="gain"/>
         </Attributes>
         <MetaData>
          <entry key="WinSubProjectDisplayName" val=""/>
         </MetaData>
        </AMFile>
        <AMFile id="803" start="9767" duration="776" scalar="1/1" mediaStart="0/1" mediaDuration="776/1" trackNumber="0" src="20" channelNumber="0" >
         <Parameters>
          <InterpolatingParam id="804" interp="linr"  time="0/1" value="1.8663594470046081" leadInLength="0/1"  name="volume"/>
          <Parameter id="805"  name="captions"/>
         </Parameters>
         <Attributes>
          <Attribute id="806" value="" name="ident"/>
          <Attribute id="807" value="22050" name="sampleRate"/>
          <Attribute id="808" value="16" name="bitDepth"/>
          <Attribute id="809" value="1" name="gain"/>
         </Attributes>
         <MetaData>
          <entry key="WinSubProjectDisplayName" val=""/>
         </MetaData>
        </AMFile>
       </Medias>
      </GenericTrack>
      <GenericTrack id="810"  >
       <Attributes>
        <Attribute id="811" value="" name="ident"/>
       </Attributes>
       <MetaData>
        <entry key="IsLocked" val="False"/>
        <entry key="WinTrackHeight" val="62"/>
       </MetaData>
       <Medias>
       </Medias>
      </GenericTrack>
     </Tracks>
    </GenericMixer>
   <CaptionAttributes id="812"  >
    <Attribute id="813" value="1" name="captionsEnabled"/>
    <Attribute id="814" value="Arial" name="captionsFontName"/>
    <Attribute id="815" value="28" name="captionsFontSize"/>
    <Attribute id="816" value="(0,0,0,255)" name="captionsBackgroundColor"/>
    <Attribute id="817" value="(255,255,255,255)" name="captionsForegroundColor"/>
    <Attribute id="818" value="en" name="lang"/>
    <Attribute id="819" value="0" name="captionsAlignment"/>
    <Attribute id="820" value="1" name="captionsDefaultFontSize"/>
    <Attribute id="821" value="0.5" name="captionsOpacity"/>
    <Attribute id="822" value="1" name="captionsBackgroundEnabled"/>
    <Attribute id="823" value="1" name="captionsBackgroundOnlyAroundText"/>
   </CaptionAttributes>
   <Parameters>
    <VectorParam id="824"  name="eyePosition">
     <InterpolatingParam id="825" interp="linr"  time="0/1" value="0" leadInLength="0/1"  />
     <InterpolatingParam id="826" interp="linr"  time="0/1" value="0" leadInLength="0/1"  />
     <InterpolatingParam id="827" interp="linr"  time="0/1" value="3000" leadInLength="0/1"  />
    </VectorParam>
    <VectorParam id="828"  name="eyeLookAtPosition">
     <InterpolatingParam id="829" interp="linr"  time="0/1" value="0" leadInLength="0/1"  />
     <InterpolatingParam id="830" interp="linr"  time="0/1" value="0" leadInLength="0/1"  />
     <InterpolatingParam id="831" interp="linr"  time="0/1" value="0" leadInLength="0/1"  />
    </VectorParam>
    <VectorParam id="832"  name="eyeUpVector">
     <InterpolatingParam id="833" interp="linr"  time="0/1" value="0" leadInLength="0/1"  />
     <InterpolatingParam id="834" interp="linr"  time="0/1" value="1" leadInLength="0/1"  />
     <InterpolatingParam id="835" interp="linr"  time="0/1" value="0" leadInLength="0/1"  />
    </VectorParam>
    <InterpolatingParam id="836" interp="linr"  time="0/1" value="0.254615486" leadInLength="0/1"  name="fov"/>
    <InterpolatingParam id="837" interp="linr"  time="0/1" value="1.5" leadInLength="0/1"  name="nearClipDistance"/>
    <InterpolatingParam id="838" interp="linr"  time="0/1" value="6000" leadInLength="0/1"  name="farClipDistance"/>
   </Parameters>
  </Timeline>
 </Project>
</GoProject>
</CSMLData>

</Project_Data>
